%TF.GenerationSoftware,KiCad,Pcbnew,9.0.5*%
%TF.CreationDate,2026-02-06T18:32:07+13:00*%
%TF.ProjectId,ShroomShed_MKII_PCB,5368726f-6f6d-4536-9865-645f4d4b4949,rev?*%
%TF.SameCoordinates,Original*%
%TF.FileFunction,Legend,Top*%
%TF.FilePolarity,Positive*%
%FSLAX46Y46*%
G04 Gerber Fmt 4.6, Leading zero omitted, Abs format (unit mm)*
G04 Created by KiCad (PCBNEW 9.0.5) date 2026-02-06 18:32:07*
%MOMM*%
%LPD*%
G01*
G04 APERTURE LIST*
%ADD10C,0.500000*%
%ADD11C,0.200000*%
%ADD12C,0.300000*%
%ADD13C,0.120000*%
%ADD14C,0.152400*%
%ADD15C,0.000000*%
%ADD16C,0.127000*%
G04 APERTURE END LIST*
D10*
X125055137Y-58538761D02*
X125150375Y-58634000D01*
X125150375Y-58634000D02*
X125055137Y-58729238D01*
X125055137Y-58729238D02*
X124959899Y-58634000D01*
X124959899Y-58634000D02*
X125055137Y-58538761D01*
X125055137Y-58538761D02*
X125055137Y-58729238D01*
D11*
X179650000Y-69592742D02*
X179650000Y-68392742D01*
X179650000Y-68392742D02*
X180107143Y-68392742D01*
X180107143Y-68392742D02*
X180221428Y-68449885D01*
X180221428Y-68449885D02*
X180278571Y-68507028D01*
X180278571Y-68507028D02*
X180335714Y-68621314D01*
X180335714Y-68621314D02*
X180335714Y-68792742D01*
X180335714Y-68792742D02*
X180278571Y-68907028D01*
X180278571Y-68907028D02*
X180221428Y-68964171D01*
X180221428Y-68964171D02*
X180107143Y-69021314D01*
X180107143Y-69021314D02*
X179650000Y-69021314D01*
X180735714Y-68392742D02*
X181021428Y-69592742D01*
X181021428Y-69592742D02*
X181250000Y-68735600D01*
X181250000Y-68735600D02*
X181478571Y-69592742D01*
X181478571Y-69592742D02*
X181764286Y-68392742D01*
X182907143Y-69592742D02*
X182507143Y-69021314D01*
X182221429Y-69592742D02*
X182221429Y-68392742D01*
X182221429Y-68392742D02*
X182678572Y-68392742D01*
X182678572Y-68392742D02*
X182792857Y-68449885D01*
X182792857Y-68449885D02*
X182850000Y-68507028D01*
X182850000Y-68507028D02*
X182907143Y-68621314D01*
X182907143Y-68621314D02*
X182907143Y-68792742D01*
X182907143Y-68792742D02*
X182850000Y-68907028D01*
X182850000Y-68907028D02*
X182792857Y-68964171D01*
X182792857Y-68964171D02*
X182678572Y-69021314D01*
X182678572Y-69021314D02*
X182221429Y-69021314D01*
X125342857Y-108592742D02*
X124942857Y-108021314D01*
X124657143Y-108592742D02*
X124657143Y-107392742D01*
X124657143Y-107392742D02*
X125114286Y-107392742D01*
X125114286Y-107392742D02*
X125228571Y-107449885D01*
X125228571Y-107449885D02*
X125285714Y-107507028D01*
X125285714Y-107507028D02*
X125342857Y-107621314D01*
X125342857Y-107621314D02*
X125342857Y-107792742D01*
X125342857Y-107792742D02*
X125285714Y-107907028D01*
X125285714Y-107907028D02*
X125228571Y-107964171D01*
X125228571Y-107964171D02*
X125114286Y-108021314D01*
X125114286Y-108021314D02*
X124657143Y-108021314D01*
X125800000Y-108535600D02*
X125971429Y-108592742D01*
X125971429Y-108592742D02*
X126257143Y-108592742D01*
X126257143Y-108592742D02*
X126371429Y-108535600D01*
X126371429Y-108535600D02*
X126428571Y-108478457D01*
X126428571Y-108478457D02*
X126485714Y-108364171D01*
X126485714Y-108364171D02*
X126485714Y-108249885D01*
X126485714Y-108249885D02*
X126428571Y-108135600D01*
X126428571Y-108135600D02*
X126371429Y-108078457D01*
X126371429Y-108078457D02*
X126257143Y-108021314D01*
X126257143Y-108021314D02*
X126028571Y-107964171D01*
X126028571Y-107964171D02*
X125914286Y-107907028D01*
X125914286Y-107907028D02*
X125857143Y-107849885D01*
X125857143Y-107849885D02*
X125800000Y-107735600D01*
X125800000Y-107735600D02*
X125800000Y-107621314D01*
X125800000Y-107621314D02*
X125857143Y-107507028D01*
X125857143Y-107507028D02*
X125914286Y-107449885D01*
X125914286Y-107449885D02*
X126028571Y-107392742D01*
X126028571Y-107392742D02*
X126314286Y-107392742D01*
X126314286Y-107392742D02*
X126485714Y-107449885D01*
X126828571Y-107392742D02*
X127514286Y-107392742D01*
X127171428Y-108592742D02*
X127171428Y-107392742D01*
D12*
X140829400Y-64699999D02*
X140900828Y-64485714D01*
X140900828Y-64485714D02*
X140900828Y-64128571D01*
X140900828Y-64128571D02*
X140829400Y-63985714D01*
X140829400Y-63985714D02*
X140757971Y-63914285D01*
X140757971Y-63914285D02*
X140615114Y-63842856D01*
X140615114Y-63842856D02*
X140472257Y-63842856D01*
X140472257Y-63842856D02*
X140329400Y-63914285D01*
X140329400Y-63914285D02*
X140257971Y-63985714D01*
X140257971Y-63985714D02*
X140186542Y-64128571D01*
X140186542Y-64128571D02*
X140115114Y-64414285D01*
X140115114Y-64414285D02*
X140043685Y-64557142D01*
X140043685Y-64557142D02*
X139972257Y-64628571D01*
X139972257Y-64628571D02*
X139829400Y-64699999D01*
X139829400Y-64699999D02*
X139686542Y-64699999D01*
X139686542Y-64699999D02*
X139543685Y-64628571D01*
X139543685Y-64628571D02*
X139472257Y-64557142D01*
X139472257Y-64557142D02*
X139400828Y-64414285D01*
X139400828Y-64414285D02*
X139400828Y-64057142D01*
X139400828Y-64057142D02*
X139472257Y-63842856D01*
X140829400Y-62628571D02*
X140900828Y-62771428D01*
X140900828Y-62771428D02*
X140900828Y-63057143D01*
X140900828Y-63057143D02*
X140829400Y-63200000D01*
X140829400Y-63200000D02*
X140686542Y-63271428D01*
X140686542Y-63271428D02*
X140115114Y-63271428D01*
X140115114Y-63271428D02*
X139972257Y-63200000D01*
X139972257Y-63200000D02*
X139900828Y-63057143D01*
X139900828Y-63057143D02*
X139900828Y-62771428D01*
X139900828Y-62771428D02*
X139972257Y-62628571D01*
X139972257Y-62628571D02*
X140115114Y-62557143D01*
X140115114Y-62557143D02*
X140257971Y-62557143D01*
X140257971Y-62557143D02*
X140400828Y-63271428D01*
X139900828Y-61914286D02*
X140900828Y-61914286D01*
X140043685Y-61914286D02*
X139972257Y-61842857D01*
X139972257Y-61842857D02*
X139900828Y-61700000D01*
X139900828Y-61700000D02*
X139900828Y-61485714D01*
X139900828Y-61485714D02*
X139972257Y-61342857D01*
X139972257Y-61342857D02*
X140115114Y-61271429D01*
X140115114Y-61271429D02*
X140900828Y-61271429D01*
X140829400Y-60628571D02*
X140900828Y-60485714D01*
X140900828Y-60485714D02*
X140900828Y-60200000D01*
X140900828Y-60200000D02*
X140829400Y-60057143D01*
X140829400Y-60057143D02*
X140686542Y-59985714D01*
X140686542Y-59985714D02*
X140615114Y-59985714D01*
X140615114Y-59985714D02*
X140472257Y-60057143D01*
X140472257Y-60057143D02*
X140400828Y-60200000D01*
X140400828Y-60200000D02*
X140400828Y-60414286D01*
X140400828Y-60414286D02*
X140329400Y-60557143D01*
X140329400Y-60557143D02*
X140186542Y-60628571D01*
X140186542Y-60628571D02*
X140115114Y-60628571D01*
X140115114Y-60628571D02*
X139972257Y-60557143D01*
X139972257Y-60557143D02*
X139900828Y-60414286D01*
X139900828Y-60414286D02*
X139900828Y-60200000D01*
X139900828Y-60200000D02*
X139972257Y-60057143D01*
X140900828Y-59128571D02*
X140829400Y-59271428D01*
X140829400Y-59271428D02*
X140757971Y-59342857D01*
X140757971Y-59342857D02*
X140615114Y-59414285D01*
X140615114Y-59414285D02*
X140186542Y-59414285D01*
X140186542Y-59414285D02*
X140043685Y-59342857D01*
X140043685Y-59342857D02*
X139972257Y-59271428D01*
X139972257Y-59271428D02*
X139900828Y-59128571D01*
X139900828Y-59128571D02*
X139900828Y-58914285D01*
X139900828Y-58914285D02*
X139972257Y-58771428D01*
X139972257Y-58771428D02*
X140043685Y-58700000D01*
X140043685Y-58700000D02*
X140186542Y-58628571D01*
X140186542Y-58628571D02*
X140615114Y-58628571D01*
X140615114Y-58628571D02*
X140757971Y-58700000D01*
X140757971Y-58700000D02*
X140829400Y-58771428D01*
X140829400Y-58771428D02*
X140900828Y-58914285D01*
X140900828Y-58914285D02*
X140900828Y-59128571D01*
X140900828Y-57985714D02*
X139900828Y-57985714D01*
X140186542Y-57985714D02*
X140043685Y-57914285D01*
X140043685Y-57914285D02*
X139972257Y-57842857D01*
X139972257Y-57842857D02*
X139900828Y-57699999D01*
X139900828Y-57699999D02*
X139900828Y-57557142D01*
X153392857Y-99743055D02*
X153321429Y-99814484D01*
X153321429Y-99814484D02*
X153107143Y-99885912D01*
X153107143Y-99885912D02*
X152964286Y-99885912D01*
X152964286Y-99885912D02*
X152750000Y-99814484D01*
X152750000Y-99814484D02*
X152607143Y-99671626D01*
X152607143Y-99671626D02*
X152535714Y-99528769D01*
X152535714Y-99528769D02*
X152464286Y-99243055D01*
X152464286Y-99243055D02*
X152464286Y-99028769D01*
X152464286Y-99028769D02*
X152535714Y-98743055D01*
X152535714Y-98743055D02*
X152607143Y-98600198D01*
X152607143Y-98600198D02*
X152750000Y-98457341D01*
X152750000Y-98457341D02*
X152964286Y-98385912D01*
X152964286Y-98385912D02*
X153107143Y-98385912D01*
X153107143Y-98385912D02*
X153321429Y-98457341D01*
X153321429Y-98457341D02*
X153392857Y-98528769D01*
X154250000Y-99885912D02*
X154107143Y-99814484D01*
X154107143Y-99814484D02*
X154035714Y-99743055D01*
X154035714Y-99743055D02*
X153964286Y-99600198D01*
X153964286Y-99600198D02*
X153964286Y-99171626D01*
X153964286Y-99171626D02*
X154035714Y-99028769D01*
X154035714Y-99028769D02*
X154107143Y-98957341D01*
X154107143Y-98957341D02*
X154250000Y-98885912D01*
X154250000Y-98885912D02*
X154464286Y-98885912D01*
X154464286Y-98885912D02*
X154607143Y-98957341D01*
X154607143Y-98957341D02*
X154678572Y-99028769D01*
X154678572Y-99028769D02*
X154750000Y-99171626D01*
X154750000Y-99171626D02*
X154750000Y-99600198D01*
X154750000Y-99600198D02*
X154678572Y-99743055D01*
X154678572Y-99743055D02*
X154607143Y-99814484D01*
X154607143Y-99814484D02*
X154464286Y-99885912D01*
X154464286Y-99885912D02*
X154250000Y-99885912D01*
X155392857Y-98885912D02*
X155392857Y-99885912D01*
X155392857Y-99028769D02*
X155464286Y-98957341D01*
X155464286Y-98957341D02*
X155607143Y-98885912D01*
X155607143Y-98885912D02*
X155821429Y-98885912D01*
X155821429Y-98885912D02*
X155964286Y-98957341D01*
X155964286Y-98957341D02*
X156035715Y-99100198D01*
X156035715Y-99100198D02*
X156035715Y-99885912D01*
X156535715Y-98885912D02*
X157107143Y-98885912D01*
X156750000Y-98385912D02*
X156750000Y-99671626D01*
X156750000Y-99671626D02*
X156821429Y-99814484D01*
X156821429Y-99814484D02*
X156964286Y-99885912D01*
X156964286Y-99885912D02*
X157107143Y-99885912D01*
X157607143Y-99885912D02*
X157607143Y-98885912D01*
X157607143Y-99171626D02*
X157678572Y-99028769D01*
X157678572Y-99028769D02*
X157750001Y-98957341D01*
X157750001Y-98957341D02*
X157892858Y-98885912D01*
X157892858Y-98885912D02*
X158035715Y-98885912D01*
X158750000Y-99885912D02*
X158607143Y-99814484D01*
X158607143Y-99814484D02*
X158535714Y-99743055D01*
X158535714Y-99743055D02*
X158464286Y-99600198D01*
X158464286Y-99600198D02*
X158464286Y-99171626D01*
X158464286Y-99171626D02*
X158535714Y-99028769D01*
X158535714Y-99028769D02*
X158607143Y-98957341D01*
X158607143Y-98957341D02*
X158750000Y-98885912D01*
X158750000Y-98885912D02*
X158964286Y-98885912D01*
X158964286Y-98885912D02*
X159107143Y-98957341D01*
X159107143Y-98957341D02*
X159178572Y-99028769D01*
X159178572Y-99028769D02*
X159250000Y-99171626D01*
X159250000Y-99171626D02*
X159250000Y-99600198D01*
X159250000Y-99600198D02*
X159178572Y-99743055D01*
X159178572Y-99743055D02*
X159107143Y-99814484D01*
X159107143Y-99814484D02*
X158964286Y-99885912D01*
X158964286Y-99885912D02*
X158750000Y-99885912D01*
X160107143Y-99885912D02*
X159964286Y-99814484D01*
X159964286Y-99814484D02*
X159892857Y-99671626D01*
X159892857Y-99671626D02*
X159892857Y-98385912D01*
X160892857Y-99885912D02*
X160750000Y-99814484D01*
X160750000Y-99814484D02*
X160678571Y-99671626D01*
X160678571Y-99671626D02*
X160678571Y-98385912D01*
X162035714Y-99814484D02*
X161892857Y-99885912D01*
X161892857Y-99885912D02*
X161607143Y-99885912D01*
X161607143Y-99885912D02*
X161464285Y-99814484D01*
X161464285Y-99814484D02*
X161392857Y-99671626D01*
X161392857Y-99671626D02*
X161392857Y-99100198D01*
X161392857Y-99100198D02*
X161464285Y-98957341D01*
X161464285Y-98957341D02*
X161607143Y-98885912D01*
X161607143Y-98885912D02*
X161892857Y-98885912D01*
X161892857Y-98885912D02*
X162035714Y-98957341D01*
X162035714Y-98957341D02*
X162107143Y-99100198D01*
X162107143Y-99100198D02*
X162107143Y-99243055D01*
X162107143Y-99243055D02*
X161392857Y-99385912D01*
X162749999Y-99885912D02*
X162749999Y-98885912D01*
X162749999Y-99171626D02*
X162821428Y-99028769D01*
X162821428Y-99028769D02*
X162892857Y-98957341D01*
X162892857Y-98957341D02*
X163035714Y-98885912D01*
X163035714Y-98885912D02*
X163178571Y-98885912D01*
X155464286Y-100800828D02*
X155964286Y-102300828D01*
X155964286Y-102300828D02*
X156464286Y-100800828D01*
X156892857Y-100943685D02*
X156964285Y-100872257D01*
X156964285Y-100872257D02*
X157107143Y-100800828D01*
X157107143Y-100800828D02*
X157464285Y-100800828D01*
X157464285Y-100800828D02*
X157607143Y-100872257D01*
X157607143Y-100872257D02*
X157678571Y-100943685D01*
X157678571Y-100943685D02*
X157750000Y-101086542D01*
X157750000Y-101086542D02*
X157750000Y-101229400D01*
X157750000Y-101229400D02*
X157678571Y-101443685D01*
X157678571Y-101443685D02*
X156821428Y-102300828D01*
X156821428Y-102300828D02*
X157750000Y-102300828D01*
X158392856Y-102157971D02*
X158464285Y-102229400D01*
X158464285Y-102229400D02*
X158392856Y-102300828D01*
X158392856Y-102300828D02*
X158321428Y-102229400D01*
X158321428Y-102229400D02*
X158392856Y-102157971D01*
X158392856Y-102157971D02*
X158392856Y-102300828D01*
X159892857Y-102300828D02*
X159035714Y-102300828D01*
X159464285Y-102300828D02*
X159464285Y-100800828D01*
X159464285Y-100800828D02*
X159321428Y-101015114D01*
X159321428Y-101015114D02*
X159178571Y-101157971D01*
X159178571Y-101157971D02*
X159035714Y-101229400D01*
X189071428Y-69215114D02*
X189571428Y-69215114D01*
X189785714Y-70000828D02*
X189071428Y-70000828D01*
X189071428Y-70000828D02*
X189071428Y-68500828D01*
X189071428Y-68500828D02*
X189785714Y-68500828D01*
X191285714Y-70000828D02*
X190785714Y-69286542D01*
X190428571Y-70000828D02*
X190428571Y-68500828D01*
X190428571Y-68500828D02*
X191000000Y-68500828D01*
X191000000Y-68500828D02*
X191142857Y-68572257D01*
X191142857Y-68572257D02*
X191214286Y-68643685D01*
X191214286Y-68643685D02*
X191285714Y-68786542D01*
X191285714Y-68786542D02*
X191285714Y-69000828D01*
X191285714Y-69000828D02*
X191214286Y-69143685D01*
X191214286Y-69143685D02*
X191142857Y-69215114D01*
X191142857Y-69215114D02*
X191000000Y-69286542D01*
X191000000Y-69286542D02*
X190428571Y-69286542D01*
X191928571Y-70000828D02*
X191928571Y-68500828D01*
X191928571Y-68500828D02*
X192428571Y-69572257D01*
X192428571Y-69572257D02*
X192928571Y-68500828D01*
X192928571Y-68500828D02*
X192928571Y-70000828D01*
D13*
%TO.C,C25*%
X133140582Y-76740000D02*
X132859420Y-76740000D01*
X133140582Y-77760000D02*
X132859420Y-77760000D01*
%TO.C,D4*%
X121050000Y-118750000D02*
X121050000Y-113750000D01*
X126450000Y-113750000D02*
X126450000Y-118750000D01*
X121250000Y-119250000D02*
X120920000Y-119490000D01*
X120920000Y-119010000D01*
X121250000Y-119250000D01*
G36*
X121250000Y-119250000D02*
G01*
X120920000Y-119490000D01*
X120920000Y-119010000D01*
X121250000Y-119250000D01*
G37*
%TO.C,C22*%
X132859419Y-79239999D02*
X133140581Y-79239999D01*
X132859419Y-80259999D02*
X133140581Y-80259999D01*
%TO.C,R2*%
X136561495Y-66902261D02*
X136086979Y-66902261D01*
X136561495Y-67947261D02*
X136086979Y-67947261D01*
%TO.C,R5*%
X169027501Y-98587257D02*
X169027501Y-98112741D01*
X170072501Y-98587257D02*
X170072501Y-98112741D01*
%TO.C,C21*%
X129634419Y-96740000D02*
X129915581Y-96740000D01*
X129634419Y-97760000D02*
X129915581Y-97760000D01*
%TO.C,C12*%
X173597419Y-80191999D02*
X173878581Y-80191999D01*
X173597419Y-81211999D02*
X173878581Y-81211999D01*
%TO.C,C3*%
X124859418Y-120740001D02*
X125140580Y-120740001D01*
X124859418Y-121760001D02*
X125140580Y-121760001D01*
%TO.C,R1*%
X182237260Y-124477502D02*
X181762744Y-124477502D01*
X182237260Y-125522502D02*
X181762744Y-125522502D01*
D14*
%TO.C,SW1*%
X115469400Y-104774200D02*
X115469400Y-105171959D01*
X115469400Y-106828039D02*
X115469400Y-109171961D01*
X115469400Y-110828041D02*
X115469400Y-111225800D01*
X115469400Y-111225800D02*
X122530600Y-111225800D01*
X122530600Y-104774200D02*
X115469400Y-104774200D01*
X122530600Y-105171959D02*
X122530600Y-104774200D01*
X122530600Y-109171961D02*
X122530600Y-106828039D01*
X122530600Y-111225800D02*
X122530600Y-110828041D01*
D13*
%TO.C,J3*%
X145900000Y-70250000D02*
X145900000Y-71500000D01*
X146190000Y-70540000D02*
X146190000Y-76510000D01*
X146190000Y-76510000D02*
X163810000Y-76510000D01*
X146200000Y-70550000D02*
X146200000Y-71300000D01*
X146200000Y-71300000D02*
X147999999Y-71300000D01*
X146200000Y-72800000D02*
X146950000Y-72800000D01*
X146950000Y-72800000D02*
X146950000Y-75750000D01*
X146950000Y-75750000D02*
X155000000Y-75750000D01*
X147150000Y-70250000D02*
X145900000Y-70250000D01*
X147999999Y-71300000D02*
X148000000Y-70549999D01*
X148000000Y-70549999D02*
X146200000Y-70550000D01*
X149500000Y-70549999D02*
X149500001Y-71300000D01*
X149500001Y-71300000D02*
X160500000Y-71300000D01*
X160500000Y-70550000D02*
X149500000Y-70549999D01*
X160500000Y-71300000D02*
X160500000Y-70550000D01*
X162000000Y-70550000D02*
X162000000Y-71300000D01*
X162000000Y-71300000D02*
X163800001Y-71300000D01*
X163050000Y-72800001D02*
X163050000Y-75750000D01*
X163050000Y-75750000D02*
X155000000Y-75750000D01*
X163800000Y-70549999D02*
X162000000Y-70550000D01*
X163800000Y-72800001D02*
X163050000Y-72800001D01*
X163800001Y-71300000D02*
X163800000Y-70549999D01*
X163810000Y-70540000D02*
X146190000Y-70540000D01*
X163810000Y-76510000D02*
X163810000Y-70540000D01*
%TO.C,R7*%
X167027498Y-106037742D02*
X167027498Y-106512258D01*
X168072498Y-106037742D02*
X168072498Y-106512258D01*
%TO.C,J4*%
X141690000Y-53290000D02*
X141690000Y-65010000D01*
X141690000Y-65010000D02*
X143110000Y-65010000D01*
X143110000Y-65010000D02*
X143110000Y-60510000D01*
X144000000Y-53899999D02*
X144000000Y-59400000D01*
X144000000Y-59400000D02*
X144500000Y-59400000D01*
X144500000Y-53900000D02*
X144000000Y-53899999D01*
X144500000Y-59400000D02*
X144500000Y-53900000D01*
X146500000Y-53899999D02*
X146500000Y-59400000D01*
X146500000Y-59400000D02*
X147000000Y-59400000D01*
X147000000Y-53900000D02*
X146500000Y-53899999D01*
X147000000Y-59400000D02*
X147000000Y-53900000D01*
X148000000Y-53290000D02*
X141690000Y-53290000D01*
X148000000Y-53290000D02*
X154310000Y-53290000D01*
X149000000Y-53900000D02*
X149000000Y-59400000D01*
X149000000Y-59400000D02*
X149500000Y-59400000D01*
X149500000Y-53900000D02*
X149000000Y-53900000D01*
X149500000Y-59400000D02*
X149500000Y-53900000D01*
X151450000Y-63100000D02*
X151750000Y-62500000D01*
X151500000Y-53900000D02*
X151500000Y-59400000D01*
X151500000Y-59400000D02*
X152000000Y-59400000D01*
X151750000Y-62500000D02*
X152050000Y-63100000D01*
X152000000Y-53900000D02*
X151500000Y-53900000D01*
X152000000Y-59400000D02*
X152000000Y-53900000D01*
X152050000Y-63100000D02*
X151450000Y-63100000D01*
X152890000Y-65010000D02*
X152890000Y-60510000D01*
X154310000Y-53290000D02*
X154310000Y-65010000D01*
X154310000Y-65010000D02*
X152890000Y-65010000D01*
%TO.C,R15*%
X152227500Y-108237258D02*
X152227500Y-107762742D01*
X153272500Y-108237258D02*
X153272500Y-107762742D01*
%TO.C,R14*%
X120987258Y-102977500D02*
X120512742Y-102977500D01*
X120987258Y-104022500D02*
X120512742Y-104022500D01*
%TO.C,R21*%
X180662742Y-72277500D02*
X181137258Y-72277500D01*
X180662742Y-73322500D02*
X181137258Y-73322500D01*
%TO.C,R8*%
X166312743Y-99077498D02*
X166787259Y-99077498D01*
X166312743Y-100122498D02*
X166787259Y-100122498D01*
%TO.C,R3*%
X182237259Y-122477501D02*
X181762743Y-122477501D01*
X182237259Y-123522501D02*
X181762743Y-123522501D01*
D15*
%TO.C,G\u002A\u002A\u002A*%
G36*
X117652508Y-74453726D02*
G01*
X117669344Y-74455478D01*
X117684023Y-74458531D01*
X117696986Y-74462862D01*
X117702520Y-74465289D01*
X117720576Y-74476939D01*
X117735801Y-74493043D01*
X117747168Y-74512478D01*
X117748332Y-74515250D01*
X117755294Y-74532592D01*
X117756215Y-74690079D01*
X117757137Y-74847565D01*
X117651495Y-74847565D01*
X117545852Y-74847565D01*
X117545852Y-74740550D01*
X117545852Y-74633535D01*
X117464545Y-74635314D01*
X117443174Y-74635819D01*
X117423641Y-74636349D01*
X117406737Y-74636879D01*
X117393250Y-74637382D01*
X117383971Y-74637829D01*
X117379690Y-74638195D01*
X117379576Y-74638223D01*
X117379024Y-74639470D01*
X117378527Y-74643021D01*
X117378082Y-74649129D01*
X117377687Y-74658049D01*
X117377338Y-74670034D01*
X117377035Y-74685337D01*
X117376774Y-74704211D01*
X117376553Y-74726910D01*
X117376369Y-74753688D01*
X117376220Y-74784797D01*
X117376104Y-74820492D01*
X117376017Y-74861025D01*
X117375958Y-74906651D01*
X117375925Y-74957622D01*
X117375914Y-75014192D01*
X117375914Y-75015947D01*
X117375914Y-75392542D01*
X117270434Y-75392542D01*
X117164955Y-75392542D01*
X117164955Y-74925210D01*
X117164955Y-74457878D01*
X117270434Y-74457878D01*
X117375914Y-74457878D01*
X117375914Y-74473993D01*
X117376507Y-74484527D01*
X117378324Y-74489561D01*
X117379576Y-74490098D01*
X117383501Y-74489577D01*
X117392212Y-74488133D01*
X117404742Y-74485936D01*
X117420119Y-74483157D01*
X117437373Y-74479965D01*
X117437443Y-74479952D01*
X117481654Y-74471912D01*
X117520638Y-74465343D01*
X117554834Y-74460222D01*
X117584680Y-74456524D01*
X117610615Y-74454225D01*
X117633078Y-74453301D01*
X117652508Y-74453726D01*
G37*
G36*
X116599469Y-74216155D02*
G01*
X116599495Y-74255669D01*
X116599571Y-74293476D01*
X116599693Y-74329169D01*
X116599857Y-74362343D01*
X116600060Y-74392593D01*
X116600298Y-74419511D01*
X116600567Y-74442694D01*
X116600863Y-74461734D01*
X116601184Y-74476227D01*
X116601524Y-74485766D01*
X116601882Y-74489947D01*
X116601967Y-74490108D01*
X116605371Y-74489676D01*
X116613859Y-74488450D01*
X116626723Y-74486536D01*
X116643258Y-74484042D01*
X116662756Y-74481074D01*
X116684510Y-74477737D01*
X116697924Y-74475668D01*
X116731155Y-74470568D01*
X116759319Y-74466339D01*
X116783128Y-74462901D01*
X116803297Y-74460173D01*
X116820540Y-74458075D01*
X116835571Y-74456525D01*
X116849104Y-74455443D01*
X116861853Y-74454748D01*
X116874532Y-74454360D01*
X116887856Y-74454199D01*
X116887977Y-74454198D01*
X116905440Y-74454285D01*
X116918643Y-74454874D01*
X116929176Y-74456135D01*
X116938627Y-74458236D01*
X116945509Y-74460316D01*
X116966722Y-74470072D01*
X116983981Y-74484110D01*
X116997165Y-74502280D01*
X117006154Y-74524431D01*
X117009538Y-74539917D01*
X117010010Y-74545942D01*
X117010445Y-74557753D01*
X117010841Y-74575278D01*
X117011197Y-74598442D01*
X117011514Y-74627174D01*
X117011790Y-74661400D01*
X117012026Y-74701047D01*
X117012220Y-74746041D01*
X117012372Y-74796310D01*
X117012483Y-74851780D01*
X117012550Y-74912378D01*
X117012574Y-74975752D01*
X117012596Y-75392542D01*
X116905652Y-75392542D01*
X116798707Y-75392542D01*
X116798707Y-75012647D01*
X116798707Y-74632752D01*
X116745498Y-74634679D01*
X116723796Y-74635358D01*
X116699751Y-74635931D01*
X116675741Y-74636354D01*
X116654143Y-74636581D01*
X116645879Y-74636607D01*
X116599469Y-74636607D01*
X116599469Y-75014574D01*
X116599469Y-75392542D01*
X116492524Y-75392542D01*
X116385580Y-75392542D01*
X116385580Y-74667372D01*
X116385580Y-73942201D01*
X116492524Y-73942201D01*
X116599469Y-73942201D01*
X116599469Y-74216155D01*
G37*
G36*
X117539992Y-75953633D02*
G01*
X117540015Y-76004169D01*
X117540085Y-76049029D01*
X117540204Y-76088396D01*
X117540374Y-76122453D01*
X117540598Y-76151384D01*
X117540878Y-76175372D01*
X117541215Y-76194600D01*
X117541612Y-76209253D01*
X117542071Y-76219512D01*
X117542594Y-76225562D01*
X117543184Y-76227585D01*
X117543196Y-76227586D01*
X117546812Y-76227150D01*
X117555461Y-76225917D01*
X117568386Y-76224002D01*
X117584830Y-76221517D01*
X117604036Y-76218577D01*
X117625249Y-76215294D01*
X117630363Y-76214498D01*
X117675090Y-76207697D01*
X117714483Y-76202090D01*
X117748939Y-76197649D01*
X117778855Y-76194345D01*
X117804628Y-76192149D01*
X117826654Y-76191032D01*
X117845331Y-76190966D01*
X117861054Y-76191921D01*
X117874223Y-76193869D01*
X117883163Y-76196116D01*
X117902754Y-76204259D01*
X117919855Y-76215540D01*
X117933045Y-76228952D01*
X117936336Y-76233737D01*
X117938579Y-76237305D01*
X117940613Y-76240555D01*
X117942447Y-76243778D01*
X117944092Y-76247264D01*
X117945558Y-76251303D01*
X117946855Y-76256184D01*
X117947993Y-76262197D01*
X117948984Y-76269633D01*
X117949837Y-76278780D01*
X117950562Y-76289929D01*
X117951171Y-76303370D01*
X117951672Y-76319393D01*
X117952078Y-76338287D01*
X117952396Y-76360342D01*
X117952640Y-76385849D01*
X117952817Y-76415097D01*
X117952939Y-76448375D01*
X117953017Y-76485975D01*
X117953060Y-76528185D01*
X117953078Y-76575296D01*
X117953083Y-76627597D01*
X117953084Y-76685378D01*
X117953085Y-76704440D01*
X117953120Y-77130020D01*
X117846175Y-77130020D01*
X117739231Y-77130020D01*
X117739231Y-76750125D01*
X117739231Y-76370230D01*
X117686022Y-76372158D01*
X117664320Y-76372836D01*
X117640275Y-76373410D01*
X117616265Y-76373833D01*
X117594666Y-76374059D01*
X117586402Y-76374085D01*
X117539992Y-76374085D01*
X117539992Y-76752053D01*
X117539992Y-77130020D01*
X117434513Y-77130020D01*
X117329034Y-77130020D01*
X117329034Y-76404850D01*
X117329034Y-75679680D01*
X117434513Y-75679680D01*
X117539992Y-75679680D01*
X117539992Y-75953633D01*
G37*
G36*
X118434928Y-74466355D02*
G01*
X118454393Y-74477229D01*
X118470973Y-74492545D01*
X118483511Y-74511145D01*
X118486689Y-74518116D01*
X118493701Y-74535522D01*
X118494583Y-74913490D01*
X118494707Y-74973737D01*
X118494783Y-75028314D01*
X118494810Y-75077412D01*
X118494788Y-75121219D01*
X118494714Y-75159927D01*
X118494588Y-75193726D01*
X118494408Y-75222804D01*
X118494174Y-75247353D01*
X118493883Y-75267562D01*
X118493536Y-75283622D01*
X118493130Y-75295722D01*
X118492665Y-75304052D01*
X118492139Y-75308803D01*
X118492121Y-75308899D01*
X118484941Y-75333260D01*
X118473571Y-75353766D01*
X118458194Y-75370178D01*
X118438993Y-75382257D01*
X118434284Y-75384306D01*
X118417522Y-75391077D01*
X118191913Y-75391645D01*
X118149958Y-75391743D01*
X118113446Y-75391807D01*
X118081960Y-75391829D01*
X118055084Y-75391800D01*
X118032399Y-75391712D01*
X118013491Y-75391558D01*
X117997941Y-75391330D01*
X117985333Y-75391019D01*
X117975249Y-75390617D01*
X117967274Y-75390116D01*
X117960990Y-75389509D01*
X117955980Y-75388787D01*
X117951827Y-75387942D01*
X117948116Y-75386967D01*
X117948029Y-75386942D01*
X117926057Y-75378284D01*
X117908460Y-75366001D01*
X117894628Y-75349550D01*
X117884782Y-75330453D01*
X117878405Y-75314897D01*
X117878178Y-75216743D01*
X118084969Y-75216743D01*
X118186053Y-75216743D01*
X118287137Y-75216743D01*
X118287137Y-74925210D01*
X118287137Y-74633677D01*
X118186053Y-74633677D01*
X118084969Y-74633677D01*
X118084969Y-74925210D01*
X118084969Y-75216743D01*
X117878178Y-75216743D01*
X117877529Y-74935465D01*
X117877508Y-74925210D01*
X117877406Y-74874955D01*
X117877331Y-74820120D01*
X117877305Y-74770774D01*
X117877329Y-74726731D01*
X117877404Y-74687806D01*
X117877532Y-74653815D01*
X117877713Y-74624570D01*
X117877949Y-74599888D01*
X117878241Y-74579582D01*
X117878590Y-74563468D01*
X117878997Y-74551359D01*
X117879464Y-74543071D01*
X117879984Y-74538452D01*
X117887059Y-74515002D01*
X117898640Y-74495249D01*
X117914614Y-74479331D01*
X117934870Y-74467386D01*
X117938237Y-74465959D01*
X117954585Y-74459343D01*
X118186053Y-74459343D01*
X118417522Y-74459343D01*
X118434928Y-74466355D01*
G37*
G36*
X120360321Y-74454199D02*
G01*
X120373746Y-74455904D01*
X120385044Y-74458559D01*
X120385367Y-74458657D01*
X120404942Y-74466776D01*
X120422040Y-74478046D01*
X120435236Y-74491458D01*
X120438539Y-74496259D01*
X120440783Y-74499826D01*
X120442816Y-74503077D01*
X120444650Y-74506300D01*
X120446295Y-74509786D01*
X120447761Y-74513825D01*
X120449058Y-74518706D01*
X120450197Y-74524719D01*
X120451187Y-74532154D01*
X120452040Y-74541302D01*
X120452766Y-74552451D01*
X120453374Y-74565892D01*
X120453876Y-74581914D01*
X120454281Y-74600809D01*
X120454600Y-74622864D01*
X120454843Y-74648371D01*
X120455020Y-74677618D01*
X120455143Y-74710897D01*
X120455220Y-74748497D01*
X120455263Y-74790707D01*
X120455281Y-74837817D01*
X120455286Y-74890118D01*
X120455287Y-74947900D01*
X120455288Y-74966962D01*
X120455323Y-75392542D01*
X120349844Y-75392542D01*
X120244364Y-75392542D01*
X120244364Y-75012648D01*
X120244364Y-74632754D01*
X120193822Y-74634672D01*
X120171971Y-74635372D01*
X120147206Y-74635959D01*
X120122205Y-74636381D01*
X120099642Y-74636586D01*
X120094203Y-74636598D01*
X120045126Y-74636607D01*
X120045126Y-75014574D01*
X120045126Y-75392542D01*
X119939646Y-75392542D01*
X119834167Y-75392542D01*
X119834167Y-75012647D01*
X119834167Y-74632752D01*
X119780958Y-74634679D01*
X119759256Y-74635358D01*
X119735211Y-74635931D01*
X119711201Y-74636354D01*
X119689602Y-74636581D01*
X119681338Y-74636607D01*
X119634928Y-74636607D01*
X119634928Y-75014574D01*
X119634928Y-75392542D01*
X119527984Y-75392542D01*
X119421040Y-75392542D01*
X119421040Y-74925210D01*
X119421040Y-74457878D01*
X119527984Y-74457878D01*
X119634928Y-74457878D01*
X119634928Y-74473993D01*
X119635465Y-74483560D01*
X119636920Y-74489150D01*
X119638104Y-74490108D01*
X119641832Y-74489643D01*
X119650434Y-74488344D01*
X119663004Y-74486355D01*
X119678637Y-74483820D01*
X119696428Y-74480882D01*
X119701831Y-74479981D01*
X119749594Y-74472216D01*
X119792040Y-74465817D01*
X119829545Y-74460766D01*
X119862487Y-74457044D01*
X119891240Y-74454631D01*
X119916183Y-74453510D01*
X119937691Y-74453662D01*
X119956142Y-74455067D01*
X119971912Y-74457708D01*
X119985377Y-74461565D01*
X119994608Y-74465448D01*
X120004761Y-74471542D01*
X120013851Y-74478873D01*
X120017663Y-74483010D01*
X120023885Y-74489413D01*
X120029879Y-74492831D01*
X120031274Y-74493038D01*
X120035560Y-74492587D01*
X120044880Y-74491311D01*
X120058481Y-74489322D01*
X120075612Y-74486733D01*
X120095523Y-74483657D01*
X120117461Y-74480205D01*
X120128348Y-74478472D01*
X120173194Y-74471463D01*
X120212711Y-74465652D01*
X120247299Y-74461008D01*
X120277359Y-74457499D01*
X120303290Y-74455094D01*
X120325494Y-74453763D01*
X120344371Y-74453475D01*
X120360321Y-74454199D01*
G37*
G36*
X118518427Y-76195663D02*
G01*
X118547531Y-76195764D01*
X118571913Y-76195959D01*
X118591858Y-76196252D01*
X118607651Y-76196644D01*
X118619575Y-76197141D01*
X118627916Y-76197744D01*
X118632875Y-76198439D01*
X118656637Y-76206047D01*
X118676220Y-76217757D01*
X118691668Y-76233609D01*
X118703028Y-76253645D01*
X118707343Y-76265758D01*
X118708298Y-76269587D01*
X118709116Y-76274446D01*
X118709807Y-76280787D01*
X118710380Y-76289059D01*
X118710846Y-76299711D01*
X118711216Y-76313192D01*
X118711499Y-76329954D01*
X118711706Y-76350445D01*
X118711848Y-76375114D01*
X118711935Y-76404413D01*
X118711977Y-76438789D01*
X118711985Y-76467699D01*
X118711985Y-76654008D01*
X118683365Y-76682521D01*
X118654745Y-76711033D01*
X118482661Y-76711033D01*
X118310577Y-76711033D01*
X118310577Y-76842882D01*
X118310577Y-76974731D01*
X118410197Y-76974731D01*
X118509816Y-76974731D01*
X118509816Y-76897087D01*
X118509816Y-76819442D01*
X118611025Y-76819442D01*
X118712234Y-76819442D01*
X118711377Y-76937443D01*
X118710520Y-77055445D01*
X118700874Y-77075029D01*
X118688532Y-77094672D01*
X118672842Y-77109751D01*
X118653083Y-77120940D01*
X118650687Y-77121939D01*
X118634340Y-77128555D01*
X118416057Y-77129140D01*
X118374050Y-77129239D01*
X118337499Y-77129289D01*
X118305999Y-77129284D01*
X118279147Y-77129219D01*
X118256536Y-77129086D01*
X118237764Y-77128878D01*
X118222426Y-77128590D01*
X118210117Y-77128214D01*
X118200434Y-77127745D01*
X118192971Y-77127176D01*
X118187326Y-77126500D01*
X118183092Y-77125711D01*
X118181729Y-77125369D01*
X118158627Y-77116585D01*
X118139856Y-77103907D01*
X118125333Y-77087238D01*
X118114976Y-77066483D01*
X118108703Y-77041544D01*
X118108397Y-77039519D01*
X118107976Y-77033631D01*
X118107589Y-77022328D01*
X118107235Y-77006058D01*
X118106916Y-76985265D01*
X118106631Y-76960396D01*
X118106380Y-76931896D01*
X118106163Y-76900212D01*
X118105980Y-76865789D01*
X118105830Y-76829073D01*
X118105715Y-76790510D01*
X118105633Y-76750546D01*
X118105584Y-76709627D01*
X118105569Y-76668198D01*
X118105587Y-76626705D01*
X118105639Y-76585595D01*
X118105665Y-76573324D01*
X118310577Y-76573324D01*
X118410197Y-76573324D01*
X118509816Y-76573324D01*
X118509816Y-76461985D01*
X118509816Y-76350645D01*
X118410197Y-76350645D01*
X118310577Y-76350645D01*
X118310577Y-76461985D01*
X118310577Y-76573324D01*
X118105665Y-76573324D01*
X118105724Y-76545313D01*
X118105842Y-76506305D01*
X118105994Y-76469017D01*
X118106031Y-76461985D01*
X118106178Y-76433895D01*
X118106396Y-76401384D01*
X118106646Y-76371931D01*
X118106929Y-76345981D01*
X118107246Y-76323981D01*
X118107595Y-76306375D01*
X118107976Y-76293611D01*
X118108390Y-76286133D01*
X118108514Y-76285037D01*
X118114380Y-76260176D01*
X118124302Y-76239441D01*
X118138487Y-76222544D01*
X118157140Y-76209195D01*
X118165199Y-76205105D01*
X118183123Y-76196821D01*
X118399942Y-76195895D01*
X118444917Y-76195732D01*
X118484317Y-76195653D01*
X118518427Y-76195663D01*
G37*
G36*
X119000136Y-74457920D02*
G01*
X119036603Y-74457960D01*
X119068032Y-74458040D01*
X119094833Y-74458170D01*
X119117418Y-74458356D01*
X119136197Y-74458607D01*
X119151581Y-74458930D01*
X119163980Y-74459333D01*
X119173807Y-74459823D01*
X119181470Y-74460410D01*
X119187382Y-74461100D01*
X119191953Y-74461901D01*
X119194083Y-74462402D01*
X119216503Y-74470855D01*
X119234866Y-74483531D01*
X119249147Y-74500396D01*
X119259317Y-74521418D01*
X119265350Y-74546563D01*
X119265690Y-74549035D01*
X119266134Y-74555444D01*
X119266542Y-74567246D01*
X119266913Y-74583991D01*
X119267249Y-74605230D01*
X119267548Y-74630515D01*
X119267810Y-74659395D01*
X119268037Y-74691421D01*
X119268228Y-74726143D01*
X119268383Y-74763114D01*
X119268502Y-74801882D01*
X119268585Y-74842000D01*
X119268633Y-74883016D01*
X119268645Y-74924483D01*
X119268621Y-74965951D01*
X119268562Y-75006970D01*
X119268467Y-75047091D01*
X119268337Y-75085866D01*
X119268172Y-75122843D01*
X119267972Y-75157575D01*
X119267736Y-75189611D01*
X119267466Y-75218503D01*
X119267160Y-75243801D01*
X119266820Y-75265055D01*
X119266445Y-75281817D01*
X119266035Y-75293637D01*
X119265590Y-75300066D01*
X119265570Y-75300214D01*
X119263259Y-75313201D01*
X119260183Y-75325802D01*
X119257005Y-75335304D01*
X119256985Y-75335351D01*
X119245815Y-75354168D01*
X119230123Y-75369744D01*
X119210573Y-75381565D01*
X119187827Y-75389119D01*
X119187230Y-75389247D01*
X119181331Y-75389963D01*
X119170742Y-75390581D01*
X119155318Y-75391103D01*
X119134909Y-75391532D01*
X119109369Y-75391870D01*
X119078551Y-75392118D01*
X119042308Y-75392279D01*
X119000491Y-75392354D01*
X118955761Y-75392349D01*
X118913777Y-75392296D01*
X118877252Y-75392211D01*
X118845784Y-75392086D01*
X118818974Y-75391915D01*
X118796419Y-75391688D01*
X118777719Y-75391398D01*
X118762472Y-75391038D01*
X118750278Y-75390600D01*
X118740736Y-75390075D01*
X118733444Y-75389457D01*
X118728002Y-75388736D01*
X118724008Y-75387906D01*
X118723776Y-75387845D01*
X118700700Y-75379009D01*
X118681756Y-75366025D01*
X118666971Y-75348921D01*
X118656375Y-75327723D01*
X118655512Y-75325275D01*
X118648990Y-75306107D01*
X118648779Y-75216743D01*
X118858484Y-75216743D01*
X118959568Y-75216743D01*
X119060652Y-75216743D01*
X119060652Y-74925210D01*
X119060652Y-74633677D01*
X118959568Y-74633677D01*
X118858484Y-74633677D01*
X118858484Y-74925210D01*
X118858484Y-75216743D01*
X118648779Y-75216743D01*
X118648125Y-74939860D01*
X118648092Y-74925210D01*
X118647998Y-74883361D01*
X118647903Y-74832412D01*
X118647848Y-74786704D01*
X118647841Y-74745926D01*
X118647889Y-74709770D01*
X118648001Y-74677925D01*
X118648184Y-74650082D01*
X118648446Y-74625930D01*
X118648795Y-74605161D01*
X118649239Y-74587464D01*
X118649785Y-74572530D01*
X118650442Y-74560050D01*
X118651217Y-74549712D01*
X118652118Y-74541209D01*
X118653154Y-74534229D01*
X118654331Y-74528463D01*
X118655658Y-74523602D01*
X118657142Y-74519336D01*
X118658792Y-74515355D01*
X118658885Y-74515145D01*
X118667405Y-74500598D01*
X118679142Y-74486778D01*
X118692260Y-74475685D01*
X118698600Y-74471869D01*
X118703635Y-74469333D01*
X118708432Y-74467125D01*
X118713416Y-74465223D01*
X118719012Y-74463604D01*
X118725644Y-74462244D01*
X118733737Y-74461121D01*
X118743715Y-74460213D01*
X118756004Y-74459496D01*
X118771027Y-74458947D01*
X118789210Y-74458544D01*
X118810978Y-74458264D01*
X118836754Y-74458084D01*
X118866964Y-74457981D01*
X118902033Y-74457933D01*
X118942384Y-74457916D01*
X118958220Y-74457913D01*
X119000136Y-74457920D01*
G37*
G36*
X119491359Y-76404850D02*
G01*
X119491359Y-77130020D01*
X119384415Y-77130020D01*
X119277471Y-77130020D01*
X119277471Y-77113708D01*
X119277240Y-77104428D01*
X119276267Y-77099791D01*
X119274133Y-77098588D01*
X119272343Y-77098942D01*
X119268315Y-77099781D01*
X119259217Y-77101458D01*
X119245760Y-77103847D01*
X119228656Y-77106826D01*
X119208616Y-77110269D01*
X119186350Y-77114054D01*
X119169062Y-77116966D01*
X119133564Y-77122776D01*
X119103205Y-77127391D01*
X119077399Y-77130859D01*
X119055557Y-77133228D01*
X119037093Y-77134544D01*
X119021419Y-77134857D01*
X119007949Y-77134213D01*
X118996093Y-77132662D01*
X118990333Y-77131503D01*
X118961167Y-77122095D01*
X118935259Y-77107919D01*
X118912898Y-77089262D01*
X118894374Y-77066409D01*
X118879979Y-77039646D01*
X118871272Y-77014286D01*
X118870414Y-77010835D01*
X118869650Y-77007066D01*
X118868976Y-77002635D01*
X118868385Y-76997198D01*
X118867872Y-76990411D01*
X118867432Y-76981929D01*
X118867059Y-76971408D01*
X118866748Y-76958503D01*
X118866492Y-76942872D01*
X118866288Y-76924170D01*
X118866128Y-76902051D01*
X118866008Y-76876173D01*
X118865922Y-76846191D01*
X118865865Y-76811761D01*
X118865830Y-76772539D01*
X118865813Y-76728180D01*
X118865809Y-76678340D01*
X118865809Y-76672943D01*
X118865810Y-76661223D01*
X119076767Y-76661223D01*
X119076768Y-76706332D01*
X119076788Y-76745961D01*
X119076850Y-76780493D01*
X119076979Y-76810308D01*
X119077198Y-76835788D01*
X119077531Y-76857314D01*
X119078003Y-76875267D01*
X119078638Y-76890028D01*
X119079459Y-76901977D01*
X119080490Y-76911498D01*
X119081756Y-76918969D01*
X119083281Y-76924774D01*
X119085088Y-76929292D01*
X119087201Y-76932905D01*
X119089645Y-76935993D01*
X119092444Y-76938940D01*
X119094381Y-76940875D01*
X119102657Y-76947569D01*
X119111613Y-76952597D01*
X119113667Y-76953367D01*
X119125113Y-76955566D01*
X119141948Y-76956556D01*
X119164261Y-76956336D01*
X119192143Y-76954906D01*
X119220336Y-76952735D01*
X119236986Y-76951314D01*
X119251713Y-76950087D01*
X119263475Y-76949138D01*
X119271232Y-76948552D01*
X119273808Y-76948400D01*
X119274434Y-76947312D01*
X119274989Y-76943869D01*
X119275476Y-76937783D01*
X119275901Y-76928766D01*
X119276265Y-76916529D01*
X119276574Y-76900785D01*
X119276830Y-76881246D01*
X119277037Y-76857622D01*
X119277200Y-76829626D01*
X119277320Y-76796970D01*
X119277403Y-76759366D01*
X119277452Y-76716525D01*
X119277470Y-76668159D01*
X119277471Y-76659758D01*
X119277471Y-76371155D01*
X119204954Y-76371172D01*
X119184298Y-76371293D01*
X119165053Y-76371627D01*
X119148167Y-76372139D01*
X119134591Y-76372794D01*
X119125274Y-76373561D01*
X119121837Y-76374132D01*
X119104634Y-76381661D01*
X119091272Y-76393611D01*
X119084092Y-76404854D01*
X119076767Y-76419500D01*
X119076767Y-76661223D01*
X118865810Y-76661223D01*
X118865813Y-76622439D01*
X118865830Y-76577449D01*
X118865866Y-76537627D01*
X118865925Y-76502626D01*
X118866012Y-76472100D01*
X118866134Y-76445703D01*
X118866295Y-76423089D01*
X118866334Y-76419500D01*
X118866502Y-76403912D01*
X118866758Y-76387825D01*
X118867071Y-76374483D01*
X118867444Y-76363539D01*
X118867884Y-76354647D01*
X118868395Y-76347461D01*
X118868984Y-76341634D01*
X118869655Y-76336821D01*
X118870414Y-76332675D01*
X118871138Y-76329392D01*
X118880382Y-76300108D01*
X118893588Y-76274574D01*
X118910933Y-76252656D01*
X118932592Y-76234218D01*
X118958740Y-76219127D01*
X118989554Y-76207247D01*
X119025209Y-76198443D01*
X119046002Y-76194995D01*
X119055172Y-76194124D01*
X119068940Y-76193377D01*
X119086419Y-76192756D01*
X119106722Y-76192266D01*
X119128962Y-76191910D01*
X119152252Y-76191692D01*
X119175705Y-76191614D01*
X119198434Y-76191681D01*
X119219552Y-76191896D01*
X119238171Y-76192263D01*
X119253406Y-76192785D01*
X119264368Y-76193464D01*
X119269413Y-76194114D01*
X119277471Y-76195822D01*
X119277471Y-75937751D01*
X119277471Y-75679680D01*
X119384415Y-75679680D01*
X119491359Y-75679680D01*
X119491359Y-76404850D01*
G37*
G36*
X115810279Y-73942628D02*
G01*
X115857847Y-73942733D01*
X115886018Y-73942827D01*
X115929673Y-73942990D01*
X115967862Y-73943144D01*
X116000981Y-73943298D01*
X116029424Y-73943464D01*
X116053586Y-73943653D01*
X116073861Y-73943876D01*
X116090644Y-73944144D01*
X116104329Y-73944468D01*
X116115312Y-73944859D01*
X116123988Y-73945328D01*
X116130749Y-73945886D01*
X116135993Y-73946544D01*
X116140112Y-73947313D01*
X116143502Y-73948204D01*
X116146557Y-73949227D01*
X116149049Y-73950159D01*
X116172074Y-73961334D01*
X116190473Y-73975790D01*
X116204547Y-73993903D01*
X116214598Y-74016045D01*
X116220274Y-74038707D01*
X116221182Y-74045286D01*
X116221955Y-74054323D01*
X116222602Y-74066231D01*
X116223132Y-74081426D01*
X116223552Y-74100322D01*
X116223873Y-74123331D01*
X116224102Y-74150869D01*
X116224249Y-74183349D01*
X116224322Y-74221186D01*
X116224329Y-74230072D01*
X116224431Y-74399278D01*
X116116051Y-74399278D01*
X116007671Y-74399278D01*
X116006909Y-74262302D01*
X116006148Y-74125325D01*
X115873566Y-74124563D01*
X115740984Y-74123801D01*
X115741171Y-74256412D01*
X115741358Y-74389023D01*
X115952346Y-74586797D01*
X115982444Y-74615032D01*
X116011611Y-74642435D01*
X116039525Y-74668702D01*
X116065867Y-74693531D01*
X116090314Y-74716616D01*
X116112546Y-74737653D01*
X116132242Y-74756339D01*
X116149079Y-74772370D01*
X116162739Y-74785441D01*
X116172898Y-74795249D01*
X116179236Y-74801490D01*
X116180708Y-74803002D01*
X116195397Y-74820456D01*
X116206490Y-74838431D01*
X116215388Y-74859297D01*
X116217401Y-74865145D01*
X116218476Y-74868738D01*
X116219402Y-74872864D01*
X116220195Y-74877977D01*
X116220869Y-74884528D01*
X116221436Y-74892970D01*
X116221911Y-74903757D01*
X116222307Y-74917339D01*
X116222640Y-74934171D01*
X116222921Y-74954705D01*
X116223166Y-74979393D01*
X116223387Y-75008687D01*
X116223600Y-75043041D01*
X116223766Y-75073174D01*
X116223972Y-75115198D01*
X116224096Y-75151808D01*
X116224110Y-75183450D01*
X116223986Y-75210572D01*
X116223699Y-75233618D01*
X116223220Y-75253036D01*
X116222522Y-75269271D01*
X116221579Y-75282769D01*
X116220362Y-75293977D01*
X116218846Y-75303341D01*
X116217002Y-75311307D01*
X116214803Y-75318320D01*
X116212223Y-75324828D01*
X116209234Y-75331277D01*
X116207881Y-75334013D01*
X116194827Y-75354301D01*
X116178091Y-75370164D01*
X116157469Y-75381749D01*
X116132759Y-75389203D01*
X116130790Y-75389589D01*
X116124826Y-75390145D01*
X116113231Y-75390645D01*
X116096236Y-75391087D01*
X116074070Y-75391468D01*
X116046964Y-75391787D01*
X116015146Y-75392039D01*
X115978846Y-75392224D01*
X115938294Y-75392339D01*
X115893720Y-75392380D01*
X115870236Y-75392373D01*
X115826283Y-75392335D01*
X115787791Y-75392280D01*
X115754361Y-75392200D01*
X115725597Y-75392087D01*
X115701098Y-75391933D01*
X115680467Y-75391730D01*
X115663304Y-75391470D01*
X115649213Y-75391145D01*
X115637793Y-75390748D01*
X115628647Y-75390270D01*
X115621375Y-75389703D01*
X115615581Y-75389039D01*
X115610864Y-75388270D01*
X115606827Y-75387389D01*
X115605578Y-75387072D01*
X115582111Y-75378072D01*
X115561929Y-75364301D01*
X115545330Y-75346028D01*
X115532610Y-75323523D01*
X115530853Y-75319292D01*
X115529815Y-75316310D01*
X115528919Y-75312700D01*
X115528152Y-75308024D01*
X115527501Y-75301841D01*
X115526954Y-75293710D01*
X115526498Y-75283190D01*
X115526121Y-75269843D01*
X115525809Y-75253228D01*
X115525549Y-75232903D01*
X115525330Y-75208429D01*
X115525137Y-75179366D01*
X115524960Y-75145273D01*
X115524804Y-75110531D01*
X115523968Y-74914955D01*
X115632476Y-74914955D01*
X115740984Y-74914955D01*
X115740984Y-75062949D01*
X115740984Y-75210943D01*
X115873566Y-75210180D01*
X116006148Y-75209418D01*
X116006908Y-75068354D01*
X116007669Y-74927290D01*
X115783590Y-74715735D01*
X115744549Y-74678819D01*
X115708698Y-74644804D01*
X115676154Y-74613802D01*
X115647034Y-74585926D01*
X115621454Y-74561291D01*
X115599533Y-74540010D01*
X115581386Y-74522195D01*
X115567132Y-74507961D01*
X115556887Y-74497421D01*
X115550769Y-74490688D01*
X115549282Y-74488768D01*
X115543095Y-74477939D01*
X115536734Y-74464403D01*
X115531609Y-74451183D01*
X115524166Y-74429010D01*
X115524166Y-74238490D01*
X115524216Y-74193011D01*
X115524366Y-74153317D01*
X115524617Y-74119332D01*
X115524972Y-74090981D01*
X115525430Y-74068190D01*
X115525993Y-74050883D01*
X115526662Y-74038986D01*
X115527436Y-74032443D01*
X115535337Y-74007599D01*
X115547688Y-73986514D01*
X115564310Y-73969357D01*
X115585023Y-73956297D01*
X115609646Y-73947500D01*
X115620855Y-73945160D01*
X115627278Y-73944504D01*
X115638346Y-73943948D01*
X115654203Y-73943490D01*
X115674990Y-73943128D01*
X115700849Y-73942863D01*
X115731922Y-73942692D01*
X115768351Y-73942614D01*
X115810279Y-73942628D01*
G37*
G36*
X116815955Y-75679731D02*
G01*
X116861155Y-75679748D01*
X116900894Y-75679792D01*
X116935569Y-75679884D01*
X116965578Y-75680044D01*
X116991319Y-75680290D01*
X117013191Y-75680644D01*
X117031592Y-75681125D01*
X117046919Y-75681754D01*
X117059571Y-75682550D01*
X117069945Y-75683533D01*
X117078441Y-75684724D01*
X117085455Y-75686142D01*
X117091386Y-75687807D01*
X117096633Y-75689740D01*
X117101592Y-75691960D01*
X117106336Y-75694320D01*
X117126068Y-75707597D01*
X117142205Y-75725205D01*
X117154299Y-75746533D01*
X117161685Y-75769921D01*
X117162501Y-75776854D01*
X117163199Y-75789364D01*
X117163780Y-75807496D01*
X117164243Y-75831292D01*
X117164590Y-75860795D01*
X117164822Y-75896047D01*
X117164939Y-75937093D01*
X117164955Y-75961102D01*
X117164955Y-76136757D01*
X117056546Y-76136757D01*
X116948136Y-76136757D01*
X116948136Y-75999018D01*
X116948136Y-75861279D01*
X116815555Y-75862041D01*
X116682973Y-75862804D01*
X116682211Y-75993322D01*
X116681449Y-76123840D01*
X116906354Y-76335283D01*
X116937131Y-76364252D01*
X116966781Y-76392229D01*
X116995016Y-76418937D01*
X117021546Y-76444099D01*
X117046082Y-76467438D01*
X117068332Y-76488677D01*
X117088009Y-76507539D01*
X117104821Y-76523746D01*
X117118480Y-76537023D01*
X117128696Y-76547092D01*
X117135178Y-76553675D01*
X117137562Y-76556363D01*
X117151575Y-76582090D01*
X117160511Y-76609046D01*
X117160529Y-76609124D01*
X117161409Y-76613687D01*
X117162167Y-76619652D01*
X117162811Y-76627446D01*
X117163350Y-76637493D01*
X117163792Y-76650221D01*
X117164147Y-76666057D01*
X117164422Y-76685425D01*
X117164627Y-76708754D01*
X117164770Y-76736468D01*
X117164859Y-76768994D01*
X117164904Y-76806760D01*
X117164912Y-76825890D01*
X117164874Y-76872419D01*
X117164738Y-76913150D01*
X117164503Y-76948146D01*
X117164168Y-76977467D01*
X117163732Y-77001176D01*
X117163195Y-77019335D01*
X117162555Y-77032004D01*
X117161811Y-77039246D01*
X117161710Y-77039779D01*
X117153762Y-77064620D01*
X117141213Y-77085974D01*
X117124405Y-77103497D01*
X117103682Y-77116846D01*
X117079388Y-77125678D01*
X117074714Y-77126750D01*
X117069084Y-77127414D01*
X117058808Y-77127994D01*
X117043744Y-77128491D01*
X117023752Y-77128908D01*
X116998691Y-77129245D01*
X116968421Y-77129506D01*
X116932802Y-77129691D01*
X116891693Y-77129801D01*
X116844954Y-77129840D01*
X116812481Y-77129827D01*
X116767460Y-77129778D01*
X116727929Y-77129703D01*
X116693519Y-77129594D01*
X116663859Y-77129445D01*
X116638579Y-77129251D01*
X116617311Y-77129005D01*
X116599683Y-77128701D01*
X116585326Y-77128332D01*
X116573870Y-77127892D01*
X116564946Y-77127375D01*
X116558184Y-77126775D01*
X116553213Y-77126086D01*
X116549966Y-77125383D01*
X116525628Y-77116443D01*
X116505639Y-77103770D01*
X116489816Y-77087154D01*
X116477976Y-77066382D01*
X116469938Y-77041242D01*
X116467723Y-77029776D01*
X116467103Y-77022926D01*
X116466540Y-77010619D01*
X116466042Y-76993258D01*
X116465613Y-76971244D01*
X116465260Y-76944980D01*
X116464989Y-76914870D01*
X116464807Y-76881315D01*
X116464719Y-76844717D01*
X116464712Y-76831895D01*
X116464690Y-76652433D01*
X116573099Y-76652433D01*
X116681508Y-76652433D01*
X116681508Y-76800397D01*
X116681508Y-76948361D01*
X116814822Y-76948361D01*
X116948136Y-76948361D01*
X116948066Y-76805525D01*
X116947996Y-76662688D01*
X116761539Y-76486889D01*
X116722417Y-76450006D01*
X116687324Y-76416917D01*
X116656031Y-76387394D01*
X116628308Y-76361209D01*
X116603923Y-76338131D01*
X116582648Y-76317932D01*
X116564252Y-76300383D01*
X116548505Y-76285255D01*
X116535177Y-76272319D01*
X116524038Y-76261345D01*
X116514857Y-76252105D01*
X116507405Y-76244370D01*
X116501451Y-76237910D01*
X116496766Y-76232496D01*
X116493119Y-76227900D01*
X116490280Y-76223893D01*
X116488019Y-76220245D01*
X116486106Y-76216727D01*
X116484311Y-76213110D01*
X116482403Y-76209165D01*
X116482276Y-76208904D01*
X116475361Y-76192827D01*
X116470079Y-76176787D01*
X116467689Y-76166057D01*
X116467055Y-76158908D01*
X116466497Y-76146568D01*
X116466016Y-76129693D01*
X116465611Y-76108940D01*
X116465283Y-76084964D01*
X116465030Y-76058422D01*
X116464854Y-76029971D01*
X116464753Y-76000266D01*
X116464728Y-75969965D01*
X116464778Y-75939723D01*
X116464904Y-75910197D01*
X116465105Y-75882042D01*
X116465381Y-75855917D01*
X116465732Y-75832476D01*
X116466157Y-75812376D01*
X116466658Y-75796274D01*
X116467233Y-75784826D01*
X116467771Y-75779299D01*
X116473526Y-75756655D01*
X116482967Y-75735356D01*
X116495234Y-75717168D01*
X116501211Y-75710697D01*
X116518436Y-75697852D01*
X116540335Y-75688119D01*
X116562413Y-75682414D01*
X116567688Y-75681968D01*
X116578399Y-75681549D01*
X116594121Y-75681163D01*
X116614430Y-75680813D01*
X116638902Y-75680504D01*
X116667111Y-75680240D01*
X116698634Y-75680027D01*
X116733047Y-75679867D01*
X116769924Y-75679767D01*
X116808842Y-75679730D01*
X116815955Y-75679731D01*
G37*
G36*
X118097233Y-70577636D02*
G01*
X118119495Y-70586494D01*
X118126090Y-70590369D01*
X118131070Y-70594325D01*
X118139613Y-70601975D01*
X118151191Y-70612814D01*
X118165280Y-70626334D01*
X118181354Y-70642031D01*
X118198887Y-70659400D01*
X118217355Y-70677934D01*
X118222609Y-70683250D01*
X118248255Y-70709244D01*
X118276688Y-70738055D01*
X118308050Y-70769828D01*
X118342483Y-70804705D01*
X118380127Y-70842829D01*
X118421125Y-70884345D01*
X118465619Y-70929394D01*
X118513748Y-70978120D01*
X118565655Y-71030667D01*
X118621482Y-71087178D01*
X118646060Y-71112056D01*
X118703234Y-71169928D01*
X118756416Y-71223763D01*
X118805735Y-71273691D01*
X118851320Y-71319841D01*
X118893298Y-71362344D01*
X118931799Y-71401329D01*
X118966950Y-71436927D01*
X118998879Y-71469268D01*
X119027716Y-71498482D01*
X119053588Y-71524699D01*
X119076624Y-71548048D01*
X119096951Y-71568661D01*
X119114699Y-71586666D01*
X119129996Y-71602194D01*
X119142970Y-71615376D01*
X119153749Y-71626340D01*
X119162462Y-71635217D01*
X119169237Y-71642138D01*
X119173073Y-71646071D01*
X119181483Y-71654677D01*
X119193473Y-71666894D01*
X119208499Y-71682173D01*
X119226019Y-71699962D01*
X119245489Y-71719709D01*
X119266366Y-71740864D01*
X119288105Y-71762874D01*
X119310165Y-71785189D01*
X119313712Y-71788775D01*
X119338783Y-71814126D01*
X119366954Y-71842622D01*
X119397210Y-71873236D01*
X119428537Y-71904940D01*
X119459920Y-71936709D01*
X119490344Y-71967514D01*
X119518795Y-71996328D01*
X119538063Y-72015849D01*
X119564627Y-72042763D01*
X119594113Y-72072636D01*
X119625472Y-72104404D01*
X119657654Y-72137003D01*
X119689608Y-72169369D01*
X119720284Y-72200439D01*
X119748633Y-72229149D01*
X119766601Y-72247344D01*
X119792688Y-72273761D01*
X119821840Y-72303285D01*
X119853008Y-72334852D01*
X119885141Y-72367398D01*
X119917189Y-72399860D01*
X119948102Y-72431173D01*
X119976829Y-72460275D01*
X119995127Y-72478813D01*
X120021364Y-72505393D01*
X120050254Y-72534657D01*
X120080796Y-72565592D01*
X120111987Y-72597183D01*
X120142826Y-72628414D01*
X120172311Y-72658272D01*
X120199440Y-72685742D01*
X120217806Y-72704337D01*
X120278457Y-72765741D01*
X120335076Y-72823067D01*
X120387750Y-72876401D01*
X120436567Y-72925834D01*
X120481613Y-72971452D01*
X120522975Y-73013345D01*
X120560742Y-73051601D01*
X120595001Y-73086309D01*
X120625838Y-73117556D01*
X120653341Y-73145431D01*
X120677597Y-73170023D01*
X120698693Y-73191421D01*
X120716718Y-73209711D01*
X120731757Y-73224984D01*
X120743898Y-73237327D01*
X120753229Y-73246829D01*
X120759837Y-73253579D01*
X120762115Y-73255916D01*
X120769247Y-73263212D01*
X120780012Y-73274174D01*
X120793918Y-73288303D01*
X120810476Y-73305101D01*
X120829193Y-73324071D01*
X120849579Y-73344715D01*
X120871143Y-73366535D01*
X120893393Y-73389033D01*
X120903736Y-73399485D01*
X120929900Y-73425927D01*
X120958666Y-73455012D01*
X120989040Y-73485732D01*
X121020024Y-73517078D01*
X121050621Y-73548042D01*
X121079835Y-73577615D01*
X121106669Y-73604790D01*
X121124623Y-73622979D01*
X121148959Y-73647639D01*
X121176420Y-73675467D01*
X121206017Y-73705459D01*
X121236758Y-73736611D01*
X121267655Y-73767920D01*
X121297715Y-73798382D01*
X121325949Y-73826994D01*
X121345812Y-73847122D01*
X121369685Y-73871314D01*
X121393441Y-73895385D01*
X121417403Y-73919664D01*
X121441895Y-73944477D01*
X121467241Y-73970153D01*
X121493763Y-73997020D01*
X121521787Y-74025405D01*
X121551635Y-74055637D01*
X121583632Y-74088042D01*
X121618100Y-74122950D01*
X121655365Y-74160688D01*
X121695748Y-74201584D01*
X121739575Y-74245965D01*
X121787168Y-74294159D01*
X121791394Y-74298438D01*
X121818120Y-74325503D01*
X121847883Y-74355647D01*
X121879612Y-74387785D01*
X121912237Y-74420832D01*
X121944688Y-74453705D01*
X121975894Y-74485320D01*
X122004784Y-74514591D01*
X122022668Y-74532712D01*
X122083478Y-74594330D01*
X122147092Y-74658783D01*
X122213752Y-74726317D01*
X122283699Y-74797176D01*
X122357176Y-74871606D01*
X122434424Y-74949852D01*
X122469397Y-74985274D01*
X122495640Y-75011856D01*
X122524645Y-75041238D01*
X122555385Y-75072378D01*
X122586831Y-75104236D01*
X122617954Y-75135768D01*
X122647726Y-75165933D01*
X122675118Y-75193689D01*
X122692085Y-75210883D01*
X122717229Y-75236359D01*
X122745465Y-75264962D01*
X122775766Y-75295650D01*
X122807103Y-75327383D01*
X122838449Y-75359120D01*
X122868776Y-75389820D01*
X122897056Y-75418443D01*
X122914910Y-75436509D01*
X122946543Y-75468528D01*
X122974317Y-75496677D01*
X122998500Y-75521241D01*
X123019362Y-75542509D01*
X123037172Y-75560767D01*
X123052200Y-75576302D01*
X123064714Y-75589403D01*
X123074984Y-75600355D01*
X123083278Y-75609446D01*
X123089868Y-75616963D01*
X123095020Y-75623193D01*
X123099006Y-75628424D01*
X123102094Y-75632943D01*
X123104553Y-75637036D01*
X123106651Y-75640988D01*
X123116342Y-75666026D01*
X123120174Y-75691146D01*
X123118146Y-75716361D01*
X123110261Y-75741684D01*
X123107011Y-75748779D01*
X123105729Y-75751255D01*
X123104161Y-75753909D01*
X123102121Y-75756928D01*
X123099428Y-75760497D01*
X123095896Y-75764801D01*
X123091343Y-75770027D01*
X123085583Y-75776360D01*
X123078434Y-75783986D01*
X123069712Y-75793092D01*
X123059232Y-75803862D01*
X123046812Y-75816483D01*
X123032267Y-75831140D01*
X123015413Y-75848019D01*
X122996067Y-75867306D01*
X122974044Y-75889187D01*
X122949162Y-75913848D01*
X122921236Y-75941474D01*
X122890082Y-75972251D01*
X122855517Y-76006366D01*
X122817357Y-76044003D01*
X122775417Y-76085349D01*
X122729515Y-76130589D01*
X122721663Y-76138327D01*
X122712933Y-76146937D01*
X122700425Y-76159281D01*
X122684529Y-76174975D01*
X122665633Y-76193636D01*
X122644127Y-76214878D01*
X122620401Y-76238316D01*
X122594843Y-76263566D01*
X122567843Y-76290243D01*
X122539791Y-76317963D01*
X122511076Y-76346341D01*
X122487721Y-76369424D01*
X122458998Y-76397809D01*
X122430795Y-76425669D01*
X122403483Y-76452641D01*
X122377431Y-76478359D01*
X122353009Y-76502459D01*
X122330587Y-76524577D01*
X122310534Y-76544347D01*
X122293219Y-76561405D01*
X122279014Y-76575386D01*
X122268286Y-76585926D01*
X122262112Y-76591972D01*
X122253050Y-76600846D01*
X122240374Y-76613302D01*
X122224633Y-76628799D01*
X122206375Y-76646796D01*
X122186149Y-76666751D01*
X122164506Y-76688123D01*
X122141992Y-76710370D01*
X122119158Y-76732950D01*
X122112098Y-76739936D01*
X122089666Y-76762128D01*
X122064796Y-76786724D01*
X122037824Y-76813390D01*
X122009088Y-76841794D01*
X121978925Y-76871604D01*
X121947669Y-76902487D01*
X121915659Y-76934111D01*
X121883231Y-76966144D01*
X121850721Y-76998253D01*
X121818466Y-77030106D01*
X121786802Y-77061371D01*
X121756066Y-77091715D01*
X121726595Y-77120806D01*
X121698726Y-77148312D01*
X121672794Y-77173900D01*
X121649136Y-77197237D01*
X121628089Y-77217993D01*
X121609990Y-77235834D01*
X121595174Y-77250427D01*
X121583980Y-77261442D01*
X121578970Y-77266361D01*
X121571733Y-77273477D01*
X121560685Y-77284361D01*
X121546185Y-77298662D01*
X121528590Y-77316026D01*
X121508255Y-77336103D01*
X121485537Y-77358538D01*
X121460795Y-77382980D01*
X121434383Y-77409077D01*
X121406659Y-77436476D01*
X121377980Y-77464825D01*
X121348703Y-77493771D01*
X121344989Y-77497443D01*
X121315692Y-77526408D01*
X121286969Y-77554794D01*
X121259174Y-77582254D01*
X121232662Y-77608437D01*
X121207787Y-77632993D01*
X121184904Y-77655573D01*
X121164366Y-77675827D01*
X121146530Y-77693405D01*
X121131748Y-77707958D01*
X121120376Y-77719135D01*
X121112767Y-77726588D01*
X121112056Y-77727282D01*
X121103106Y-77736034D01*
X121090559Y-77748350D01*
X121074979Y-77763673D01*
X121056934Y-77781445D01*
X121036989Y-77801107D01*
X121015711Y-77822102D01*
X120993667Y-77843871D01*
X120971421Y-77865857D01*
X120969534Y-77867723D01*
X120933084Y-77903763D01*
X120895189Y-77941227D01*
X120856101Y-77979863D01*
X120816073Y-78019423D01*
X120775358Y-78059658D01*
X120734207Y-78100319D01*
X120692872Y-78141157D01*
X120651607Y-78181922D01*
X120610663Y-78222366D01*
X120570293Y-78262238D01*
X120530749Y-78301291D01*
X120492283Y-78339275D01*
X120455147Y-78375940D01*
X120419595Y-78411039D01*
X120385878Y-78444320D01*
X120354248Y-78475536D01*
X120324958Y-78504438D01*
X120298260Y-78530775D01*
X120274407Y-78554299D01*
X120253651Y-78574762D01*
X120236243Y-78591913D01*
X120222437Y-78605503D01*
X120212485Y-78615284D01*
X120210670Y-78617064D01*
X120201698Y-78625876D01*
X120189108Y-78638268D01*
X120173444Y-78653702D01*
X120155255Y-78671638D01*
X120135087Y-78691536D01*
X120113488Y-78712857D01*
X120091004Y-78735061D01*
X120068182Y-78757609D01*
X120061066Y-78764641D01*
X120014785Y-78810381D01*
X119969333Y-78855297D01*
X119924919Y-78899184D01*
X119881749Y-78941836D01*
X119840032Y-78983048D01*
X119799975Y-79022615D01*
X119761787Y-79060333D01*
X119725675Y-79095995D01*
X119691846Y-79129397D01*
X119660509Y-79160334D01*
X119631871Y-79188600D01*
X119606140Y-79213990D01*
X119583524Y-79236300D01*
X119564231Y-79255323D01*
X119548468Y-79270855D01*
X119536444Y-79282691D01*
X119528365Y-79290625D01*
X119527984Y-79290999D01*
X119519060Y-79299760D01*
X119506511Y-79312110D01*
X119490878Y-79327513D01*
X119472703Y-79345436D01*
X119452527Y-79365345D01*
X119430891Y-79386707D01*
X119408335Y-79408987D01*
X119385402Y-79431652D01*
X119376950Y-79440008D01*
X119335885Y-79480608D01*
X119294750Y-79521269D01*
X119253798Y-79561744D01*
X119213281Y-79601783D01*
X119173450Y-79641138D01*
X119134557Y-79679559D01*
X119096856Y-79716798D01*
X119060597Y-79752606D01*
X119026033Y-79786735D01*
X118993416Y-79818934D01*
X118962998Y-79848956D01*
X118935030Y-79876552D01*
X118909766Y-79901472D01*
X118887456Y-79923469D01*
X118868354Y-79942292D01*
X118852710Y-79957694D01*
X118840778Y-79969425D01*
X118834021Y-79976051D01*
X118823454Y-79986415D01*
X118809340Y-80000294D01*
X118792296Y-80017079D01*
X118772940Y-80036161D01*
X118751887Y-80056932D01*
X118729756Y-80078784D01*
X118707164Y-80101107D01*
X118685478Y-80122550D01*
X118623926Y-80183431D01*
X118566403Y-80240317D01*
X118512775Y-80293339D01*
X118462909Y-80342627D01*
X118416670Y-80388312D01*
X118373927Y-80430525D01*
X118334546Y-80469396D01*
X118298394Y-80505056D01*
X118265337Y-80537636D01*
X118235242Y-80567266D01*
X118207977Y-80594077D01*
X118183406Y-80618201D01*
X118161399Y-80639766D01*
X118141821Y-80658905D01*
X118124538Y-80675748D01*
X118109419Y-80690425D01*
X118096328Y-80703068D01*
X118085135Y-80713807D01*
X118075704Y-80722772D01*
X118067903Y-80730095D01*
X118061598Y-80735906D01*
X118056657Y-80740335D01*
X118052946Y-80743514D01*
X118050332Y-80745573D01*
X118050231Y-80745647D01*
X118029348Y-80757509D01*
X118006066Y-80765117D01*
X117981895Y-80768185D01*
X117958344Y-80766429D01*
X117950261Y-80764547D01*
X117930612Y-80757227D01*
X117912692Y-80746411D01*
X117894926Y-80731118D01*
X117892024Y-80728222D01*
X117886831Y-80722958D01*
X117877964Y-80713977D01*
X117865868Y-80701730D01*
X117850988Y-80686667D01*
X117833769Y-80669238D01*
X117814656Y-80649895D01*
X117794095Y-80629088D01*
X117772530Y-80607267D01*
X117761206Y-80595809D01*
X117734632Y-80568919D01*
X117705019Y-80538950D01*
X117673446Y-80506995D01*
X117640992Y-80474144D01*
X117608735Y-80441490D01*
X117577753Y-80410124D01*
X117549125Y-80381137D01*
X117532667Y-80364471D01*
X117512656Y-80344207D01*
X117489089Y-80320345D01*
X117462531Y-80293456D01*
X117433545Y-80264112D01*
X117402695Y-80232882D01*
X117370546Y-80200337D01*
X117337661Y-80167049D01*
X117304603Y-80133588D01*
X117271937Y-80100525D01*
X117240226Y-80068430D01*
X117226485Y-80054522D01*
X117197675Y-80025360D01*
X117169305Y-79996632D01*
X117141745Y-79968713D01*
X117115363Y-79941979D01*
X117090529Y-79916803D01*
X117067614Y-79893562D01*
X117046986Y-79872629D01*
X117029017Y-79854381D01*
X117014075Y-79839192D01*
X117002530Y-79827437D01*
X116995016Y-79819762D01*
X116984963Y-79809490D01*
X116971379Y-79795653D01*
X116954853Y-79778851D01*
X116935977Y-79759683D01*
X116915342Y-79738749D01*
X116893538Y-79716649D01*
X116871156Y-79693982D01*
X116848788Y-79671348D01*
X116847291Y-79669834D01*
X116806356Y-79628431D01*
X116763239Y-79584809D01*
X116717800Y-79538829D01*
X116669900Y-79490349D01*
X116619399Y-79439228D01*
X116566157Y-79385324D01*
X116510036Y-79328496D01*
X116450896Y-79268604D01*
X116388597Y-79205505D01*
X116323001Y-79139058D01*
X116253966Y-79069123D01*
X116181355Y-78995558D01*
X116105027Y-78918222D01*
X116024843Y-78836973D01*
X115953767Y-78764949D01*
X115928443Y-78739290D01*
X115900045Y-78710521D01*
X115869620Y-78679703D01*
X115838211Y-78647893D01*
X115806866Y-78616151D01*
X115776630Y-78585536D01*
X115748548Y-78557106D01*
X115732366Y-78540727D01*
X115706109Y-78514149D01*
X115676801Y-78484482D01*
X115645512Y-78452805D01*
X115613307Y-78420199D01*
X115581254Y-78387746D01*
X115550419Y-78356524D01*
X115521872Y-78327615D01*
X115505121Y-78310651D01*
X115485033Y-78290308D01*
X115461396Y-78266370D01*
X115434778Y-78239414D01*
X115405747Y-78210015D01*
X115374872Y-78178750D01*
X115342721Y-78146192D01*
X115309862Y-78112918D01*
X115276864Y-78079504D01*
X115244295Y-78046524D01*
X115212723Y-78014555D01*
X115200403Y-78002080D01*
X115171876Y-77973190D01*
X115143907Y-77944859D01*
X115116855Y-77917448D01*
X115091077Y-77891322D01*
X115066931Y-77866842D01*
X115044774Y-77844371D01*
X115024963Y-77824271D01*
X115007857Y-77806907D01*
X114993814Y-77792639D01*
X114983190Y-77781831D01*
X114976570Y-77775079D01*
X114968022Y-77766358D01*
X114955881Y-77754009D01*
X114940675Y-77738565D01*
X114922931Y-77720564D01*
X114903179Y-77700540D01*
X114881947Y-77679030D01*
X114859764Y-77656570D01*
X114837156Y-77633694D01*
X114828606Y-77625046D01*
X114807788Y-77603988D01*
X115141803Y-77603988D01*
X115168173Y-77631373D01*
X115175604Y-77639029D01*
X115186624Y-77650302D01*
X115200699Y-77664647D01*
X115217292Y-77681519D01*
X115235867Y-77700375D01*
X115255888Y-77720669D01*
X115276820Y-77741857D01*
X115297572Y-77762834D01*
X115319118Y-77784613D01*
X115340476Y-77806230D01*
X115361078Y-77827105D01*
X115380355Y-77846662D01*
X115397737Y-77864324D01*
X115412657Y-77879514D01*
X115424546Y-77891653D01*
X115432351Y-77899665D01*
X115440760Y-77908295D01*
X115452750Y-77920533D01*
X115467774Y-77935826D01*
X115485286Y-77953618D01*
X115504742Y-77973358D01*
X115525596Y-77994490D01*
X115547301Y-78016461D01*
X115569314Y-78038717D01*
X115572334Y-78041769D01*
X115598187Y-78067896D01*
X115627053Y-78097079D01*
X115657830Y-78128204D01*
X115689414Y-78160156D01*
X115720705Y-78191819D01*
X115750600Y-78222078D01*
X115777995Y-78249818D01*
X115789153Y-78261119D01*
X115864094Y-78337035D01*
X115935002Y-78408862D01*
X116001961Y-78476683D01*
X116065051Y-78540583D01*
X116124356Y-78600644D01*
X116179958Y-78656950D01*
X116231939Y-78709584D01*
X116243326Y-78721114D01*
X116269762Y-78747883D01*
X116299250Y-78777747D01*
X116330728Y-78809631D01*
X116363134Y-78842458D01*
X116395405Y-78875152D01*
X116426479Y-78906636D01*
X116455292Y-78935835D01*
X116473262Y-78954047D01*
X116499416Y-78980554D01*
X116528157Y-79009683D01*
X116558498Y-79040428D01*
X116589446Y-79071789D01*
X116620012Y-79102760D01*
X116649207Y-79132339D01*
X116676039Y-79159522D01*
X116694476Y-79178199D01*
X116747552Y-79231964D01*
X116796840Y-79281892D01*
X116842666Y-79328314D01*
X116885359Y-79371563D01*
X116925246Y-79411971D01*
X116962657Y-79449871D01*
X116997918Y-79485595D01*
X117031358Y-79519475D01*
X117063305Y-79551844D01*
X117094087Y-79583033D01*
X117124031Y-79613375D01*
X117147113Y-79636765D01*
X117192973Y-79683221D01*
X117234841Y-79725597D01*
X117272823Y-79764000D01*
X117307027Y-79798538D01*
X117337559Y-79829317D01*
X117364526Y-79856445D01*
X117388037Y-79880029D01*
X117408197Y-79900176D01*
X117425114Y-79916993D01*
X117438894Y-79930587D01*
X117449646Y-79941066D01*
X117457476Y-79948537D01*
X117462491Y-79953106D01*
X117464798Y-79954882D01*
X117464977Y-79954886D01*
X117465091Y-79951804D01*
X117465197Y-79943171D01*
X117465295Y-79929296D01*
X117465383Y-79910488D01*
X117465462Y-79887057D01*
X117465532Y-79859311D01*
X117465591Y-79827560D01*
X117465640Y-79792112D01*
X117465678Y-79753278D01*
X117465704Y-79711365D01*
X117465718Y-79666682D01*
X117465720Y-79619540D01*
X117465710Y-79570247D01*
X117465685Y-79519112D01*
X117465656Y-79476283D01*
X117465606Y-79414426D01*
X117465557Y-79358161D01*
X117465504Y-79307219D01*
X117465446Y-79261333D01*
X117465377Y-79220233D01*
X117465295Y-79183651D01*
X117465197Y-79151320D01*
X117465078Y-79122970D01*
X117464935Y-79098334D01*
X117464765Y-79077142D01*
X117464565Y-79059128D01*
X117464330Y-79044023D01*
X117464058Y-79031557D01*
X117463745Y-79021464D01*
X117463387Y-79013474D01*
X117462981Y-79007319D01*
X117462523Y-79002732D01*
X117462011Y-78999443D01*
X117461440Y-78997184D01*
X117460807Y-78995688D01*
X117460109Y-78994685D01*
X117459418Y-78993980D01*
X117456133Y-78990965D01*
X117448823Y-78984316D01*
X117437759Y-78974277D01*
X117423214Y-78961095D01*
X117405459Y-78945016D01*
X117384768Y-78926286D01*
X117361411Y-78905150D01*
X117335662Y-78881855D01*
X117307793Y-78856646D01*
X117278075Y-78829770D01*
X117246781Y-78801473D01*
X117214183Y-78772000D01*
X117180553Y-78741597D01*
X117146164Y-78710511D01*
X117111287Y-78678988D01*
X117076195Y-78647273D01*
X117041159Y-78615612D01*
X117006453Y-78584252D01*
X116972348Y-78553437D01*
X116939116Y-78523416D01*
X116907030Y-78494432D01*
X116876362Y-78466733D01*
X116847383Y-78440564D01*
X116820366Y-78416171D01*
X116795584Y-78393800D01*
X116773308Y-78373697D01*
X116753811Y-78356108D01*
X116737364Y-78341279D01*
X116724241Y-78329457D01*
X116714712Y-78320886D01*
X116709051Y-78315813D01*
X116707502Y-78314449D01*
X116703369Y-78312501D01*
X116697610Y-78312997D01*
X116689979Y-78315422D01*
X116680824Y-78317688D01*
X116667328Y-78319671D01*
X116651006Y-78321171D01*
X116641953Y-78321692D01*
X116625103Y-78322265D01*
X116612080Y-78322093D01*
X116600884Y-78321022D01*
X116589512Y-78318900D01*
X116581889Y-78317086D01*
X116547252Y-78305523D01*
X116515584Y-78289068D01*
X116487274Y-78268091D01*
X116462711Y-78242959D01*
X116442286Y-78214042D01*
X116426387Y-78181706D01*
X116420235Y-78164303D01*
X116417402Y-78154325D01*
X116415464Y-78144868D01*
X116414260Y-78134425D01*
X116413633Y-78121492D01*
X116413421Y-78104561D01*
X116413415Y-78099844D01*
X116413416Y-78099740D01*
X116531940Y-78099740D01*
X116534239Y-78122518D01*
X116541590Y-78144716D01*
X116552664Y-78163483D01*
X116562449Y-78174064D01*
X116575500Y-78184587D01*
X116589604Y-78193470D01*
X116602537Y-78199130D01*
X116616115Y-78201466D01*
X116632654Y-78201722D01*
X116649820Y-78200084D01*
X116665282Y-78196739D01*
X116673936Y-78193433D01*
X116692419Y-78181361D01*
X116708595Y-78165279D01*
X116720802Y-78146884D01*
X116721997Y-78144439D01*
X116725865Y-78135370D01*
X116728225Y-78127047D01*
X116729432Y-78117473D01*
X116729836Y-78104650D01*
X116729853Y-78099844D01*
X116729621Y-78085639D01*
X116728692Y-78075289D01*
X116726715Y-78066798D01*
X116723339Y-78058172D01*
X116722029Y-78055318D01*
X116710241Y-78036343D01*
X116694308Y-78019665D01*
X116675867Y-78006969D01*
X116674151Y-78006084D01*
X116666095Y-78002480D01*
X116658290Y-78000275D01*
X116648868Y-77999146D01*
X116635960Y-77998773D01*
X116631698Y-77998759D01*
X116617596Y-77998982D01*
X116607495Y-77999863D01*
X116599544Y-78001723D01*
X116591894Y-78004884D01*
X116589478Y-78006084D01*
X116569411Y-78019362D01*
X116553430Y-78036193D01*
X116541729Y-78055751D01*
X116534502Y-78077209D01*
X116531940Y-78099740D01*
X116413416Y-78099740D01*
X116413551Y-78081757D01*
X116414067Y-78068020D01*
X116415121Y-78057127D01*
X116416873Y-78047574D01*
X116419481Y-78037853D01*
X116420235Y-78035384D01*
X116433776Y-78001123D01*
X116451963Y-77970370D01*
X116474618Y-77943303D01*
X116501565Y-77920100D01*
X116532626Y-77900941D01*
X116567624Y-77886004D01*
X116568704Y-77885632D01*
X116577778Y-77882773D01*
X116586289Y-77880806D01*
X116595674Y-77879569D01*
X116607370Y-77878905D01*
X116622816Y-77878652D01*
X116631698Y-77878630D01*
X116649421Y-77878748D01*
X116662727Y-77879206D01*
X116673056Y-77880165D01*
X116681848Y-77881783D01*
X116690543Y-77884219D01*
X116694693Y-77885585D01*
X116729181Y-77900152D01*
X116760082Y-77919089D01*
X116787087Y-77942057D01*
X116809892Y-77968719D01*
X116828187Y-77998736D01*
X116841668Y-78031770D01*
X116847564Y-78054047D01*
X116850521Y-78075774D01*
X116851180Y-78100524D01*
X116849664Y-78126086D01*
X116846093Y-78150249D01*
X116841313Y-78168698D01*
X116833552Y-78188604D01*
X116823659Y-78209064D01*
X116812960Y-78227426D01*
X116808903Y-78233383D01*
X116807592Y-78235670D01*
X116807463Y-78238119D01*
X116809027Y-78241328D01*
X116812795Y-78245898D01*
X116819276Y-78252428D01*
X116828983Y-78261516D01*
X116842425Y-78273764D01*
X116846299Y-78277272D01*
X116860388Y-78290034D01*
X116873940Y-78302329D01*
X116885981Y-78313272D01*
X116895536Y-78321978D01*
X116901257Y-78327216D01*
X116907765Y-78333171D01*
X116918107Y-78342586D01*
X116931986Y-78355190D01*
X116949102Y-78370715D01*
X116969157Y-78388889D01*
X116991852Y-78409444D01*
X117016888Y-78432110D01*
X117043968Y-78456616D01*
X117072792Y-78482694D01*
X117103062Y-78510072D01*
X117134479Y-78538482D01*
X117166745Y-78567653D01*
X117199561Y-78597316D01*
X117232628Y-78627201D01*
X117265648Y-78657038D01*
X117298323Y-78686557D01*
X117330353Y-78715488D01*
X117361440Y-78743562D01*
X117391286Y-78770508D01*
X117419592Y-78796058D01*
X117446059Y-78819941D01*
X117470389Y-78841887D01*
X117492283Y-78861626D01*
X117511442Y-78878889D01*
X117527569Y-78893406D01*
X117540364Y-78904907D01*
X117549528Y-78913122D01*
X117554764Y-78917781D01*
X117555683Y-78918581D01*
X117565051Y-78927481D01*
X117573321Y-78936937D01*
X117578710Y-78944909D01*
X117578724Y-78944936D01*
X117584793Y-78956833D01*
X117585100Y-79518630D01*
X117585407Y-80080426D01*
X117622320Y-80117825D01*
X117631867Y-80127494D01*
X117644954Y-80140739D01*
X117660998Y-80156973D01*
X117679417Y-80175607D01*
X117699629Y-80196051D01*
X117721053Y-80217718D01*
X117743105Y-80240018D01*
X117765205Y-80262362D01*
X117765889Y-80263054D01*
X117787651Y-80285074D01*
X117809106Y-80306817D01*
X117829715Y-80327736D01*
X117848941Y-80347283D01*
X117866246Y-80364911D01*
X117881091Y-80380072D01*
X117892939Y-80392219D01*
X117901252Y-80400803D01*
X117901845Y-80401421D01*
X117912381Y-80412279D01*
X117921504Y-80421446D01*
X117928444Y-80428168D01*
X117932432Y-80431690D01*
X117933029Y-80432034D01*
X117935638Y-80429805D01*
X117937246Y-80426981D01*
X117937412Y-80423723D01*
X117937574Y-80414856D01*
X117937733Y-80400628D01*
X117937888Y-80381290D01*
X117938039Y-80357091D01*
X117938186Y-80328281D01*
X117938328Y-80295110D01*
X117938466Y-80257827D01*
X117938600Y-80216683D01*
X117938728Y-80171928D01*
X117938852Y-80123810D01*
X117938970Y-80072580D01*
X117939083Y-80018488D01*
X117939190Y-79961783D01*
X117939292Y-79902715D01*
X117939388Y-79841535D01*
X117939478Y-79778491D01*
X117939562Y-79713835D01*
X117939640Y-79647814D01*
X117939711Y-79580680D01*
X117939776Y-79512682D01*
X117939834Y-79444070D01*
X117939885Y-79375093D01*
X117939928Y-79306002D01*
X117939965Y-79237046D01*
X117939994Y-79168475D01*
X117940015Y-79100540D01*
X117940029Y-79033488D01*
X117940035Y-78967572D01*
X117940033Y-78903039D01*
X117940022Y-78840141D01*
X117940003Y-78779126D01*
X117939976Y-78720246D01*
X117939940Y-78663748D01*
X117939894Y-78609884D01*
X117939840Y-78558904D01*
X117939777Y-78511056D01*
X117939704Y-78466590D01*
X117939622Y-78425757D01*
X117939530Y-78388807D01*
X117939428Y-78355988D01*
X117939316Y-78327552D01*
X117939194Y-78303747D01*
X117939062Y-78284824D01*
X117938919Y-78271032D01*
X117938765Y-78262621D01*
X117938654Y-78260093D01*
X117937005Y-78243078D01*
X117920428Y-78236358D01*
X117888975Y-78220509D01*
X117860673Y-78199947D01*
X117835954Y-78175147D01*
X117815249Y-78146586D01*
X117798991Y-78114741D01*
X117791466Y-78093984D01*
X117788633Y-78084006D01*
X117786694Y-78074548D01*
X117785491Y-78064106D01*
X117784863Y-78051172D01*
X117784652Y-78034242D01*
X117784646Y-78029524D01*
X117784647Y-78029420D01*
X117903171Y-78029420D01*
X117905470Y-78052198D01*
X117912821Y-78074396D01*
X117923895Y-78093163D01*
X117933680Y-78103744D01*
X117946730Y-78114267D01*
X117960835Y-78123151D01*
X117973768Y-78128811D01*
X117987346Y-78131147D01*
X118003884Y-78131403D01*
X118021051Y-78129765D01*
X118036513Y-78126419D01*
X118045167Y-78123114D01*
X118063649Y-78111041D01*
X118079826Y-78094960D01*
X118092033Y-78076564D01*
X118093228Y-78074119D01*
X118097095Y-78065050D01*
X118099456Y-78056728D01*
X118100663Y-78047154D01*
X118101066Y-78034330D01*
X118101084Y-78029524D01*
X118100852Y-78015319D01*
X118099923Y-78004969D01*
X118097946Y-77996478D01*
X118094570Y-77987852D01*
X118093260Y-77984999D01*
X118081472Y-77966023D01*
X118065539Y-77949346D01*
X118047098Y-77936649D01*
X118045382Y-77935765D01*
X118037326Y-77932160D01*
X118029521Y-77929955D01*
X118020098Y-77928827D01*
X118007191Y-77928453D01*
X118002929Y-77928440D01*
X117988827Y-77928662D01*
X117978726Y-77929543D01*
X117970775Y-77931403D01*
X117963125Y-77934564D01*
X117960709Y-77935765D01*
X117940642Y-77949043D01*
X117924661Y-77965874D01*
X117912960Y-77985431D01*
X117905733Y-78006889D01*
X117903171Y-78029420D01*
X117784647Y-78029420D01*
X117784782Y-78011437D01*
X117785298Y-77997700D01*
X117786352Y-77986808D01*
X117788103Y-77977254D01*
X117790712Y-77967534D01*
X117791466Y-77965065D01*
X117805007Y-77930804D01*
X117823194Y-77900050D01*
X117845849Y-77872983D01*
X117872795Y-77849781D01*
X117903856Y-77830621D01*
X117938855Y-77815684D01*
X117939935Y-77815313D01*
X117949009Y-77812454D01*
X117957520Y-77810486D01*
X117966905Y-77809250D01*
X117978601Y-77808585D01*
X117994047Y-77808333D01*
X118002929Y-77808311D01*
X118020652Y-77808428D01*
X118033958Y-77808887D01*
X118044287Y-77809846D01*
X118053079Y-77811463D01*
X118061774Y-77813899D01*
X118065924Y-77815266D01*
X118100516Y-77829860D01*
X118131459Y-77848794D01*
X118158462Y-77871751D01*
X118181238Y-77898412D01*
X118199496Y-77928456D01*
X118212947Y-77961567D01*
X118218795Y-77983727D01*
X118221749Y-78005443D01*
X118222410Y-78030188D01*
X118220897Y-78055750D01*
X118217331Y-78079917D01*
X118212554Y-78098379D01*
X118198476Y-78132068D01*
X118179891Y-78162485D01*
X118157154Y-78189101D01*
X118142367Y-78202457D01*
X118125582Y-78214766D01*
X118106916Y-78226086D01*
X118088415Y-78235273D01*
X118073981Y-78240661D01*
X118066355Y-78243240D01*
X118062651Y-78246361D01*
X118061341Y-78252053D01*
X118061059Y-78257794D01*
X118061023Y-78261691D01*
X118060984Y-78271239D01*
X118060944Y-78286229D01*
X118060902Y-78306453D01*
X118060858Y-78331701D01*
X118060813Y-78361765D01*
X118060767Y-78396436D01*
X118060719Y-78435505D01*
X118060671Y-78478764D01*
X118060622Y-78526002D01*
X118060573Y-78577013D01*
X118060523Y-78631586D01*
X118060474Y-78689513D01*
X118060425Y-78750585D01*
X118060376Y-78814593D01*
X118060327Y-78881329D01*
X118060279Y-78950583D01*
X118060232Y-79022147D01*
X118060187Y-79095812D01*
X118060142Y-79171369D01*
X118060099Y-79248609D01*
X118060058Y-79327324D01*
X118060052Y-79340122D01*
X118059515Y-80408996D01*
X118146224Y-80322791D01*
X118169594Y-80299579D01*
X118195902Y-80273490D01*
X118223905Y-80245753D01*
X118252362Y-80217596D01*
X118280029Y-80190250D01*
X118305665Y-80164943D01*
X118320832Y-80149991D01*
X118408732Y-80063397D01*
X118409051Y-79524609D01*
X118409104Y-79453628D01*
X118409174Y-79388336D01*
X118409263Y-79328562D01*
X118409372Y-79274135D01*
X118409502Y-79224885D01*
X118409655Y-79180640D01*
X118409831Y-79141229D01*
X118410032Y-79106482D01*
X118410259Y-79076228D01*
X118410513Y-79050296D01*
X118410795Y-79028515D01*
X118411106Y-79010714D01*
X118411448Y-78996722D01*
X118411821Y-78986369D01*
X118412227Y-78979483D01*
X118412667Y-78975893D01*
X118412755Y-78975569D01*
X118413378Y-78974030D01*
X118414413Y-78972157D01*
X118416021Y-78969788D01*
X118418361Y-78966763D01*
X118421594Y-78962922D01*
X118425880Y-78958105D01*
X118431380Y-78952150D01*
X118438252Y-78944898D01*
X118446659Y-78936188D01*
X118456759Y-78925860D01*
X118468712Y-78913754D01*
X118482680Y-78899708D01*
X118498822Y-78883563D01*
X118517299Y-78865159D01*
X118538270Y-78844334D01*
X118561896Y-78820929D01*
X118588336Y-78794784D01*
X118617752Y-78765737D01*
X118650303Y-78733628D01*
X118686149Y-78698297D01*
X118725451Y-78659584D01*
X118768369Y-78617328D01*
X118815062Y-78571370D01*
X118865692Y-78521547D01*
X118893643Y-78494045D01*
X118934161Y-78454160D01*
X118970671Y-78418182D01*
X119003357Y-78385922D01*
X119032405Y-78357193D01*
X119058000Y-78331808D01*
X119080329Y-78309579D01*
X119099575Y-78290320D01*
X119115924Y-78273844D01*
X119129561Y-78259962D01*
X119140673Y-78248489D01*
X119149443Y-78239236D01*
X119156058Y-78232016D01*
X119160702Y-78226643D01*
X119163561Y-78222929D01*
X119164821Y-78220686D01*
X119164887Y-78219973D01*
X119163270Y-78215407D01*
X119160189Y-78206802D01*
X119156172Y-78195631D01*
X119153856Y-78189208D01*
X119150155Y-78178664D01*
X119147560Y-78170006D01*
X119145872Y-78161780D01*
X119144893Y-78152534D01*
X119144424Y-78140813D01*
X119144266Y-78125166D01*
X119144248Y-78118888D01*
X119144255Y-78117320D01*
X119262682Y-78117320D01*
X119264981Y-78140097D01*
X119272332Y-78162295D01*
X119283406Y-78181063D01*
X119293191Y-78191644D01*
X119306241Y-78202166D01*
X119320346Y-78211050D01*
X119333279Y-78216710D01*
X119346857Y-78219046D01*
X119363395Y-78219302D01*
X119380562Y-78217664D01*
X119396023Y-78214319D01*
X119404678Y-78211013D01*
X119423160Y-78198941D01*
X119439337Y-78182859D01*
X119451543Y-78164464D01*
X119452739Y-78162019D01*
X119456606Y-78152950D01*
X119458967Y-78144627D01*
X119460173Y-78135053D01*
X119460577Y-78122230D01*
X119460595Y-78117423D01*
X119460363Y-78103219D01*
X119459434Y-78092868D01*
X119457457Y-78084378D01*
X119454081Y-78075752D01*
X119452771Y-78072898D01*
X119440983Y-78053923D01*
X119425050Y-78037245D01*
X119406609Y-78024548D01*
X119404893Y-78023664D01*
X119396837Y-78020060D01*
X119389032Y-78017854D01*
X119379609Y-78016726D01*
X119366702Y-78016352D01*
X119362440Y-78016339D01*
X119348338Y-78016561D01*
X119338237Y-78017442D01*
X119330286Y-78019303D01*
X119322636Y-78022464D01*
X119320220Y-78023664D01*
X119300153Y-78036942D01*
X119284172Y-78053773D01*
X119272471Y-78073331D01*
X119265243Y-78094788D01*
X119262682Y-78117320D01*
X119144255Y-78117320D01*
X119144331Y-78100664D01*
X119144763Y-78086850D01*
X119145694Y-78076000D01*
X119147270Y-78066667D01*
X119149640Y-78057406D01*
X119150977Y-78052964D01*
X119164518Y-78018703D01*
X119182705Y-77987950D01*
X119205360Y-77960882D01*
X119232306Y-77937680D01*
X119263367Y-77918521D01*
X119298366Y-77903583D01*
X119299446Y-77903212D01*
X119308520Y-77900353D01*
X119317031Y-77898386D01*
X119326415Y-77897149D01*
X119338112Y-77896485D01*
X119353558Y-77896232D01*
X119362440Y-77896210D01*
X119380163Y-77896328D01*
X119393469Y-77896786D01*
X119403798Y-77897745D01*
X119412590Y-77899363D01*
X119421285Y-77901799D01*
X119425435Y-77903165D01*
X119460027Y-77917759D01*
X119490969Y-77936694D01*
X119517973Y-77959651D01*
X119540749Y-77986311D01*
X119559006Y-78016356D01*
X119572458Y-78049466D01*
X119578306Y-78071627D01*
X119581260Y-78093342D01*
X119581921Y-78118087D01*
X119580408Y-78143649D01*
X119576842Y-78167816D01*
X119572065Y-78186278D01*
X119557758Y-78220605D01*
X119539027Y-78251111D01*
X119515992Y-78277676D01*
X119488774Y-78300177D01*
X119457491Y-78318494D01*
X119429083Y-78330241D01*
X119416301Y-78334070D01*
X119402840Y-78336691D01*
X119386797Y-78338406D01*
X119372695Y-78339246D01*
X119342085Y-78339067D01*
X119314380Y-78335223D01*
X119287638Y-78327344D01*
X119268927Y-78319452D01*
X119249919Y-78310557D01*
X119167738Y-78392032D01*
X119153530Y-78406115D01*
X119139684Y-78419831D01*
X119125897Y-78433478D01*
X119111867Y-78447356D01*
X119097290Y-78461762D01*
X119081864Y-78476995D01*
X119065287Y-78493353D01*
X119047255Y-78511136D01*
X119027465Y-78530641D01*
X119005616Y-78552168D01*
X118981404Y-78576014D01*
X118954525Y-78602478D01*
X118924679Y-78631859D01*
X118891561Y-78664455D01*
X118854869Y-78700564D01*
X118814534Y-78740256D01*
X118790983Y-78763446D01*
X118764412Y-78789634D01*
X118735964Y-78817694D01*
X118706781Y-78846498D01*
X118678005Y-78874918D01*
X118650778Y-78901828D01*
X118626242Y-78926100D01*
X118625550Y-78926785D01*
X118528861Y-79022494D01*
X118528861Y-79480450D01*
X118528872Y-79544655D01*
X118528905Y-79603196D01*
X118528962Y-79656270D01*
X118529044Y-79704073D01*
X118529154Y-79746800D01*
X118529291Y-79784649D01*
X118529458Y-79817815D01*
X118529657Y-79846495D01*
X118529888Y-79870885D01*
X118530153Y-79891181D01*
X118530454Y-79907580D01*
X118530792Y-79920277D01*
X118531168Y-79929469D01*
X118531585Y-79935352D01*
X118532042Y-79938123D01*
X118532260Y-79938406D01*
X118534940Y-79936402D01*
X118541369Y-79930647D01*
X118551147Y-79921526D01*
X118563872Y-79909424D01*
X118579143Y-79894726D01*
X118596557Y-79877817D01*
X118615715Y-79859081D01*
X118636214Y-79838905D01*
X118643745Y-79831462D01*
X118666032Y-79809414D01*
X118690740Y-79784982D01*
X118717530Y-79758496D01*
X118746068Y-79730288D01*
X118776017Y-79700691D01*
X118807041Y-79670037D01*
X118838803Y-79638658D01*
X118870968Y-79606885D01*
X118903200Y-79575050D01*
X118935161Y-79543486D01*
X118966517Y-79512524D01*
X118996930Y-79482497D01*
X119026065Y-79453736D01*
X119053586Y-79426573D01*
X119079156Y-79401341D01*
X119102439Y-79378371D01*
X119123099Y-79357995D01*
X119140799Y-79340545D01*
X119155205Y-79326353D01*
X119165979Y-79315751D01*
X119170527Y-79311284D01*
X119177764Y-79304167D01*
X119188812Y-79293281D01*
X119203312Y-79278980D01*
X119220908Y-79261614D01*
X119241244Y-79241537D01*
X119263961Y-79219101D01*
X119288704Y-79194659D01*
X119315116Y-79168562D01*
X119342841Y-79141163D01*
X119371520Y-79112815D01*
X119400798Y-79083869D01*
X119404506Y-79080202D01*
X119433803Y-79051239D01*
X119462526Y-79022854D01*
X119490321Y-78995396D01*
X119516833Y-78969215D01*
X119541709Y-78944661D01*
X119564592Y-78922084D01*
X119585129Y-78901832D01*
X119602966Y-78884257D01*
X119617748Y-78869707D01*
X119629120Y-78858533D01*
X119636728Y-78851084D01*
X119637439Y-78850390D01*
X119646383Y-78841646D01*
X119658922Y-78829334D01*
X119674493Y-78814011D01*
X119692530Y-78796236D01*
X119712467Y-78776565D01*
X119733739Y-78755556D01*
X119755782Y-78733767D01*
X119778028Y-78711756D01*
X119780053Y-78709751D01*
X119800159Y-78689853D01*
X119823197Y-78667063D01*
X119848796Y-78641749D01*
X119876581Y-78614282D01*
X119906177Y-78585030D01*
X119937212Y-78554363D01*
X119969311Y-78522649D01*
X120002100Y-78490258D01*
X120035206Y-78457560D01*
X120068253Y-78424923D01*
X120100870Y-78392717D01*
X120132681Y-78361311D01*
X120163313Y-78331074D01*
X120192391Y-78302376D01*
X120219543Y-78275585D01*
X120244393Y-78251071D01*
X120266568Y-78229203D01*
X120285695Y-78210351D01*
X120301399Y-78194883D01*
X120313219Y-78183255D01*
X120321947Y-78174665D01*
X120334453Y-78162338D01*
X120350347Y-78146660D01*
X120369241Y-78128015D01*
X120390744Y-78106787D01*
X120414468Y-78083360D01*
X120440024Y-78058119D01*
X120467022Y-78031448D01*
X120495073Y-78003732D01*
X120523787Y-77975354D01*
X120547201Y-77952211D01*
X120576966Y-77922792D01*
X120606957Y-77893161D01*
X120636718Y-77863767D01*
X120665791Y-77835060D01*
X120693721Y-77807491D01*
X120720052Y-77781509D01*
X120744328Y-77757565D01*
X120766092Y-77736109D01*
X120784889Y-77717591D01*
X120800263Y-77702460D01*
X120807969Y-77694886D01*
X120878705Y-77625412D01*
X120678001Y-77625178D01*
X120641244Y-77625118D01*
X120603924Y-77625026D01*
X120566831Y-77624906D01*
X120530752Y-77624761D01*
X120496477Y-77624596D01*
X120464794Y-77624413D01*
X120436491Y-77624218D01*
X120412357Y-77624014D01*
X120393180Y-77623804D01*
X120390863Y-77623773D01*
X120379403Y-77623651D01*
X120362405Y-77623515D01*
X120340192Y-77623369D01*
X120313088Y-77623213D01*
X120281415Y-77623048D01*
X120245495Y-77622876D01*
X120205652Y-77622698D01*
X120162208Y-77622515D01*
X120115486Y-77622329D01*
X120065809Y-77622141D01*
X120013498Y-77621952D01*
X119958878Y-77621764D01*
X119902271Y-77621577D01*
X119843999Y-77621394D01*
X119784385Y-77621215D01*
X119723752Y-77621042D01*
X119686203Y-77620939D01*
X119622457Y-77620764D01*
X119558044Y-77620579D01*
X119493395Y-77620386D01*
X119428942Y-77620187D01*
X119365117Y-77619984D01*
X119302351Y-77619777D01*
X119241075Y-77619568D01*
X119181722Y-77619360D01*
X119124723Y-77619153D01*
X119070509Y-77618949D01*
X119019512Y-77618749D01*
X118972165Y-77618556D01*
X118928897Y-77618370D01*
X118890142Y-77618193D01*
X118856330Y-77618027D01*
X118827894Y-77617873D01*
X118824789Y-77617856D01*
X118793277Y-77617680D01*
X118756458Y-77617491D01*
X118714887Y-77617290D01*
X118669116Y-77617080D01*
X118619699Y-77616862D01*
X118567190Y-77616639D01*
X118512141Y-77616414D01*
X118455107Y-77616187D01*
X118396640Y-77615963D01*
X118337295Y-77615742D01*
X118277625Y-77615527D01*
X118218183Y-77615321D01*
X118159522Y-77615125D01*
X118102549Y-77614943D01*
X117976450Y-77614543D01*
X117850459Y-77614130D01*
X117724013Y-77613703D01*
X117596550Y-77613258D01*
X117467509Y-77612793D01*
X117336328Y-77612307D01*
X117202447Y-77611798D01*
X117065302Y-77611263D01*
X116924333Y-77610700D01*
X116778978Y-77610107D01*
X116628675Y-77609483D01*
X116532079Y-77609076D01*
X116490077Y-77608901D01*
X116442826Y-77608708D01*
X116390939Y-77608500D01*
X116335028Y-77608280D01*
X116275704Y-77608050D01*
X116213579Y-77607811D01*
X116149266Y-77607566D01*
X116083375Y-77607319D01*
X116016519Y-77607070D01*
X115949309Y-77606822D01*
X115882357Y-77606578D01*
X115816276Y-77606339D01*
X115751677Y-77606109D01*
X115689172Y-77605889D01*
X115666270Y-77605809D01*
X115141803Y-77603988D01*
X114807788Y-77603988D01*
X114802130Y-77598265D01*
X114772604Y-77568388D01*
X114741091Y-77536493D01*
X114708656Y-77503657D01*
X114676362Y-77470956D01*
X114645273Y-77439469D01*
X114616454Y-77410271D01*
X114598536Y-77392113D01*
X114572311Y-77365533D01*
X114543435Y-77336270D01*
X114512910Y-77305338D01*
X114481738Y-77273753D01*
X114450919Y-77242528D01*
X114421455Y-77212679D01*
X114394348Y-77185219D01*
X114376010Y-77166645D01*
X114320414Y-77110335D01*
X114268695Y-77057952D01*
X114220612Y-77009251D01*
X114175924Y-76963988D01*
X114134390Y-76921921D01*
X114095771Y-76882805D01*
X114059826Y-76846397D01*
X114026314Y-76812452D01*
X113994993Y-76780728D01*
X113965625Y-76750980D01*
X113937968Y-76722965D01*
X113911782Y-76696438D01*
X113886825Y-76671158D01*
X113862858Y-76646878D01*
X113839640Y-76623357D01*
X113816930Y-76600349D01*
X113794487Y-76577612D01*
X113772071Y-76554902D01*
X113749442Y-76531975D01*
X113726359Y-76508587D01*
X113707739Y-76489721D01*
X113681093Y-76462727D01*
X113651458Y-76432710D01*
X113619895Y-76400747D01*
X113587466Y-76367912D01*
X113555233Y-76335280D01*
X113524259Y-76303928D01*
X113495605Y-76274929D01*
X113477736Y-76256848D01*
X113419474Y-76197897D01*
X113365233Y-76143001D01*
X113314905Y-76092050D01*
X113268386Y-76044939D01*
X113225569Y-76001559D01*
X113186348Y-75961803D01*
X113150618Y-75925563D01*
X113118274Y-75892732D01*
X113089208Y-75863201D01*
X113063316Y-75836864D01*
X113040492Y-75813613D01*
X113020629Y-75793341D01*
X113003623Y-75775939D01*
X112989367Y-75761300D01*
X112977755Y-75749317D01*
X112968682Y-75739881D01*
X112962042Y-75732887D01*
X112957729Y-75728225D01*
X112956298Y-75726601D01*
X112947801Y-75715560D01*
X112939663Y-75703265D01*
X112934682Y-75694371D01*
X112931106Y-75686546D01*
X112928793Y-75679453D01*
X112927474Y-75671451D01*
X112926878Y-75660898D01*
X112926766Y-75649147D01*
X113213005Y-75649147D01*
X113215181Y-75651918D01*
X113221102Y-75658433D01*
X113230376Y-75668286D01*
X113242610Y-75681069D01*
X113257412Y-75696376D01*
X113274391Y-75713800D01*
X113293154Y-75732934D01*
X113313309Y-75753372D01*
X113319356Y-75759482D01*
X113343463Y-75783831D01*
X113370714Y-75811370D01*
X113400137Y-75841117D01*
X113430761Y-75872089D01*
X113461614Y-75903304D01*
X113491726Y-75933780D01*
X113520124Y-75962533D01*
X113541830Y-75984521D01*
X113609231Y-76052808D01*
X113680337Y-76124842D01*
X113754734Y-76200203D01*
X113832007Y-76278472D01*
X113911743Y-76359228D01*
X113993526Y-76442052D01*
X114076942Y-76526523D01*
X114161576Y-76612222D01*
X114215930Y-76667256D01*
X114239393Y-76691016D01*
X114266628Y-76718599D01*
X114297290Y-76749657D01*
X114331035Y-76783840D01*
X114367519Y-76820802D01*
X114406398Y-76860192D01*
X114447328Y-76901663D01*
X114489964Y-76944865D01*
X114533964Y-76989450D01*
X114578982Y-77035070D01*
X114624676Y-77081376D01*
X114670700Y-77128020D01*
X114716711Y-77174652D01*
X114762364Y-77220924D01*
X114806646Y-77265808D01*
X114904475Y-77364971D01*
X114926450Y-77365930D01*
X114931462Y-77366030D01*
X114942056Y-77366143D01*
X114957951Y-77366267D01*
X114978869Y-77366402D01*
X115004531Y-77366547D01*
X115034658Y-77366700D01*
X115068970Y-77366861D01*
X115107189Y-77367027D01*
X115149035Y-77367199D01*
X115194230Y-77367374D01*
X115242494Y-77367552D01*
X115293549Y-77367732D01*
X115347116Y-77367912D01*
X115402914Y-77368091D01*
X115460666Y-77368269D01*
X115520092Y-77368443D01*
X115580913Y-77368613D01*
X115582766Y-77368618D01*
X115646295Y-77368796D01*
X115709915Y-77368982D01*
X115773244Y-77369175D01*
X115835898Y-77369374D01*
X115897492Y-77369577D01*
X115957645Y-77369783D01*
X116015971Y-77369990D01*
X116072089Y-77370197D01*
X116125613Y-77370402D01*
X116176162Y-77370604D01*
X116223351Y-77370802D01*
X116266797Y-77370994D01*
X116306117Y-77371178D01*
X116340926Y-77371354D01*
X116370842Y-77371519D01*
X116395482Y-77371672D01*
X116406090Y-77371746D01*
X116428835Y-77371900D01*
X116457023Y-77372065D01*
X116490238Y-77372241D01*
X116528064Y-77372424D01*
X116570085Y-77372615D01*
X116615883Y-77372812D01*
X116665043Y-77373012D01*
X116717148Y-77373214D01*
X116771781Y-77373417D01*
X116828527Y-77373619D01*
X116886969Y-77373818D01*
X116946690Y-77374013D01*
X117007274Y-77374202D01*
X117068305Y-77374384D01*
X117129366Y-77374557D01*
X117170815Y-77374669D01*
X117232086Y-77374836D01*
X117293857Y-77375013D01*
X117355695Y-77375198D01*
X117417162Y-77375391D01*
X117477824Y-77375589D01*
X117537245Y-77375791D01*
X117594990Y-77375995D01*
X117650622Y-77376199D01*
X117703707Y-77376403D01*
X117753809Y-77376603D01*
X117800492Y-77376800D01*
X117843321Y-77376990D01*
X117881860Y-77377173D01*
X117915674Y-77377346D01*
X117944327Y-77377509D01*
X117958980Y-77377602D01*
X117984084Y-77377755D01*
X118014619Y-77377921D01*
X118050157Y-77378097D01*
X118090269Y-77378282D01*
X118134526Y-77378473D01*
X118182500Y-77378670D01*
X118233761Y-77378871D01*
X118287882Y-77379074D01*
X118344434Y-77379278D01*
X118402988Y-77379480D01*
X118463115Y-77379681D01*
X118524387Y-77379877D01*
X118586374Y-77380068D01*
X118648649Y-77380251D01*
X118710783Y-77380426D01*
X118757399Y-77380551D01*
X118818382Y-77380716D01*
X118879393Y-77380891D01*
X118940039Y-77381073D01*
X118999922Y-77381262D01*
X119058649Y-77381456D01*
X119115823Y-77381653D01*
X119171049Y-77381852D01*
X119223931Y-77382051D01*
X119274075Y-77382249D01*
X119321085Y-77382445D01*
X119364565Y-77382636D01*
X119404120Y-77382821D01*
X119439354Y-77382999D01*
X119469873Y-77383168D01*
X119495280Y-77383327D01*
X119513334Y-77383459D01*
X119532717Y-77383599D01*
X119557601Y-77383752D01*
X119587631Y-77383918D01*
X119622448Y-77384093D01*
X119661696Y-77384278D01*
X119705016Y-77384470D01*
X119752051Y-77384668D01*
X119802444Y-77384872D01*
X119855838Y-77385079D01*
X119911874Y-77385288D01*
X119970195Y-77385498D01*
X120030444Y-77385707D01*
X120092264Y-77385915D01*
X120155297Y-77386118D01*
X120219185Y-77386318D01*
X120283571Y-77386510D01*
X120346914Y-77386692D01*
X120408846Y-77386868D01*
X120469220Y-77387043D01*
X120527774Y-77387215D01*
X120584247Y-77387385D01*
X120638379Y-77387551D01*
X120689907Y-77387712D01*
X120738573Y-77387867D01*
X120784113Y-77388016D01*
X120826269Y-77388158D01*
X120864778Y-77388291D01*
X120899380Y-77388416D01*
X120929815Y-77388530D01*
X120955820Y-77388634D01*
X120977135Y-77388725D01*
X120993500Y-77388804D01*
X121004653Y-77388870D01*
X121010334Y-77388921D01*
X121011041Y-77388941D01*
X121013977Y-77389036D01*
X121021844Y-77389071D01*
X121033711Y-77389045D01*
X121048649Y-77388961D01*
X121064964Y-77388829D01*
X121118402Y-77388334D01*
X121153842Y-77353158D01*
X121169162Y-77337987D01*
X121186443Y-77320926D01*
X121203812Y-77303823D01*
X121219398Y-77288523D01*
X121222978Y-77285018D01*
X121230093Y-77278036D01*
X121241013Y-77267293D01*
X121255373Y-77253147D01*
X121272810Y-77235957D01*
X121292962Y-77216082D01*
X121315464Y-77193879D01*
X121339954Y-77169707D01*
X121366068Y-77143925D01*
X121393442Y-77116891D01*
X121421714Y-77088964D01*
X121448144Y-77062851D01*
X121477141Y-77034201D01*
X121505731Y-77005960D01*
X121533533Y-76978504D01*
X121560166Y-76952208D01*
X121585250Y-76927450D01*
X121608401Y-76904605D01*
X121629241Y-76884049D01*
X121647386Y-76866158D01*
X121662457Y-76851309D01*
X121674073Y-76839877D01*
X121681049Y-76833025D01*
X121689358Y-76824860D01*
X121701452Y-76812950D01*
X121716949Y-76797672D01*
X121735470Y-76779399D01*
X121756633Y-76758510D01*
X121780057Y-76735380D01*
X121805362Y-76710385D01*
X121832166Y-76683901D01*
X121860089Y-76656305D01*
X121888749Y-76627972D01*
X121913982Y-76603021D01*
X121942766Y-76574561D01*
X121970994Y-76546659D01*
X121998304Y-76519676D01*
X122024332Y-76493969D01*
X122048712Y-76469898D01*
X122071082Y-76447823D01*
X122091077Y-76428102D01*
X122108333Y-76411096D01*
X122122485Y-76397162D01*
X122133171Y-76386662D01*
X122139619Y-76380349D01*
X122148332Y-76371821D01*
X122160674Y-76359696D01*
X122176108Y-76344503D01*
X122194099Y-76326770D01*
X122214112Y-76307024D01*
X122235612Y-76285793D01*
X122258063Y-76263607D01*
X122280931Y-76240991D01*
X122289628Y-76232385D01*
X122319001Y-76203322D01*
X122349787Y-76172872D01*
X122381692Y-76141325D01*
X122414423Y-76108970D01*
X122447685Y-76076098D01*
X122481186Y-76042998D01*
X122514632Y-76009960D01*
X122547728Y-75977275D01*
X122580182Y-75945231D01*
X122611700Y-75914119D01*
X122641988Y-75884228D01*
X122670752Y-75855849D01*
X122697699Y-75829271D01*
X122722535Y-75804783D01*
X122744967Y-75782677D01*
X122764700Y-75763241D01*
X122781442Y-75746766D01*
X122794898Y-75733541D01*
X122804776Y-75723856D01*
X122810780Y-75718001D01*
X122810787Y-75717995D01*
X122835452Y-75694120D01*
X122823972Y-75682324D01*
X122802818Y-75660613D01*
X122781825Y-75639120D01*
X122760373Y-75617217D01*
X122737843Y-75594271D01*
X122713615Y-75569654D01*
X122687070Y-75542734D01*
X122657588Y-75512882D01*
X122626844Y-75481788D01*
X122602117Y-75456783D01*
X122574278Y-75428622D01*
X122544331Y-75398319D01*
X122513279Y-75366889D01*
X122482124Y-75335349D01*
X122451871Y-75304714D01*
X122423521Y-75275998D01*
X122403961Y-75256179D01*
X122377725Y-75229593D01*
X122348836Y-75200320D01*
X122318294Y-75169375D01*
X122287103Y-75137773D01*
X122256263Y-75106529D01*
X122226776Y-75076657D01*
X122199645Y-75049174D01*
X122181283Y-75030574D01*
X122156423Y-75005394D01*
X122128467Y-74977074D01*
X122098433Y-74946649D01*
X122067342Y-74915150D01*
X122036212Y-74883610D01*
X122006063Y-74853062D01*
X121977913Y-74824539D01*
X121960043Y-74806431D01*
X121942949Y-74789109D01*
X121926392Y-74772332D01*
X121910105Y-74755829D01*
X121893817Y-74739328D01*
X121877261Y-74722557D01*
X121860167Y-74705243D01*
X121842268Y-74687115D01*
X121823294Y-74667900D01*
X121802977Y-74647326D01*
X121781047Y-74625122D01*
X121757238Y-74601015D01*
X121731278Y-74574733D01*
X121702901Y-74546004D01*
X121671837Y-74514556D01*
X121637817Y-74480118D01*
X121600574Y-74442416D01*
X121559837Y-74401179D01*
X121515339Y-74356134D01*
X121499861Y-74340466D01*
X121479778Y-74320135D01*
X121456148Y-74296207D01*
X121429537Y-74269259D01*
X121400515Y-74239866D01*
X121369649Y-74208602D01*
X121337506Y-74176043D01*
X121304656Y-74142765D01*
X121271665Y-74109343D01*
X121239102Y-74076352D01*
X121207535Y-74044367D01*
X121195143Y-74031810D01*
X121167100Y-74003401D01*
X121139950Y-73975908D01*
X121114011Y-73949655D01*
X121089603Y-73924964D01*
X121067048Y-73902160D01*
X121046664Y-73881566D01*
X121028772Y-73863504D01*
X121013692Y-73848298D01*
X121001743Y-73836272D01*
X120993246Y-73827748D01*
X120988521Y-73823050D01*
X120988335Y-73822868D01*
X120971976Y-73806911D01*
X120613298Y-73807392D01*
X120566380Y-73807463D01*
X120520076Y-73807547D01*
X120474839Y-73807643D01*
X120431123Y-73807750D01*
X120389380Y-73807865D01*
X120350064Y-73807988D01*
X120313629Y-73808117D01*
X120280528Y-73808251D01*
X120251213Y-73808387D01*
X120226140Y-73808524D01*
X120205760Y-73808660D01*
X120190527Y-73808795D01*
X120184300Y-73808871D01*
X120174508Y-73808976D01*
X120159167Y-73809095D01*
X120138585Y-73809226D01*
X120113072Y-73809368D01*
X120082938Y-73809520D01*
X120048493Y-73809681D01*
X120010046Y-73809850D01*
X119967908Y-73810024D01*
X119922387Y-73810203D01*
X119873794Y-73810387D01*
X119822438Y-73810572D01*
X119768629Y-73810759D01*
X119712677Y-73810946D01*
X119654892Y-73811132D01*
X119595583Y-73811316D01*
X119535059Y-73811496D01*
X119486964Y-73811633D01*
X119424549Y-73811813D01*
X119362462Y-73812002D01*
X119301058Y-73812196D01*
X119240694Y-73812396D01*
X119181724Y-73812599D01*
X119124503Y-73812805D01*
X119069389Y-73813011D01*
X119016735Y-73813217D01*
X118966897Y-73813421D01*
X118920231Y-73813621D01*
X118877091Y-73813816D01*
X118837835Y-73814004D01*
X118802816Y-73814185D01*
X118772391Y-73814356D01*
X118746914Y-73814517D01*
X118726742Y-73814665D01*
X118717845Y-73814743D01*
X118700345Y-73814888D01*
X118677359Y-73815045D01*
X118649259Y-73815213D01*
X118616418Y-73815390D01*
X118579209Y-73815574D01*
X118538005Y-73815765D01*
X118493180Y-73815960D01*
X118445106Y-73816158D01*
X118394157Y-73816358D01*
X118340705Y-73816558D01*
X118285124Y-73816757D01*
X118227786Y-73816953D01*
X118169065Y-73817144D01*
X118109333Y-73817330D01*
X118048964Y-73817508D01*
X117988331Y-73817677D01*
X117986814Y-73817681D01*
X117926129Y-73817850D01*
X117865669Y-73818028D01*
X117805811Y-73818213D01*
X117746929Y-73818404D01*
X117689399Y-73818599D01*
X117633596Y-73818797D01*
X117579895Y-73818996D01*
X117528671Y-73819195D01*
X117480300Y-73819392D01*
X117435157Y-73819587D01*
X117393616Y-73819776D01*
X117356054Y-73819959D01*
X117322845Y-73820135D01*
X117294364Y-73820301D01*
X117270987Y-73820457D01*
X117253089Y-73820601D01*
X117252854Y-73820603D01*
X117235475Y-73820743D01*
X117212595Y-73820895D01*
X117184573Y-73821059D01*
X117151770Y-73821232D01*
X117114544Y-73821414D01*
X117073254Y-73821603D01*
X117028261Y-73821798D01*
X116979922Y-73821997D01*
X116928598Y-73822198D01*
X116874648Y-73822401D01*
X116818432Y-73822603D01*
X116760307Y-73822805D01*
X116700635Y-73823003D01*
X116639773Y-73823196D01*
X116578082Y-73823384D01*
X116515921Y-73823565D01*
X116485199Y-73823651D01*
X116424057Y-73823824D01*
X116363830Y-73824004D01*
X116304835Y-73824189D01*
X116247386Y-73824378D01*
X116191797Y-73824569D01*
X116138384Y-73824761D01*
X116087461Y-73824954D01*
X116039343Y-73825144D01*
X115994344Y-73825332D01*
X115952780Y-73825516D01*
X115914966Y-73825695D01*
X115881215Y-73825867D01*
X115851843Y-73826031D01*
X115827165Y-73826186D01*
X115807495Y-73826330D01*
X115793148Y-73826463D01*
X115786399Y-73826548D01*
X115768831Y-73826774D01*
X115746994Y-73826977D01*
X115721322Y-73827159D01*
X115692251Y-73827318D01*
X115660214Y-73827457D01*
X115625646Y-73827574D01*
X115588982Y-73827670D01*
X115550654Y-73827745D01*
X115511099Y-73827800D01*
X115470749Y-73827834D01*
X115430040Y-73827848D01*
X115389407Y-73827842D01*
X115349282Y-73827817D01*
X115310101Y-73827771D01*
X115272298Y-73827707D01*
X115236307Y-73827623D01*
X115202563Y-73827520D01*
X115171499Y-73827398D01*
X115143552Y-73827258D01*
X115119154Y-73827099D01*
X115098740Y-73826922D01*
X115082744Y-73826728D01*
X115071601Y-73826515D01*
X115065745Y-73826285D01*
X115065060Y-73826208D01*
X115060827Y-73825740D01*
X115056793Y-73826630D01*
X115051985Y-73829524D01*
X115045427Y-73835070D01*
X115036147Y-73843914D01*
X115031489Y-73848486D01*
X115025775Y-73854121D01*
X115016237Y-73863536D01*
X115003220Y-73876390D01*
X114987066Y-73892344D01*
X114968121Y-73911058D01*
X114946727Y-73932193D01*
X114923230Y-73955408D01*
X114897972Y-73980364D01*
X114871298Y-74006721D01*
X114843551Y-74034139D01*
X114816576Y-74060797D01*
X114787788Y-74089244D01*
X114759502Y-74117192D01*
X114732090Y-74144273D01*
X114705922Y-74170121D01*
X114681370Y-74194369D01*
X114658806Y-74216650D01*
X114638601Y-74236597D01*
X114621127Y-74253843D01*
X114606755Y-74268022D01*
X114595857Y-74278767D01*
X114589502Y-74285024D01*
X114581898Y-74292512D01*
X114570499Y-74303751D01*
X114555681Y-74318372D01*
X114537815Y-74336006D01*
X114517277Y-74356283D01*
X114494439Y-74378836D01*
X114469674Y-74403295D01*
X114443358Y-74429291D01*
X114415862Y-74456456D01*
X114387561Y-74484420D01*
X114363894Y-74507809D01*
X114335253Y-74536111D01*
X114307140Y-74563885D01*
X114279924Y-74590765D01*
X114253976Y-74616388D01*
X114229666Y-74640387D01*
X114207363Y-74662397D01*
X114187438Y-74682053D01*
X114170262Y-74698989D01*
X114156203Y-74712841D01*
X114145633Y-74723244D01*
X114139750Y-74729019D01*
X114130826Y-74737781D01*
X114118277Y-74750130D01*
X114102644Y-74765533D01*
X114084469Y-74783457D01*
X114064293Y-74803366D01*
X114042657Y-74824728D01*
X114020102Y-74847009D01*
X113997169Y-74869674D01*
X113988718Y-74878029D01*
X113964030Y-74902436D01*
X113937041Y-74929110D01*
X113908093Y-74957714D01*
X113877529Y-74987909D01*
X113845691Y-75019358D01*
X113812919Y-75051725D01*
X113779557Y-75084670D01*
X113745945Y-75117858D01*
X113712427Y-75150950D01*
X113679343Y-75183609D01*
X113647036Y-75215497D01*
X113615848Y-75246277D01*
X113586120Y-75275612D01*
X113558195Y-75303163D01*
X113532413Y-75328595D01*
X113509118Y-75351568D01*
X113488651Y-75371746D01*
X113471353Y-75388790D01*
X113457568Y-75402365D01*
X113448275Y-75411504D01*
X113410084Y-75449079D01*
X113374898Y-75483815D01*
X113342836Y-75515591D01*
X113314017Y-75544288D01*
X113288559Y-75569785D01*
X113266581Y-75591963D01*
X113248203Y-75610701D01*
X113233543Y-75625879D01*
X113222720Y-75637377D01*
X113215853Y-75645076D01*
X113213061Y-75648855D01*
X113213005Y-75649147D01*
X112926766Y-75649147D01*
X112926738Y-75646151D01*
X112926738Y-75645923D01*
X112926784Y-75634633D01*
X112927139Y-75624793D01*
X112928129Y-75615932D01*
X112930079Y-75607580D01*
X112933316Y-75599266D01*
X112938165Y-75590517D01*
X112944953Y-75580865D01*
X112954004Y-75569837D01*
X112965645Y-75556963D01*
X112980201Y-75541771D01*
X112997999Y-75523791D01*
X113019363Y-75502553D01*
X113040132Y-75482020D01*
X113101797Y-75421092D01*
X113161703Y-75361905D01*
X113219719Y-75304591D01*
X113275709Y-75249282D01*
X113329542Y-75196110D01*
X113381082Y-75145205D01*
X113430198Y-75096700D01*
X113476755Y-75050727D01*
X113520620Y-75007416D01*
X113561660Y-74966901D01*
X113599741Y-74929313D01*
X113634730Y-74894783D01*
X113666493Y-74863443D01*
X113694898Y-74835424D01*
X113719809Y-74810860D01*
X113741095Y-74789880D01*
X113758622Y-74772618D01*
X113772256Y-74759204D01*
X113781863Y-74749771D01*
X113782293Y-74749350D01*
X113791216Y-74740588D01*
X113803765Y-74728239D01*
X113819397Y-74712835D01*
X113837573Y-74694912D01*
X113857750Y-74675002D01*
X113879388Y-74653639D01*
X113901947Y-74631358D01*
X113924884Y-74608691D01*
X113933364Y-74600308D01*
X113960154Y-74573826D01*
X113990038Y-74544293D01*
X114021939Y-74512773D01*
X114054778Y-74480330D01*
X114087480Y-74448028D01*
X114118966Y-74416933D01*
X114148158Y-74388107D01*
X114166298Y-74370200D01*
X114192796Y-74344042D01*
X114221916Y-74315296D01*
X114252654Y-74284950D01*
X114284007Y-74253996D01*
X114314971Y-74223425D01*
X114344543Y-74194228D01*
X114371719Y-74167394D01*
X114390361Y-74148986D01*
X114409286Y-74130299D01*
X114431827Y-74108040D01*
X114457433Y-74082755D01*
X114485549Y-74054992D01*
X114515622Y-74025295D01*
X114547101Y-73994211D01*
X114579431Y-73962286D01*
X114612060Y-73930066D01*
X114644435Y-73898097D01*
X114676003Y-73866925D01*
X114689219Y-73853875D01*
X114718318Y-73825143D01*
X114747061Y-73796767D01*
X114775060Y-73769129D01*
X114801930Y-73742611D01*
X114827283Y-73717594D01*
X114850732Y-73694460D01*
X114871891Y-73673590D01*
X114890374Y-73655366D01*
X114905792Y-73640169D01*
X114917760Y-73628381D01*
X114924985Y-73621273D01*
X114933713Y-73612683D01*
X114946219Y-73600358D01*
X114956614Y-73590106D01*
X115295627Y-73590106D01*
X115298517Y-73590233D01*
X115307025Y-73590334D01*
X115320910Y-73590408D01*
X115339931Y-73590457D01*
X115363845Y-73590482D01*
X115392412Y-73590483D01*
X115425390Y-73590460D01*
X115462537Y-73590415D01*
X115503612Y-73590349D01*
X115548374Y-73590261D01*
X115596581Y-73590153D01*
X115647991Y-73590025D01*
X115702363Y-73589878D01*
X115759456Y-73589713D01*
X115819028Y-73589531D01*
X115880837Y-73589332D01*
X115944642Y-73589116D01*
X116010202Y-73588885D01*
X116077275Y-73588639D01*
X116145620Y-73588379D01*
X116214995Y-73588106D01*
X116285158Y-73587820D01*
X116355869Y-73587522D01*
X116426885Y-73587213D01*
X116497965Y-73586893D01*
X116568868Y-73586564D01*
X116639352Y-73586225D01*
X116643418Y-73586205D01*
X116719835Y-73585838D01*
X116801924Y-73585459D01*
X116889499Y-73585067D01*
X116982372Y-73584665D01*
X117080357Y-73584252D01*
X117183265Y-73583829D01*
X117290911Y-73583398D01*
X117403107Y-73582958D01*
X117519665Y-73582511D01*
X117640399Y-73582057D01*
X117765121Y-73581597D01*
X117893645Y-73581132D01*
X118025782Y-73580662D01*
X118117199Y-73580342D01*
X118172151Y-73580147D01*
X118228929Y-73579936D01*
X118286896Y-73579714D01*
X118345415Y-73579483D01*
X118403850Y-73579245D01*
X118461563Y-73579003D01*
X118517918Y-73578760D01*
X118572278Y-73578520D01*
X118624005Y-73578283D01*
X118672464Y-73578054D01*
X118717016Y-73577835D01*
X118757026Y-73577629D01*
X118791856Y-73577438D01*
X118794024Y-73577426D01*
X118823729Y-73577265D01*
X118858822Y-73577091D01*
X118898830Y-73576905D01*
X118943280Y-73576709D01*
X118991701Y-73576506D01*
X119043620Y-73576295D01*
X119098564Y-73576081D01*
X119156061Y-73575863D01*
X119215639Y-73575645D01*
X119276825Y-73575427D01*
X119339147Y-73575212D01*
X119402132Y-73575001D01*
X119465308Y-73574797D01*
X119528203Y-73574600D01*
X119590344Y-73574413D01*
X119614419Y-73574343D01*
X119673205Y-73574167D01*
X119731236Y-73573985D01*
X119788171Y-73573797D01*
X119843667Y-73573605D01*
X119897382Y-73573410D01*
X119948974Y-73573214D01*
X119998101Y-73573018D01*
X120044421Y-73572824D01*
X120087592Y-73572632D01*
X120127271Y-73572446D01*
X120163117Y-73572266D01*
X120194788Y-73572093D01*
X120221941Y-73571929D01*
X120244234Y-73571776D01*
X120261326Y-73571634D01*
X120272199Y-73571516D01*
X120291353Y-73571300D01*
X120315529Y-73571093D01*
X120343888Y-73570898D01*
X120375592Y-73570720D01*
X120409803Y-73570562D01*
X120445683Y-73570429D01*
X120482393Y-73570324D01*
X120519095Y-73570251D01*
X120550125Y-73570217D01*
X120740151Y-73570094D01*
X120731783Y-73561924D01*
X120728195Y-73558346D01*
X120720895Y-73551003D01*
X120710288Y-73540305D01*
X120696778Y-73526660D01*
X120680768Y-73510475D01*
X120662663Y-73492160D01*
X120642866Y-73472122D01*
X120621782Y-73450770D01*
X120607862Y-73436668D01*
X120542880Y-73370826D01*
X120476967Y-73304048D01*
X120410950Y-73237171D01*
X120345657Y-73171031D01*
X120281913Y-73106467D01*
X120220545Y-73044317D01*
X120162380Y-72985416D01*
X120156661Y-72979625D01*
X120127423Y-72950018D01*
X120096902Y-72919110D01*
X120064820Y-72886619D01*
X120030900Y-72852264D01*
X119994864Y-72815764D01*
X119956434Y-72776838D01*
X119915334Y-72735205D01*
X119871286Y-72690584D01*
X119824012Y-72642694D01*
X119773235Y-72591255D01*
X119718678Y-72535984D01*
X119706713Y-72523862D01*
X119687080Y-72503974D01*
X119663869Y-72480468D01*
X119637621Y-72453889D01*
X119608878Y-72424787D01*
X119578180Y-72393709D01*
X119546069Y-72361204D01*
X119513087Y-72327818D01*
X119479774Y-72294101D01*
X119446672Y-72260600D01*
X119414323Y-72227863D01*
X119393205Y-72206494D01*
X119364062Y-72177000D01*
X119335503Y-72148087D01*
X119307873Y-72120105D01*
X119281520Y-72093405D01*
X119256790Y-72068339D01*
X119234028Y-72045259D01*
X119213582Y-72024514D01*
X119195797Y-72006457D01*
X119181020Y-71991439D01*
X119169598Y-71979810D01*
X119161875Y-71971922D01*
X119160744Y-71970762D01*
X119151951Y-71961765D01*
X119139597Y-71949177D01*
X119124246Y-71933572D01*
X119106462Y-71915521D01*
X119086808Y-71895596D01*
X119065850Y-71874369D01*
X119044150Y-71852413D01*
X119022274Y-71830298D01*
X119021570Y-71829588D01*
X119003317Y-71811140D01*
X118981468Y-71789043D01*
X118956539Y-71763823D01*
X118929049Y-71736003D01*
X118899516Y-71706107D01*
X118868456Y-71674659D01*
X118836388Y-71642184D01*
X118803830Y-71609206D01*
X118771299Y-71576249D01*
X118739313Y-71543837D01*
X118716380Y-71520594D01*
X118685127Y-71488920D01*
X118652949Y-71456313D01*
X118620362Y-71423299D01*
X118587885Y-71390401D01*
X118556035Y-71358143D01*
X118525329Y-71327050D01*
X118496286Y-71297646D01*
X118469422Y-71270455D01*
X118445257Y-71246002D01*
X118424307Y-71224810D01*
X118411221Y-71211579D01*
X118387128Y-71187211D01*
X118361358Y-71161117D01*
X118334787Y-71134190D01*
X118308295Y-71107318D01*
X118282758Y-71081393D01*
X118259055Y-71057305D01*
X118238061Y-71035944D01*
X118226939Y-71024611D01*
X118209435Y-71006820D01*
X118193233Y-70990466D01*
X118178786Y-70975994D01*
X118166543Y-70963852D01*
X118156956Y-70954486D01*
X118150474Y-70948342D01*
X118147550Y-70945868D01*
X118147436Y-70945847D01*
X118148030Y-70948839D01*
X118150493Y-70956130D01*
X118154429Y-70966618D01*
X118159309Y-70978872D01*
X118186995Y-71050254D01*
X118212412Y-71122971D01*
X118235296Y-71196068D01*
X118255381Y-71268589D01*
X118272404Y-71339576D01*
X118286100Y-71408075D01*
X118296203Y-71473128D01*
X118296277Y-71473693D01*
X118299135Y-71500188D01*
X118301390Y-71530262D01*
X118303008Y-71562480D01*
X118303956Y-71595408D01*
X118304200Y-71627610D01*
X118303709Y-71657653D01*
X118302447Y-71684103D01*
X118301436Y-71696371D01*
X118299445Y-71719758D01*
X118298379Y-71741346D01*
X118298277Y-71762502D01*
X118299184Y-71784592D01*
X118301138Y-71808982D01*
X118304184Y-71837038D01*
X118306219Y-71853586D01*
X118316890Y-71927335D01*
X118329609Y-71995943D01*
X118344487Y-72059798D01*
X118361639Y-72119289D01*
X118381177Y-72174806D01*
X118403214Y-72226738D01*
X118427862Y-72275475D01*
X118429187Y-72277874D01*
X118457214Y-72323207D01*
X118488202Y-72363491D01*
X118522100Y-72398699D01*
X118558861Y-72428803D01*
X118598435Y-72453778D01*
X118640773Y-72473596D01*
X118685826Y-72488231D01*
X118733545Y-72497655D01*
X118783881Y-72501841D01*
X118836266Y-72500799D01*
X118855182Y-72499131D01*
X118878204Y-72496495D01*
X118903703Y-72493131D01*
X118930053Y-72489277D01*
X118955623Y-72485170D01*
X118978786Y-72481049D01*
X118997914Y-72477153D01*
X118998076Y-72477117D01*
X119016419Y-72473683D01*
X119039194Y-72470481D01*
X119064972Y-72467641D01*
X119092327Y-72465292D01*
X119119831Y-72463564D01*
X119146057Y-72462586D01*
X119160272Y-72462412D01*
X119207407Y-72463928D01*
X119249943Y-72468654D01*
X119288263Y-72476717D01*
X119322749Y-72488242D01*
X119353786Y-72503357D01*
X119381755Y-72522188D01*
X119405486Y-72543283D01*
X119417357Y-72555698D01*
X119426225Y-72566423D01*
X119433569Y-72577544D01*
X119440869Y-72591148D01*
X119444156Y-72597854D01*
X119453520Y-72618603D01*
X119460627Y-72637877D01*
X119465744Y-72657036D01*
X119469143Y-72677443D01*
X119471092Y-72700458D01*
X119471862Y-72727442D01*
X119471903Y-72737979D01*
X119471692Y-72761404D01*
X119471029Y-72780658D01*
X119469794Y-72797419D01*
X119467866Y-72813367D01*
X119465367Y-72828809D01*
X119461308Y-72849672D01*
X119456132Y-72873170D01*
X119450267Y-72897585D01*
X119444139Y-72921201D01*
X119438176Y-72942299D01*
X119433309Y-72957697D01*
X119427827Y-72973781D01*
X119441753Y-72986303D01*
X119458694Y-73004649D01*
X119473200Y-73026404D01*
X119483175Y-73047829D01*
X119487237Y-73063998D01*
X119489355Y-73083501D01*
X119489525Y-73104198D01*
X119487745Y-73123953D01*
X119484010Y-73140628D01*
X119483319Y-73142628D01*
X119471162Y-73168202D01*
X119454713Y-73191050D01*
X119434752Y-73210408D01*
X119412057Y-73225512D01*
X119389302Y-73235030D01*
X119372519Y-73238550D01*
X119352922Y-73240146D01*
X119332776Y-73239822D01*
X119314346Y-73237582D01*
X119303841Y-73234928D01*
X119276507Y-73222867D01*
X119252687Y-73206244D01*
X119232762Y-73185427D01*
X119217111Y-73160783D01*
X119209647Y-73143545D01*
X119205469Y-73127004D01*
X119203290Y-73107214D01*
X119203119Y-73086309D01*
X119204963Y-73066421D01*
X119208828Y-73049682D01*
X119209332Y-73048246D01*
X119222178Y-73021117D01*
X119239278Y-72997812D01*
X119260198Y-72978670D01*
X119284502Y-72964024D01*
X119311755Y-72954213D01*
X119336515Y-72949961D01*
X119356376Y-72948116D01*
X119362209Y-72930214D01*
X119367144Y-72913820D01*
X119372647Y-72893496D01*
X119378268Y-72871085D01*
X119383556Y-72848427D01*
X119388062Y-72827366D01*
X119390580Y-72814159D01*
X119393100Y-72795620D01*
X119394796Y-72774102D01*
X119395664Y-72751056D01*
X119395705Y-72727936D01*
X119394915Y-72706194D01*
X119393295Y-72687283D01*
X119390842Y-72672656D01*
X119390716Y-72672136D01*
X119381136Y-72642871D01*
X119367733Y-72617401D01*
X119350365Y-72595646D01*
X119328892Y-72577524D01*
X119303172Y-72562952D01*
X119273064Y-72551851D01*
X119238427Y-72544137D01*
X119199119Y-72539731D01*
X119159063Y-72538527D01*
X119124508Y-72539379D01*
X119089758Y-72541846D01*
X119053235Y-72546089D01*
X119013361Y-72552267D01*
X118999123Y-72554772D01*
X118958674Y-72561871D01*
X118923169Y-72567632D01*
X118891862Y-72572123D01*
X118864007Y-72575412D01*
X118838858Y-72577568D01*
X118815670Y-72578659D01*
X118793698Y-72578752D01*
X118772196Y-72577917D01*
X118757683Y-72576872D01*
X118703171Y-72569718D01*
X118651744Y-72557654D01*
X118603335Y-72540633D01*
X118557874Y-72518609D01*
X118515293Y-72491537D01*
X118475523Y-72459371D01*
X118438496Y-72422065D01*
X118404142Y-72379573D01*
X118372394Y-72331849D01*
X118360778Y-72311941D01*
X118336789Y-72265275D01*
X118314487Y-72213748D01*
X118294150Y-72158187D01*
X118276057Y-72099419D01*
X118260487Y-72038272D01*
X118248107Y-71977736D01*
X118241262Y-71939732D01*
X118233844Y-71952831D01*
X118228654Y-71962112D01*
X118222080Y-71974028D01*
X118215515Y-71986052D01*
X118215305Y-71986440D01*
X118204282Y-72004993D01*
X118190106Y-72026155D01*
X118173848Y-72048472D01*
X118156577Y-72070489D01*
X118139365Y-72090754D01*
X118134861Y-72095741D01*
X118126417Y-72104750D01*
X118117669Y-72113604D01*
X118108029Y-72122819D01*
X118096912Y-72132913D01*
X118083733Y-72144403D01*
X118067905Y-72157806D01*
X118048842Y-72173640D01*
X118025959Y-72192421D01*
X118017579Y-72199265D01*
X117975135Y-72236805D01*
X117938431Y-72275508D01*
X117907456Y-72315417D01*
X117882198Y-72356573D01*
X117862645Y-72399021D01*
X117848787Y-72442802D01*
X117840612Y-72487960D01*
X117838108Y-72534537D01*
X117841263Y-72582576D01*
X117850066Y-72632120D01*
X117864505Y-72683211D01*
X117877311Y-72718291D01*
X117896002Y-72760760D01*
X117918838Y-72804880D01*
X117944980Y-72849219D01*
X117973590Y-72892347D01*
X118001007Y-72929262D01*
X118018129Y-72951046D01*
X118043492Y-72942513D01*
X118080141Y-72933210D01*
X118117418Y-72929572D01*
X118154686Y-72931542D01*
X118191307Y-72939063D01*
X118226642Y-72952079D01*
X118243008Y-72960288D01*
X118264626Y-72974335D01*
X118286450Y-72992434D01*
X118306916Y-73013052D01*
X118324461Y-73034653D01*
X118334447Y-73050022D01*
X118349947Y-73082799D01*
X118360023Y-73117159D01*
X118364679Y-73152473D01*
X118363916Y-73188109D01*
X118357738Y-73223438D01*
X118346147Y-73257829D01*
X118333489Y-73283354D01*
X118320239Y-73302897D01*
X118302990Y-73322952D01*
X118283260Y-73342048D01*
X118262563Y-73358713D01*
X118243116Y-73371100D01*
X118207848Y-73386968D01*
X118171490Y-73397190D01*
X118134509Y-73401768D01*
X118097375Y-73400703D01*
X118060555Y-73393999D01*
X118024518Y-73381656D01*
X118000558Y-73369967D01*
X117982784Y-73358363D01*
X117963937Y-73342966D01*
X117945503Y-73325239D01*
X117928967Y-73306641D01*
X117915814Y-73288635D01*
X117912796Y-73283646D01*
X117906254Y-73270868D01*
X117899313Y-73255170D01*
X117893150Y-73239275D01*
X117891286Y-73233836D01*
X117887424Y-73221610D01*
X117884804Y-73211626D01*
X117883190Y-73202161D01*
X117882347Y-73191490D01*
X117882041Y-73177887D01*
X117882020Y-73165757D01*
X117882210Y-73148258D01*
X117882834Y-73134929D01*
X117884090Y-73124082D01*
X117886177Y-73114031D01*
X117889295Y-73103090D01*
X117889484Y-73102480D01*
X117893802Y-73089586D01*
X117898465Y-73077173D01*
X117902575Y-73067615D01*
X117903156Y-73066439D01*
X117906829Y-73058788D01*
X117907853Y-73054128D01*
X117906345Y-73050284D01*
X117904178Y-73047342D01*
X117879664Y-73015362D01*
X117858437Y-72986714D01*
X117839817Y-72960417D01*
X117823120Y-72935494D01*
X117807664Y-72910965D01*
X117798197Y-72895169D01*
X117770627Y-72844637D01*
X117746677Y-72793118D01*
X117726593Y-72741353D01*
X117710620Y-72690085D01*
X117699003Y-72640059D01*
X117691989Y-72592016D01*
X117690275Y-72568773D01*
X117689471Y-72555052D01*
X117688521Y-72543752D01*
X117687540Y-72535993D01*
X117686642Y-72532894D01*
X117686587Y-72532881D01*
X117684114Y-72534978D01*
X117678445Y-72540806D01*
X117670223Y-72549672D01*
X117660093Y-72560880D01*
X117649199Y-72573168D01*
X117599993Y-72625704D01*
X117549524Y-72672797D01*
X117497880Y-72714388D01*
X117445149Y-72750420D01*
X117391421Y-72780835D01*
X117336784Y-72805574D01*
X117281326Y-72824580D01*
X117254319Y-72831678D01*
X117228385Y-72837391D01*
X117204783Y-72841518D01*
X117181569Y-72844279D01*
X117156798Y-72845896D01*
X117128527Y-72846589D01*
X117122470Y-72846635D01*
X117090414Y-72846222D01*
X117060536Y-72844479D01*
X117031572Y-72841193D01*
X117002259Y-72836149D01*
X116971333Y-72829136D01*
X116937530Y-72819939D01*
X116904187Y-72809804D01*
X116865806Y-72797922D01*
X116832044Y-72788010D01*
X116802068Y-72779894D01*
X116775045Y-72773399D01*
X116750139Y-72768350D01*
X116726519Y-72764572D01*
X116703349Y-72761889D01*
X116679797Y-72760128D01*
X116663928Y-72759396D01*
X116618698Y-72759657D01*
X116577182Y-72763995D01*
X116538741Y-72772566D01*
X116502738Y-72785525D01*
X116468531Y-72803029D01*
X116458000Y-72809526D01*
X116437254Y-72824955D01*
X116415887Y-72844629D01*
X116395111Y-72867230D01*
X116376144Y-72891438D01*
X116360602Y-72915243D01*
X116355246Y-72924859D01*
X116349093Y-72936587D01*
X116342732Y-72949215D01*
X116336752Y-72961529D01*
X116331741Y-72972319D01*
X116328288Y-72980372D01*
X116326981Y-72984475D01*
X116326981Y-72984499D01*
X116328687Y-72988326D01*
X116333062Y-72994890D01*
X116336745Y-72999720D01*
X116351494Y-73020624D01*
X116361425Y-73041067D01*
X116367149Y-73062789D01*
X116369277Y-73087531D01*
X116369325Y-73092507D01*
X116366712Y-73122323D01*
X116358874Y-73149491D01*
X116345816Y-73174000D01*
X116327541Y-73195840D01*
X116324813Y-73198455D01*
X116303347Y-73215681D01*
X116281026Y-73227599D01*
X116256733Y-73234646D01*
X116229352Y-73237262D01*
X116225896Y-73237298D01*
X116196810Y-73234622D01*
X116169823Y-73226649D01*
X116145407Y-73213716D01*
X116124036Y-73196155D01*
X116106181Y-73174300D01*
X116092315Y-73148487D01*
X116089218Y-73140615D01*
X116085039Y-73124074D01*
X116082861Y-73104284D01*
X116082690Y-73083379D01*
X116084534Y-73063491D01*
X116088399Y-73046752D01*
X116088903Y-73045316D01*
X116101777Y-73018211D01*
X116119101Y-72994713D01*
X116140484Y-72975215D01*
X116165537Y-72960111D01*
X116179253Y-72954353D01*
X116189687Y-72951130D01*
X116200745Y-72949138D01*
X116214295Y-72948128D01*
X116227979Y-72947860D01*
X116259361Y-72947698D01*
X116268504Y-72927076D01*
X116287520Y-72889386D01*
X116310262Y-72853176D01*
X116335970Y-72819386D01*
X116363884Y-72788957D01*
X116393243Y-72762829D01*
X116412846Y-72748529D01*
X116447330Y-72727706D01*
X116482002Y-72711253D01*
X116517910Y-72698854D01*
X116556101Y-72690192D01*
X116597621Y-72684950D01*
X116628840Y-72683159D01*
X116659980Y-72682773D01*
X116690328Y-72683844D01*
X116720703Y-72686516D01*
X116751924Y-72690936D01*
X116784809Y-72697248D01*
X116820177Y-72705599D01*
X116858846Y-72716134D01*
X116901635Y-72728998D01*
X116921055Y-72735138D01*
X116941057Y-72741348D01*
X116962039Y-72747530D01*
X116982275Y-72753199D01*
X117000039Y-72757867D01*
X117011131Y-72760515D01*
X117022823Y-72763020D01*
X117033100Y-72764930D01*
X117043059Y-72766329D01*
X117053797Y-72767298D01*
X117066411Y-72767922D01*
X117082000Y-72768284D01*
X117101661Y-72768467D01*
X117116610Y-72768528D01*
X117139685Y-72768546D01*
X117157979Y-72768396D01*
X117172572Y-72768007D01*
X117184544Y-72767311D01*
X117194972Y-72766237D01*
X117204937Y-72764716D01*
X117215517Y-72762679D01*
X117219160Y-72761917D01*
X117272136Y-72747813D01*
X117324192Y-72728125D01*
X117375374Y-72702820D01*
X117425728Y-72671867D01*
X117475298Y-72635232D01*
X117524132Y-72592882D01*
X117572275Y-72544784D01*
X117619774Y-72490907D01*
X117647275Y-72456701D01*
X117670920Y-72425609D01*
X117690395Y-72398428D01*
X117705781Y-72375037D01*
X117717160Y-72355313D01*
X117723178Y-72342699D01*
X117743382Y-72299199D01*
X117766396Y-72258212D01*
X117792706Y-72219126D01*
X117822801Y-72181330D01*
X117857167Y-72144211D01*
X117896293Y-72107158D01*
X117940667Y-72069560D01*
X117941400Y-72068969D01*
X117976506Y-72039614D01*
X118006809Y-72011852D01*
X118032887Y-71984951D01*
X118055317Y-71958182D01*
X118074675Y-71930813D01*
X118091539Y-71902113D01*
X118106487Y-71871352D01*
X118116484Y-71847265D01*
X118127779Y-71815811D01*
X118136788Y-71784810D01*
X118143720Y-71753075D01*
X118148784Y-71719421D01*
X118152188Y-71682663D01*
X118154141Y-71641614D01*
X118154396Y-71631912D01*
X118154610Y-71590054D01*
X118153165Y-71549980D01*
X118149912Y-71510088D01*
X118144705Y-71468773D01*
X118137394Y-71424432D01*
X118133201Y-71402149D01*
X118128908Y-71380227D01*
X118125542Y-71363689D01*
X118122935Y-71352162D01*
X118120916Y-71345273D01*
X118119317Y-71342651D01*
X118117968Y-71343921D01*
X118116699Y-71348713D01*
X118115341Y-71356653D01*
X118114632Y-71361314D01*
X118102694Y-71426120D01*
X118086971Y-71486942D01*
X118067527Y-71543680D01*
X118044426Y-71596234D01*
X118017736Y-71644506D01*
X117987519Y-71688397D01*
X117953842Y-71727808D01*
X117916770Y-71762640D01*
X117876367Y-71792794D01*
X117832700Y-71818171D01*
X117805769Y-71830718D01*
X117785147Y-71839001D01*
X117764049Y-71846356D01*
X117741326Y-71853106D01*
X117715833Y-71859573D01*
X117686423Y-71866081D01*
X117663982Y-71870619D01*
X117622157Y-71879221D01*
X117585211Y-71887713D01*
X117552174Y-71896389D01*
X117522079Y-71905541D01*
X117493957Y-71915463D01*
X117466840Y-71926449D01*
X117441005Y-71938197D01*
X117397742Y-71961114D01*
X117359501Y-71986258D01*
X117325748Y-72013985D01*
X117320983Y-72018442D01*
X117294963Y-72045225D01*
X117273360Y-72072161D01*
X117254929Y-72100908D01*
X117244924Y-72119615D01*
X117236914Y-72136199D01*
X117231867Y-72148197D01*
X117229660Y-72156003D01*
X117230169Y-72160013D01*
X117232028Y-72160773D01*
X117236358Y-72162872D01*
X117243277Y-72168441D01*
X117251690Y-72176393D01*
X117260504Y-72185639D01*
X117268627Y-72195091D01*
X117274729Y-72203300D01*
X117285649Y-72221990D01*
X117292749Y-72240152D01*
X117296619Y-72259807D01*
X117297847Y-72282368D01*
X117295582Y-72312274D01*
X117288329Y-72339193D01*
X117275984Y-72363375D01*
X117258447Y-72385069D01*
X117253617Y-72389780D01*
X117232151Y-72407007D01*
X117209830Y-72418924D01*
X117185537Y-72425972D01*
X117158156Y-72428587D01*
X117154700Y-72428624D01*
X117125613Y-72425947D01*
X117098626Y-72417975D01*
X117074211Y-72405041D01*
X117052840Y-72387480D01*
X117034985Y-72365626D01*
X117021118Y-72339812D01*
X117018022Y-72331941D01*
X117013843Y-72315399D01*
X117011665Y-72295609D01*
X117011494Y-72274704D01*
X117013337Y-72254816D01*
X117017202Y-72238077D01*
X117017706Y-72236642D01*
X117030500Y-72209667D01*
X117047587Y-72186380D01*
X117068489Y-72167168D01*
X117092728Y-72152413D01*
X117119824Y-72142501D01*
X117139568Y-72138732D01*
X117149012Y-72137233D01*
X117154208Y-72135183D01*
X117156758Y-72131712D01*
X117157592Y-72128969D01*
X117160942Y-72119128D01*
X117166821Y-72105627D01*
X117174580Y-72089729D01*
X117183569Y-72072698D01*
X117193139Y-72055796D01*
X117202640Y-72040286D01*
X117205193Y-72036376D01*
X117220169Y-72016045D01*
X117238923Y-71994075D01*
X117260166Y-71971769D01*
X117282611Y-71950434D01*
X117304970Y-71931373D01*
X117320244Y-71919824D01*
X117332527Y-71911700D01*
X117348499Y-71901991D01*
X117366556Y-71891627D01*
X117385093Y-71881537D01*
X117396423Y-71875677D01*
X117432361Y-71858764D01*
X117470037Y-71843547D01*
X117510246Y-71829779D01*
X117553783Y-71817212D01*
X117601446Y-71805599D01*
X117654029Y-71794695D01*
X117663052Y-71792981D01*
X117713409Y-71781524D01*
X117758991Y-71766931D01*
X117800025Y-71749117D01*
X117836739Y-71727996D01*
X117837587Y-71727436D01*
X117851782Y-71717030D01*
X117868153Y-71703436D01*
X117885202Y-71688031D01*
X117901427Y-71672188D01*
X117915328Y-71657284D01*
X117919575Y-71652292D01*
X117948252Y-71612995D01*
X117973464Y-71569008D01*
X117995197Y-71520377D01*
X118013439Y-71467146D01*
X118028176Y-71409359D01*
X118039395Y-71347062D01*
X118047085Y-71280300D01*
X118051230Y-71209118D01*
X118051644Y-71193880D01*
X118053289Y-71119165D01*
X118038797Y-71081076D01*
X118027228Y-71051050D01*
X118016456Y-71023846D01*
X118006648Y-70999846D01*
X117997970Y-70979430D01*
X117990589Y-70962980D01*
X117984670Y-70950878D01*
X117980381Y-70943505D01*
X117977888Y-70941242D01*
X117977789Y-70941283D01*
X117975049Y-70943691D01*
X117968551Y-70949837D01*
X117958697Y-70959328D01*
X117945889Y-70971772D01*
X117930527Y-70986779D01*
X117913014Y-71003957D01*
X117893750Y-71022913D01*
X117873137Y-71043258D01*
X117864716Y-71051586D01*
X117845754Y-71070346D01*
X117826968Y-71088930D01*
X117808073Y-71107618D01*
X117788785Y-71126690D01*
X117768819Y-71146429D01*
X117747892Y-71167114D01*
X117725718Y-71189026D01*
X117702014Y-71212447D01*
X117676495Y-71237658D01*
X117648877Y-71264939D01*
X117618875Y-71294571D01*
X117586205Y-71326836D01*
X117550584Y-71362013D01*
X117511725Y-71400385D01*
X117469346Y-71442231D01*
X117423162Y-71487834D01*
X117409293Y-71501528D01*
X117348295Y-71561754D01*
X117290674Y-71618644D01*
X117236484Y-71672143D01*
X117185783Y-71722194D01*
X117138628Y-71768741D01*
X117095076Y-71811728D01*
X117055183Y-71851099D01*
X117019006Y-71886798D01*
X116986603Y-71918769D01*
X116958030Y-71946956D01*
X116933343Y-71971302D01*
X116912601Y-71991751D01*
X116895858Y-72008249D01*
X116883174Y-72020737D01*
X116874887Y-72028882D01*
X116865659Y-72037955D01*
X116852813Y-72050606D01*
X116836901Y-72066294D01*
X116818471Y-72084475D01*
X116798073Y-72104609D01*
X116776256Y-72126152D01*
X116753570Y-72148562D01*
X116730564Y-72171298D01*
X116722528Y-72179242D01*
X116696032Y-72205432D01*
X116666798Y-72234323D01*
X116635856Y-72264897D01*
X116604236Y-72296136D01*
X116572967Y-72327023D01*
X116543080Y-72356542D01*
X116515604Y-72383674D01*
X116498241Y-72400816D01*
X116473071Y-72425664D01*
X116444763Y-72453613D01*
X116414347Y-72483643D01*
X116382856Y-72514737D01*
X116351320Y-72545877D01*
X116320769Y-72576044D01*
X116292237Y-72604221D01*
X116273985Y-72622245D01*
X116215245Y-72680257D01*
X116160547Y-72734274D01*
X116109764Y-72784422D01*
X116062771Y-72830826D01*
X116019440Y-72873611D01*
X115979645Y-72912901D01*
X115943260Y-72948821D01*
X115910158Y-72981496D01*
X115880214Y-73011050D01*
X115853299Y-73037609D01*
X115829289Y-73061297D01*
X115808056Y-73082239D01*
X115789475Y-73100560D01*
X115773418Y-73116385D01*
X115759759Y-73129837D01*
X115748372Y-73141043D01*
X115739130Y-73150127D01*
X115732195Y-73156933D01*
X115710339Y-73178376D01*
X115686646Y-73201668D01*
X115661423Y-73226503D01*
X115634977Y-73252576D01*
X115607614Y-73279582D01*
X115579644Y-73307217D01*
X115551372Y-73335176D01*
X115523106Y-73363153D01*
X115495154Y-73390844D01*
X115467823Y-73417944D01*
X115441419Y-73444147D01*
X115416252Y-73469150D01*
X115392627Y-73492646D01*
X115370852Y-73514331D01*
X115351234Y-73533901D01*
X115334081Y-73551050D01*
X115319700Y-73565473D01*
X115308399Y-73576865D01*
X115300484Y-73584922D01*
X115296263Y-73589338D01*
X115295627Y-73590106D01*
X114956614Y-73590106D01*
X114962114Y-73584681D01*
X114981008Y-73566038D01*
X115002512Y-73544811D01*
X115026237Y-73521386D01*
X115051795Y-73496146D01*
X115078794Y-73469476D01*
X115106847Y-73441761D01*
X115135564Y-73413384D01*
X115158990Y-73390232D01*
X115187675Y-73361883D01*
X115215808Y-73334086D01*
X115243023Y-73307203D01*
X115268953Y-73281595D01*
X115293233Y-73257624D01*
X115315497Y-73235649D01*
X115335378Y-73216034D01*
X115352510Y-73199140D01*
X115366527Y-73185327D01*
X115377064Y-73174957D01*
X115383134Y-73168998D01*
X115391840Y-73160451D01*
X115404177Y-73148310D01*
X115419608Y-73133105D01*
X115437598Y-73115362D01*
X115457612Y-73095612D01*
X115479115Y-73074381D01*
X115501570Y-73052198D01*
X115524443Y-73029592D01*
X115533099Y-73021034D01*
X115560011Y-72994427D01*
X115589997Y-72964793D01*
X115621965Y-72933207D01*
X115654827Y-72900746D01*
X115687492Y-72868485D01*
X115718873Y-72837500D01*
X115747878Y-72808869D01*
X115764785Y-72792184D01*
X115785204Y-72772034D01*
X115809213Y-72748338D01*
X115836232Y-72721669D01*
X115865681Y-72692597D01*
X115896981Y-72661696D01*
X115929552Y-72629538D01*
X115962815Y-72596694D01*
X115996191Y-72563737D01*
X116029100Y-72531240D01*
X116060961Y-72499773D01*
X116072290Y-72488584D01*
X116101127Y-72460107D01*
X116129428Y-72432166D01*
X116156828Y-72405122D01*
X116182960Y-72379336D01*
X116207457Y-72355170D01*
X116229953Y-72332986D01*
X116250082Y-72313145D01*
X116267476Y-72296007D01*
X116281770Y-72281936D01*
X116292596Y-72271291D01*
X116299146Y-72264869D01*
X116308027Y-72256159D01*
X116320537Y-72243855D01*
X116336140Y-72228484D01*
X116354300Y-72210576D01*
X116374481Y-72190660D01*
X116396149Y-72169263D01*
X116418766Y-72146914D01*
X116441798Y-72124142D01*
X116451505Y-72114540D01*
X116477997Y-72088338D01*
X116507103Y-72059559D01*
X116537826Y-72029192D01*
X116569163Y-71998224D01*
X116600117Y-71967643D01*
X116629687Y-71938437D01*
X116656873Y-71911594D01*
X116675816Y-71892898D01*
X116700460Y-71868577D01*
X116728271Y-71841127D01*
X116758247Y-71811535D01*
X116789388Y-71780791D01*
X116820691Y-71749884D01*
X116851155Y-71719802D01*
X116879779Y-71691534D01*
X116900097Y-71671467D01*
X116958705Y-71613577D01*
X117014395Y-71558574D01*
X117067079Y-71506543D01*
X117116671Y-71457570D01*
X117163082Y-71411740D01*
X117206226Y-71369140D01*
X117246016Y-71329856D01*
X117282365Y-71293974D01*
X117315185Y-71261579D01*
X117344390Y-71232758D01*
X117369893Y-71207597D01*
X117391606Y-71186181D01*
X117409443Y-71168597D01*
X117423316Y-71154930D01*
X117433138Y-71145266D01*
X117435580Y-71142868D01*
X117443003Y-71135568D01*
X117454224Y-71124512D01*
X117468872Y-71110065D01*
X117486578Y-71092593D01*
X117506973Y-71072460D01*
X117529686Y-71050032D01*
X117554348Y-71025674D01*
X117580590Y-70999749D01*
X117608041Y-70972624D01*
X117636333Y-70944664D01*
X117661092Y-70920190D01*
X117704427Y-70877358D01*
X117743802Y-70838458D01*
X117779418Y-70803295D01*
X117811477Y-70771674D01*
X117840181Y-70743401D01*
X117865729Y-70718281D01*
X117888324Y-70696119D01*
X117908167Y-70676721D01*
X117925459Y-70659892D01*
X117940401Y-70645437D01*
X117953194Y-70633161D01*
X117964039Y-70622870D01*
X117973139Y-70614370D01*
X117980693Y-70607465D01*
X117986904Y-70601961D01*
X117991972Y-70597663D01*
X117996098Y-70594377D01*
X117999485Y-70591907D01*
X118002269Y-70590098D01*
X118024492Y-70579793D01*
X118048528Y-70574283D01*
X118073177Y-70573565D01*
X118097233Y-70577636D01*
G37*
D16*
%TO.C,J1*%
X129530000Y-56400000D02*
X129530000Y-57830000D01*
X129530000Y-61850000D02*
X129530000Y-60170000D01*
X138470000Y-56400000D02*
X129530000Y-56400000D01*
X138470000Y-56400000D02*
X138470000Y-57830000D01*
X138470000Y-61850000D02*
X138470000Y-60170000D01*
D11*
X137300000Y-65000000D02*
G75*
G02*
X137100000Y-65000000I-100000J0D01*
G01*
X137100000Y-65000000D02*
G75*
G02*
X137300000Y-65000000I100000J0D01*
G01*
D13*
%TO.C,C26*%
X148390581Y-82240000D02*
X148109419Y-82240000D01*
X148390581Y-83260000D02*
X148109419Y-83260000D01*
%TO.C,R4*%
X125237256Y-122477501D02*
X124762740Y-122477501D01*
X125237256Y-123522501D02*
X124762740Y-123522501D01*
%TO.C,D2*%
X178299998Y-118750000D02*
X178299998Y-113750000D01*
X183699998Y-113750000D02*
X183699998Y-118750000D01*
X183829998Y-113490000D02*
X183499998Y-113250000D01*
X183829998Y-113010000D01*
X183829998Y-113490000D01*
G36*
X183829998Y-113490000D02*
G01*
X183499998Y-113250000D01*
X183829998Y-113010000D01*
X183829998Y-113490000D01*
G37*
%TO.C,R17*%
X150237258Y-65727500D02*
X149762742Y-65727500D01*
X150237258Y-66772500D02*
X149762742Y-66772500D01*
%TO.C,C7*%
X165359420Y-120740001D02*
X165640582Y-120740001D01*
X165359420Y-121760001D02*
X165640582Y-121760001D01*
%TO.C,D6*%
X109550000Y-118750000D02*
X109550000Y-113750000D01*
X114950000Y-113750000D02*
X114950000Y-118750000D01*
X109750000Y-119250000D02*
X109420000Y-119490000D01*
X109420000Y-119010000D01*
X109750000Y-119250000D01*
G36*
X109750000Y-119250000D02*
G01*
X109420000Y-119490000D01*
X109420000Y-119010000D01*
X109750000Y-119250000D01*
G37*
%TO.C,C28*%
X137109419Y-99740000D02*
X137390581Y-99740000D01*
X137109419Y-100760000D02*
X137390581Y-100760000D01*
%TO.C,C16*%
X174511253Y-63765000D02*
X173988747Y-63765000D01*
X174511253Y-65235000D02*
X173988747Y-65235000D01*
%TO.C,C15*%
X177062500Y-61652500D02*
X177850000Y-61652500D01*
X177456250Y-61258750D02*
X177456249Y-62046250D01*
X178089999Y-61154437D02*
X178090000Y-62440000D01*
X178089999Y-61154437D02*
X179154437Y-60089999D01*
X178089999Y-65845563D02*
X178090000Y-64560000D01*
X178089999Y-65845563D02*
X179154437Y-66910001D01*
X179154437Y-60089999D02*
X184910000Y-60090000D01*
X179154437Y-66910001D02*
X184910000Y-66910000D01*
X184910000Y-60090000D02*
X184910000Y-62440000D01*
X184910000Y-66910000D02*
X184910000Y-64560000D01*
%TO.C,L1*%
X177300000Y-97050000D02*
X179600000Y-97049999D01*
X177300000Y-104450000D02*
X177300000Y-97050000D01*
X179600000Y-104450001D02*
X177300000Y-104450000D01*
X182400000Y-97049999D02*
X184700000Y-97050000D01*
X184700000Y-97050000D02*
X184700000Y-104450000D01*
X184700000Y-104450000D02*
X182400000Y-104450001D01*
%TO.C,F1*%
X168497934Y-59640000D02*
X169702062Y-59640000D01*
X168497934Y-62360000D02*
X169702062Y-62360000D01*
%TO.C,U6*%
X136939998Y-120690001D02*
X141059998Y-120690001D01*
X136939998Y-120785000D02*
X136939998Y-120690001D01*
X136939998Y-125809999D02*
X136939998Y-125715000D01*
X141059998Y-120690001D02*
X141059998Y-120785000D01*
X141059998Y-125715000D02*
X141059998Y-125809999D01*
X141059998Y-125809999D02*
X136939998Y-125809999D01*
X136399998Y-120780000D02*
X136159998Y-120450000D01*
X136639998Y-120450000D01*
X136399998Y-120780000D01*
G36*
X136399998Y-120780000D02*
G01*
X136159998Y-120450000D01*
X136639998Y-120450000D01*
X136399998Y-120780000D01*
G37*
%TO.C,C9*%
X170240001Y-106109419D02*
X170240001Y-106390581D01*
X171260001Y-106109419D02*
X171260001Y-106390581D01*
%TO.C,Y1*%
X137440000Y-102789999D02*
X137440000Y-106210001D01*
X137440000Y-106210001D02*
X141560000Y-106210001D01*
%TO.C,U8*%
X169539998Y-66290000D02*
X169539998Y-67549999D01*
X169539998Y-73110000D02*
X169539998Y-71850001D01*
X173299998Y-66289999D02*
X169539998Y-66290000D01*
X173299998Y-73110001D02*
X169539998Y-73110000D01*
X174819998Y-73340000D02*
X174339998Y-73340000D01*
X174579998Y-73010000D01*
X174819998Y-73340000D01*
G36*
X174819998Y-73340000D02*
G01*
X174339998Y-73340000D01*
X174579998Y-73010000D01*
X174819998Y-73340000D01*
G37*
%TO.C,D10*%
X151550002Y-118750001D02*
X151550002Y-113750001D01*
X156950002Y-113750001D02*
X156950002Y-118750001D01*
X151750002Y-119250001D02*
X151420002Y-119490001D01*
X151420002Y-119010001D01*
X151750002Y-119250001D01*
G36*
X151750002Y-119250001D02*
G01*
X151420002Y-119490001D01*
X151420002Y-119010001D01*
X151750002Y-119250001D01*
G37*
%TO.C,R11*%
X144737257Y-122477501D02*
X144262741Y-122477501D01*
X144737257Y-123522501D02*
X144262741Y-123522501D01*
%TO.C,J6*%
X187490000Y-70940000D02*
X187490000Y-72360000D01*
X187490000Y-72360000D02*
X191990000Y-72360000D01*
X187490000Y-82140000D02*
X191990000Y-82140000D01*
X187490000Y-83560000D02*
X187490000Y-82140000D01*
X189400000Y-80700000D02*
X190000000Y-81000000D01*
X189400000Y-81300000D02*
X189400000Y-80700000D01*
X190000000Y-81000000D02*
X189400000Y-81300000D01*
X193100000Y-73250000D02*
X193100000Y-73750000D01*
X193100000Y-73750000D02*
X198600000Y-73750000D01*
X193100000Y-75750000D02*
X193100000Y-76250000D01*
X193100000Y-76250000D02*
X198600000Y-76250000D01*
X193100000Y-78250000D02*
X193100000Y-78750000D01*
X193100000Y-78750000D02*
X198600000Y-78750000D01*
X193100000Y-80750000D02*
X193100000Y-81250000D01*
X193100000Y-81250000D02*
X198600000Y-81250000D01*
X198600000Y-73750000D02*
X198600001Y-73250000D01*
X198600000Y-76250000D02*
X198600001Y-75750000D01*
X198600000Y-78250000D02*
X193100000Y-78250000D01*
X198600000Y-78750000D02*
X198600000Y-78250000D01*
X198600000Y-80750000D02*
X193100000Y-80750000D01*
X198600000Y-81250000D02*
X198600000Y-80750000D01*
X198600001Y-73250000D02*
X193100000Y-73250000D01*
X198600001Y-75750000D02*
X193100000Y-75750000D01*
X199210000Y-70940000D02*
X187490000Y-70940000D01*
X199210000Y-77250000D02*
X199210000Y-70940000D01*
X199210000Y-77250000D02*
X199210000Y-83560000D01*
X199210000Y-83560000D02*
X187490000Y-83560000D01*
%TO.C,R13*%
X175848500Y-78454742D02*
X175848500Y-78929258D01*
X176893500Y-78454742D02*
X176893500Y-78929258D01*
%TO.C,J5*%
X114945000Y-60185000D02*
X114945000Y-63815000D01*
X115010000Y-60185000D02*
X114945000Y-60185000D01*
X115010000Y-63815000D02*
X114945000Y-63815000D01*
X123989999Y-58910000D02*
X123990000Y-60185000D01*
X124055000Y-60185000D02*
X123990000Y-60185000D01*
X124055000Y-60185000D02*
X124055000Y-63815000D01*
X124055000Y-63815000D02*
X123990000Y-63815000D01*
%TO.C,Q1*%
X148740000Y-106440000D02*
X150260000Y-106440000D01*
X148740000Y-107440000D02*
X148740000Y-106440000D01*
X148740000Y-109560000D02*
X148740000Y-108560000D01*
X150260000Y-106440000D02*
X150260000Y-106490000D01*
X150260000Y-107610000D02*
X150260000Y-108390000D01*
X150260000Y-109510000D02*
X150260000Y-109560000D01*
X150260000Y-109560000D02*
X148740000Y-109560000D01*
X150800000Y-108380000D02*
X150560000Y-108050000D01*
X151040000Y-108050000D01*
X150800000Y-108380000D01*
G36*
X150800000Y-108380000D02*
G01*
X150560000Y-108050000D01*
X151040000Y-108050000D01*
X150800000Y-108380000D01*
G37*
%TO.C,U7*%
X172751000Y-79558000D02*
X174751000Y-79558000D01*
X174751000Y-77338000D02*
X172751000Y-77338000D01*
X175191000Y-79588000D02*
X175191000Y-79308000D01*
X175471000Y-79308000D01*
X175191000Y-79588000D01*
G36*
X175191000Y-79588000D02*
G01*
X175191000Y-79308000D01*
X175471000Y-79308000D01*
X175191000Y-79588000D01*
G37*
%TO.C,U1*%
X174190000Y-120690001D02*
X178310000Y-120690001D01*
X174190000Y-120785000D02*
X174190000Y-120690001D01*
X174190000Y-125809999D02*
X174190000Y-125715000D01*
X178310000Y-120690001D02*
X178310000Y-120785000D01*
X178310000Y-125715000D02*
X178310000Y-125809999D01*
X178310000Y-125809999D02*
X174190000Y-125809999D01*
X173650000Y-120780000D02*
X173410000Y-120450000D01*
X173890000Y-120450000D01*
X173650000Y-120780000D01*
G36*
X173650000Y-120780000D02*
G01*
X173410000Y-120450000D01*
X173890000Y-120450000D01*
X173650000Y-120780000D01*
G37*
%TO.C,D1*%
X184050000Y-118750000D02*
X184050000Y-113750000D01*
X189450000Y-113750000D02*
X189450000Y-118750000D01*
X184250000Y-119250000D02*
X183920000Y-119490000D01*
X183920000Y-119010000D01*
X184250000Y-119250000D01*
G36*
X184250000Y-119250000D02*
G01*
X183920000Y-119490000D01*
X183920000Y-119010000D01*
X184250000Y-119250000D01*
G37*
%TO.C,C23*%
X142484419Y-99090000D02*
X142765581Y-99090000D01*
X142484419Y-100110000D02*
X142765581Y-100110000D01*
%TO.C,R6*%
X130836979Y-66902262D02*
X131311495Y-66902262D01*
X130836979Y-67947262D02*
X131311495Y-67947262D01*
%TO.C,D8*%
X163050002Y-118750001D02*
X163050002Y-113750001D01*
X168450002Y-113750001D02*
X168450002Y-118750001D01*
X163250002Y-119250001D02*
X162920002Y-119490001D01*
X162920002Y-119010001D01*
X163250002Y-119250001D01*
G36*
X163250002Y-119250001D02*
G01*
X162920002Y-119490001D01*
X162920002Y-119010001D01*
X163250002Y-119250001D01*
G37*
%TO.C,R20*%
X145512742Y-65727500D02*
X145987258Y-65727500D01*
X145512742Y-66772500D02*
X145987258Y-66772500D01*
%TO.C,U2*%
X117440000Y-120690001D02*
X121560000Y-120690001D01*
X117440000Y-120785000D02*
X117440000Y-120690001D01*
X117440000Y-125809999D02*
X117440000Y-125715000D01*
X121560000Y-120690001D02*
X121560000Y-120785000D01*
X121560000Y-125715000D02*
X121560000Y-125809999D01*
X121560000Y-125809999D02*
X117440000Y-125809999D01*
X116900000Y-120780000D02*
X116660000Y-120450000D01*
X117140000Y-120450000D01*
X116900000Y-120780000D01*
G36*
X116900000Y-120780000D02*
G01*
X116660000Y-120450000D01*
X117140000Y-120450000D01*
X116900000Y-120780000D01*
G37*
%TO.C,D12*%
X136299998Y-118750001D02*
X136299998Y-113750001D01*
X141699998Y-113750001D02*
X141699998Y-118750001D01*
X141829998Y-113490001D02*
X141499998Y-113250001D01*
X141829998Y-113010001D01*
X141829998Y-113490001D01*
G36*
X141829998Y-113490001D02*
G01*
X141499998Y-113250001D01*
X141829998Y-113010001D01*
X141829998Y-113490001D01*
G37*
%TO.C,U5*%
X157940002Y-120690001D02*
X162060002Y-120690001D01*
X157940002Y-120785000D02*
X157940002Y-120690001D01*
X157940002Y-125809999D02*
X157940002Y-125715000D01*
X162060002Y-120690001D02*
X162060002Y-120785000D01*
X162060002Y-125715000D02*
X162060002Y-125809999D01*
X162060002Y-125809999D02*
X157940002Y-125809999D01*
X157400002Y-120780000D02*
X157160002Y-120450000D01*
X157640002Y-120450000D01*
X157400002Y-120780000D01*
G36*
X157400002Y-120780000D02*
G01*
X157160002Y-120450000D01*
X157640002Y-120450000D01*
X157400002Y-120780000D01*
G37*
%TO.C,D9*%
X157300002Y-118750001D02*
X157300002Y-113750001D01*
X162700002Y-113750001D02*
X162700002Y-118750001D01*
X162830002Y-113490001D02*
X162500002Y-113250001D01*
X162830002Y-113010001D01*
X162830002Y-113490001D01*
G36*
X162830002Y-113490001D02*
G01*
X162500002Y-113250001D01*
X162830002Y-113010001D01*
X162830002Y-113490001D01*
G37*
%TO.C,C2*%
X181859421Y-120740001D02*
X182140583Y-120740001D01*
X181859421Y-121760001D02*
X182140583Y-121760001D01*
%TO.C,U4*%
X134440000Y-72340000D02*
X134490000Y-72340000D01*
X134440000Y-74160000D02*
X134440000Y-72340000D01*
X134490000Y-74160000D02*
X134440000Y-74160000D01*
X137510000Y-72340000D02*
X137560000Y-72340000D01*
X137560000Y-72340000D02*
X137560000Y-74160000D01*
X137560000Y-74160000D02*
X137510000Y-74160000D01*
X137840000Y-72040000D02*
X137510000Y-71800000D01*
X137840000Y-71560000D01*
X137840000Y-72040000D01*
G36*
X137840000Y-72040000D02*
G01*
X137510000Y-71800000D01*
X137840000Y-71560000D01*
X137840000Y-72040000D01*
G37*
%TO.C,C8*%
X144359418Y-120740001D02*
X144640580Y-120740001D01*
X144359418Y-121760001D02*
X144640580Y-121760001D01*
%TO.C,U3*%
X170339999Y-100489999D02*
X173559999Y-100489999D01*
X170339999Y-103709999D02*
X170340000Y-103584999D01*
X170340000Y-100614999D02*
X170339999Y-100489999D01*
X173559998Y-103584999D02*
X173559999Y-103709999D01*
X173559999Y-100489999D02*
X173559998Y-100614999D01*
X173559999Y-103709999D02*
X170339999Y-103709999D01*
X169789999Y-100609999D02*
X169549999Y-100279999D01*
X170029999Y-100279999D01*
X169789999Y-100609999D01*
G36*
X169789999Y-100609999D02*
G01*
X169549999Y-100279999D01*
X170029999Y-100279999D01*
X169789999Y-100609999D01*
G37*
%TO.C,C5*%
X173209417Y-98890002D02*
X173490579Y-98890002D01*
X173209417Y-99910002D02*
X173490579Y-99910002D01*
%TO.C,J2*%
X153890000Y-85610000D02*
X153889999Y-84500000D01*
X155000000Y-85610001D02*
X153890000Y-85610000D01*
X156000000Y-83390000D02*
X162110000Y-83390000D01*
X156000000Y-85610000D02*
X156000000Y-83390000D01*
X156000000Y-85610000D02*
X162110000Y-85610000D01*
X162110000Y-85610000D02*
X162110000Y-83390000D01*
%TO.C,U9*%
X131890000Y-82890000D02*
X132590000Y-82890000D01*
X131890000Y-83590000D02*
X131890000Y-82890000D01*
X131890000Y-97110000D02*
X131890000Y-96410000D01*
X132590000Y-97110000D02*
X131890000Y-97110000D01*
X145410000Y-82890000D02*
X146110000Y-82890000D01*
X146110000Y-82890000D02*
X146110000Y-83590000D01*
X146110000Y-96410000D02*
X146110000Y-97110000D01*
X146110000Y-97110000D02*
X145410000Y-97110000D01*
X132590000Y-97750000D02*
X132120000Y-98090000D01*
X132120000Y-97410000D01*
X132590000Y-97750000D01*
G36*
X132590000Y-97750000D02*
G01*
X132120000Y-98090000D01*
X132120000Y-97410000D01*
X132590000Y-97750000D01*
G37*
%TO.C,D13*%
X130549998Y-118750001D02*
X130549998Y-113750001D01*
X135949998Y-113750001D02*
X135949998Y-118750001D01*
X130749998Y-119250001D02*
X130419998Y-119490001D01*
X130419998Y-119010001D01*
X130749998Y-119250001D01*
G36*
X130749998Y-119250001D02*
G01*
X130419998Y-119490001D01*
X130419998Y-119010001D01*
X130749998Y-119250001D01*
G37*
%TO.C,C1*%
X173359418Y-95240000D02*
X173640580Y-95240000D01*
X173359418Y-96260000D02*
X173640580Y-96260000D01*
%TO.C,C14*%
X135990000Y-104640581D02*
X135990000Y-104359419D01*
X137010000Y-104640581D02*
X137010000Y-104359419D01*
%TO.C,C20*%
X149990000Y-96109419D02*
X149990000Y-96390581D01*
X151010000Y-96109419D02*
X151010000Y-96390581D01*
%TO.C,C18*%
X149640581Y-84490000D02*
X149359419Y-84490000D01*
X149640581Y-85510000D02*
X149359419Y-85510000D01*
%TO.C,SW2*%
X157050000Y-59650000D02*
X157050000Y-58850000D01*
X159100000Y-60750000D02*
X158900000Y-60750000D01*
X162100000Y-60750000D02*
X160400000Y-60750000D01*
X163950000Y-59650000D02*
X163950000Y-58850000D01*
%TO.C,D3*%
X172549998Y-118750000D02*
X172549998Y-113750000D01*
X177949998Y-113750000D02*
X177949998Y-118750000D01*
X172749998Y-119250000D02*
X172419998Y-119490000D01*
X172419998Y-119010000D01*
X172749998Y-119250000D01*
G36*
X172749998Y-119250000D02*
G01*
X172419998Y-119490000D01*
X172419998Y-119010000D01*
X172749998Y-119250000D01*
G37*
%TO.C,C4*%
X173359417Y-96989999D02*
X173640579Y-96989999D01*
X173359417Y-98009999D02*
X173640579Y-98009999D01*
%TO.C,C24*%
X130240000Y-80609419D02*
X130240000Y-80890581D01*
X131260000Y-80609419D02*
X131260000Y-80890581D01*
%TO.C,C13*%
X141990000Y-104359419D02*
X141990000Y-104640581D01*
X143010000Y-104359419D02*
X143010000Y-104640581D01*
%TO.C,D15*%
X180100000Y-71535000D02*
X182385000Y-71535000D01*
X182385000Y-70065000D02*
X180100000Y-70065000D01*
X182385000Y-71535000D02*
X182385000Y-70065000D01*
%TO.C,R10*%
X165737259Y-122477501D02*
X165262743Y-122477501D01*
X165737259Y-123522501D02*
X165262743Y-123522501D01*
%TO.C,C19*%
X128459419Y-94090000D02*
X128740581Y-94090000D01*
X128459419Y-95110000D02*
X128740581Y-95110000D01*
%TO.C,C6*%
X166409419Y-96840000D02*
X166690581Y-96840000D01*
X166409419Y-97860000D02*
X166690581Y-97860000D01*
%TO.C,C11*%
X117355047Y-102990000D02*
X117073885Y-102990000D01*
X117355047Y-104010000D02*
X117073885Y-104010000D01*
%TO.C,R18*%
X139477500Y-100737258D02*
X139477500Y-100262742D01*
X140522500Y-100737258D02*
X140522500Y-100262742D01*
%TO.C,R19*%
X158762742Y-62727500D02*
X159237258Y-62727500D01*
X158762742Y-63772500D02*
X159237258Y-63772500D01*
%TO.C,D11*%
X142049998Y-118750001D02*
X142049998Y-113750001D01*
X147449998Y-113750001D02*
X147449998Y-118750001D01*
X142249998Y-119250001D02*
X141919998Y-119490001D01*
X141919998Y-119010001D01*
X142249998Y-119250001D01*
G36*
X142249998Y-119250001D02*
G01*
X141919998Y-119490001D01*
X141919998Y-119010001D01*
X142249998Y-119250001D01*
G37*
%TO.C,C27*%
X148240000Y-96390581D02*
X148240000Y-96109419D01*
X149260000Y-96390581D02*
X149260000Y-96109419D01*
%TO.C,D7*%
X175789998Y-105450001D02*
X175789998Y-108750001D01*
X175789998Y-105450001D02*
X181299998Y-105450001D01*
X175789998Y-108750001D02*
X181299998Y-108750001D01*
%TO.C,R9*%
X167027499Y-102537742D02*
X167027499Y-103012258D01*
X168072499Y-102537742D02*
X168072499Y-103012258D01*
%TO.C,D5*%
X115300000Y-118750000D02*
X115300000Y-113750000D01*
X120700000Y-113750000D02*
X120700000Y-118750000D01*
X120830000Y-113490000D02*
X120500000Y-113250000D01*
X120830000Y-113010000D01*
X120830000Y-113490000D01*
G36*
X120830000Y-113490000D02*
G01*
X120500000Y-113250000D01*
X120830000Y-113010000D01*
X120830000Y-113490000D01*
G37*
%TO.C,C10*%
X171990001Y-106109420D02*
X171990001Y-106390582D01*
X173010001Y-106109420D02*
X173010001Y-106390582D01*
%TO.C,R16*%
X149987258Y-110477500D02*
X149512742Y-110477500D01*
X149987258Y-111522500D02*
X149512742Y-111522500D01*
%TO.C,C17*%
X168488747Y-63765000D02*
X169011253Y-63765000D01*
X168488747Y-65235000D02*
X169011253Y-65235000D01*
%TO.C,R12*%
X170766258Y-77407500D02*
X170291742Y-77407500D01*
X170766258Y-78452500D02*
X170291742Y-78452500D01*
%TD*%
M02*
