%TF.GenerationSoftware,KiCad,Pcbnew,9.0.5*%
%TF.CreationDate,2026-02-06T18:32:07+13:00*%
%TF.ProjectId,ShroomShed_MKII_PCB,5368726f-6f6d-4536-9865-645f4d4b4949,rev?*%
%TF.SameCoordinates,Original*%
%TF.FileFunction,Soldermask,Bot*%
%TF.FilePolarity,Negative*%
%FSLAX46Y46*%
G04 Gerber Fmt 4.6, Leading zero omitted, Abs format (unit mm)*
G04 Created by KiCad (PCBNEW 9.0.5) date 2026-02-06 18:32:07*
%MOMM*%
%LPD*%
G01*
G04 APERTURE LIST*
G04 Aperture macros list*
%AMRoundRect*
0 Rectangle with rounded corners*
0 $1 Rounding radius*
0 $2 $3 $4 $5 $6 $7 $8 $9 X,Y pos of 4 corners*
0 Add a 4 corners polygon primitive as box body*
4,1,4,$2,$3,$4,$5,$6,$7,$8,$9,$2,$3,0*
0 Add four circle primitives for the rounded corners*
1,1,$1+$1,$2,$3*
1,1,$1+$1,$4,$5*
1,1,$1+$1,$6,$7*
1,1,$1+$1,$8,$9*
0 Add four rect primitives between the rounded corners*
20,1,$1+$1,$2,$3,$4,$5,0*
20,1,$1+$1,$4,$5,$6,$7,0*
20,1,$1+$1,$6,$7,$8,$9,0*
20,1,$1+$1,$8,$9,$2,$3,0*%
G04 Aperture macros list end*
%ADD10C,6.476000*%
%ADD11RoundRect,0.261177X-0.626823X-0.751823X0.626823X-0.751823X0.626823X0.751823X-0.626823X0.751823X0*%
%ADD12O,1.776000X2.026000*%
%ADD13RoundRect,0.261177X0.626823X0.751823X-0.626823X0.751823X-0.626823X-0.751823X0.626823X-0.751823X0*%
%ADD14C,0.676000*%
%ADD15O,1.104000X2.204000*%
%ADD16O,1.104000X1.904000*%
%ADD17RoundRect,0.261177X0.751823X-0.626823X0.751823X0.626823X-0.751823X0.626823X-0.751823X-0.626823X0*%
%ADD18O,2.026000X1.776000*%
%ADD19RoundRect,0.038000X0.675000X-0.675000X0.675000X0.675000X-0.675000X0.675000X-0.675000X-0.675000X0*%
%ADD20C,1.426000*%
%ADD21C,0.850000*%
%ADD22RoundRect,0.038000X-0.900000X-0.900000X0.900000X-0.900000X0.900000X0.900000X-0.900000X0.900000X0*%
%ADD23C,1.876000*%
%ADD24RoundRect,0.038000X0.850000X0.850000X-0.850000X0.850000X-0.850000X-0.850000X0.850000X-0.850000X0*%
%ADD25C,1.776000*%
G04 APERTURE END LIST*
D10*
%TO.C,H4*%
X109000000Y-124000000D03*
%TD*%
D11*
%TO.C,J3*%
X148750000Y-73000000D03*
D12*
X151250000Y-73000000D03*
X153750000Y-73000000D03*
X156250000Y-73000000D03*
X158750000Y-73000000D03*
X161250000Y-73000000D03*
%TD*%
D13*
%TO.C,J4*%
X151750000Y-61000000D03*
D12*
X149250000Y-61000000D03*
X146750000Y-61000000D03*
X144250000Y-61000000D03*
%TD*%
D10*
%TO.C,H2*%
X109000000Y-62000000D03*
%TD*%
D14*
%TO.C,J1*%
X136890001Y-62680000D03*
X131109999Y-62680000D03*
D15*
X138325000Y-63170000D03*
X129675000Y-63170000D03*
D16*
X138325000Y-59000000D03*
X129675000Y-59000000D03*
%TD*%
D10*
%TO.C,H1*%
X190000000Y-62000000D03*
%TD*%
D17*
%TO.C,J6*%
X191500000Y-81000000D03*
D18*
X191500000Y-78500000D03*
X191500000Y-76000000D03*
X191500000Y-73500000D03*
%TD*%
D19*
%TO.C,J2*%
X155000000Y-84500000D03*
D20*
X157000001Y-84500000D03*
X159000000Y-84500000D03*
X161000000Y-84500000D03*
%TD*%
D21*
%TO.C,SW2*%
X162000000Y-59250000D03*
X159000000Y-59250000D03*
%TD*%
D10*
%TO.C,H3*%
X190000000Y-124000000D03*
%TD*%
D22*
%TO.C,D14*%
X148230000Y-125500000D03*
D23*
X150770000Y-125500000D03*
%TD*%
D24*
%TO.C,J7*%
X188468000Y-88900000D03*
D25*
X188468000Y-91440000D03*
X188468000Y-93979999D03*
X188468000Y-96520000D03*
%TD*%
D24*
%TO.C,J8*%
X107696000Y-76200000D03*
D25*
X107696000Y-78740000D03*
X107696000Y-81279999D03*
X107696000Y-83820000D03*
X107696000Y-86360000D03*
X107696000Y-88900000D03*
X107696000Y-91440000D03*
X107696000Y-93980001D03*
X107696000Y-96520000D03*
X107696000Y-99060000D03*
X107696000Y-101600000D03*
X107696000Y-104139999D03*
X107696000Y-106680000D03*
X107696000Y-109220000D03*
%TD*%
M02*
