%TF.GenerationSoftware,KiCad,Pcbnew,9.0.5*%
%TF.CreationDate,2026-02-06T18:32:06+13:00*%
%TF.ProjectId,ShroomShed_MKII_PCB,5368726f-6f6d-4536-9865-645f4d4b4949,rev?*%
%TF.SameCoordinates,Original*%
%TF.FileFunction,Copper,L2,Inr*%
%TF.FilePolarity,Positive*%
%FSLAX46Y46*%
G04 Gerber Fmt 4.6, Leading zero omitted, Abs format (unit mm)*
G04 Created by KiCad (PCBNEW 9.0.5) date 2026-02-06 18:32:06*
%MOMM*%
%LPD*%
G01*
G04 APERTURE LIST*
G04 Aperture macros list*
%AMRoundRect*
0 Rectangle with rounded corners*
0 $1 Rounding radius*
0 $2 $3 $4 $5 $6 $7 $8 $9 X,Y pos of 4 corners*
0 Add a 4 corners polygon primitive as box body*
4,1,4,$2,$3,$4,$5,$6,$7,$8,$9,$2,$3,0*
0 Add four circle primitives for the rounded corners*
1,1,$1+$1,$2,$3*
1,1,$1+$1,$4,$5*
1,1,$1+$1,$6,$7*
1,1,$1+$1,$8,$9*
0 Add four rect primitives between the rounded corners*
20,1,$1+$1,$2,$3,$4,$5,0*
20,1,$1+$1,$4,$5,$6,$7,0*
20,1,$1+$1,$6,$7,$8,$9,0*
20,1,$1+$1,$8,$9,$2,$3,0*%
G04 Aperture macros list end*
%TA.AperFunction,ComponentPad*%
%ADD10C,6.400000*%
%TD*%
%TA.AperFunction,ComponentPad*%
%ADD11RoundRect,0.250000X-0.600000X-0.725000X0.600000X-0.725000X0.600000X0.725000X-0.600000X0.725000X0*%
%TD*%
%TA.AperFunction,ComponentPad*%
%ADD12O,1.700000X1.950000*%
%TD*%
%TA.AperFunction,ComponentPad*%
%ADD13RoundRect,0.250000X0.600000X0.725000X-0.600000X0.725000X-0.600000X-0.725000X0.600000X-0.725000X0*%
%TD*%
%TA.AperFunction,ComponentPad*%
%ADD14O,0.900000X2.000000*%
%TD*%
%TA.AperFunction,ComponentPad*%
%ADD15O,0.900000X1.700000*%
%TD*%
%TA.AperFunction,ComponentPad*%
%ADD16RoundRect,0.250000X0.725000X-0.600000X0.725000X0.600000X-0.725000X0.600000X-0.725000X-0.600000X0*%
%TD*%
%TA.AperFunction,ComponentPad*%
%ADD17O,1.950000X1.700000*%
%TD*%
%TA.AperFunction,ComponentPad*%
%ADD18R,1.350000X1.350000*%
%TD*%
%TA.AperFunction,ComponentPad*%
%ADD19C,1.350000*%
%TD*%
%TA.AperFunction,ComponentPad*%
%ADD20R,1.800000X1.800000*%
%TD*%
%TA.AperFunction,ComponentPad*%
%ADD21C,1.800000*%
%TD*%
%TA.AperFunction,ComponentPad*%
%ADD22R,1.700000X1.700000*%
%TD*%
%TA.AperFunction,ComponentPad*%
%ADD23C,1.700000*%
%TD*%
%TA.AperFunction,ViaPad*%
%ADD24C,0.700000*%
%TD*%
G04 APERTURE END LIST*
D10*
%TO.N,GND*%
%TO.C,H4*%
X109000000Y-124000000D03*
%TD*%
D11*
%TO.N,ENCODER_CHANNEL_A*%
%TO.C,J3*%
X148750000Y-73000000D03*
D12*
%TO.N,ENCODER_CHANNEL_B*%
X151250000Y-73000000D03*
%TO.N,INPUT_1*%
X153750000Y-73000000D03*
%TO.N,INPUT_2*%
X156250000Y-73000000D03*
%TO.N,INPUT_3*%
X158750000Y-73000000D03*
%TO.N,GND*%
X161250000Y-73000000D03*
%TD*%
D13*
%TO.N,+3V3*%
%TO.C,J4*%
X151750000Y-61000000D03*
D12*
%TO.N,SHT31_SDA*%
X149250000Y-61000000D03*
%TO.N,SHT31_SCL*%
X146750000Y-61000000D03*
%TO.N,GND*%
X144250000Y-61000000D03*
%TD*%
D10*
%TO.N,GND*%
%TO.C,H2*%
X109000000Y-62000000D03*
%TD*%
D14*
%TO.N,GND*%
%TO.C,J1*%
X138325000Y-63170000D03*
X129675000Y-63170000D03*
D15*
X138325000Y-59000000D03*
X129675000Y-59000000D03*
%TD*%
D10*
%TO.N,GND*%
%TO.C,H1*%
X190000000Y-62000000D03*
%TD*%
D16*
%TO.N,+12V*%
%TO.C,J6*%
X191500000Y-81000000D03*
D17*
%TO.N,TRANSDUCER_PWM*%
X191500000Y-78500000D03*
%TO.N,FAN_PWM*%
X191500000Y-76000000D03*
%TO.N,GND*%
X191500000Y-73500000D03*
%TD*%
D18*
%TO.N,+3V3*%
%TO.C,J2*%
X155000000Y-84500000D03*
D19*
%TO.N,RF_TX*%
X157000001Y-84500000D03*
%TO.N,RF_RX*%
X159000000Y-84500000D03*
%TO.N,GND*%
X161000000Y-84500000D03*
%TD*%
D10*
%TO.N,GND*%
%TO.C,H3*%
X190000000Y-124000000D03*
%TD*%
D20*
%TO.N,Net-(D14-K)*%
%TO.C,D14*%
X148230000Y-125500000D03*
D21*
%TO.N,+12V*%
X150770000Y-125500000D03*
%TD*%
D22*
%TO.N,SD_SCK*%
%TO.C,J7*%
X188468000Y-88900000D03*
D23*
%TO.N,SD_MISO*%
X188468000Y-91440000D03*
%TO.N,SD_MOSI*%
X188468000Y-93979999D03*
%TO.N,SD_NSS*%
X188468000Y-96520000D03*
%TD*%
D22*
%TO.N,TOUCH_IRQ*%
%TO.C,J8*%
X107696000Y-76200000D03*
D23*
%TO.N,TOUCH_MISO*%
X107696000Y-78740000D03*
%TO.N,TOUCH_MOSI*%
X107696000Y-81279999D03*
%TO.N,TOUCH_NSS*%
X107696000Y-83820000D03*
%TO.N,TOUCH_SCK*%
X107696000Y-86360000D03*
%TO.N,DISPLAY_MISO*%
X107696000Y-88900000D03*
%TO.N,DISPLAY_LED*%
X107696000Y-91440000D03*
%TO.N,DISPLAY_SCK*%
X107696000Y-93980001D03*
%TO.N,DISPLAY_MOSI*%
X107696000Y-96520000D03*
%TO.N,DISPLAY_DC*%
X107696000Y-99060000D03*
%TO.N,DISPLAY_RST*%
X107696000Y-101600000D03*
%TO.N,DISPLAY_NSS*%
X107696000Y-104139999D03*
%TO.N,GND*%
X107696000Y-106680000D03*
%TO.N,+3V3*%
X107696000Y-109220000D03*
%TD*%
D24*
%TO.N,GND*%
X171750000Y-125250000D03*
X155500000Y-125250000D03*
X134500000Y-125250000D03*
X115000000Y-125250000D03*
X164250000Y-99500000D03*
X164250000Y-97500000D03*
X171250000Y-95750000D03*
X171250000Y-97500000D03*
X150500000Y-105500000D03*
X145000000Y-85000000D03*
X172000000Y-101000001D03*
X142250000Y-101000000D03*
X132250000Y-78500000D03*
X150500000Y-82750000D03*
X176450001Y-71700001D03*
X150500000Y-83750000D03*
X150500000Y-98250000D03*
X171500000Y-64000000D03*
X171250000Y-99500000D03*
X176449999Y-72700000D03*
X147500000Y-97000000D03*
X129000000Y-96000000D03*
X171750000Y-80750000D03*
X142500000Y-106750000D03*
X135250000Y-103750000D03*
X137250000Y-96000000D03*
X127000000Y-121250000D03*
X146500000Y-121250000D03*
X127750000Y-97250001D03*
X145000636Y-95578988D03*
X136500000Y-102500000D03*
X130750000Y-78500000D03*
X151500000Y-97000000D03*
X151500000Y-85000001D03*
X170749999Y-104250000D03*
X171500000Y-65000000D03*
X143750000Y-105250000D03*
X132000000Y-80750000D03*
X165749999Y-101000001D03*
X127750000Y-96000000D03*
X129250000Y-80000000D03*
X130750000Y-77250000D03*
X140499999Y-106750000D03*
X184000000Y-121250000D03*
X142250000Y-96000000D03*
X132539950Y-95267621D03*
X141250000Y-101000001D03*
X167750000Y-121250000D03*
X136398000Y-73152000D03*
X171999998Y-102750001D03*
X172500001Y-104249999D03*
X129074237Y-67424761D03*
X136450000Y-101500000D03*
X148750000Y-98250000D03*
X138324238Y-67424761D03*
%TO.N,+3V3*%
X138250000Y-96000000D03*
X133250000Y-78500000D03*
X144500000Y-99750000D03*
X123000000Y-103500000D03*
X176000000Y-80750000D03*
X135500000Y-96250000D03*
X132500000Y-96250000D03*
X143250000Y-96000000D03*
X133499999Y-76000000D03*
X130750000Y-82500000D03*
X147500000Y-81750000D03*
X143500000Y-100750000D03*
X166500000Y-71000000D03*
X130500000Y-98250000D03*
X162750000Y-62750000D03*
X143500000Y-66500000D03*
X166449999Y-64450000D03*
X166500000Y-68500000D03*
X138000000Y-101500000D03*
X132000000Y-82000000D03*
X146500000Y-82750000D03*
X122000000Y-58250000D03*
X144250000Y-94500000D03*
X131500000Y-97250000D03*
X134250000Y-78499999D03*
X151750000Y-95000000D03*
X151750000Y-96000000D03*
%TO.N,+5V*%
X176249999Y-97750000D03*
X178249999Y-96000000D03*
X175000000Y-61000000D03*
X176249999Y-96000000D03*
X176249999Y-101750000D03*
X180249999Y-96000000D03*
X177000000Y-67500000D03*
X173000000Y-61000000D03*
X176249999Y-99750000D03*
X168499998Y-102500000D03*
X177000000Y-65500000D03*
%TO.N,NRST*%
X117500000Y-68000000D03*
X117500000Y-65750000D03*
X139500000Y-95500000D03*
X129750000Y-87750000D03*
X133500000Y-102000000D03*
%TO.N,+12V*%
X134250000Y-111500000D03*
X173749999Y-108250000D03*
X174999999Y-106999999D03*
X184000000Y-123000000D03*
X146500000Y-123000000D03*
X176250000Y-111500000D03*
X173749999Y-107000000D03*
X167750000Y-123000000D03*
X127000000Y-123000000D03*
X174999999Y-108250000D03*
%TO.N,VBUS*%
X157800000Y-65400000D03*
X131574236Y-65424761D03*
X136324238Y-65424761D03*
%TO.N,TOUCH_MISO*%
X129540000Y-89408000D03*
X132842000Y-90932000D03*
%TO.N,TOUCH_MOSI*%
X128524000Y-90424000D03*
X129540000Y-91440000D03*
%TO.N,TOUCH_IRQ*%
X132842000Y-91948000D03*
X124968000Y-88392000D03*
%TO.N,TOUCH_NSS*%
X133858000Y-91948000D03*
X126492000Y-91440000D03*
%TO.N,BOOT0*%
X138750000Y-85250000D03*
X139000000Y-80750000D03*
%TO.N,DISPLAY_MISO*%
X133350000Y-93472000D03*
X124206000Y-93472000D03*
%TO.N,DISPLAY_DC*%
X133604000Y-96266000D03*
X124460000Y-97536000D03*
%TO.N,SD_NSS*%
X145034000Y-93980000D03*
X152908000Y-94996000D03*
%TO.N,DISPLAY_NSS*%
X124460000Y-99568000D03*
X133185792Y-99247000D03*
%TO.N,WATER_LED*%
X140500000Y-95750000D03*
X146000000Y-98000000D03*
%TO.N,+3V3*%
X145000000Y-84000000D03*
%TD*%
%TA.AperFunction,Conductor*%
%TO.N,GND*%
G36*
X121314394Y-57520185D02*
G01*
X121360149Y-57572989D01*
X121370093Y-57642147D01*
X121343211Y-57703161D01*
X121339376Y-57707833D01*
X121246295Y-57847139D01*
X121182184Y-58001917D01*
X121182182Y-58001925D01*
X121149500Y-58166228D01*
X121149500Y-58333771D01*
X121182182Y-58498074D01*
X121182184Y-58498082D01*
X121246295Y-58652860D01*
X121339373Y-58792162D01*
X121457837Y-58910626D01*
X121550494Y-58972537D01*
X121597137Y-59003703D01*
X121751918Y-59067816D01*
X121916228Y-59100499D01*
X121916232Y-59100500D01*
X121916233Y-59100500D01*
X122083768Y-59100500D01*
X122083769Y-59100499D01*
X122122992Y-59092697D01*
X122201807Y-59077021D01*
X122220769Y-59073248D01*
X122248082Y-59067816D01*
X122402863Y-59003703D01*
X122542162Y-58910626D01*
X122660626Y-58792162D01*
X122753703Y-58652863D01*
X122817816Y-58498082D01*
X122850500Y-58333767D01*
X122850500Y-58166233D01*
X122817816Y-58001918D01*
X122753703Y-57847137D01*
X122694226Y-57758124D01*
X122660623Y-57707833D01*
X122656789Y-57703161D01*
X122629478Y-57638850D01*
X122641272Y-57569983D01*
X122688426Y-57518425D01*
X122752645Y-57500500D01*
X129223568Y-57500500D01*
X129290607Y-57520185D01*
X129336362Y-57572989D01*
X129346306Y-57642147D01*
X129317281Y-57705703D01*
X129271020Y-57739061D01*
X129225012Y-57758117D01*
X129224999Y-57758124D01*
X129069410Y-57862086D01*
X129069406Y-57862089D01*
X128937089Y-57994406D01*
X128937086Y-57994410D01*
X128833124Y-58149999D01*
X128833119Y-58150008D01*
X128761508Y-58322894D01*
X128761506Y-58322902D01*
X128725000Y-58506428D01*
X128725000Y-58750000D01*
X129375000Y-58750000D01*
X129375000Y-59250000D01*
X128725000Y-59250000D01*
X128725000Y-59493571D01*
X128761506Y-59677097D01*
X128761508Y-59677105D01*
X128833119Y-59849991D01*
X128833124Y-59850000D01*
X128937086Y-60005589D01*
X128937089Y-60005593D01*
X129069406Y-60137910D01*
X129069410Y-60137913D01*
X129224999Y-60241875D01*
X129225012Y-60241882D01*
X129397889Y-60313489D01*
X129397896Y-60313491D01*
X129425000Y-60318882D01*
X129425000Y-59566988D01*
X129434940Y-59584205D01*
X129490795Y-59640060D01*
X129559204Y-59679556D01*
X129635504Y-59700000D01*
X129714496Y-59700000D01*
X129790796Y-59679556D01*
X129859205Y-59640060D01*
X129915060Y-59584205D01*
X129925000Y-59566988D01*
X129925000Y-60318881D01*
X129952103Y-60313491D01*
X129952110Y-60313489D01*
X130124987Y-60241882D01*
X130125000Y-60241875D01*
X130280589Y-60137913D01*
X130280593Y-60137910D01*
X130412910Y-60005593D01*
X130412913Y-60005589D01*
X130516875Y-59850000D01*
X130516880Y-59849991D01*
X130588491Y-59677105D01*
X130588493Y-59677097D01*
X130624999Y-59493571D01*
X130625000Y-59493569D01*
X130625000Y-59250000D01*
X129975000Y-59250000D01*
X129975000Y-58750000D01*
X130625000Y-58750000D01*
X130625000Y-58506430D01*
X130624999Y-58506428D01*
X130588493Y-58322902D01*
X130588491Y-58322894D01*
X130516880Y-58150008D01*
X130516875Y-58149999D01*
X130412913Y-57994410D01*
X130412910Y-57994406D01*
X130280593Y-57862089D01*
X130280589Y-57862086D01*
X130125000Y-57758124D01*
X130124987Y-57758117D01*
X130078980Y-57739061D01*
X130024576Y-57695220D01*
X130002511Y-57628926D01*
X130019790Y-57561227D01*
X130070927Y-57513616D01*
X130126432Y-57500500D01*
X137873568Y-57500500D01*
X137940607Y-57520185D01*
X137986362Y-57572989D01*
X137996306Y-57642147D01*
X137967281Y-57705703D01*
X137921020Y-57739061D01*
X137875012Y-57758117D01*
X137874999Y-57758124D01*
X137719410Y-57862086D01*
X137719406Y-57862089D01*
X137587089Y-57994406D01*
X137587086Y-57994410D01*
X137483124Y-58149999D01*
X137483119Y-58150008D01*
X137411508Y-58322894D01*
X137411506Y-58322902D01*
X137375000Y-58506428D01*
X137375000Y-58750000D01*
X138025000Y-58750000D01*
X138025000Y-59250000D01*
X137375000Y-59250000D01*
X137375000Y-59493571D01*
X137411506Y-59677097D01*
X137411508Y-59677105D01*
X137483119Y-59849991D01*
X137483124Y-59850000D01*
X137587086Y-60005589D01*
X137587089Y-60005593D01*
X137719406Y-60137910D01*
X137719410Y-60137913D01*
X137874999Y-60241875D01*
X137875012Y-60241882D01*
X138047889Y-60313489D01*
X138047896Y-60313491D01*
X138075000Y-60318882D01*
X138075000Y-59566988D01*
X138084940Y-59584205D01*
X138140795Y-59640060D01*
X138209204Y-59679556D01*
X138285504Y-59700000D01*
X138364496Y-59700000D01*
X138440796Y-59679556D01*
X138509205Y-59640060D01*
X138565060Y-59584205D01*
X138575000Y-59566988D01*
X138575000Y-60318881D01*
X138602103Y-60313491D01*
X138602110Y-60313489D01*
X138774987Y-60241882D01*
X138775000Y-60241875D01*
X138930589Y-60137913D01*
X138930593Y-60137910D01*
X139062910Y-60005593D01*
X139062913Y-60005589D01*
X139166875Y-59850000D01*
X139166880Y-59849991D01*
X139238491Y-59677105D01*
X139238493Y-59677097D01*
X139274999Y-59493571D01*
X139275000Y-59493569D01*
X139275000Y-59316533D01*
X158324499Y-59316533D01*
X158350458Y-59447030D01*
X158350461Y-59447040D01*
X158401376Y-59569961D01*
X158401386Y-59569979D01*
X158475301Y-59680601D01*
X158475307Y-59680609D01*
X158569390Y-59774692D01*
X158569398Y-59774698D01*
X158680020Y-59848613D01*
X158680023Y-59848614D01*
X158680031Y-59848620D01*
X158680037Y-59848622D01*
X158680038Y-59848623D01*
X158802959Y-59899538D01*
X158802964Y-59899540D01*
X158802968Y-59899540D01*
X158802969Y-59899541D01*
X158933466Y-59925500D01*
X158933469Y-59925500D01*
X159066533Y-59925500D01*
X159154325Y-59908035D01*
X159197036Y-59899540D01*
X159319969Y-59848620D01*
X159430606Y-59774695D01*
X159524695Y-59680606D01*
X159598620Y-59569969D01*
X159649540Y-59447036D01*
X159675500Y-59316533D01*
X161324499Y-59316533D01*
X161350458Y-59447030D01*
X161350461Y-59447040D01*
X161401376Y-59569961D01*
X161401386Y-59569979D01*
X161475301Y-59680601D01*
X161475307Y-59680609D01*
X161569390Y-59774692D01*
X161569398Y-59774698D01*
X161680020Y-59848613D01*
X161680023Y-59848614D01*
X161680031Y-59848620D01*
X161680037Y-59848622D01*
X161680038Y-59848623D01*
X161802959Y-59899538D01*
X161802964Y-59899540D01*
X161802968Y-59899540D01*
X161802969Y-59899541D01*
X161933466Y-59925500D01*
X161933469Y-59925500D01*
X162066533Y-59925500D01*
X162154325Y-59908035D01*
X162197036Y-59899540D01*
X162319969Y-59848620D01*
X162430606Y-59774695D01*
X162524695Y-59680606D01*
X162598620Y-59569969D01*
X162649540Y-59447036D01*
X162675500Y-59316531D01*
X162675500Y-59183469D01*
X162675500Y-59183466D01*
X162649541Y-59052969D01*
X162649540Y-59052968D01*
X162649540Y-59052964D01*
X162598620Y-58930031D01*
X162526679Y-58822364D01*
X162524698Y-58819398D01*
X162524692Y-58819390D01*
X162430609Y-58725307D01*
X162430601Y-58725301D01*
X162319979Y-58651386D01*
X162319972Y-58651382D01*
X162319969Y-58651380D01*
X162319965Y-58651378D01*
X162319961Y-58651376D01*
X162197040Y-58600461D01*
X162197030Y-58600458D01*
X162066533Y-58574500D01*
X162066531Y-58574500D01*
X161933469Y-58574500D01*
X161933467Y-58574500D01*
X161802969Y-58600458D01*
X161802959Y-58600461D01*
X161680038Y-58651376D01*
X161680020Y-58651386D01*
X161569398Y-58725301D01*
X161569390Y-58725307D01*
X161475307Y-58819390D01*
X161475301Y-58819398D01*
X161401386Y-58930020D01*
X161401376Y-58930038D01*
X161350461Y-59052959D01*
X161350458Y-59052969D01*
X161324500Y-59183466D01*
X161324500Y-59183469D01*
X161324500Y-59316531D01*
X161324500Y-59316533D01*
X161324499Y-59316533D01*
X159675500Y-59316533D01*
X159675500Y-59316531D01*
X159675500Y-59183469D01*
X159675500Y-59183466D01*
X159649541Y-59052969D01*
X159649540Y-59052968D01*
X159649540Y-59052964D01*
X159598620Y-58930031D01*
X159526679Y-58822364D01*
X159524698Y-58819398D01*
X159524692Y-58819390D01*
X159430609Y-58725307D01*
X159430601Y-58725301D01*
X159319979Y-58651386D01*
X159319972Y-58651382D01*
X159319969Y-58651380D01*
X159319965Y-58651378D01*
X159319961Y-58651376D01*
X159197040Y-58600461D01*
X159197030Y-58600458D01*
X159066533Y-58574500D01*
X159066531Y-58574500D01*
X158933469Y-58574500D01*
X158933467Y-58574500D01*
X158802969Y-58600458D01*
X158802959Y-58600461D01*
X158680038Y-58651376D01*
X158680020Y-58651386D01*
X158569398Y-58725301D01*
X158569390Y-58725307D01*
X158475307Y-58819390D01*
X158475301Y-58819398D01*
X158401386Y-58930020D01*
X158401376Y-58930038D01*
X158350461Y-59052959D01*
X158350458Y-59052969D01*
X158324500Y-59183466D01*
X158324500Y-59183469D01*
X158324500Y-59316531D01*
X158324500Y-59316533D01*
X158324499Y-59316533D01*
X139275000Y-59316533D01*
X139275000Y-59250000D01*
X138625000Y-59250000D01*
X138625000Y-58750000D01*
X139275000Y-58750000D01*
X139275000Y-58506430D01*
X139274999Y-58506428D01*
X139238493Y-58322902D01*
X139238491Y-58322894D01*
X139166880Y-58150008D01*
X139166875Y-58149999D01*
X139062913Y-57994410D01*
X139062910Y-57994406D01*
X138930593Y-57862089D01*
X138930589Y-57862086D01*
X138775000Y-57758124D01*
X138774987Y-57758117D01*
X138728980Y-57739061D01*
X138674576Y-57695220D01*
X138652511Y-57628926D01*
X138669790Y-57561227D01*
X138720927Y-57513616D01*
X138776432Y-57500500D01*
X189934108Y-57500500D01*
X189997294Y-57500500D01*
X190002702Y-57500617D01*
X190386771Y-57517386D01*
X190397506Y-57518326D01*
X190775971Y-57568152D01*
X190786597Y-57570025D01*
X191159284Y-57652648D01*
X191169710Y-57655442D01*
X191533765Y-57770227D01*
X191543911Y-57773920D01*
X191896578Y-57920000D01*
X191906369Y-57924566D01*
X192244942Y-58100816D01*
X192254309Y-58106223D01*
X192348505Y-58166233D01*
X192576244Y-58311318D01*
X192585105Y-58317523D01*
X192887930Y-58549889D01*
X192896217Y-58556843D01*
X193177635Y-58814715D01*
X193185284Y-58822364D01*
X193443156Y-59103782D01*
X193450110Y-59112069D01*
X193682476Y-59414894D01*
X193688681Y-59423755D01*
X193893775Y-59745689D01*
X193899183Y-59755057D01*
X194075430Y-60093623D01*
X194080002Y-60103427D01*
X194226075Y-60456078D01*
X194229775Y-60466244D01*
X194344554Y-60830278D01*
X194347354Y-60840727D01*
X194429971Y-61213389D01*
X194431849Y-61224042D01*
X194481671Y-61602473D01*
X194482614Y-61613249D01*
X194499382Y-61997297D01*
X194499500Y-62002706D01*
X194499500Y-123997293D01*
X194499382Y-124002702D01*
X194482614Y-124386750D01*
X194481671Y-124397526D01*
X194431849Y-124775957D01*
X194429971Y-124786610D01*
X194347354Y-125159272D01*
X194344554Y-125169721D01*
X194229775Y-125533755D01*
X194226075Y-125543921D01*
X194080002Y-125896572D01*
X194075430Y-125906376D01*
X193899183Y-126244942D01*
X193893775Y-126254310D01*
X193688681Y-126576244D01*
X193682476Y-126585105D01*
X193450110Y-126887930D01*
X193443156Y-126896217D01*
X193185284Y-127177635D01*
X193177635Y-127185284D01*
X192896217Y-127443156D01*
X192887930Y-127450110D01*
X192585105Y-127682476D01*
X192576244Y-127688681D01*
X192254310Y-127893775D01*
X192244942Y-127899183D01*
X191906376Y-128075430D01*
X191896572Y-128080002D01*
X191543921Y-128226075D01*
X191533755Y-128229775D01*
X191169721Y-128344554D01*
X191159272Y-128347354D01*
X190786610Y-128429971D01*
X190775957Y-128431849D01*
X190397526Y-128481671D01*
X190386750Y-128482614D01*
X190002703Y-128499382D01*
X189997294Y-128499500D01*
X109002706Y-128499500D01*
X108997297Y-128499382D01*
X108613249Y-128482614D01*
X108602473Y-128481671D01*
X108224042Y-128431849D01*
X108213389Y-128429971D01*
X107840727Y-128347354D01*
X107830278Y-128344554D01*
X107466244Y-128229775D01*
X107456078Y-128226075D01*
X107103427Y-128080002D01*
X107093623Y-128075430D01*
X106755057Y-127899183D01*
X106745689Y-127893775D01*
X106423755Y-127688681D01*
X106414894Y-127682476D01*
X106112069Y-127450110D01*
X106103782Y-127443156D01*
X105822364Y-127185284D01*
X105814715Y-127177635D01*
X105556843Y-126896217D01*
X105549889Y-126887930D01*
X105317523Y-126585105D01*
X105311318Y-126576244D01*
X105106224Y-126254310D01*
X105100816Y-126244942D01*
X105095131Y-126234022D01*
X104924566Y-125906369D01*
X104919997Y-125896572D01*
X104891574Y-125827952D01*
X104773920Y-125543911D01*
X104770224Y-125533755D01*
X104655442Y-125169710D01*
X104652648Y-125159284D01*
X104570025Y-124786597D01*
X104568152Y-124775974D01*
X104538683Y-124552135D01*
X146829500Y-124552135D01*
X146829500Y-126447870D01*
X146829501Y-126447876D01*
X146835908Y-126507483D01*
X146886202Y-126642328D01*
X146886206Y-126642335D01*
X146972452Y-126757544D01*
X146972455Y-126757547D01*
X147087664Y-126843793D01*
X147087671Y-126843797D01*
X147222517Y-126894091D01*
X147222516Y-126894091D01*
X147229444Y-126894835D01*
X147282127Y-126900500D01*
X149177872Y-126900499D01*
X149237483Y-126894091D01*
X149372331Y-126843796D01*
X149487546Y-126757546D01*
X149573796Y-126642331D01*
X149601429Y-126568243D01*
X149603601Y-126562420D01*
X149645471Y-126506486D01*
X149710936Y-126482068D01*
X149779209Y-126496919D01*
X149807464Y-126518071D01*
X149857636Y-126568243D01*
X149857641Y-126568247D01*
X149959603Y-126642326D01*
X150035978Y-126697815D01*
X150164375Y-126763237D01*
X150232393Y-126797895D01*
X150232396Y-126797896D01*
X150294367Y-126818031D01*
X150442049Y-126866015D01*
X150659778Y-126900500D01*
X150659779Y-126900500D01*
X150880221Y-126900500D01*
X150880222Y-126900500D01*
X151097951Y-126866015D01*
X151307606Y-126797895D01*
X151504022Y-126697815D01*
X151682365Y-126568242D01*
X151838242Y-126412365D01*
X151967815Y-126234022D01*
X152067895Y-126037606D01*
X152136015Y-125827951D01*
X152170500Y-125610222D01*
X152170500Y-125389778D01*
X152136015Y-125172049D01*
X152067895Y-124962394D01*
X152067895Y-124962393D01*
X152033237Y-124894375D01*
X151967815Y-124765978D01*
X151906041Y-124680953D01*
X151838247Y-124587641D01*
X151838243Y-124587636D01*
X151682363Y-124431756D01*
X151682358Y-124431752D01*
X151504025Y-124302187D01*
X151504024Y-124302186D01*
X151504022Y-124302185D01*
X151386791Y-124242452D01*
X151307606Y-124202104D01*
X151307603Y-124202103D01*
X151097952Y-124133985D01*
X150989086Y-124116742D01*
X150880222Y-124099500D01*
X150659778Y-124099500D01*
X150587201Y-124110995D01*
X150442047Y-124133985D01*
X150232396Y-124202103D01*
X150232393Y-124202104D01*
X150035974Y-124302187D01*
X149857641Y-124431752D01*
X149857636Y-124431756D01*
X149807463Y-124481929D01*
X149746140Y-124515413D01*
X149676448Y-124510428D01*
X149620515Y-124468557D01*
X149603601Y-124437580D01*
X149573797Y-124357671D01*
X149573793Y-124357664D01*
X149487547Y-124242455D01*
X149487544Y-124242452D01*
X149372335Y-124156206D01*
X149372328Y-124156202D01*
X149237482Y-124105908D01*
X149237483Y-124105908D01*
X149177883Y-124099501D01*
X149177881Y-124099500D01*
X149177873Y-124099500D01*
X149177864Y-124099500D01*
X147282129Y-124099500D01*
X147282123Y-124099501D01*
X147222516Y-124105908D01*
X147087671Y-124156202D01*
X147087664Y-124156206D01*
X146972455Y-124242452D01*
X146972452Y-124242455D01*
X146886206Y-124357664D01*
X146886202Y-124357671D01*
X146835908Y-124492517D01*
X146829501Y-124552116D01*
X146829500Y-124552135D01*
X104538683Y-124552135D01*
X104518326Y-124397506D01*
X104517386Y-124386771D01*
X104500618Y-124002702D01*
X104500500Y-123997293D01*
X104500500Y-122916228D01*
X126149500Y-122916228D01*
X126149500Y-123083771D01*
X126182182Y-123248074D01*
X126182184Y-123248082D01*
X126246295Y-123402860D01*
X126339373Y-123542162D01*
X126457837Y-123660626D01*
X126550494Y-123722537D01*
X126597137Y-123753703D01*
X126751918Y-123817816D01*
X126916228Y-123850499D01*
X126916232Y-123850500D01*
X126916233Y-123850500D01*
X127083768Y-123850500D01*
X127083769Y-123850499D01*
X127248082Y-123817816D01*
X127402863Y-123753703D01*
X127542162Y-123660626D01*
X127660626Y-123542162D01*
X127753703Y-123402863D01*
X127817816Y-123248082D01*
X127850500Y-123083767D01*
X127850500Y-122916233D01*
X127850499Y-122916228D01*
X145649500Y-122916228D01*
X145649500Y-123083771D01*
X145682182Y-123248074D01*
X145682184Y-123248082D01*
X145746295Y-123402860D01*
X145839373Y-123542162D01*
X145957837Y-123660626D01*
X146050494Y-123722537D01*
X146097137Y-123753703D01*
X146251918Y-123817816D01*
X146416228Y-123850499D01*
X146416232Y-123850500D01*
X146416233Y-123850500D01*
X146583768Y-123850500D01*
X146583769Y-123850499D01*
X146748082Y-123817816D01*
X146902863Y-123753703D01*
X147042162Y-123660626D01*
X147160626Y-123542162D01*
X147253703Y-123402863D01*
X147317816Y-123248082D01*
X147350500Y-123083767D01*
X147350500Y-122916233D01*
X147350499Y-122916228D01*
X166899500Y-122916228D01*
X166899500Y-123083771D01*
X166932182Y-123248074D01*
X166932184Y-123248082D01*
X166996295Y-123402860D01*
X167089373Y-123542162D01*
X167207837Y-123660626D01*
X167300494Y-123722537D01*
X167347137Y-123753703D01*
X167501918Y-123817816D01*
X167666228Y-123850499D01*
X167666232Y-123850500D01*
X167666233Y-123850500D01*
X167833768Y-123850500D01*
X167833769Y-123850499D01*
X167998082Y-123817816D01*
X168152863Y-123753703D01*
X168292162Y-123660626D01*
X168410626Y-123542162D01*
X168503703Y-123402863D01*
X168567816Y-123248082D01*
X168600500Y-123083767D01*
X168600500Y-122916233D01*
X168600499Y-122916228D01*
X183149500Y-122916228D01*
X183149500Y-123083771D01*
X183182182Y-123248074D01*
X183182184Y-123248082D01*
X183246295Y-123402860D01*
X183339373Y-123542162D01*
X183457837Y-123660626D01*
X183550494Y-123722537D01*
X183597137Y-123753703D01*
X183751918Y-123817816D01*
X183916228Y-123850499D01*
X183916232Y-123850500D01*
X183916233Y-123850500D01*
X184083768Y-123850500D01*
X184083769Y-123850499D01*
X184248082Y-123817816D01*
X184402863Y-123753703D01*
X184542162Y-123660626D01*
X184660626Y-123542162D01*
X184753703Y-123402863D01*
X184817816Y-123248082D01*
X184850500Y-123083767D01*
X184850500Y-122916233D01*
X184817816Y-122751918D01*
X184753703Y-122597137D01*
X184722537Y-122550494D01*
X184660626Y-122457837D01*
X184542162Y-122339373D01*
X184402860Y-122246295D01*
X184248082Y-122182184D01*
X184248074Y-122182182D01*
X184083771Y-122149500D01*
X184083767Y-122149500D01*
X183916233Y-122149500D01*
X183916228Y-122149500D01*
X183751925Y-122182182D01*
X183751917Y-122182184D01*
X183597139Y-122246295D01*
X183457837Y-122339373D01*
X183339373Y-122457837D01*
X183246295Y-122597139D01*
X183182184Y-122751917D01*
X183182182Y-122751925D01*
X183149500Y-122916228D01*
X168600499Y-122916228D01*
X168567816Y-122751918D01*
X168503703Y-122597137D01*
X168472537Y-122550494D01*
X168410626Y-122457837D01*
X168292162Y-122339373D01*
X168152860Y-122246295D01*
X167998082Y-122182184D01*
X167998074Y-122182182D01*
X167833771Y-122149500D01*
X167833767Y-122149500D01*
X167666233Y-122149500D01*
X167666228Y-122149500D01*
X167501925Y-122182182D01*
X167501917Y-122182184D01*
X167347139Y-122246295D01*
X167207837Y-122339373D01*
X167089373Y-122457837D01*
X166996295Y-122597139D01*
X166932184Y-122751917D01*
X166932182Y-122751925D01*
X166899500Y-122916228D01*
X147350499Y-122916228D01*
X147317816Y-122751918D01*
X147253703Y-122597137D01*
X147222537Y-122550494D01*
X147160626Y-122457837D01*
X147042162Y-122339373D01*
X146902860Y-122246295D01*
X146748082Y-122182184D01*
X146748074Y-122182182D01*
X146583771Y-122149500D01*
X146583767Y-122149500D01*
X146416233Y-122149500D01*
X146416228Y-122149500D01*
X146251925Y-122182182D01*
X146251917Y-122182184D01*
X146097139Y-122246295D01*
X145957837Y-122339373D01*
X145839373Y-122457837D01*
X145746295Y-122597139D01*
X145682184Y-122751917D01*
X145682182Y-122751925D01*
X145649500Y-122916228D01*
X127850499Y-122916228D01*
X127817816Y-122751918D01*
X127753703Y-122597137D01*
X127722537Y-122550494D01*
X127660626Y-122457837D01*
X127542162Y-122339373D01*
X127402860Y-122246295D01*
X127248082Y-122182184D01*
X127248074Y-122182182D01*
X127083771Y-122149500D01*
X127083767Y-122149500D01*
X126916233Y-122149500D01*
X126916228Y-122149500D01*
X126751925Y-122182182D01*
X126751917Y-122182184D01*
X126597139Y-122246295D01*
X126457837Y-122339373D01*
X126339373Y-122457837D01*
X126246295Y-122597139D01*
X126182184Y-122751917D01*
X126182182Y-122751925D01*
X126149500Y-122916228D01*
X104500500Y-122916228D01*
X104500500Y-111416228D01*
X133399500Y-111416228D01*
X133399500Y-111583771D01*
X133432182Y-111748074D01*
X133432184Y-111748082D01*
X133496295Y-111902860D01*
X133589373Y-112042162D01*
X133707837Y-112160626D01*
X133800494Y-112222537D01*
X133847137Y-112253703D01*
X134001918Y-112317816D01*
X134166228Y-112350499D01*
X134166232Y-112350500D01*
X134166233Y-112350500D01*
X134333768Y-112350500D01*
X134333769Y-112350499D01*
X134498082Y-112317816D01*
X134652863Y-112253703D01*
X134792162Y-112160626D01*
X134910626Y-112042162D01*
X135003703Y-111902863D01*
X135067816Y-111748082D01*
X135100500Y-111583767D01*
X135100500Y-111416233D01*
X135100499Y-111416228D01*
X175399500Y-111416228D01*
X175399500Y-111583771D01*
X175432182Y-111748074D01*
X175432184Y-111748082D01*
X175496295Y-111902860D01*
X175589373Y-112042162D01*
X175707837Y-112160626D01*
X175800494Y-112222537D01*
X175847137Y-112253703D01*
X176001918Y-112317816D01*
X176166228Y-112350499D01*
X176166232Y-112350500D01*
X176166233Y-112350500D01*
X176333768Y-112350500D01*
X176333769Y-112350499D01*
X176498082Y-112317816D01*
X176652863Y-112253703D01*
X176792162Y-112160626D01*
X176910626Y-112042162D01*
X177003703Y-111902863D01*
X177067816Y-111748082D01*
X177100500Y-111583767D01*
X177100500Y-111416233D01*
X177067816Y-111251918D01*
X177003703Y-111097137D01*
X176972537Y-111050494D01*
X176910626Y-110957837D01*
X176792162Y-110839373D01*
X176652860Y-110746295D01*
X176498082Y-110682184D01*
X176498074Y-110682182D01*
X176333771Y-110649500D01*
X176333767Y-110649500D01*
X176166233Y-110649500D01*
X176166228Y-110649500D01*
X176001925Y-110682182D01*
X176001917Y-110682184D01*
X175847139Y-110746295D01*
X175707837Y-110839373D01*
X175589373Y-110957837D01*
X175496295Y-111097139D01*
X175432184Y-111251917D01*
X175432182Y-111251925D01*
X175399500Y-111416228D01*
X135100499Y-111416228D01*
X135067816Y-111251918D01*
X135003703Y-111097137D01*
X134972537Y-111050494D01*
X134910626Y-110957837D01*
X134792162Y-110839373D01*
X134652860Y-110746295D01*
X134498082Y-110682184D01*
X134498074Y-110682182D01*
X134333771Y-110649500D01*
X134333767Y-110649500D01*
X134166233Y-110649500D01*
X134166228Y-110649500D01*
X134001925Y-110682182D01*
X134001917Y-110682184D01*
X133847139Y-110746295D01*
X133707837Y-110839373D01*
X133589373Y-110957837D01*
X133496295Y-111097139D01*
X133432184Y-111251917D01*
X133432182Y-111251925D01*
X133399500Y-111416228D01*
X104500500Y-111416228D01*
X104500500Y-75302135D01*
X106345500Y-75302135D01*
X106345500Y-77097870D01*
X106345501Y-77097876D01*
X106351908Y-77157483D01*
X106402202Y-77292328D01*
X106402206Y-77292335D01*
X106488452Y-77407544D01*
X106488455Y-77407547D01*
X106603664Y-77493793D01*
X106603671Y-77493797D01*
X106735082Y-77542810D01*
X106791016Y-77584681D01*
X106815433Y-77650145D01*
X106800582Y-77718418D01*
X106779431Y-77746673D01*
X106665889Y-77860215D01*
X106540951Y-78032179D01*
X106444444Y-78221585D01*
X106378753Y-78423760D01*
X106345500Y-78633713D01*
X106345500Y-78846286D01*
X106376523Y-79042162D01*
X106378754Y-79056243D01*
X106442913Y-79253704D01*
X106444444Y-79258414D01*
X106540951Y-79447820D01*
X106665890Y-79619786D01*
X106816213Y-79770109D01*
X106988179Y-79895048D01*
X106988181Y-79895049D01*
X106988184Y-79895051D01*
X106996942Y-79899513D01*
X107047739Y-79947487D01*
X107064535Y-80015307D01*
X107041999Y-80081443D01*
X106996949Y-80120481D01*
X106988183Y-80124947D01*
X106816213Y-80249889D01*
X106665890Y-80400212D01*
X106540951Y-80572178D01*
X106444444Y-80761584D01*
X106378753Y-80963759D01*
X106345500Y-81173712D01*
X106345500Y-81386285D01*
X106374251Y-81567816D01*
X106378754Y-81596242D01*
X106429621Y-81752795D01*
X106444444Y-81798413D01*
X106540951Y-81987819D01*
X106665890Y-82159785D01*
X106816213Y-82310108D01*
X106988179Y-82435047D01*
X106988181Y-82435048D01*
X106988184Y-82435050D01*
X106996945Y-82439513D01*
X107047741Y-82487487D01*
X107064537Y-82555307D01*
X107042001Y-82621443D01*
X106996950Y-82660481D01*
X106988187Y-82664946D01*
X106988184Y-82664948D01*
X106816213Y-82789890D01*
X106665890Y-82940213D01*
X106540951Y-83112179D01*
X106444444Y-83301585D01*
X106378753Y-83503760D01*
X106345500Y-83713713D01*
X106345500Y-83926286D01*
X106373013Y-84100000D01*
X106378754Y-84136243D01*
X106415090Y-84248074D01*
X106444444Y-84338414D01*
X106540951Y-84527820D01*
X106665890Y-84699786D01*
X106816213Y-84850109D01*
X106988182Y-84975050D01*
X106996946Y-84979516D01*
X107047742Y-85027491D01*
X107064536Y-85095312D01*
X107041998Y-85161447D01*
X106996946Y-85200484D01*
X106988182Y-85204949D01*
X106816213Y-85329890D01*
X106665890Y-85480213D01*
X106540951Y-85652179D01*
X106444444Y-85841585D01*
X106378753Y-86043760D01*
X106345500Y-86253713D01*
X106345500Y-86466286D01*
X106378753Y-86676239D01*
X106444444Y-86878414D01*
X106540951Y-87067820D01*
X106665890Y-87239786D01*
X106816213Y-87390109D01*
X106988182Y-87515050D01*
X106996946Y-87519516D01*
X107047742Y-87567491D01*
X107064536Y-87635312D01*
X107041998Y-87701447D01*
X106996946Y-87740484D01*
X106988182Y-87744949D01*
X106816213Y-87869890D01*
X106665890Y-88020213D01*
X106540951Y-88192179D01*
X106444444Y-88381585D01*
X106378753Y-88583760D01*
X106345500Y-88793713D01*
X106345500Y-89006286D01*
X106367581Y-89145704D01*
X106378754Y-89216243D01*
X106413842Y-89324233D01*
X106444444Y-89418414D01*
X106540951Y-89607820D01*
X106665890Y-89779786D01*
X106816213Y-89930109D01*
X106988182Y-90055050D01*
X106996946Y-90059516D01*
X107047742Y-90107491D01*
X107064536Y-90175312D01*
X107041998Y-90241447D01*
X106996946Y-90280484D01*
X106988182Y-90284949D01*
X106816213Y-90409890D01*
X106665890Y-90560213D01*
X106540951Y-90732179D01*
X106444444Y-90921585D01*
X106378753Y-91123760D01*
X106352839Y-91287374D01*
X106345500Y-91333713D01*
X106345500Y-91546287D01*
X106378754Y-91756243D01*
X106413842Y-91864233D01*
X106444444Y-91958414D01*
X106540951Y-92147820D01*
X106665890Y-92319786D01*
X106816213Y-92470109D01*
X106988179Y-92595048D01*
X106988181Y-92595049D01*
X106988184Y-92595051D01*
X106996945Y-92599514D01*
X107047741Y-92647488D01*
X107064537Y-92715308D01*
X107042001Y-92781444D01*
X106996950Y-92820482D01*
X106988187Y-92824947D01*
X106988184Y-92824949D01*
X106816213Y-92949891D01*
X106665890Y-93100214D01*
X106540951Y-93272180D01*
X106444444Y-93461586D01*
X106378753Y-93663761D01*
X106345500Y-93873714D01*
X106345500Y-94086287D01*
X106377735Y-94289815D01*
X106378754Y-94296244D01*
X106444442Y-94498411D01*
X106444444Y-94498415D01*
X106540951Y-94687821D01*
X106665890Y-94859787D01*
X106816213Y-95010110D01*
X106988179Y-95135049D01*
X106988181Y-95135050D01*
X106988184Y-95135052D01*
X106996942Y-95139514D01*
X107047739Y-95187488D01*
X107064535Y-95255308D01*
X107041999Y-95321444D01*
X106996949Y-95360482D01*
X106988183Y-95364948D01*
X106816213Y-95489890D01*
X106665890Y-95640213D01*
X106540951Y-95812179D01*
X106444444Y-96001585D01*
X106444443Y-96001587D01*
X106444443Y-96001588D01*
X106444334Y-96001925D01*
X106378753Y-96203760D01*
X106345500Y-96413713D01*
X106345500Y-96626286D01*
X106375835Y-96817817D01*
X106378754Y-96836243D01*
X106438364Y-97019704D01*
X106444444Y-97038414D01*
X106540951Y-97227820D01*
X106665890Y-97399786D01*
X106816213Y-97550109D01*
X106988182Y-97675050D01*
X106996946Y-97679516D01*
X107047742Y-97727491D01*
X107064536Y-97795312D01*
X107041998Y-97861447D01*
X106996946Y-97900484D01*
X106988182Y-97904949D01*
X106816213Y-98029890D01*
X106665890Y-98180213D01*
X106540951Y-98352179D01*
X106444444Y-98541585D01*
X106444443Y-98541587D01*
X106444443Y-98541588D01*
X106435921Y-98567815D01*
X106378753Y-98743760D01*
X106352839Y-98907374D01*
X106345500Y-98953713D01*
X106345500Y-99166287D01*
X106378754Y-99376243D01*
X106419588Y-99501918D01*
X106444444Y-99578414D01*
X106540951Y-99767820D01*
X106665890Y-99939786D01*
X106816213Y-100090109D01*
X106988182Y-100215050D01*
X106996946Y-100219516D01*
X107047742Y-100267491D01*
X107064536Y-100335312D01*
X107041998Y-100401447D01*
X106996946Y-100440484D01*
X106988182Y-100444949D01*
X106816213Y-100569890D01*
X106665890Y-100720213D01*
X106540951Y-100892179D01*
X106444444Y-101081585D01*
X106444443Y-101081587D01*
X106444443Y-101081588D01*
X106441913Y-101089374D01*
X106378753Y-101283760D01*
X106357772Y-101416232D01*
X106345500Y-101493713D01*
X106345500Y-101706287D01*
X106352120Y-101748082D01*
X106378751Y-101916228D01*
X106378754Y-101916243D01*
X106437530Y-102097137D01*
X106444444Y-102118414D01*
X106540951Y-102307820D01*
X106665890Y-102479786D01*
X106816213Y-102630109D01*
X106988179Y-102755048D01*
X106988181Y-102755049D01*
X106988184Y-102755051D01*
X106996942Y-102759513D01*
X107047739Y-102807487D01*
X107064535Y-102875307D01*
X107041999Y-102941443D01*
X106996949Y-102980481D01*
X106988183Y-102984947D01*
X106816213Y-103109889D01*
X106665890Y-103260212D01*
X106540951Y-103432178D01*
X106444444Y-103621584D01*
X106378753Y-103823759D01*
X106345500Y-104033712D01*
X106345500Y-104246285D01*
X106378753Y-104456238D01*
X106444444Y-104658413D01*
X106540951Y-104847819D01*
X106665890Y-105019785D01*
X106816213Y-105170108D01*
X106988182Y-105295049D01*
X106997496Y-105299795D01*
X107048293Y-105347769D01*
X107065088Y-105415590D01*
X107042551Y-105481725D01*
X106997503Y-105520762D01*
X106988440Y-105525380D01*
X106934282Y-105564727D01*
X106934282Y-105564728D01*
X107566591Y-106197037D01*
X107503007Y-106214075D01*
X107388993Y-106279901D01*
X107295901Y-106372993D01*
X107230075Y-106487007D01*
X107213037Y-106550591D01*
X106580728Y-105918282D01*
X106580727Y-105918282D01*
X106541380Y-105972439D01*
X106444904Y-106161782D01*
X106379242Y-106363869D01*
X106379242Y-106363872D01*
X106346000Y-106573753D01*
X106346000Y-106786246D01*
X106379242Y-106996127D01*
X106379242Y-106996130D01*
X106444904Y-107198217D01*
X106541375Y-107387550D01*
X106580728Y-107441716D01*
X107213037Y-106809408D01*
X107230075Y-106872993D01*
X107295901Y-106987007D01*
X107388993Y-107080099D01*
X107503007Y-107145925D01*
X107566590Y-107162962D01*
X106934282Y-107795269D01*
X106934282Y-107795270D01*
X106988452Y-107834626D01*
X106988451Y-107834626D01*
X106997495Y-107839234D01*
X107048292Y-107887208D01*
X107065087Y-107955029D01*
X107042550Y-108021164D01*
X106997499Y-108060202D01*
X106988182Y-108064949D01*
X106816213Y-108189890D01*
X106665890Y-108340213D01*
X106540951Y-108512179D01*
X106444444Y-108701585D01*
X106378753Y-108903760D01*
X106345500Y-109113713D01*
X106345500Y-109326286D01*
X106378753Y-109536239D01*
X106444444Y-109738414D01*
X106540951Y-109927820D01*
X106665890Y-110099786D01*
X106816213Y-110250109D01*
X106988179Y-110375048D01*
X106988181Y-110375049D01*
X106988184Y-110375051D01*
X107177588Y-110471557D01*
X107379757Y-110537246D01*
X107589713Y-110570500D01*
X107589714Y-110570500D01*
X107802286Y-110570500D01*
X107802287Y-110570500D01*
X108012243Y-110537246D01*
X108214412Y-110471557D01*
X108403816Y-110375051D01*
X108425789Y-110359086D01*
X108575786Y-110250109D01*
X108575788Y-110250106D01*
X108575792Y-110250104D01*
X108726104Y-110099792D01*
X108726106Y-110099788D01*
X108726109Y-110099786D01*
X108851048Y-109927820D01*
X108851047Y-109927820D01*
X108851051Y-109927816D01*
X108947557Y-109738412D01*
X109013246Y-109536243D01*
X109046500Y-109326287D01*
X109046500Y-109113713D01*
X109013246Y-108903757D01*
X108947557Y-108701588D01*
X108851051Y-108512184D01*
X108851049Y-108512181D01*
X108851048Y-108512179D01*
X108726109Y-108340213D01*
X108575786Y-108189890D01*
X108403817Y-108064949D01*
X108394504Y-108060204D01*
X108343707Y-108012230D01*
X108326912Y-107944409D01*
X108349449Y-107878274D01*
X108394507Y-107839232D01*
X108403555Y-107834622D01*
X108457716Y-107795270D01*
X108457717Y-107795270D01*
X107825408Y-107162962D01*
X107888993Y-107145925D01*
X108003007Y-107080099D01*
X108096099Y-106987007D01*
X108161925Y-106872993D01*
X108178962Y-106809408D01*
X108811270Y-107441717D01*
X108811270Y-107441716D01*
X108850622Y-107387554D01*
X108947095Y-107198217D01*
X109012757Y-106996130D01*
X109012757Y-106996127D01*
X109025412Y-106916228D01*
X172899499Y-106916228D01*
X172899499Y-107083771D01*
X172932181Y-107248074D01*
X172932183Y-107248082D01*
X172996294Y-107402860D01*
X173089372Y-107542161D01*
X173092799Y-107546337D01*
X173120111Y-107610647D01*
X173108318Y-107679515D01*
X173092799Y-107703663D01*
X173089372Y-107707838D01*
X172996294Y-107847139D01*
X172932183Y-108001917D01*
X172932181Y-108001925D01*
X172899499Y-108166228D01*
X172899499Y-108333771D01*
X172932181Y-108498074D01*
X172932183Y-108498082D01*
X172996294Y-108652860D01*
X173089372Y-108792162D01*
X173207836Y-108910626D01*
X173300493Y-108972537D01*
X173347136Y-109003703D01*
X173501917Y-109067816D01*
X173666227Y-109100499D01*
X173666231Y-109100500D01*
X173666232Y-109100500D01*
X173833767Y-109100500D01*
X173833768Y-109100499D01*
X173998081Y-109067816D01*
X174152862Y-109003703D01*
X174292161Y-108910626D01*
X174292163Y-108910624D01*
X174296330Y-108907205D01*
X174360638Y-108879888D01*
X174429506Y-108891676D01*
X174453668Y-108907205D01*
X174457834Y-108910624D01*
X174457837Y-108910626D01*
X174597136Y-109003703D01*
X174751917Y-109067816D01*
X174916227Y-109100499D01*
X174916231Y-109100500D01*
X174916232Y-109100500D01*
X175083767Y-109100500D01*
X175083768Y-109100499D01*
X175248081Y-109067816D01*
X175402862Y-109003703D01*
X175542161Y-108910626D01*
X175660625Y-108792162D01*
X175753702Y-108652863D01*
X175817815Y-108498082D01*
X175850499Y-108333767D01*
X175850499Y-108166233D01*
X175817815Y-108001918D01*
X175768226Y-107882201D01*
X175753703Y-107847139D01*
X175745339Y-107834622D01*
X175719045Y-107795269D01*
X175660625Y-107707837D01*
X175657199Y-107703663D01*
X175629886Y-107639354D01*
X175641677Y-107570486D01*
X175657212Y-107546317D01*
X175660612Y-107542173D01*
X175660625Y-107542161D01*
X175753702Y-107402862D01*
X175817815Y-107248081D01*
X175850499Y-107083766D01*
X175850499Y-106916232D01*
X175817815Y-106751917D01*
X175768226Y-106632200D01*
X175753703Y-106597138D01*
X175660625Y-106457836D01*
X175542161Y-106339372D01*
X175402859Y-106246294D01*
X175248081Y-106182183D01*
X175248073Y-106182181D01*
X175083770Y-106149499D01*
X175083766Y-106149499D01*
X174916232Y-106149499D01*
X174916227Y-106149499D01*
X174751924Y-106182181D01*
X174751916Y-106182183D01*
X174597138Y-106246294D01*
X174457837Y-106339372D01*
X174453662Y-106342799D01*
X174389352Y-106370111D01*
X174320485Y-106358320D01*
X174296330Y-106342795D01*
X174292163Y-106339375D01*
X174152859Y-106246295D01*
X173998081Y-106182184D01*
X173998073Y-106182182D01*
X173833770Y-106149500D01*
X173833766Y-106149500D01*
X173666232Y-106149500D01*
X173666227Y-106149500D01*
X173501924Y-106182182D01*
X173501916Y-106182184D01*
X173347138Y-106246295D01*
X173207836Y-106339373D01*
X173089372Y-106457837D01*
X172996294Y-106597139D01*
X172932183Y-106751917D01*
X172932181Y-106751925D01*
X172899499Y-106916228D01*
X109025412Y-106916228D01*
X109029449Y-106890743D01*
X109046000Y-106786245D01*
X109046000Y-106573753D01*
X109012757Y-106363872D01*
X109012757Y-106363869D01*
X108947095Y-106161782D01*
X108850624Y-105972449D01*
X108811270Y-105918282D01*
X108811269Y-105918282D01*
X108178962Y-106550590D01*
X108161925Y-106487007D01*
X108096099Y-106372993D01*
X108003007Y-106279901D01*
X107888993Y-106214075D01*
X107825409Y-106197037D01*
X108457716Y-105564728D01*
X108403547Y-105525373D01*
X108403548Y-105525373D01*
X108394503Y-105520765D01*
X108343706Y-105472791D01*
X108326911Y-105404970D01*
X108349448Y-105338835D01*
X108394504Y-105299794D01*
X108403816Y-105295050D01*
X108425789Y-105279085D01*
X108575786Y-105170108D01*
X108575788Y-105170105D01*
X108575792Y-105170103D01*
X108726104Y-105019791D01*
X108726106Y-105019787D01*
X108726109Y-105019785D01*
X108851048Y-104847819D01*
X108851047Y-104847819D01*
X108851051Y-104847815D01*
X108947557Y-104658411D01*
X109013246Y-104456242D01*
X109046500Y-104246286D01*
X109046500Y-104033712D01*
X109013246Y-103823756D01*
X108947557Y-103621587D01*
X108851051Y-103432183D01*
X108851050Y-103432181D01*
X108839460Y-103416228D01*
X122149500Y-103416228D01*
X122149500Y-103583771D01*
X122182182Y-103748074D01*
X122182184Y-103748082D01*
X122246295Y-103902860D01*
X122339373Y-104042162D01*
X122457837Y-104160626D01*
X122550494Y-104222537D01*
X122597137Y-104253703D01*
X122751918Y-104317816D01*
X122916228Y-104350499D01*
X122916232Y-104350500D01*
X122916233Y-104350500D01*
X123083768Y-104350500D01*
X123083769Y-104350499D01*
X123248082Y-104317816D01*
X123402863Y-104253703D01*
X123542162Y-104160626D01*
X123660626Y-104042162D01*
X123753703Y-103902863D01*
X123817816Y-103748082D01*
X123850500Y-103583767D01*
X123850500Y-103416233D01*
X123817816Y-103251918D01*
X123753703Y-103097137D01*
X123716970Y-103042162D01*
X123660626Y-102957837D01*
X123542162Y-102839373D01*
X123402860Y-102746295D01*
X123248082Y-102682184D01*
X123248074Y-102682182D01*
X123083771Y-102649500D01*
X123083767Y-102649500D01*
X122916233Y-102649500D01*
X122916228Y-102649500D01*
X122751925Y-102682182D01*
X122751917Y-102682184D01*
X122597139Y-102746295D01*
X122457837Y-102839373D01*
X122339373Y-102957837D01*
X122246295Y-103097139D01*
X122182184Y-103251917D01*
X122182182Y-103251925D01*
X122149500Y-103416228D01*
X108839460Y-103416228D01*
X108726109Y-103260212D01*
X108575786Y-103109889D01*
X108403817Y-102984948D01*
X108395054Y-102980483D01*
X108344258Y-102932508D01*
X108327464Y-102864687D01*
X108350002Y-102798552D01*
X108395058Y-102759513D01*
X108403816Y-102755051D01*
X108504110Y-102682184D01*
X108575786Y-102630109D01*
X108575788Y-102630106D01*
X108575792Y-102630104D01*
X108726104Y-102479792D01*
X108726106Y-102479788D01*
X108726109Y-102479786D01*
X108851048Y-102307820D01*
X108851047Y-102307820D01*
X108851051Y-102307816D01*
X108947557Y-102118412D01*
X109013246Y-101916243D01*
X109013248Y-101916228D01*
X132649500Y-101916228D01*
X132649500Y-102083771D01*
X132682182Y-102248074D01*
X132682184Y-102248082D01*
X132746295Y-102402860D01*
X132839373Y-102542162D01*
X132957837Y-102660626D01*
X133050494Y-102722537D01*
X133097137Y-102753703D01*
X133097138Y-102753703D01*
X133097139Y-102753704D01*
X133111163Y-102759513D01*
X133251918Y-102817816D01*
X133416228Y-102850499D01*
X133416232Y-102850500D01*
X133416233Y-102850500D01*
X133583768Y-102850500D01*
X133583769Y-102850499D01*
X133748082Y-102817816D01*
X133902863Y-102753703D01*
X134042162Y-102660626D01*
X134160626Y-102542162D01*
X134244773Y-102416228D01*
X167649498Y-102416228D01*
X167649498Y-102583771D01*
X167682180Y-102748074D01*
X167682182Y-102748082D01*
X167746293Y-102902860D01*
X167839371Y-103042162D01*
X167957835Y-103160626D01*
X168050492Y-103222537D01*
X168097135Y-103253703D01*
X168251916Y-103317816D01*
X168416226Y-103350499D01*
X168416230Y-103350500D01*
X168416231Y-103350500D01*
X168583766Y-103350500D01*
X168583767Y-103350499D01*
X168748080Y-103317816D01*
X168902861Y-103253703D01*
X169042160Y-103160626D01*
X169160624Y-103042162D01*
X169253701Y-102902863D01*
X169317814Y-102748082D01*
X169350498Y-102583767D01*
X169350498Y-102416233D01*
X169317814Y-102251918D01*
X169262514Y-102118414D01*
X169253702Y-102097139D01*
X169160624Y-101957837D01*
X169042160Y-101839373D01*
X168928222Y-101763243D01*
X168902858Y-101746295D01*
X168748080Y-101682184D01*
X168748072Y-101682182D01*
X168667866Y-101666228D01*
X175399499Y-101666228D01*
X175399499Y-101833771D01*
X175432181Y-101998074D01*
X175432183Y-101998082D01*
X175496294Y-102152860D01*
X175589372Y-102292162D01*
X175707836Y-102410626D01*
X175716228Y-102416233D01*
X175847136Y-102503703D01*
X176001917Y-102567816D01*
X176166227Y-102600499D01*
X176166231Y-102600500D01*
X176166232Y-102600500D01*
X176333767Y-102600500D01*
X176333768Y-102600499D01*
X176498081Y-102567816D01*
X176652862Y-102503703D01*
X176792161Y-102410626D01*
X176910625Y-102292162D01*
X177003702Y-102152863D01*
X177067815Y-101998082D01*
X177100499Y-101833767D01*
X177100499Y-101666233D01*
X177067815Y-101501918D01*
X177003702Y-101347137D01*
X176940083Y-101251925D01*
X176910625Y-101207837D01*
X176792161Y-101089373D01*
X176652859Y-100996295D01*
X176498081Y-100932184D01*
X176498073Y-100932182D01*
X176333770Y-100899500D01*
X176333766Y-100899500D01*
X176166232Y-100899500D01*
X176166227Y-100899500D01*
X176001924Y-100932182D01*
X176001916Y-100932184D01*
X175847138Y-100996295D01*
X175707836Y-101089373D01*
X175589372Y-101207837D01*
X175496294Y-101347139D01*
X175432183Y-101501917D01*
X175432181Y-101501925D01*
X175399499Y-101666228D01*
X168667866Y-101666228D01*
X168583769Y-101649500D01*
X168583765Y-101649500D01*
X168416231Y-101649500D01*
X168416226Y-101649500D01*
X168251923Y-101682182D01*
X168251915Y-101682184D01*
X168097137Y-101746295D01*
X167957835Y-101839373D01*
X167839371Y-101957837D01*
X167746293Y-102097139D01*
X167682182Y-102251917D01*
X167682180Y-102251925D01*
X167649498Y-102416228D01*
X134244773Y-102416228D01*
X134253703Y-102402863D01*
X134317816Y-102248082D01*
X134350500Y-102083767D01*
X134350500Y-101916233D01*
X134317816Y-101751918D01*
X134253703Y-101597137D01*
X134244770Y-101583768D01*
X134174791Y-101479036D01*
X134174788Y-101479033D01*
X134160623Y-101457834D01*
X134119017Y-101416228D01*
X137149500Y-101416228D01*
X137149500Y-101583771D01*
X137182182Y-101748074D01*
X137182184Y-101748082D01*
X137246295Y-101902860D01*
X137339373Y-102042162D01*
X137457837Y-102160626D01*
X137550494Y-102222537D01*
X137597137Y-102253703D01*
X137751918Y-102317816D01*
X137916228Y-102350499D01*
X137916232Y-102350500D01*
X137916233Y-102350500D01*
X138083768Y-102350500D01*
X138083769Y-102350499D01*
X138248082Y-102317816D01*
X138402863Y-102253703D01*
X138542162Y-102160626D01*
X138660626Y-102042162D01*
X138753703Y-101902863D01*
X138817816Y-101748082D01*
X138850500Y-101583767D01*
X138850500Y-101416233D01*
X138817816Y-101251918D01*
X138753703Y-101097137D01*
X138722537Y-101050494D01*
X138660626Y-100957837D01*
X138542162Y-100839373D01*
X138428224Y-100763243D01*
X138402860Y-100746295D01*
X138248082Y-100682184D01*
X138248074Y-100682182D01*
X138167868Y-100666228D01*
X142649500Y-100666228D01*
X142649500Y-100833771D01*
X142682182Y-100998074D01*
X142682184Y-100998082D01*
X142746295Y-101152860D01*
X142839373Y-101292162D01*
X142957837Y-101410626D01*
X142966229Y-101416233D01*
X143097137Y-101503703D01*
X143251918Y-101567816D01*
X143399311Y-101597134D01*
X143416228Y-101600499D01*
X143416232Y-101600500D01*
X143416233Y-101600500D01*
X143583768Y-101600500D01*
X143583769Y-101600499D01*
X143748082Y-101567816D01*
X143902863Y-101503703D01*
X144042162Y-101410626D01*
X144160626Y-101292162D01*
X144253703Y-101152863D01*
X144317816Y-100998082D01*
X144350500Y-100833767D01*
X144350500Y-100724500D01*
X144370185Y-100657461D01*
X144422989Y-100611706D01*
X144474500Y-100600500D01*
X144583768Y-100600500D01*
X144583769Y-100600499D01*
X144748082Y-100567816D01*
X144902863Y-100503703D01*
X145042162Y-100410626D01*
X145160626Y-100292162D01*
X145253703Y-100152863D01*
X145317816Y-99998082D01*
X145350500Y-99833767D01*
X145350500Y-99666233D01*
X145350499Y-99666228D01*
X175399499Y-99666228D01*
X175399499Y-99833771D01*
X175432181Y-99998074D01*
X175432183Y-99998082D01*
X175496294Y-100152860D01*
X175589372Y-100292162D01*
X175707836Y-100410626D01*
X175800493Y-100472537D01*
X175847136Y-100503703D01*
X176001917Y-100567816D01*
X176166227Y-100600499D01*
X176166231Y-100600500D01*
X176166232Y-100600500D01*
X176333767Y-100600500D01*
X176333768Y-100600499D01*
X176498081Y-100567816D01*
X176652862Y-100503703D01*
X176792161Y-100410626D01*
X176910625Y-100292162D01*
X177003702Y-100152863D01*
X177067815Y-99998082D01*
X177100499Y-99833767D01*
X177100499Y-99666233D01*
X177067815Y-99501918D01*
X177003702Y-99347137D01*
X176972536Y-99300494D01*
X176910625Y-99207837D01*
X176792161Y-99089373D01*
X176652859Y-98996295D01*
X176498081Y-98932184D01*
X176498073Y-98932182D01*
X176333770Y-98899500D01*
X176333766Y-98899500D01*
X176166232Y-98899500D01*
X176166227Y-98899500D01*
X176001924Y-98932182D01*
X176001916Y-98932184D01*
X175847138Y-98996295D01*
X175707836Y-99089373D01*
X175589372Y-99207837D01*
X175496294Y-99347139D01*
X175432183Y-99501917D01*
X175432181Y-99501925D01*
X175399499Y-99666228D01*
X145350499Y-99666228D01*
X145317816Y-99501918D01*
X145253703Y-99347137D01*
X145222537Y-99300494D01*
X145160626Y-99207837D01*
X145042162Y-99089373D01*
X144902860Y-98996295D01*
X144748082Y-98932184D01*
X144748074Y-98932182D01*
X144583771Y-98899500D01*
X144583767Y-98899500D01*
X144416233Y-98899500D01*
X144416228Y-98899500D01*
X144251925Y-98932182D01*
X144251917Y-98932184D01*
X144097139Y-98996295D01*
X143957837Y-99089373D01*
X143839373Y-99207837D01*
X143746295Y-99347139D01*
X143682184Y-99501917D01*
X143682182Y-99501925D01*
X143649500Y-99666228D01*
X143649500Y-99775500D01*
X143629815Y-99842539D01*
X143577011Y-99888294D01*
X143525500Y-99899500D01*
X143416228Y-99899500D01*
X143251925Y-99932182D01*
X143251917Y-99932184D01*
X143097139Y-99996295D01*
X142957837Y-100089373D01*
X142839373Y-100207837D01*
X142746295Y-100347139D01*
X142682184Y-100501917D01*
X142682182Y-100501925D01*
X142649500Y-100666228D01*
X138167868Y-100666228D01*
X138083771Y-100649500D01*
X138083767Y-100649500D01*
X137916233Y-100649500D01*
X137916228Y-100649500D01*
X137751925Y-100682182D01*
X137751917Y-100682184D01*
X137597139Y-100746295D01*
X137457837Y-100839373D01*
X137339373Y-100957837D01*
X137246295Y-101097139D01*
X137182184Y-101251917D01*
X137182182Y-101251925D01*
X137149500Y-101416228D01*
X134119017Y-101416228D01*
X134042162Y-101339373D01*
X133902860Y-101246295D01*
X133748082Y-101182184D01*
X133748074Y-101182182D01*
X133583771Y-101149500D01*
X133583767Y-101149500D01*
X133416233Y-101149500D01*
X133416228Y-101149500D01*
X133251925Y-101182182D01*
X133251917Y-101182184D01*
X133097139Y-101246295D01*
X132957837Y-101339373D01*
X132839373Y-101457837D01*
X132746295Y-101597139D01*
X132682184Y-101751917D01*
X132682182Y-101751925D01*
X132649500Y-101916228D01*
X109013248Y-101916228D01*
X109046500Y-101706287D01*
X109046500Y-101493713D01*
X109013246Y-101283757D01*
X108947557Y-101081588D01*
X108851051Y-100892184D01*
X108851049Y-100892181D01*
X108851048Y-100892179D01*
X108726109Y-100720213D01*
X108575786Y-100569890D01*
X108403820Y-100444951D01*
X108403115Y-100444591D01*
X108395054Y-100440485D01*
X108344259Y-100392512D01*
X108327463Y-100324692D01*
X108349999Y-100258556D01*
X108395054Y-100219515D01*
X108403816Y-100215051D01*
X108489411Y-100152863D01*
X108575786Y-100090109D01*
X108575788Y-100090106D01*
X108575792Y-100090104D01*
X108726104Y-99939792D01*
X108726106Y-99939788D01*
X108726109Y-99939786D01*
X108851048Y-99767820D01*
X108851047Y-99767820D01*
X108851051Y-99767816D01*
X108947557Y-99578412D01*
X108978159Y-99484228D01*
X123609500Y-99484228D01*
X123609500Y-99651771D01*
X123642182Y-99816074D01*
X123642184Y-99816082D01*
X123706295Y-99970860D01*
X123799373Y-100110162D01*
X123917837Y-100228626D01*
X123962631Y-100258556D01*
X124057137Y-100321703D01*
X124057138Y-100321703D01*
X124057139Y-100321704D01*
X124089992Y-100335312D01*
X124211918Y-100385816D01*
X124376228Y-100418499D01*
X124376232Y-100418500D01*
X124376233Y-100418500D01*
X124543768Y-100418500D01*
X124543769Y-100418499D01*
X124708082Y-100385816D01*
X124862863Y-100321703D01*
X125002162Y-100228626D01*
X125120626Y-100110162D01*
X125213703Y-99970863D01*
X125277816Y-99816082D01*
X125310500Y-99651767D01*
X125310500Y-99484233D01*
X125277816Y-99319918D01*
X125228227Y-99200201D01*
X125213704Y-99165139D01*
X125212430Y-99163233D01*
X125212427Y-99163228D01*
X132335292Y-99163228D01*
X132335292Y-99330771D01*
X132367974Y-99495074D01*
X132367976Y-99495082D01*
X132432087Y-99649860D01*
X132525165Y-99789162D01*
X132643629Y-99907626D01*
X132736286Y-99969537D01*
X132782929Y-100000703D01*
X132937710Y-100064816D01*
X133064868Y-100090109D01*
X133102020Y-100097499D01*
X133102024Y-100097500D01*
X133102025Y-100097500D01*
X133269560Y-100097500D01*
X133269561Y-100097499D01*
X133433874Y-100064816D01*
X133588655Y-100000703D01*
X133727954Y-99907626D01*
X133846418Y-99789162D01*
X133939495Y-99649863D01*
X134003608Y-99495082D01*
X134036292Y-99330767D01*
X134036292Y-99163233D01*
X134003608Y-98998918D01*
X133939495Y-98844137D01*
X133904766Y-98792162D01*
X133846418Y-98704837D01*
X133727954Y-98586373D01*
X133588652Y-98493295D01*
X133433874Y-98429184D01*
X133433866Y-98429182D01*
X133269563Y-98396500D01*
X133269559Y-98396500D01*
X133102025Y-98396500D01*
X133102020Y-98396500D01*
X132937717Y-98429182D01*
X132937709Y-98429184D01*
X132782931Y-98493295D01*
X132643629Y-98586373D01*
X132525165Y-98704837D01*
X132432087Y-98844139D01*
X132367976Y-98998917D01*
X132367974Y-98998925D01*
X132335292Y-99163228D01*
X125212427Y-99163228D01*
X125148675Y-99067816D01*
X125120626Y-99025837D01*
X125002162Y-98907373D01*
X124862860Y-98814295D01*
X124708082Y-98750184D01*
X124708074Y-98750182D01*
X124543771Y-98717500D01*
X124543767Y-98717500D01*
X124376233Y-98717500D01*
X124376228Y-98717500D01*
X124211925Y-98750182D01*
X124211917Y-98750184D01*
X124057139Y-98814295D01*
X123917837Y-98907373D01*
X123799373Y-99025837D01*
X123706295Y-99165139D01*
X123642184Y-99319917D01*
X123642182Y-99319925D01*
X123609500Y-99484228D01*
X108978159Y-99484228D01*
X109013246Y-99376243D01*
X109046500Y-99166287D01*
X109046500Y-98953713D01*
X109013246Y-98743757D01*
X108947557Y-98541588D01*
X108851051Y-98352184D01*
X108851049Y-98352181D01*
X108851048Y-98352179D01*
X108726109Y-98180213D01*
X108575786Y-98029890D01*
X108403820Y-97904951D01*
X108403115Y-97904591D01*
X108395054Y-97900485D01*
X108344259Y-97852512D01*
X108327463Y-97784692D01*
X108349999Y-97718556D01*
X108395054Y-97679515D01*
X108403816Y-97675051D01*
X108479907Y-97619768D01*
X108575786Y-97550109D01*
X108575788Y-97550106D01*
X108575792Y-97550104D01*
X108673668Y-97452228D01*
X123609500Y-97452228D01*
X123609500Y-97619771D01*
X123642182Y-97784074D01*
X123642184Y-97784082D01*
X123706295Y-97938860D01*
X123799373Y-98078162D01*
X123917837Y-98196626D01*
X123959554Y-98224500D01*
X124057137Y-98289703D01*
X124211918Y-98353816D01*
X124376228Y-98386499D01*
X124376232Y-98386500D01*
X124376233Y-98386500D01*
X124543768Y-98386500D01*
X124543769Y-98386499D01*
X124708082Y-98353816D01*
X124862863Y-98289703D01*
X125002162Y-98196626D01*
X125032560Y-98166228D01*
X129649500Y-98166228D01*
X129649500Y-98333771D01*
X129682182Y-98498074D01*
X129682184Y-98498082D01*
X129746295Y-98652860D01*
X129839373Y-98792162D01*
X129957837Y-98910626D01*
X130022322Y-98953713D01*
X130097137Y-99003703D01*
X130251918Y-99067816D01*
X130416228Y-99100499D01*
X130416232Y-99100500D01*
X130416233Y-99100500D01*
X130583768Y-99100500D01*
X130583769Y-99100499D01*
X130748082Y-99067816D01*
X130902863Y-99003703D01*
X131042162Y-98910626D01*
X131160626Y-98792162D01*
X131253703Y-98652863D01*
X131317816Y-98498082D01*
X131350500Y-98333767D01*
X131350500Y-98224500D01*
X131370185Y-98157461D01*
X131422989Y-98111706D01*
X131474500Y-98100500D01*
X131583768Y-98100500D01*
X131583769Y-98100499D01*
X131748082Y-98067816D01*
X131902863Y-98003703D01*
X132033778Y-97916228D01*
X145149500Y-97916228D01*
X145149500Y-98083771D01*
X145182182Y-98248074D01*
X145182184Y-98248082D01*
X145246295Y-98402860D01*
X145339373Y-98542162D01*
X145457837Y-98660626D01*
X145542956Y-98717500D01*
X145597137Y-98753703D01*
X145751918Y-98817816D01*
X145884244Y-98844137D01*
X145916228Y-98850499D01*
X145916232Y-98850500D01*
X145916233Y-98850500D01*
X146083768Y-98850500D01*
X146083769Y-98850499D01*
X146248082Y-98817816D01*
X146402863Y-98753703D01*
X146542162Y-98660626D01*
X146660626Y-98542162D01*
X146753703Y-98402863D01*
X146817816Y-98248082D01*
X146850500Y-98083767D01*
X146850500Y-97916233D01*
X146817816Y-97751918D01*
X146753703Y-97597137D01*
X146690084Y-97501925D01*
X146660626Y-97457837D01*
X146542162Y-97339373D01*
X146402860Y-97246295D01*
X146248082Y-97182184D01*
X146248074Y-97182182D01*
X146083771Y-97149500D01*
X146083767Y-97149500D01*
X145916233Y-97149500D01*
X145916228Y-97149500D01*
X145751925Y-97182182D01*
X145751917Y-97182184D01*
X145597139Y-97246295D01*
X145457837Y-97339373D01*
X145339373Y-97457837D01*
X145246295Y-97597139D01*
X145182184Y-97751917D01*
X145182182Y-97751925D01*
X145149500Y-97916228D01*
X132033778Y-97916228D01*
X132042162Y-97910626D01*
X132082288Y-97870500D01*
X132130329Y-97822460D01*
X132160623Y-97792165D01*
X132160626Y-97792162D01*
X132174395Y-97771555D01*
X132253703Y-97652863D01*
X132317816Y-97498082D01*
X132350500Y-97333767D01*
X132350500Y-97224500D01*
X132370185Y-97157461D01*
X132422989Y-97111706D01*
X132474500Y-97100500D01*
X132583768Y-97100500D01*
X132583769Y-97100499D01*
X132748082Y-97067816D01*
X132902863Y-97003703D01*
X132971136Y-96958083D01*
X133037814Y-96937206D01*
X133105194Y-96955691D01*
X133108918Y-96958084D01*
X133201137Y-97019703D01*
X133355918Y-97083816D01*
X133496132Y-97111706D01*
X133520228Y-97116499D01*
X133520232Y-97116500D01*
X133520233Y-97116500D01*
X133687768Y-97116500D01*
X133687769Y-97116499D01*
X133852082Y-97083816D01*
X134006863Y-97019703D01*
X134146162Y-96926626D01*
X134264626Y-96808162D01*
X134357703Y-96668863D01*
X134421816Y-96514082D01*
X134431974Y-96463012D01*
X134464358Y-96401104D01*
X134525073Y-96366529D01*
X134594843Y-96370268D01*
X134651515Y-96411134D01*
X134675208Y-96463014D01*
X134682182Y-96498074D01*
X134682184Y-96498082D01*
X134746295Y-96652860D01*
X134839373Y-96792162D01*
X134957837Y-96910626D01*
X135050494Y-96972537D01*
X135097137Y-97003703D01*
X135251918Y-97067816D01*
X135416228Y-97100499D01*
X135416232Y-97100500D01*
X135416233Y-97100500D01*
X135583768Y-97100500D01*
X135583769Y-97100499D01*
X135748082Y-97067816D01*
X135902863Y-97003703D01*
X136042162Y-96910626D01*
X136160626Y-96792162D01*
X136253703Y-96652863D01*
X136317816Y-96498082D01*
X136350500Y-96333767D01*
X136350500Y-96166233D01*
X136317816Y-96001918D01*
X136282322Y-95916228D01*
X137399500Y-95916228D01*
X137399500Y-96083771D01*
X137432182Y-96248074D01*
X137432184Y-96248082D01*
X137496295Y-96402860D01*
X137589373Y-96542162D01*
X137707837Y-96660626D01*
X137720165Y-96668863D01*
X137847137Y-96753703D01*
X137847138Y-96753703D01*
X137847139Y-96753704D01*
X137863399Y-96760439D01*
X138001918Y-96817816D01*
X138094558Y-96836243D01*
X138166228Y-96850499D01*
X138166232Y-96850500D01*
X138166233Y-96850500D01*
X138333768Y-96850500D01*
X138333769Y-96850499D01*
X138498082Y-96817816D01*
X138652863Y-96753703D01*
X138792162Y-96660626D01*
X138910626Y-96542162D01*
X139003703Y-96402863D01*
X139022670Y-96357071D01*
X139066509Y-96302672D01*
X139132803Y-96280606D01*
X139184682Y-96289965D01*
X139251918Y-96317816D01*
X139412548Y-96349767D01*
X139416228Y-96350499D01*
X139416232Y-96350500D01*
X139416233Y-96350500D01*
X139583768Y-96350500D01*
X139583769Y-96350499D01*
X139748082Y-96317816D01*
X139754221Y-96315272D01*
X139823689Y-96307800D01*
X139886170Y-96339071D01*
X139889361Y-96342150D01*
X139957837Y-96410626D01*
X140036242Y-96463014D01*
X140097137Y-96503703D01*
X140251918Y-96567816D01*
X140416228Y-96600499D01*
X140416232Y-96600500D01*
X140416233Y-96600500D01*
X140583768Y-96600500D01*
X140583769Y-96600499D01*
X140748082Y-96567816D01*
X140902863Y-96503703D01*
X141042162Y-96410626D01*
X141160626Y-96292162D01*
X141253703Y-96152863D01*
X141317816Y-95998082D01*
X141334098Y-95916228D01*
X142399500Y-95916228D01*
X142399500Y-96083771D01*
X142432182Y-96248074D01*
X142432184Y-96248082D01*
X142496295Y-96402860D01*
X142589373Y-96542162D01*
X142707837Y-96660626D01*
X142720165Y-96668863D01*
X142847137Y-96753703D01*
X142847138Y-96753703D01*
X142847139Y-96753704D01*
X142863399Y-96760439D01*
X143001918Y-96817816D01*
X143094558Y-96836243D01*
X143166228Y-96850499D01*
X143166232Y-96850500D01*
X143166233Y-96850500D01*
X143333768Y-96850500D01*
X143333769Y-96850499D01*
X143498082Y-96817816D01*
X143652863Y-96753703D01*
X143792162Y-96660626D01*
X143910626Y-96542162D01*
X144003703Y-96402863D01*
X144067816Y-96248082D01*
X144100500Y-96083767D01*
X144100500Y-95916233D01*
X144067816Y-95751918D01*
X144003703Y-95597137D01*
X143991446Y-95578793D01*
X143955049Y-95524320D01*
X143934171Y-95457643D01*
X143952656Y-95390263D01*
X144004635Y-95343573D01*
X144073605Y-95332397D01*
X144082332Y-95333811D01*
X144166231Y-95350499D01*
X144166232Y-95350500D01*
X144166233Y-95350500D01*
X144333768Y-95350500D01*
X144333769Y-95350499D01*
X144498082Y-95317816D01*
X144652863Y-95253703D01*
X144792162Y-95160626D01*
X144910626Y-95042162D01*
X144994773Y-94916228D01*
X150899500Y-94916228D01*
X150899500Y-95083771D01*
X150932182Y-95248074D01*
X150932184Y-95248082D01*
X150996295Y-95402859D01*
X150996302Y-95402872D01*
X151015170Y-95431111D01*
X151036047Y-95497789D01*
X151017561Y-95565168D01*
X151015170Y-95568889D01*
X150996302Y-95597127D01*
X150996295Y-95597140D01*
X150932184Y-95751917D01*
X150932182Y-95751925D01*
X150899500Y-95916228D01*
X150899500Y-96083771D01*
X150932182Y-96248074D01*
X150932184Y-96248082D01*
X150996295Y-96402860D01*
X151089373Y-96542162D01*
X151207837Y-96660626D01*
X151220165Y-96668863D01*
X151347137Y-96753703D01*
X151347138Y-96753703D01*
X151347139Y-96753704D01*
X151363399Y-96760439D01*
X151501918Y-96817816D01*
X151594558Y-96836243D01*
X151666228Y-96850499D01*
X151666232Y-96850500D01*
X151666233Y-96850500D01*
X151833768Y-96850500D01*
X151833769Y-96850499D01*
X151998082Y-96817816D01*
X152152863Y-96753703D01*
X152292162Y-96660626D01*
X152410626Y-96542162D01*
X152503703Y-96402863D01*
X152567816Y-96248082D01*
X152600500Y-96083767D01*
X152600500Y-95953091D01*
X152611324Y-95916228D01*
X175399499Y-95916228D01*
X175399499Y-96083771D01*
X175432181Y-96248074D01*
X175432183Y-96248082D01*
X175496294Y-96402860D01*
X175589372Y-96542162D01*
X175707836Y-96660626D01*
X175847136Y-96753703D01*
X175863398Y-96760439D01*
X175917801Y-96804281D01*
X175939865Y-96870576D01*
X175922585Y-96938275D01*
X175871447Y-96985885D01*
X175863398Y-96989561D01*
X175847136Y-96996296D01*
X175707836Y-97089373D01*
X175589372Y-97207837D01*
X175496294Y-97347139D01*
X175432183Y-97501917D01*
X175432181Y-97501925D01*
X175399499Y-97666228D01*
X175399499Y-97833771D01*
X175432181Y-97998074D01*
X175432183Y-97998082D01*
X175496294Y-98152860D01*
X175589372Y-98292162D01*
X175707836Y-98410626D01*
X175800493Y-98472537D01*
X175847136Y-98503703D01*
X176001917Y-98567816D01*
X176166227Y-98600499D01*
X176166231Y-98600500D01*
X176166232Y-98600500D01*
X176333767Y-98600500D01*
X176333768Y-98600499D01*
X176498081Y-98567816D01*
X176652862Y-98503703D01*
X176792161Y-98410626D01*
X176910625Y-98292162D01*
X177003702Y-98152863D01*
X177067815Y-97998082D01*
X177100499Y-97833767D01*
X177100499Y-97666233D01*
X177067815Y-97501918D01*
X177003702Y-97347137D01*
X176964132Y-97287917D01*
X176910625Y-97207837D01*
X176792161Y-97089373D01*
X176652859Y-96996295D01*
X176652857Y-96996294D01*
X176636601Y-96989561D01*
X176582197Y-96945721D01*
X176560132Y-96879427D01*
X176577411Y-96811727D01*
X176628548Y-96764116D01*
X176636601Y-96760439D01*
X176652857Y-96753705D01*
X176652856Y-96753705D01*
X176652862Y-96753703D01*
X176792161Y-96660626D01*
X176910625Y-96542162D01*
X177003702Y-96402863D01*
X177067815Y-96248082D01*
X177100499Y-96083767D01*
X177100499Y-95916233D01*
X177100498Y-95916228D01*
X177399499Y-95916228D01*
X177399499Y-96083771D01*
X177432181Y-96248074D01*
X177432183Y-96248082D01*
X177496294Y-96402860D01*
X177589372Y-96542162D01*
X177707836Y-96660626D01*
X177720164Y-96668863D01*
X177847136Y-96753703D01*
X177847137Y-96753703D01*
X177847138Y-96753704D01*
X177863398Y-96760439D01*
X178001917Y-96817816D01*
X178094557Y-96836243D01*
X178166227Y-96850499D01*
X178166231Y-96850500D01*
X178166232Y-96850500D01*
X178333767Y-96850500D01*
X178333768Y-96850499D01*
X178498081Y-96817816D01*
X178652862Y-96753703D01*
X178792161Y-96660626D01*
X178910625Y-96542162D01*
X179003702Y-96402863D01*
X179067815Y-96248082D01*
X179100499Y-96083767D01*
X179100499Y-95916233D01*
X179100498Y-95916228D01*
X179399499Y-95916228D01*
X179399499Y-96083771D01*
X179432181Y-96248074D01*
X179432183Y-96248082D01*
X179496294Y-96402860D01*
X179589372Y-96542162D01*
X179707836Y-96660626D01*
X179720164Y-96668863D01*
X179847136Y-96753703D01*
X179847137Y-96753703D01*
X179847138Y-96753704D01*
X179863398Y-96760439D01*
X180001917Y-96817816D01*
X180094557Y-96836243D01*
X180166227Y-96850499D01*
X180166231Y-96850500D01*
X180166232Y-96850500D01*
X180333767Y-96850500D01*
X180333768Y-96850499D01*
X180498081Y-96817816D01*
X180652862Y-96753703D01*
X180792161Y-96660626D01*
X180910625Y-96542162D01*
X181003702Y-96402863D01*
X181067815Y-96248082D01*
X181100499Y-96083767D01*
X181100499Y-95916233D01*
X181067815Y-95751918D01*
X181007114Y-95605374D01*
X181003703Y-95597139D01*
X180910625Y-95457837D01*
X180792161Y-95339373D01*
X180652859Y-95246295D01*
X180498081Y-95182184D01*
X180498073Y-95182182D01*
X180333770Y-95149500D01*
X180333766Y-95149500D01*
X180166232Y-95149500D01*
X180166227Y-95149500D01*
X180001924Y-95182182D01*
X180001916Y-95182184D01*
X179847138Y-95246295D01*
X179707836Y-95339373D01*
X179589372Y-95457837D01*
X179496294Y-95597139D01*
X179432183Y-95751917D01*
X179432181Y-95751925D01*
X179399499Y-95916228D01*
X179100498Y-95916228D01*
X179067815Y-95751918D01*
X179007114Y-95605374D01*
X179003703Y-95597139D01*
X178910625Y-95457837D01*
X178792161Y-95339373D01*
X178652859Y-95246295D01*
X178498081Y-95182184D01*
X178498073Y-95182182D01*
X178333770Y-95149500D01*
X178333766Y-95149500D01*
X178166232Y-95149500D01*
X178166227Y-95149500D01*
X178001924Y-95182182D01*
X178001916Y-95182184D01*
X177847138Y-95246295D01*
X177707836Y-95339373D01*
X177589372Y-95457837D01*
X177496294Y-95597139D01*
X177432183Y-95751917D01*
X177432181Y-95751925D01*
X177399499Y-95916228D01*
X177100498Y-95916228D01*
X177067815Y-95751918D01*
X177007114Y-95605374D01*
X177003703Y-95597139D01*
X176910625Y-95457837D01*
X176792161Y-95339373D01*
X176652859Y-95246295D01*
X176498081Y-95182184D01*
X176498073Y-95182182D01*
X176333770Y-95149500D01*
X176333766Y-95149500D01*
X176166232Y-95149500D01*
X176166227Y-95149500D01*
X176001924Y-95182182D01*
X176001916Y-95182184D01*
X175847138Y-95246295D01*
X175707836Y-95339373D01*
X175589372Y-95457837D01*
X175496294Y-95597139D01*
X175432183Y-95751917D01*
X175432181Y-95751925D01*
X175399499Y-95916228D01*
X152611324Y-95916228D01*
X152620185Y-95886052D01*
X152672989Y-95840297D01*
X152742147Y-95830353D01*
X152748688Y-95831473D01*
X152824231Y-95846499D01*
X152824232Y-95846500D01*
X152824233Y-95846500D01*
X152991768Y-95846500D01*
X152991769Y-95846499D01*
X153156082Y-95813816D01*
X153310863Y-95749703D01*
X153450162Y-95656626D01*
X153568626Y-95538162D01*
X153661703Y-95398863D01*
X153725816Y-95244082D01*
X153758500Y-95079767D01*
X153758500Y-94912233D01*
X153725816Y-94747918D01*
X153661703Y-94593137D01*
X153598412Y-94498415D01*
X153568626Y-94453837D01*
X153450162Y-94335373D01*
X153310860Y-94242295D01*
X153156082Y-94178184D01*
X153156074Y-94178182D01*
X152991771Y-94145500D01*
X152991767Y-94145500D01*
X152824233Y-94145500D01*
X152824228Y-94145500D01*
X152659925Y-94178182D01*
X152659917Y-94178184D01*
X152505140Y-94242295D01*
X152394896Y-94315957D01*
X152328218Y-94336834D01*
X152260838Y-94318349D01*
X152257115Y-94315956D01*
X152152860Y-94246295D01*
X151998082Y-94182184D01*
X151998074Y-94182182D01*
X151833771Y-94149500D01*
X151833767Y-94149500D01*
X151666233Y-94149500D01*
X151666228Y-94149500D01*
X151501925Y-94182182D01*
X151501917Y-94182184D01*
X151347139Y-94246295D01*
X151207837Y-94339373D01*
X151089373Y-94457837D01*
X150996295Y-94597139D01*
X150932184Y-94751917D01*
X150932182Y-94751925D01*
X150899500Y-94916228D01*
X144994773Y-94916228D01*
X145003703Y-94902863D01*
X145003705Y-94902857D01*
X145006578Y-94897485D01*
X145008744Y-94898643D01*
X145045804Y-94852649D01*
X145091850Y-94832981D01*
X145104065Y-94830500D01*
X145117767Y-94830500D01*
X145282082Y-94797816D01*
X145436863Y-94733703D01*
X145576162Y-94640626D01*
X145694626Y-94522162D01*
X145787703Y-94382863D01*
X145851816Y-94228082D01*
X145884500Y-94063767D01*
X145884500Y-93896233D01*
X145851816Y-93731918D01*
X145787703Y-93577137D01*
X145695026Y-93438436D01*
X145694626Y-93437837D01*
X145576162Y-93319373D01*
X145436860Y-93226295D01*
X145282082Y-93162184D01*
X145282074Y-93162182D01*
X145117771Y-93129500D01*
X145117767Y-93129500D01*
X144950233Y-93129500D01*
X144950228Y-93129500D01*
X144785925Y-93162182D01*
X144785917Y-93162184D01*
X144631139Y-93226295D01*
X144491837Y-93319373D01*
X144373373Y-93437837D01*
X144280295Y-93577139D01*
X144277422Y-93582515D01*
X144275255Y-93581356D01*
X144238196Y-93627351D01*
X144171904Y-93649421D01*
X144167469Y-93649500D01*
X144166228Y-93649500D01*
X144001925Y-93682182D01*
X144001917Y-93682184D01*
X143847139Y-93746295D01*
X143707837Y-93839373D01*
X143589373Y-93957837D01*
X143496295Y-94097139D01*
X143432184Y-94251917D01*
X143432182Y-94251925D01*
X143399500Y-94416228D01*
X143399500Y-94583771D01*
X143432182Y-94748074D01*
X143432184Y-94748082D01*
X143478456Y-94859793D01*
X143496297Y-94902863D01*
X143515889Y-94932184D01*
X143544951Y-94975679D01*
X143565828Y-95042357D01*
X143547343Y-95109737D01*
X143495364Y-95156426D01*
X143426394Y-95167602D01*
X143417657Y-95166186D01*
X143333771Y-95149500D01*
X143333767Y-95149500D01*
X143166233Y-95149500D01*
X143166228Y-95149500D01*
X143001925Y-95182182D01*
X143001917Y-95182184D01*
X142847139Y-95246295D01*
X142707837Y-95339373D01*
X142589373Y-95457837D01*
X142496295Y-95597139D01*
X142432184Y-95751917D01*
X142432182Y-95751925D01*
X142399500Y-95916228D01*
X141334098Y-95916228D01*
X141350500Y-95833767D01*
X141350500Y-95666233D01*
X141317816Y-95501918D01*
X141253703Y-95347137D01*
X141191272Y-95253703D01*
X141160626Y-95207837D01*
X141042162Y-95089373D01*
X140902860Y-94996295D01*
X140748082Y-94932184D01*
X140748074Y-94932182D01*
X140583771Y-94899500D01*
X140583767Y-94899500D01*
X140416233Y-94899500D01*
X140416228Y-94899500D01*
X140251925Y-94932181D01*
X140251916Y-94932184D01*
X140245769Y-94934731D01*
X140176299Y-94942198D01*
X140113821Y-94910922D01*
X140110665Y-94907877D01*
X140042162Y-94839374D01*
X140042161Y-94839373D01*
X140042160Y-94839372D01*
X139902860Y-94746295D01*
X139748082Y-94682184D01*
X139748074Y-94682182D01*
X139583771Y-94649500D01*
X139583767Y-94649500D01*
X139416233Y-94649500D01*
X139416228Y-94649500D01*
X139251925Y-94682182D01*
X139251917Y-94682184D01*
X139097139Y-94746295D01*
X138957837Y-94839373D01*
X138839373Y-94957837D01*
X138746295Y-95097139D01*
X138746293Y-95097143D01*
X138727329Y-95142926D01*
X138683488Y-95197329D01*
X138617193Y-95219393D01*
X138565317Y-95210033D01*
X138498086Y-95182185D01*
X138498074Y-95182182D01*
X138333771Y-95149500D01*
X138333767Y-95149500D01*
X138166233Y-95149500D01*
X138166228Y-95149500D01*
X138001925Y-95182182D01*
X138001917Y-95182184D01*
X137847139Y-95246295D01*
X137707837Y-95339373D01*
X137589373Y-95457837D01*
X137496295Y-95597139D01*
X137432184Y-95751917D01*
X137432182Y-95751925D01*
X137399500Y-95916228D01*
X136282322Y-95916228D01*
X136260331Y-95863139D01*
X136253704Y-95847139D01*
X136253276Y-95846499D01*
X136190084Y-95751925D01*
X136160626Y-95707837D01*
X136042162Y-95589373D01*
X135902860Y-95496295D01*
X135748082Y-95432184D01*
X135748074Y-95432182D01*
X135583771Y-95399500D01*
X135583767Y-95399500D01*
X135416233Y-95399500D01*
X135416228Y-95399500D01*
X135251925Y-95432182D01*
X135251917Y-95432184D01*
X135097139Y-95496295D01*
X134957837Y-95589373D01*
X134839373Y-95707837D01*
X134746295Y-95847139D01*
X134682184Y-96001917D01*
X134682183Y-96001922D01*
X134672025Y-96052987D01*
X134639639Y-96114897D01*
X134578923Y-96149471D01*
X134509154Y-96145730D01*
X134452482Y-96104863D01*
X134428791Y-96052986D01*
X134421816Y-96017918D01*
X134367195Y-95886052D01*
X134357704Y-95863139D01*
X134338078Y-95833767D01*
X134300681Y-95777798D01*
X134264626Y-95723837D01*
X134146162Y-95605373D01*
X134006860Y-95512295D01*
X133852082Y-95448184D01*
X133852074Y-95448182D01*
X133687771Y-95415500D01*
X133687767Y-95415500D01*
X133520233Y-95415500D01*
X133520228Y-95415500D01*
X133355925Y-95448182D01*
X133355917Y-95448184D01*
X133201138Y-95512296D01*
X133201136Y-95512297D01*
X133132861Y-95557916D01*
X133066183Y-95578793D01*
X132998804Y-95560307D01*
X132995082Y-95557915D01*
X132902865Y-95496298D01*
X132902861Y-95496296D01*
X132748082Y-95432184D01*
X132748074Y-95432182D01*
X132583771Y-95399500D01*
X132583767Y-95399500D01*
X132416233Y-95399500D01*
X132416228Y-95399500D01*
X132251925Y-95432182D01*
X132251917Y-95432184D01*
X132097139Y-95496295D01*
X131957837Y-95589373D01*
X131839373Y-95707837D01*
X131746295Y-95847139D01*
X131682184Y-96001917D01*
X131682182Y-96001925D01*
X131649500Y-96166228D01*
X131649500Y-96275500D01*
X131629815Y-96342539D01*
X131577011Y-96388294D01*
X131525500Y-96399500D01*
X131416228Y-96399500D01*
X131251925Y-96432182D01*
X131251917Y-96432184D01*
X131097139Y-96496295D01*
X130957837Y-96589373D01*
X130839373Y-96707837D01*
X130746295Y-96847139D01*
X130682184Y-97001917D01*
X130682182Y-97001925D01*
X130649500Y-97166228D01*
X130649500Y-97275500D01*
X130629815Y-97342539D01*
X130577011Y-97388294D01*
X130525500Y-97399500D01*
X130416228Y-97399500D01*
X130251925Y-97432182D01*
X130251917Y-97432184D01*
X130097139Y-97496295D01*
X129957837Y-97589373D01*
X129839373Y-97707837D01*
X129746295Y-97847139D01*
X129682184Y-98001917D01*
X129682182Y-98001925D01*
X129649500Y-98166228D01*
X125032560Y-98166228D01*
X125120626Y-98078162D01*
X125213703Y-97938863D01*
X125277816Y-97784082D01*
X125310500Y-97619767D01*
X125310500Y-97452233D01*
X125277816Y-97287918D01*
X125213703Y-97133137D01*
X125180747Y-97083815D01*
X125120626Y-96993837D01*
X125002162Y-96875373D01*
X124862860Y-96782295D01*
X124708082Y-96718184D01*
X124708074Y-96718182D01*
X124543771Y-96685500D01*
X124543767Y-96685500D01*
X124376233Y-96685500D01*
X124376228Y-96685500D01*
X124211925Y-96718182D01*
X124211917Y-96718184D01*
X124057139Y-96782295D01*
X123917837Y-96875373D01*
X123799373Y-96993837D01*
X123706295Y-97133139D01*
X123642184Y-97287917D01*
X123642182Y-97287925D01*
X123609500Y-97452228D01*
X108673668Y-97452228D01*
X108726104Y-97399792D01*
X108851051Y-97227816D01*
X108947557Y-97038412D01*
X109013246Y-96836243D01*
X109046500Y-96626287D01*
X109046500Y-96413713D01*
X109013246Y-96203757D01*
X108947557Y-96001588D01*
X108851051Y-95812184D01*
X108851049Y-95812181D01*
X108851048Y-95812179D01*
X108726109Y-95640213D01*
X108575786Y-95489890D01*
X108403817Y-95364949D01*
X108395054Y-95360484D01*
X108344258Y-95312509D01*
X108327464Y-95244688D01*
X108350002Y-95178553D01*
X108395058Y-95139514D01*
X108403816Y-95135052D01*
X108474399Y-95083771D01*
X108575786Y-95010110D01*
X108575788Y-95010107D01*
X108575792Y-95010105D01*
X108726104Y-94859793D01*
X108726106Y-94859789D01*
X108726109Y-94859787D01*
X108851048Y-94687821D01*
X108851047Y-94687821D01*
X108851051Y-94687817D01*
X108947557Y-94498413D01*
X109013246Y-94296244D01*
X109046500Y-94086288D01*
X109046500Y-93873714D01*
X109013246Y-93663758D01*
X108947557Y-93461589D01*
X108910178Y-93388228D01*
X123355500Y-93388228D01*
X123355500Y-93555771D01*
X123388182Y-93720074D01*
X123388184Y-93720082D01*
X123452295Y-93874860D01*
X123545373Y-94014162D01*
X123663837Y-94132626D01*
X123732017Y-94178182D01*
X123803137Y-94225703D01*
X123957918Y-94289816D01*
X124122228Y-94322499D01*
X124122232Y-94322500D01*
X124122233Y-94322500D01*
X124289768Y-94322500D01*
X124289769Y-94322499D01*
X124454082Y-94289816D01*
X124608863Y-94225703D01*
X124748162Y-94132626D01*
X124866626Y-94014162D01*
X124959703Y-93874863D01*
X125023816Y-93720082D01*
X125056500Y-93555767D01*
X125056500Y-93388233D01*
X125023816Y-93223918D01*
X124959703Y-93069137D01*
X124928537Y-93022494D01*
X124866626Y-92929837D01*
X124748162Y-92811373D01*
X124608860Y-92718295D01*
X124454082Y-92654184D01*
X124454074Y-92654182D01*
X124289771Y-92621500D01*
X124289767Y-92621500D01*
X124122233Y-92621500D01*
X124122228Y-92621500D01*
X123957925Y-92654182D01*
X123957917Y-92654184D01*
X123803139Y-92718295D01*
X123663837Y-92811373D01*
X123545373Y-92929837D01*
X123452295Y-93069139D01*
X123388184Y-93223917D01*
X123388182Y-93223925D01*
X123355500Y-93388228D01*
X108910178Y-93388228D01*
X108851051Y-93272185D01*
X108851049Y-93272182D01*
X108851048Y-93272180D01*
X108726109Y-93100214D01*
X108575786Y-92949891D01*
X108403817Y-92824950D01*
X108395052Y-92820484D01*
X108344257Y-92772509D01*
X108327462Y-92704688D01*
X108350000Y-92638553D01*
X108395056Y-92599514D01*
X108403816Y-92595051D01*
X108403818Y-92595049D01*
X108403821Y-92595048D01*
X108575786Y-92470109D01*
X108575788Y-92470106D01*
X108575792Y-92470104D01*
X108726104Y-92319792D01*
X108726106Y-92319788D01*
X108726109Y-92319786D01*
X108851048Y-92147820D01*
X108851047Y-92147820D01*
X108851051Y-92147816D01*
X108947557Y-91958412D01*
X109013246Y-91756243D01*
X109046500Y-91546287D01*
X109046500Y-91356228D01*
X125641500Y-91356228D01*
X125641500Y-91523771D01*
X125674182Y-91688074D01*
X125674184Y-91688082D01*
X125738295Y-91842860D01*
X125831373Y-91982162D01*
X125949837Y-92100626D01*
X126042494Y-92162537D01*
X126089137Y-92193703D01*
X126243918Y-92257816D01*
X126408228Y-92290499D01*
X126408232Y-92290500D01*
X126408233Y-92290500D01*
X126575768Y-92290500D01*
X126575769Y-92290499D01*
X126740082Y-92257816D01*
X126894863Y-92193703D01*
X127034162Y-92100626D01*
X127152626Y-91982162D01*
X127245703Y-91842863D01*
X127309816Y-91688082D01*
X127342500Y-91523767D01*
X127342500Y-91356233D01*
X127309816Y-91191918D01*
X127245703Y-91037137D01*
X127198279Y-90966162D01*
X127152626Y-90897837D01*
X127034162Y-90779373D01*
X126894860Y-90686295D01*
X126740082Y-90622184D01*
X126740074Y-90622182D01*
X126575771Y-90589500D01*
X126575767Y-90589500D01*
X126408233Y-90589500D01*
X126408228Y-90589500D01*
X126243925Y-90622182D01*
X126243917Y-90622184D01*
X126089139Y-90686295D01*
X125949837Y-90779373D01*
X125831373Y-90897837D01*
X125738295Y-91037139D01*
X125674184Y-91191917D01*
X125674182Y-91191925D01*
X125641500Y-91356228D01*
X109046500Y-91356228D01*
X109046500Y-91333713D01*
X109013246Y-91123757D01*
X108947557Y-90921588D01*
X108851051Y-90732184D01*
X108851049Y-90732181D01*
X108851048Y-90732179D01*
X108726109Y-90560213D01*
X108575786Y-90409890D01*
X108479903Y-90340228D01*
X127673500Y-90340228D01*
X127673500Y-90507771D01*
X127706182Y-90672074D01*
X127706184Y-90672082D01*
X127770295Y-90826860D01*
X127863373Y-90966162D01*
X127981837Y-91084626D01*
X128031477Y-91117794D01*
X128121137Y-91177703D01*
X128275918Y-91241816D01*
X128440228Y-91274499D01*
X128440232Y-91274500D01*
X128565500Y-91274500D01*
X128632539Y-91294185D01*
X128678294Y-91346989D01*
X128689500Y-91398500D01*
X128689500Y-91523771D01*
X128722182Y-91688074D01*
X128722184Y-91688082D01*
X128786295Y-91842860D01*
X128879373Y-91982162D01*
X128997837Y-92100626D01*
X129090494Y-92162537D01*
X129137137Y-92193703D01*
X129291918Y-92257816D01*
X129456228Y-92290499D01*
X129456232Y-92290500D01*
X129456233Y-92290500D01*
X129623768Y-92290500D01*
X129623769Y-92290499D01*
X129788082Y-92257816D01*
X129942863Y-92193703D01*
X130082162Y-92100626D01*
X130200626Y-91982162D01*
X130293703Y-91842863D01*
X130357816Y-91688082D01*
X130390500Y-91523767D01*
X130390500Y-91356233D01*
X130357816Y-91191918D01*
X130293703Y-91037137D01*
X130200626Y-90897838D01*
X130200625Y-90897837D01*
X130200624Y-90897835D01*
X130151017Y-90848228D01*
X131991500Y-90848228D01*
X131991500Y-91015771D01*
X132024182Y-91180074D01*
X132024184Y-91180082D01*
X132088295Y-91334859D01*
X132088303Y-91334874D01*
X132112515Y-91371110D01*
X132133393Y-91437787D01*
X132114908Y-91505167D01*
X132112515Y-91508890D01*
X132088303Y-91545125D01*
X132088295Y-91545140D01*
X132024184Y-91699917D01*
X132024182Y-91699925D01*
X131991500Y-91864228D01*
X131991500Y-92031771D01*
X132024182Y-92196074D01*
X132024184Y-92196082D01*
X132088295Y-92350860D01*
X132181373Y-92490162D01*
X132299837Y-92608626D01*
X132368017Y-92654182D01*
X132439137Y-92701703D01*
X132439138Y-92701703D01*
X132439139Y-92701704D01*
X132471980Y-92715307D01*
X132593918Y-92765816D01*
X132593924Y-92765817D01*
X132599750Y-92767585D01*
X132599327Y-92768976D01*
X132654811Y-92797999D01*
X132689385Y-92858714D01*
X132685646Y-92928484D01*
X132671811Y-92956121D01*
X132596298Y-93069134D01*
X132596296Y-93069138D01*
X132532184Y-93223917D01*
X132532182Y-93223925D01*
X132499500Y-93388228D01*
X132499500Y-93555771D01*
X132532182Y-93720074D01*
X132532184Y-93720082D01*
X132596295Y-93874860D01*
X132689373Y-94014162D01*
X132807837Y-94132626D01*
X132876017Y-94178182D01*
X132947137Y-94225703D01*
X133101918Y-94289816D01*
X133266228Y-94322499D01*
X133266232Y-94322500D01*
X133266233Y-94322500D01*
X133433768Y-94322500D01*
X133433769Y-94322499D01*
X133598082Y-94289816D01*
X133752863Y-94225703D01*
X133892162Y-94132626D01*
X134010626Y-94014162D01*
X134103703Y-93874863D01*
X134167816Y-93720082D01*
X134200500Y-93555767D01*
X134200500Y-93388233D01*
X134167816Y-93223918D01*
X134103703Y-93069137D01*
X134028187Y-92956120D01*
X134007310Y-92889445D01*
X134025794Y-92822064D01*
X134077773Y-92775374D01*
X134100335Y-92767865D01*
X134100250Y-92767585D01*
X134106072Y-92765817D01*
X134106082Y-92765816D01*
X134260863Y-92701703D01*
X134400162Y-92608626D01*
X134518626Y-92490162D01*
X134611703Y-92350863D01*
X134675816Y-92196082D01*
X134708500Y-92031767D01*
X134708500Y-91864233D01*
X134675816Y-91699918D01*
X134626227Y-91580201D01*
X134611704Y-91545139D01*
X134597426Y-91523771D01*
X134580537Y-91498494D01*
X134518626Y-91405837D01*
X134400162Y-91287373D01*
X134260860Y-91194295D01*
X134106082Y-91130184D01*
X134106074Y-91130182D01*
X133941771Y-91097500D01*
X133941767Y-91097500D01*
X133816500Y-91097500D01*
X133749461Y-91077815D01*
X133703706Y-91025011D01*
X133692500Y-90973500D01*
X133692500Y-90848232D01*
X133692499Y-90848228D01*
X133678803Y-90779373D01*
X133659816Y-90683918D01*
X133595703Y-90529137D01*
X133521723Y-90418418D01*
X133502626Y-90389837D01*
X133384162Y-90271373D01*
X133244860Y-90178295D01*
X133090082Y-90114184D01*
X133090074Y-90114182D01*
X132925771Y-90081500D01*
X132925767Y-90081500D01*
X132758233Y-90081500D01*
X132758228Y-90081500D01*
X132593925Y-90114182D01*
X132593917Y-90114184D01*
X132439139Y-90178295D01*
X132299837Y-90271373D01*
X132181373Y-90389837D01*
X132088295Y-90529139D01*
X132024184Y-90683917D01*
X132024182Y-90683925D01*
X131991500Y-90848228D01*
X130151017Y-90848228D01*
X130082162Y-90779373D01*
X129942860Y-90686295D01*
X129788082Y-90622184D01*
X129788074Y-90622182D01*
X129623771Y-90589500D01*
X129623767Y-90589500D01*
X129498500Y-90589500D01*
X129489814Y-90586949D01*
X129480853Y-90588238D01*
X129456812Y-90577259D01*
X129431461Y-90569815D01*
X129425533Y-90562974D01*
X129417297Y-90559213D01*
X129403007Y-90536978D01*
X129385706Y-90517011D01*
X129383418Y-90506496D01*
X129379523Y-90500435D01*
X129374500Y-90465500D01*
X129374500Y-90382500D01*
X129394185Y-90315461D01*
X129446989Y-90269706D01*
X129498500Y-90258500D01*
X129623768Y-90258500D01*
X129623769Y-90258499D01*
X129788082Y-90225816D01*
X129942863Y-90161703D01*
X130082162Y-90068626D01*
X130200626Y-89950162D01*
X130293703Y-89810863D01*
X130357816Y-89656082D01*
X130390500Y-89491767D01*
X130390500Y-89324233D01*
X130357816Y-89159918D01*
X130308227Y-89040201D01*
X130293704Y-89005139D01*
X130200626Y-88865837D01*
X130082165Y-88747376D01*
X130082159Y-88747371D01*
X130076985Y-88743914D01*
X130032181Y-88690302D01*
X130023474Y-88620977D01*
X130053629Y-88557949D01*
X130098425Y-88526252D01*
X130152858Y-88503705D01*
X130152857Y-88503705D01*
X130152863Y-88503703D01*
X130292162Y-88410626D01*
X130410626Y-88292162D01*
X130503703Y-88152863D01*
X130566137Y-88002135D01*
X187117500Y-88002135D01*
X187117500Y-89797870D01*
X187117501Y-89797876D01*
X187123908Y-89857483D01*
X187174202Y-89992328D01*
X187174206Y-89992335D01*
X187260452Y-90107544D01*
X187260455Y-90107547D01*
X187375664Y-90193793D01*
X187375671Y-90193797D01*
X187507082Y-90242810D01*
X187563016Y-90284681D01*
X187587433Y-90350145D01*
X187572582Y-90418418D01*
X187551431Y-90446673D01*
X187437889Y-90560215D01*
X187312951Y-90732179D01*
X187216444Y-90921585D01*
X187150753Y-91123760D01*
X187124839Y-91287374D01*
X187117500Y-91333713D01*
X187117500Y-91546287D01*
X187150754Y-91756243D01*
X187185842Y-91864233D01*
X187216444Y-91958414D01*
X187312951Y-92147820D01*
X187437890Y-92319786D01*
X187588213Y-92470109D01*
X187760179Y-92595048D01*
X187760181Y-92595049D01*
X187760184Y-92595051D01*
X187768942Y-92599513D01*
X187819739Y-92647487D01*
X187836535Y-92715307D01*
X187813999Y-92781443D01*
X187768949Y-92820481D01*
X187760183Y-92824947D01*
X187588213Y-92949889D01*
X187437890Y-93100212D01*
X187312951Y-93272178D01*
X187216444Y-93461584D01*
X187150753Y-93663759D01*
X187117500Y-93873712D01*
X187117500Y-94086285D01*
X187143733Y-94251918D01*
X187150754Y-94296242D01*
X187201960Y-94453838D01*
X187216444Y-94498413D01*
X187312951Y-94687819D01*
X187437890Y-94859785D01*
X187588213Y-95010108D01*
X187760179Y-95135047D01*
X187760181Y-95135048D01*
X187760184Y-95135050D01*
X187768945Y-95139513D01*
X187819741Y-95187487D01*
X187836537Y-95255307D01*
X187814001Y-95321443D01*
X187768950Y-95360481D01*
X187760187Y-95364946D01*
X187760184Y-95364948D01*
X187588213Y-95489890D01*
X187437890Y-95640213D01*
X187312951Y-95812179D01*
X187216444Y-96001585D01*
X187216443Y-96001587D01*
X187216443Y-96001588D01*
X187216334Y-96001925D01*
X187150753Y-96203760D01*
X187117500Y-96413713D01*
X187117500Y-96626286D01*
X187147835Y-96817817D01*
X187150754Y-96836243D01*
X187210364Y-97019704D01*
X187216444Y-97038414D01*
X187312951Y-97227820D01*
X187437890Y-97399786D01*
X187588213Y-97550109D01*
X187760179Y-97675048D01*
X187760181Y-97675049D01*
X187760184Y-97675051D01*
X187949588Y-97771557D01*
X188151757Y-97837246D01*
X188361713Y-97870500D01*
X188361714Y-97870500D01*
X188574286Y-97870500D01*
X188574287Y-97870500D01*
X188784243Y-97837246D01*
X188986412Y-97771557D01*
X189175816Y-97675051D01*
X189251907Y-97619768D01*
X189347786Y-97550109D01*
X189347788Y-97550106D01*
X189347792Y-97550104D01*
X189498104Y-97399792D01*
X189498106Y-97399788D01*
X189498109Y-97399786D01*
X189623048Y-97227820D01*
X189623049Y-97227819D01*
X189623051Y-97227816D01*
X189719557Y-97038412D01*
X189785246Y-96836243D01*
X189818500Y-96626287D01*
X189818500Y-96413713D01*
X189785246Y-96203757D01*
X189719557Y-96001588D01*
X189623051Y-95812184D01*
X189623049Y-95812181D01*
X189623048Y-95812179D01*
X189498109Y-95640213D01*
X189347786Y-95489890D01*
X189175817Y-95364949D01*
X189167052Y-95360483D01*
X189116257Y-95312508D01*
X189099462Y-95244687D01*
X189122000Y-95178552D01*
X189167056Y-95139513D01*
X189175816Y-95135050D01*
X189175818Y-95135048D01*
X189175821Y-95135047D01*
X189347786Y-95010108D01*
X189347788Y-95010105D01*
X189347792Y-95010103D01*
X189498104Y-94859791D01*
X189498106Y-94859787D01*
X189498109Y-94859785D01*
X189623048Y-94687819D01*
X189623047Y-94687819D01*
X189623051Y-94687815D01*
X189719557Y-94498411D01*
X189785246Y-94296242D01*
X189818500Y-94086286D01*
X189818500Y-93873712D01*
X189785246Y-93663756D01*
X189719557Y-93461587D01*
X189623051Y-93272183D01*
X189623049Y-93272180D01*
X189623048Y-93272178D01*
X189498109Y-93100212D01*
X189347786Y-92949889D01*
X189175817Y-92824948D01*
X189167054Y-92820483D01*
X189116258Y-92772508D01*
X189099464Y-92704687D01*
X189122002Y-92638552D01*
X189167058Y-92599513D01*
X189175816Y-92595051D01*
X189197789Y-92579086D01*
X189347786Y-92470109D01*
X189347788Y-92470106D01*
X189347792Y-92470104D01*
X189498104Y-92319792D01*
X189498106Y-92319788D01*
X189498109Y-92319786D01*
X189623048Y-92147820D01*
X189623047Y-92147820D01*
X189623051Y-92147816D01*
X189719557Y-91958412D01*
X189785246Y-91756243D01*
X189818500Y-91546287D01*
X189818500Y-91333713D01*
X189785246Y-91123757D01*
X189719557Y-90921588D01*
X189623051Y-90732184D01*
X189623049Y-90732181D01*
X189623048Y-90732179D01*
X189498109Y-90560213D01*
X189384569Y-90446673D01*
X189351084Y-90385350D01*
X189356068Y-90315658D01*
X189397940Y-90259725D01*
X189428915Y-90242810D01*
X189560331Y-90193796D01*
X189675546Y-90107546D01*
X189761796Y-89992331D01*
X189812091Y-89857483D01*
X189818500Y-89797873D01*
X189818499Y-88002128D01*
X189812091Y-87942517D01*
X189771531Y-87833771D01*
X189761797Y-87807671D01*
X189761793Y-87807664D01*
X189675547Y-87692455D01*
X189675544Y-87692452D01*
X189560335Y-87606206D01*
X189560328Y-87606202D01*
X189425482Y-87555908D01*
X189425483Y-87555908D01*
X189365883Y-87549501D01*
X189365881Y-87549500D01*
X189365873Y-87549500D01*
X189365864Y-87549500D01*
X187570129Y-87549500D01*
X187570123Y-87549501D01*
X187510516Y-87555908D01*
X187375671Y-87606202D01*
X187375664Y-87606206D01*
X187260455Y-87692452D01*
X187260452Y-87692455D01*
X187174206Y-87807664D01*
X187174202Y-87807671D01*
X187123908Y-87942517D01*
X187118896Y-87989139D01*
X187117501Y-88002123D01*
X187117500Y-88002135D01*
X130566137Y-88002135D01*
X130567816Y-87998082D01*
X130600500Y-87833767D01*
X130600500Y-87666233D01*
X130567816Y-87501918D01*
X130503703Y-87347137D01*
X130472537Y-87300494D01*
X130410626Y-87207837D01*
X130292162Y-87089373D01*
X130152860Y-86996295D01*
X129998082Y-86932184D01*
X129998074Y-86932182D01*
X129833771Y-86899500D01*
X129833767Y-86899500D01*
X129666233Y-86899500D01*
X129666228Y-86899500D01*
X129501925Y-86932182D01*
X129501917Y-86932184D01*
X129347139Y-86996295D01*
X129207837Y-87089373D01*
X129089373Y-87207837D01*
X128996295Y-87347139D01*
X128932184Y-87501917D01*
X128932182Y-87501925D01*
X128899500Y-87666228D01*
X128899500Y-87833771D01*
X128932182Y-87998074D01*
X128932184Y-87998082D01*
X128996295Y-88152860D01*
X129089373Y-88292162D01*
X129207835Y-88410624D01*
X129213012Y-88414083D01*
X129257817Y-88467695D01*
X129266526Y-88537020D01*
X129236371Y-88600048D01*
X129191576Y-88631746D01*
X129137143Y-88654293D01*
X129137139Y-88654295D01*
X128997837Y-88747373D01*
X128879373Y-88865837D01*
X128786295Y-89005139D01*
X128722184Y-89159917D01*
X128722182Y-89159925D01*
X128689500Y-89324228D01*
X128689500Y-89449500D01*
X128669815Y-89516539D01*
X128617011Y-89562294D01*
X128565500Y-89573500D01*
X128440228Y-89573500D01*
X128275925Y-89606182D01*
X128275917Y-89606184D01*
X128121139Y-89670295D01*
X127981837Y-89763373D01*
X127863373Y-89881837D01*
X127770295Y-90021139D01*
X127706184Y-90175917D01*
X127706182Y-90175925D01*
X127673500Y-90340228D01*
X108479903Y-90340228D01*
X108403820Y-90284951D01*
X108403115Y-90284591D01*
X108395054Y-90280485D01*
X108344259Y-90232512D01*
X108327463Y-90164692D01*
X108349999Y-90098556D01*
X108395054Y-90059515D01*
X108403816Y-90055051D01*
X108490138Y-89992335D01*
X108575786Y-89930109D01*
X108575788Y-89930106D01*
X108575792Y-89930104D01*
X108726104Y-89779792D01*
X108726106Y-89779788D01*
X108726109Y-89779786D01*
X108851048Y-89607820D01*
X108851047Y-89607820D01*
X108851051Y-89607816D01*
X108947557Y-89418412D01*
X109013246Y-89216243D01*
X109046500Y-89006287D01*
X109046500Y-88793713D01*
X109013246Y-88583757D01*
X108947557Y-88381588D01*
X108947554Y-88381582D01*
X108935762Y-88358437D01*
X108935761Y-88358436D01*
X108910178Y-88308228D01*
X124117500Y-88308228D01*
X124117500Y-88475771D01*
X124150182Y-88640074D01*
X124150184Y-88640082D01*
X124214295Y-88794860D01*
X124307373Y-88934162D01*
X124425837Y-89052626D01*
X124518494Y-89114537D01*
X124565137Y-89145703D01*
X124719918Y-89209816D01*
X124884228Y-89242499D01*
X124884232Y-89242500D01*
X124884233Y-89242500D01*
X125051768Y-89242500D01*
X125051769Y-89242499D01*
X125216082Y-89209816D01*
X125370863Y-89145703D01*
X125510162Y-89052626D01*
X125628626Y-88934162D01*
X125721703Y-88794863D01*
X125785816Y-88640082D01*
X125818500Y-88475767D01*
X125818500Y-88308233D01*
X125785816Y-88143918D01*
X125721703Y-87989137D01*
X125690537Y-87942494D01*
X125628626Y-87849837D01*
X125510162Y-87731373D01*
X125370860Y-87638295D01*
X125216082Y-87574184D01*
X125216074Y-87574182D01*
X125051771Y-87541500D01*
X125051767Y-87541500D01*
X124884233Y-87541500D01*
X124884228Y-87541500D01*
X124719925Y-87574182D01*
X124719917Y-87574184D01*
X124565139Y-87638295D01*
X124425837Y-87731373D01*
X124307373Y-87849837D01*
X124214295Y-87989139D01*
X124150184Y-88143917D01*
X124150182Y-88143925D01*
X124117500Y-88308228D01*
X108910178Y-88308228D01*
X108901992Y-88292162D01*
X108851051Y-88192184D01*
X108815984Y-88143918D01*
X108726109Y-88020213D01*
X108575786Y-87869890D01*
X108403820Y-87744951D01*
X108403115Y-87744591D01*
X108395054Y-87740485D01*
X108344259Y-87692512D01*
X108327463Y-87624692D01*
X108349999Y-87558556D01*
X108395054Y-87519515D01*
X108403816Y-87515051D01*
X108425789Y-87499086D01*
X108575786Y-87390109D01*
X108575788Y-87390106D01*
X108575792Y-87390104D01*
X108726104Y-87239792D01*
X108726106Y-87239788D01*
X108726109Y-87239786D01*
X108851048Y-87067820D01*
X108851047Y-87067820D01*
X108851051Y-87067816D01*
X108947557Y-86878412D01*
X109013246Y-86676243D01*
X109046500Y-86466287D01*
X109046500Y-86253713D01*
X109013246Y-86043757D01*
X108947557Y-85841588D01*
X108851051Y-85652184D01*
X108851049Y-85652181D01*
X108851048Y-85652179D01*
X108726109Y-85480213D01*
X108575790Y-85329894D01*
X108575785Y-85329890D01*
X108481460Y-85261359D01*
X108481425Y-85261335D01*
X108403816Y-85204949D01*
X108387738Y-85196757D01*
X108380975Y-85192095D01*
X108363928Y-85171088D01*
X108358782Y-85166228D01*
X137899500Y-85166228D01*
X137899500Y-85333771D01*
X137932182Y-85498074D01*
X137932184Y-85498082D01*
X137996295Y-85652860D01*
X138089373Y-85792162D01*
X138207837Y-85910626D01*
X138300494Y-85972537D01*
X138347137Y-86003703D01*
X138501918Y-86067816D01*
X138666228Y-86100499D01*
X138666232Y-86100500D01*
X138666233Y-86100500D01*
X138833768Y-86100500D01*
X138833769Y-86100499D01*
X138998082Y-86067816D01*
X139152863Y-86003703D01*
X139292162Y-85910626D01*
X139410626Y-85792162D01*
X139503703Y-85652863D01*
X139567816Y-85498082D01*
X139600500Y-85333767D01*
X139600500Y-85166233D01*
X139567816Y-85001918D01*
X139503703Y-84847137D01*
X139435862Y-84745606D01*
X139410626Y-84707837D01*
X139292162Y-84589373D01*
X139152860Y-84496295D01*
X138998082Y-84432184D01*
X138998074Y-84432182D01*
X138833771Y-84399500D01*
X138833767Y-84399500D01*
X138666233Y-84399500D01*
X138666228Y-84399500D01*
X138501925Y-84432182D01*
X138501917Y-84432184D01*
X138347139Y-84496295D01*
X138207837Y-84589373D01*
X138089373Y-84707837D01*
X137996295Y-84847139D01*
X137932184Y-85001917D01*
X137932182Y-85001925D01*
X137899500Y-85166228D01*
X108358782Y-85166228D01*
X108344259Y-85152512D01*
X108342240Y-85144361D01*
X108336949Y-85137841D01*
X108333965Y-85110948D01*
X108327463Y-85084692D01*
X108330171Y-85076744D01*
X108329245Y-85068397D01*
X108341273Y-85044161D01*
X108349999Y-85018556D01*
X108356988Y-85012499D01*
X108360308Y-85005812D01*
X108374498Y-84997327D01*
X108395054Y-84979515D01*
X108403816Y-84975051D01*
X108544635Y-84872741D01*
X108575786Y-84850109D01*
X108575788Y-84850106D01*
X108575792Y-84850104D01*
X108726104Y-84699792D01*
X108726106Y-84699788D01*
X108726109Y-84699786D01*
X108851048Y-84527820D01*
X108851047Y-84527820D01*
X108851051Y-84527816D01*
X108947557Y-84338412D01*
X109013246Y-84136243D01*
X109046500Y-83926287D01*
X109046500Y-83916228D01*
X144149500Y-83916228D01*
X144149500Y-84083771D01*
X144182182Y-84248074D01*
X144182184Y-84248082D01*
X144246295Y-84402860D01*
X144339373Y-84542162D01*
X144457837Y-84660626D01*
X144528494Y-84707837D01*
X144597137Y-84753703D01*
X144751918Y-84817816D01*
X144899326Y-84847137D01*
X144916228Y-84850499D01*
X144916232Y-84850500D01*
X144916233Y-84850500D01*
X145083768Y-84850500D01*
X145083769Y-84850499D01*
X145248082Y-84817816D01*
X145402863Y-84753703D01*
X145542162Y-84660626D01*
X145660626Y-84542162D01*
X145753703Y-84402863D01*
X145817816Y-84248082D01*
X145850500Y-84083767D01*
X145850500Y-83916233D01*
X145844121Y-83884165D01*
X145826982Y-83797997D01*
X145822832Y-83777135D01*
X153824500Y-83777135D01*
X153824500Y-85222870D01*
X153824501Y-85222876D01*
X153830908Y-85282483D01*
X153881202Y-85417328D01*
X153881206Y-85417335D01*
X153967452Y-85532544D01*
X153967455Y-85532547D01*
X154082664Y-85618793D01*
X154082671Y-85618797D01*
X154217517Y-85669091D01*
X154217516Y-85669091D01*
X154224444Y-85669835D01*
X154277127Y-85675500D01*
X155722872Y-85675499D01*
X155782483Y-85669091D01*
X155917331Y-85618796D01*
X156032546Y-85532546D01*
X156096243Y-85447457D01*
X156152174Y-85405589D01*
X156221865Y-85400605D01*
X156268391Y-85421452D01*
X156383905Y-85505378D01*
X156437225Y-85532546D01*
X156548765Y-85589379D01*
X156548768Y-85589380D01*
X156636751Y-85617967D01*
X156724737Y-85646555D01*
X156907487Y-85675500D01*
X156907488Y-85675500D01*
X157092514Y-85675500D01*
X157092515Y-85675500D01*
X157275265Y-85646555D01*
X157451236Y-85589379D01*
X157616097Y-85505378D01*
X157765788Y-85396621D01*
X157896622Y-85265787D01*
X157899675Y-85261585D01*
X157955000Y-85218913D01*
X158024613Y-85212927D01*
X158086411Y-85245527D01*
X158100312Y-85261565D01*
X158103379Y-85265787D01*
X158234213Y-85396621D01*
X158383904Y-85505378D01*
X158437224Y-85532546D01*
X158548764Y-85589379D01*
X158548767Y-85589380D01*
X158636750Y-85617967D01*
X158724736Y-85646555D01*
X158907486Y-85675500D01*
X158907487Y-85675500D01*
X159092513Y-85675500D01*
X159092514Y-85675500D01*
X159275264Y-85646555D01*
X159451235Y-85589379D01*
X159616096Y-85505378D01*
X159765787Y-85396621D01*
X159896621Y-85265787D01*
X159954112Y-85186656D01*
X159957774Y-85182466D01*
X159974867Y-85171579D01*
X160600000Y-84546446D01*
X160600000Y-84552661D01*
X160627259Y-84654394D01*
X160679920Y-84745606D01*
X160754394Y-84820080D01*
X160845606Y-84872741D01*
X160947339Y-84900000D01*
X160953553Y-84900000D01*
X160363568Y-85489983D01*
X160363568Y-85489984D01*
X160384165Y-85504949D01*
X160548956Y-85588915D01*
X160548959Y-85588916D01*
X160724852Y-85646066D01*
X160907527Y-85675000D01*
X161092473Y-85675000D01*
X161275147Y-85646066D01*
X161451040Y-85588916D01*
X161451043Y-85588915D01*
X161615836Y-85504947D01*
X161615845Y-85504942D01*
X161636430Y-85489984D01*
X161636431Y-85489983D01*
X161046448Y-84900000D01*
X161052661Y-84900000D01*
X161154394Y-84872741D01*
X161245606Y-84820080D01*
X161320080Y-84745606D01*
X161372741Y-84654394D01*
X161400000Y-84552661D01*
X161400000Y-84546447D01*
X161989983Y-85136430D01*
X161989984Y-85136430D01*
X162004942Y-85115845D01*
X162004947Y-85115836D01*
X162088915Y-84951043D01*
X162088916Y-84951040D01*
X162146066Y-84775147D01*
X162175000Y-84592473D01*
X162175000Y-84407526D01*
X162146066Y-84224852D01*
X162088916Y-84048959D01*
X162088915Y-84048956D01*
X162004949Y-83884165D01*
X161989983Y-83863568D01*
X161400000Y-84453551D01*
X161400000Y-84447339D01*
X161372741Y-84345606D01*
X161320080Y-84254394D01*
X161245606Y-84179920D01*
X161154394Y-84127259D01*
X161052661Y-84100000D01*
X161046447Y-84100000D01*
X161636431Y-83510016D01*
X161636430Y-83510015D01*
X161615834Y-83495050D01*
X161451043Y-83411084D01*
X161451040Y-83411083D01*
X161275147Y-83353933D01*
X161092473Y-83325000D01*
X160907527Y-83325000D01*
X160724852Y-83353933D01*
X160548959Y-83411083D01*
X160548956Y-83411084D01*
X160384167Y-83495049D01*
X160363568Y-83510015D01*
X160953554Y-84100000D01*
X160947339Y-84100000D01*
X160845606Y-84127259D01*
X160754394Y-84179920D01*
X160679920Y-84254394D01*
X160627259Y-84345606D01*
X160600000Y-84447339D01*
X160600000Y-84453552D01*
X159988310Y-83841862D01*
X159987844Y-83841491D01*
X159984541Y-83840536D01*
X159972885Y-83829573D01*
X159957773Y-83817532D01*
X159954109Y-83813338D01*
X159896621Y-83734213D01*
X159765787Y-83603379D01*
X159616096Y-83494622D01*
X159616094Y-83494621D01*
X159451235Y-83410620D01*
X159451232Y-83410619D01*
X159275265Y-83353445D01*
X159132972Y-83330908D01*
X159092514Y-83324500D01*
X158907486Y-83324500D01*
X158867028Y-83330908D01*
X158724734Y-83353445D01*
X158548767Y-83410619D01*
X158548764Y-83410620D01*
X158383903Y-83494622D01*
X158304188Y-83552539D01*
X158234213Y-83603379D01*
X158234211Y-83603381D01*
X158234210Y-83603381D01*
X158103381Y-83734210D01*
X158103369Y-83734224D01*
X158100309Y-83738436D01*
X158044974Y-83781096D01*
X157975360Y-83787066D01*
X157913569Y-83754453D01*
X157899679Y-83738420D01*
X157896625Y-83734216D01*
X157765790Y-83603381D01*
X157765788Y-83603379D01*
X157616097Y-83494622D01*
X157616095Y-83494621D01*
X157451236Y-83410620D01*
X157451233Y-83410619D01*
X157275266Y-83353445D01*
X157132973Y-83330908D01*
X157092515Y-83324500D01*
X156907487Y-83324500D01*
X156867029Y-83330908D01*
X156724735Y-83353445D01*
X156548768Y-83410619D01*
X156548765Y-83410620D01*
X156383905Y-83494621D01*
X156268392Y-83578546D01*
X156202585Y-83602025D01*
X156134531Y-83586199D01*
X156096241Y-83552539D01*
X156053204Y-83495050D01*
X156032546Y-83467454D01*
X156032544Y-83467453D01*
X156032544Y-83467452D01*
X155917335Y-83381206D01*
X155917328Y-83381202D01*
X155782482Y-83330908D01*
X155782483Y-83330908D01*
X155722883Y-83324501D01*
X155722881Y-83324500D01*
X155722873Y-83324500D01*
X155722864Y-83324500D01*
X154277129Y-83324500D01*
X154277123Y-83324501D01*
X154217516Y-83330908D01*
X154082671Y-83381202D01*
X154082664Y-83381206D01*
X153967455Y-83467452D01*
X153967452Y-83467455D01*
X153881206Y-83582664D01*
X153881202Y-83582671D01*
X153830908Y-83717517D01*
X153824501Y-83777116D01*
X153824500Y-83777135D01*
X145822832Y-83777135D01*
X145817817Y-83751925D01*
X145817816Y-83751918D01*
X145768227Y-83632201D01*
X145753704Y-83597139D01*
X145744035Y-83582669D01*
X145660626Y-83457838D01*
X145639433Y-83436645D01*
X145639427Y-83436638D01*
X145542162Y-83339373D01*
X145402860Y-83246295D01*
X145248082Y-83182184D01*
X145248074Y-83182182D01*
X145083771Y-83149500D01*
X145083767Y-83149500D01*
X144916233Y-83149500D01*
X144916228Y-83149500D01*
X144751925Y-83182182D01*
X144751917Y-83182184D01*
X144597139Y-83246295D01*
X144457837Y-83339373D01*
X144339373Y-83457837D01*
X144246295Y-83597139D01*
X144182184Y-83751917D01*
X144182182Y-83751925D01*
X144149500Y-83916228D01*
X109046500Y-83916228D01*
X109046500Y-83713713D01*
X109013246Y-83503757D01*
X108947557Y-83301588D01*
X108851051Y-83112184D01*
X108851049Y-83112181D01*
X108851048Y-83112179D01*
X108726109Y-82940213D01*
X108575786Y-82789890D01*
X108403817Y-82664949D01*
X108395052Y-82660483D01*
X108344257Y-82612508D01*
X108327462Y-82544687D01*
X108350000Y-82478552D01*
X108379739Y-82448766D01*
X108387058Y-82443588D01*
X108403816Y-82435050D01*
X108429722Y-82416228D01*
X129899500Y-82416228D01*
X129899500Y-82583771D01*
X129932182Y-82748074D01*
X129932184Y-82748082D01*
X129996295Y-82902860D01*
X130089373Y-83042162D01*
X130207837Y-83160626D01*
X130300494Y-83222537D01*
X130347137Y-83253703D01*
X130501918Y-83317816D01*
X130666228Y-83350499D01*
X130666232Y-83350500D01*
X130666233Y-83350500D01*
X130833768Y-83350500D01*
X130833769Y-83350499D01*
X130998082Y-83317816D01*
X131152863Y-83253703D01*
X131292162Y-83160626D01*
X131410626Y-83042162D01*
X131503703Y-82902863D01*
X131522670Y-82857071D01*
X131566509Y-82802672D01*
X131632803Y-82780606D01*
X131684682Y-82789965D01*
X131751918Y-82817816D01*
X131916228Y-82850499D01*
X131916232Y-82850500D01*
X131916233Y-82850500D01*
X132083768Y-82850500D01*
X132083769Y-82850499D01*
X132248082Y-82817816D01*
X132402863Y-82753703D01*
X132533778Y-82666228D01*
X145649500Y-82666228D01*
X145649500Y-82833771D01*
X145682182Y-82998074D01*
X145682184Y-82998082D01*
X145746295Y-83152860D01*
X145829253Y-83277016D01*
X145829256Y-83277019D01*
X145839374Y-83292162D01*
X145860564Y-83313352D01*
X145860571Y-83313360D01*
X145957837Y-83410626D01*
X146028494Y-83457837D01*
X146097137Y-83503703D01*
X146097138Y-83503703D01*
X146097139Y-83503704D01*
X146112375Y-83510015D01*
X146251918Y-83567816D01*
X146399326Y-83597137D01*
X146416228Y-83600499D01*
X146416232Y-83600500D01*
X146416233Y-83600500D01*
X146583768Y-83600500D01*
X146583769Y-83600499D01*
X146748082Y-83567816D01*
X146902863Y-83503703D01*
X147042162Y-83410626D01*
X147160626Y-83292162D01*
X147253703Y-83152863D01*
X147317816Y-82998082D01*
X147350500Y-82833767D01*
X147350500Y-82724500D01*
X147370185Y-82657461D01*
X147422989Y-82611706D01*
X147474500Y-82600500D01*
X147583768Y-82600500D01*
X147583769Y-82600499D01*
X147748082Y-82567816D01*
X147902863Y-82503703D01*
X148042162Y-82410626D01*
X148160626Y-82292162D01*
X148253703Y-82152863D01*
X148317816Y-81998082D01*
X148350500Y-81833767D01*
X148350500Y-81666233D01*
X148317816Y-81501918D01*
X148253703Y-81347137D01*
X148186324Y-81246297D01*
X148160626Y-81207837D01*
X148042162Y-81089373D01*
X147902860Y-80996295D01*
X147748082Y-80932184D01*
X147748074Y-80932182D01*
X147583771Y-80899500D01*
X147583767Y-80899500D01*
X147416233Y-80899500D01*
X147416228Y-80899500D01*
X147251925Y-80932182D01*
X147251917Y-80932184D01*
X147097139Y-80996295D01*
X146957837Y-81089373D01*
X146839373Y-81207837D01*
X146746295Y-81347139D01*
X146682184Y-81501917D01*
X146682182Y-81501925D01*
X146649500Y-81666228D01*
X146649500Y-81775500D01*
X146629815Y-81842539D01*
X146577011Y-81888294D01*
X146525500Y-81899500D01*
X146416228Y-81899500D01*
X146251925Y-81932182D01*
X146251917Y-81932184D01*
X146097139Y-81996295D01*
X145957837Y-82089373D01*
X145839373Y-82207837D01*
X145746295Y-82347139D01*
X145682184Y-82501917D01*
X145682182Y-82501925D01*
X145649500Y-82666228D01*
X132533778Y-82666228D01*
X132542162Y-82660626D01*
X132660626Y-82542162D01*
X132753703Y-82402863D01*
X132817816Y-82248082D01*
X132850500Y-82083767D01*
X132850500Y-81916233D01*
X132817816Y-81751918D01*
X132755096Y-81600499D01*
X132753704Y-81597139D01*
X132734110Y-81567815D01*
X132690084Y-81501925D01*
X132660626Y-81457837D01*
X132542162Y-81339373D01*
X132402860Y-81246295D01*
X132248082Y-81182184D01*
X132248074Y-81182182D01*
X132083771Y-81149500D01*
X132083767Y-81149500D01*
X131916233Y-81149500D01*
X131916228Y-81149500D01*
X131751925Y-81182182D01*
X131751917Y-81182184D01*
X131597139Y-81246295D01*
X131457837Y-81339373D01*
X131339373Y-81457837D01*
X131246295Y-81597139D01*
X131246293Y-81597143D01*
X131227329Y-81642926D01*
X131183488Y-81697329D01*
X131117193Y-81719393D01*
X131065317Y-81710033D01*
X130998086Y-81682185D01*
X130998074Y-81682182D01*
X130833771Y-81649500D01*
X130833767Y-81649500D01*
X130666233Y-81649500D01*
X130666228Y-81649500D01*
X130501925Y-81682182D01*
X130501917Y-81682184D01*
X130347139Y-81746295D01*
X130207837Y-81839373D01*
X130089373Y-81957837D01*
X129996295Y-82097139D01*
X129932184Y-82251917D01*
X129932182Y-82251925D01*
X129899500Y-82416228D01*
X108429722Y-82416228D01*
X108575792Y-82310103D01*
X108726104Y-82159791D01*
X108726106Y-82159787D01*
X108726109Y-82159785D01*
X108843597Y-81998074D01*
X108851051Y-81987815D01*
X108947557Y-81798411D01*
X109013246Y-81596242D01*
X109046500Y-81386286D01*
X109046500Y-81173712D01*
X109013246Y-80963756D01*
X108947557Y-80761587D01*
X108947554Y-80761581D01*
X108924553Y-80716437D01*
X108924552Y-80716436D01*
X108898969Y-80666228D01*
X138149500Y-80666228D01*
X138149500Y-80833771D01*
X138182182Y-80998074D01*
X138182184Y-80998082D01*
X138246295Y-81152860D01*
X138339373Y-81292162D01*
X138457837Y-81410626D01*
X138528494Y-81457837D01*
X138597137Y-81503703D01*
X138751918Y-81567816D01*
X138899326Y-81597137D01*
X138916228Y-81600499D01*
X138916232Y-81600500D01*
X138916233Y-81600500D01*
X139083768Y-81600500D01*
X139083769Y-81600499D01*
X139248082Y-81567816D01*
X139402863Y-81503703D01*
X139542162Y-81410626D01*
X139660626Y-81292162D01*
X139753703Y-81152863D01*
X139817816Y-80998082D01*
X139850500Y-80833767D01*
X139850500Y-80666233D01*
X139850499Y-80666228D01*
X175149500Y-80666228D01*
X175149500Y-80833771D01*
X175182182Y-80998074D01*
X175182184Y-80998082D01*
X175246295Y-81152860D01*
X175339373Y-81292162D01*
X175457837Y-81410626D01*
X175528494Y-81457837D01*
X175597137Y-81503703D01*
X175751918Y-81567816D01*
X175899326Y-81597137D01*
X175916228Y-81600499D01*
X175916232Y-81600500D01*
X175916233Y-81600500D01*
X176083768Y-81600500D01*
X176083769Y-81600499D01*
X176248082Y-81567816D01*
X176402863Y-81503703D01*
X176542162Y-81410626D01*
X176660626Y-81292162D01*
X176753703Y-81152863D01*
X176817816Y-80998082D01*
X176850500Y-80833767D01*
X176850500Y-80666233D01*
X176817816Y-80501918D01*
X176753703Y-80347137D01*
X176686927Y-80247200D01*
X176660626Y-80207837D01*
X176542162Y-80089373D01*
X176402860Y-79996295D01*
X176248082Y-79932184D01*
X176248074Y-79932182D01*
X176083771Y-79899500D01*
X176083767Y-79899500D01*
X175916233Y-79899500D01*
X175916228Y-79899500D01*
X175751925Y-79932182D01*
X175751917Y-79932184D01*
X175597139Y-79996295D01*
X175457837Y-80089373D01*
X175339373Y-80207837D01*
X175246295Y-80347139D01*
X175182184Y-80501917D01*
X175182182Y-80501925D01*
X175149500Y-80666228D01*
X139850499Y-80666228D01*
X139817816Y-80501918D01*
X139753703Y-80347137D01*
X139686927Y-80247200D01*
X139660626Y-80207837D01*
X139542162Y-80089373D01*
X139402860Y-79996295D01*
X139248082Y-79932184D01*
X139248074Y-79932182D01*
X139083771Y-79899500D01*
X139083767Y-79899500D01*
X138916233Y-79899500D01*
X138916228Y-79899500D01*
X138751925Y-79932182D01*
X138751917Y-79932184D01*
X138597139Y-79996295D01*
X138457837Y-80089373D01*
X138339373Y-80207837D01*
X138246295Y-80347139D01*
X138182184Y-80501917D01*
X138182182Y-80501925D01*
X138149500Y-80666228D01*
X108898969Y-80666228D01*
X108897941Y-80664210D01*
X108851051Y-80572183D01*
X108800001Y-80501918D01*
X108726109Y-80400212D01*
X108575786Y-80249889D01*
X108403817Y-80124948D01*
X108395054Y-80120483D01*
X108344258Y-80072508D01*
X108327464Y-80004687D01*
X108350002Y-79938552D01*
X108395058Y-79899513D01*
X108403816Y-79895051D01*
X108524611Y-79807289D01*
X108575786Y-79770109D01*
X108575788Y-79770106D01*
X108575792Y-79770104D01*
X108726104Y-79619792D01*
X108726106Y-79619788D01*
X108726109Y-79619786D01*
X108851048Y-79447820D01*
X108851047Y-79447820D01*
X108851051Y-79447816D01*
X108947557Y-79258412D01*
X109013246Y-79056243D01*
X109046500Y-78846287D01*
X109046500Y-78633713D01*
X109013246Y-78423757D01*
X109010800Y-78416228D01*
X132399500Y-78416228D01*
X132399500Y-78583771D01*
X132432182Y-78748074D01*
X132432184Y-78748082D01*
X132496295Y-78902860D01*
X132589373Y-79042162D01*
X132707837Y-79160626D01*
X132787644Y-79213951D01*
X132847137Y-79253703D01*
X133001918Y-79317816D01*
X133166223Y-79350498D01*
X133166228Y-79350499D01*
X133166232Y-79350500D01*
X133166233Y-79350500D01*
X133333768Y-79350500D01*
X133333769Y-79350499D01*
X133498082Y-79317816D01*
X133652863Y-79253703D01*
X133681109Y-79234828D01*
X133747786Y-79213951D01*
X133815166Y-79232435D01*
X133818891Y-79234829D01*
X133847131Y-79253698D01*
X133847137Y-79253702D01*
X134001918Y-79317815D01*
X134166228Y-79350498D01*
X134166232Y-79350499D01*
X134166233Y-79350499D01*
X134333768Y-79350499D01*
X134333769Y-79350498D01*
X134498082Y-79317815D01*
X134652863Y-79253702D01*
X134792162Y-79160625D01*
X134910626Y-79042161D01*
X135003703Y-78902862D01*
X135067816Y-78748081D01*
X135100500Y-78583766D01*
X135100500Y-78416232D01*
X135067816Y-78251917D01*
X135003703Y-78097136D01*
X134910627Y-77957838D01*
X134910626Y-77957836D01*
X134792162Y-77839372D01*
X134652860Y-77746294D01*
X134498082Y-77682183D01*
X134498074Y-77682181D01*
X134333771Y-77649499D01*
X134333767Y-77649499D01*
X134166233Y-77649499D01*
X134166228Y-77649499D01*
X134001925Y-77682181D01*
X134001917Y-77682183D01*
X133847137Y-77746295D01*
X133818887Y-77765171D01*
X133752210Y-77786047D01*
X133684830Y-77767561D01*
X133681108Y-77765169D01*
X133652869Y-77746300D01*
X133652859Y-77746295D01*
X133498082Y-77682184D01*
X133498074Y-77682182D01*
X133333771Y-77649500D01*
X133333767Y-77649500D01*
X133166233Y-77649500D01*
X133166228Y-77649500D01*
X133001925Y-77682182D01*
X133001917Y-77682184D01*
X132847139Y-77746295D01*
X132707837Y-77839373D01*
X132589373Y-77957837D01*
X132496295Y-78097139D01*
X132432184Y-78251917D01*
X132432182Y-78251925D01*
X132399500Y-78416228D01*
X109010800Y-78416228D01*
X108947557Y-78221588D01*
X108851051Y-78032184D01*
X108851049Y-78032181D01*
X108851048Y-78032179D01*
X108726109Y-77860213D01*
X108612569Y-77746673D01*
X108579084Y-77685350D01*
X108584068Y-77615658D01*
X108625940Y-77559725D01*
X108656915Y-77542810D01*
X108788331Y-77493796D01*
X108903546Y-77407546D01*
X108989796Y-77292331D01*
X109040091Y-77157483D01*
X109046500Y-77097873D01*
X109046499Y-75916228D01*
X132649499Y-75916228D01*
X132649499Y-76083771D01*
X132682181Y-76248074D01*
X132682183Y-76248082D01*
X132746294Y-76402860D01*
X132839372Y-76542162D01*
X132957836Y-76660626D01*
X133050493Y-76722537D01*
X133097136Y-76753703D01*
X133251917Y-76817816D01*
X133416227Y-76850499D01*
X133416231Y-76850500D01*
X133416232Y-76850500D01*
X133583767Y-76850500D01*
X133583768Y-76850499D01*
X133748081Y-76817816D01*
X133902862Y-76753703D01*
X134042161Y-76660626D01*
X134160625Y-76542162D01*
X134253702Y-76402863D01*
X134317815Y-76248082D01*
X134350499Y-76083767D01*
X134350499Y-75916233D01*
X134349862Y-75913029D01*
X134349862Y-75913027D01*
X134346020Y-75893713D01*
X190024500Y-75893713D01*
X190024500Y-76106286D01*
X190057753Y-76316239D01*
X190123444Y-76518414D01*
X190219951Y-76707820D01*
X190344890Y-76879786D01*
X190495209Y-77030105D01*
X190495214Y-77030109D01*
X190659793Y-77149682D01*
X190702459Y-77205011D01*
X190708438Y-77274625D01*
X190675833Y-77336420D01*
X190659793Y-77350318D01*
X190495214Y-77469890D01*
X190495209Y-77469894D01*
X190344890Y-77620213D01*
X190219951Y-77792179D01*
X190123444Y-77981585D01*
X190057753Y-78183760D01*
X190046958Y-78251917D01*
X190024500Y-78393713D01*
X190024500Y-78606287D01*
X190057754Y-78816243D01*
X190085898Y-78902862D01*
X190123444Y-79018414D01*
X190219951Y-79207820D01*
X190344890Y-79379786D01*
X190483705Y-79518601D01*
X190517190Y-79579924D01*
X190512206Y-79649616D01*
X190470334Y-79705549D01*
X190461121Y-79711821D01*
X190306342Y-79807289D01*
X190182289Y-79931342D01*
X190090187Y-80080663D01*
X190090185Y-80080668D01*
X190076992Y-80120483D01*
X190035001Y-80247203D01*
X190035001Y-80247204D01*
X190035000Y-80247204D01*
X190024500Y-80349983D01*
X190024500Y-81650001D01*
X190024501Y-81650018D01*
X190035000Y-81752796D01*
X190035001Y-81752799D01*
X190090185Y-81919331D01*
X190090187Y-81919336D01*
X190098112Y-81932184D01*
X190182288Y-82068656D01*
X190306344Y-82192712D01*
X190455666Y-82284814D01*
X190622203Y-82339999D01*
X190724991Y-82350500D01*
X192275008Y-82350499D01*
X192377797Y-82339999D01*
X192544334Y-82284814D01*
X192693656Y-82192712D01*
X192817712Y-82068656D01*
X192909814Y-81919334D01*
X192964999Y-81752797D01*
X192975500Y-81650009D01*
X192975499Y-80349992D01*
X192964999Y-80247203D01*
X192909814Y-80080666D01*
X192817712Y-79931344D01*
X192693656Y-79807288D01*
X192544334Y-79715186D01*
X192544333Y-79715185D01*
X192538878Y-79711821D01*
X192492154Y-79659873D01*
X192480931Y-79590910D01*
X192508775Y-79526828D01*
X192516272Y-79518623D01*
X192655104Y-79379792D01*
X192676387Y-79350499D01*
X192780048Y-79207820D01*
X192780047Y-79207820D01*
X192780051Y-79207816D01*
X192876557Y-79018412D01*
X192942246Y-78816243D01*
X192975500Y-78606287D01*
X192975500Y-78393713D01*
X192942246Y-78183757D01*
X192876557Y-77981588D01*
X192780051Y-77792184D01*
X192780049Y-77792181D01*
X192780048Y-77792179D01*
X192655109Y-77620213D01*
X192504792Y-77469896D01*
X192418975Y-77407547D01*
X192340204Y-77350316D01*
X192297540Y-77294989D01*
X192291561Y-77225376D01*
X192324166Y-77163580D01*
X192340199Y-77149686D01*
X192504792Y-77030104D01*
X192655104Y-76879792D01*
X192655106Y-76879788D01*
X192655109Y-76879786D01*
X192780048Y-76707820D01*
X192780047Y-76707820D01*
X192780051Y-76707816D01*
X192876557Y-76518412D01*
X192942246Y-76316243D01*
X192975500Y-76106287D01*
X192975500Y-75893713D01*
X192942246Y-75683757D01*
X192876557Y-75481588D01*
X192780051Y-75292184D01*
X192780049Y-75292181D01*
X192780048Y-75292179D01*
X192655109Y-75120213D01*
X192504790Y-74969894D01*
X192504785Y-74969890D01*
X192339781Y-74850008D01*
X192297115Y-74794678D01*
X192291136Y-74725065D01*
X192323741Y-74663270D01*
X192339781Y-74649371D01*
X192504466Y-74529721D01*
X192654723Y-74379464D01*
X192654727Y-74379459D01*
X192779620Y-74207557D01*
X192876095Y-74018217D01*
X192941757Y-73816129D01*
X192941757Y-73816126D01*
X192952231Y-73750000D01*
X191904146Y-73750000D01*
X191942630Y-73683343D01*
X191975000Y-73562535D01*
X191975000Y-73437465D01*
X191942630Y-73316657D01*
X191904146Y-73250000D01*
X192952231Y-73250000D01*
X192941757Y-73183873D01*
X192941757Y-73183870D01*
X192876095Y-72981782D01*
X192779620Y-72792442D01*
X192654727Y-72620540D01*
X192654723Y-72620535D01*
X192504464Y-72470276D01*
X192504459Y-72470272D01*
X192332557Y-72345379D01*
X192143217Y-72248904D01*
X191941128Y-72183242D01*
X191750000Y-72152969D01*
X191750000Y-73095854D01*
X191683343Y-73057370D01*
X191562535Y-73025000D01*
X191437465Y-73025000D01*
X191316657Y-73057370D01*
X191250000Y-73095854D01*
X191250000Y-72152969D01*
X191058872Y-72183242D01*
X191058869Y-72183242D01*
X190856782Y-72248904D01*
X190667442Y-72345379D01*
X190495540Y-72470272D01*
X190495535Y-72470276D01*
X190345276Y-72620535D01*
X190345272Y-72620540D01*
X190220379Y-72792442D01*
X190123904Y-72981782D01*
X190058242Y-73183870D01*
X190058242Y-73183873D01*
X190047769Y-73250000D01*
X191095854Y-73250000D01*
X191057370Y-73316657D01*
X191025000Y-73437465D01*
X191025000Y-73562535D01*
X191057370Y-73683343D01*
X191095854Y-73750000D01*
X190047769Y-73750000D01*
X190058242Y-73816126D01*
X190058242Y-73816129D01*
X190123904Y-74018217D01*
X190220379Y-74207557D01*
X190345272Y-74379459D01*
X190345276Y-74379464D01*
X190495535Y-74529723D01*
X190495540Y-74529727D01*
X190660218Y-74649372D01*
X190702884Y-74704701D01*
X190708863Y-74774315D01*
X190676258Y-74836110D01*
X190660218Y-74850008D01*
X190495214Y-74969890D01*
X190495209Y-74969894D01*
X190344890Y-75120213D01*
X190219951Y-75292179D01*
X190123444Y-75481585D01*
X190057753Y-75683760D01*
X190024500Y-75893713D01*
X134346020Y-75893713D01*
X134317816Y-75751925D01*
X134317815Y-75751918D01*
X134253702Y-75597137D01*
X134222536Y-75550494D01*
X134160625Y-75457837D01*
X134042161Y-75339373D01*
X133902859Y-75246295D01*
X133748081Y-75182184D01*
X133748073Y-75182182D01*
X133583770Y-75149500D01*
X133583766Y-75149500D01*
X133416232Y-75149500D01*
X133416227Y-75149500D01*
X133251924Y-75182182D01*
X133251916Y-75182184D01*
X133097138Y-75246295D01*
X132957836Y-75339373D01*
X132839372Y-75457837D01*
X132746294Y-75597139D01*
X132682183Y-75751917D01*
X132682181Y-75751925D01*
X132649499Y-75916228D01*
X109046499Y-75916228D01*
X109046499Y-75302128D01*
X109040091Y-75242517D01*
X109017588Y-75182184D01*
X108989797Y-75107671D01*
X108989793Y-75107664D01*
X108903547Y-74992455D01*
X108903544Y-74992452D01*
X108788335Y-74906206D01*
X108788328Y-74906202D01*
X108653482Y-74855908D01*
X108653483Y-74855908D01*
X108593883Y-74849501D01*
X108593881Y-74849500D01*
X108593873Y-74849500D01*
X108593864Y-74849500D01*
X106798129Y-74849500D01*
X106798123Y-74849501D01*
X106738516Y-74855908D01*
X106603671Y-74906202D01*
X106603664Y-74906206D01*
X106488455Y-74992452D01*
X106488452Y-74992455D01*
X106402206Y-75107664D01*
X106402202Y-75107671D01*
X106351908Y-75242517D01*
X106346569Y-75292184D01*
X106345501Y-75302123D01*
X106345500Y-75302135D01*
X104500500Y-75302135D01*
X104500500Y-72224983D01*
X147399500Y-72224983D01*
X147399500Y-73775001D01*
X147399501Y-73775018D01*
X147410000Y-73877796D01*
X147410001Y-73877799D01*
X147455894Y-74016294D01*
X147465186Y-74044334D01*
X147557288Y-74193656D01*
X147681344Y-74317712D01*
X147830666Y-74409814D01*
X147997203Y-74464999D01*
X148099991Y-74475500D01*
X149400008Y-74475499D01*
X149502797Y-74464999D01*
X149669334Y-74409814D01*
X149818656Y-74317712D01*
X149942712Y-74193656D01*
X150034814Y-74044334D01*
X150034814Y-74044331D01*
X150038178Y-74038879D01*
X150090126Y-73992154D01*
X150159088Y-73980931D01*
X150223170Y-74008774D01*
X150231398Y-74016294D01*
X150370213Y-74155109D01*
X150542179Y-74280048D01*
X150542181Y-74280049D01*
X150542184Y-74280051D01*
X150731588Y-74376557D01*
X150933757Y-74442246D01*
X151143713Y-74475500D01*
X151143714Y-74475500D01*
X151356286Y-74475500D01*
X151356287Y-74475500D01*
X151566243Y-74442246D01*
X151768412Y-74376557D01*
X151957816Y-74280051D01*
X151979789Y-74264086D01*
X152129786Y-74155109D01*
X152129788Y-74155106D01*
X152129792Y-74155104D01*
X152280104Y-74004792D01*
X152399683Y-73840204D01*
X152455011Y-73797540D01*
X152524624Y-73791561D01*
X152586420Y-73824166D01*
X152600313Y-73840199D01*
X152674733Y-73942630D01*
X152719896Y-74004792D01*
X152870213Y-74155109D01*
X153042179Y-74280048D01*
X153042181Y-74280049D01*
X153042184Y-74280051D01*
X153231588Y-74376557D01*
X153433757Y-74442246D01*
X153643713Y-74475500D01*
X153643714Y-74475500D01*
X153856286Y-74475500D01*
X153856287Y-74475500D01*
X154066243Y-74442246D01*
X154268412Y-74376557D01*
X154457816Y-74280051D01*
X154479789Y-74264086D01*
X154629786Y-74155109D01*
X154629788Y-74155106D01*
X154629792Y-74155104D01*
X154780104Y-74004792D01*
X154899683Y-73840204D01*
X154955011Y-73797540D01*
X155024624Y-73791561D01*
X155086420Y-73824166D01*
X155100313Y-73840199D01*
X155174733Y-73942630D01*
X155219896Y-74004792D01*
X155370213Y-74155109D01*
X155542179Y-74280048D01*
X155542181Y-74280049D01*
X155542184Y-74280051D01*
X155731588Y-74376557D01*
X155933757Y-74442246D01*
X156143713Y-74475500D01*
X156143714Y-74475500D01*
X156356286Y-74475500D01*
X156356287Y-74475500D01*
X156566243Y-74442246D01*
X156768412Y-74376557D01*
X156957816Y-74280051D01*
X156979789Y-74264086D01*
X157129786Y-74155109D01*
X157129788Y-74155106D01*
X157129792Y-74155104D01*
X157280104Y-74004792D01*
X157399683Y-73840204D01*
X157455011Y-73797540D01*
X157524624Y-73791561D01*
X157586420Y-73824166D01*
X157600313Y-73840199D01*
X157674733Y-73942630D01*
X157719896Y-74004792D01*
X157870213Y-74155109D01*
X158042179Y-74280048D01*
X158042181Y-74280049D01*
X158042184Y-74280051D01*
X158231588Y-74376557D01*
X158433757Y-74442246D01*
X158643713Y-74475500D01*
X158643714Y-74475500D01*
X158856286Y-74475500D01*
X158856287Y-74475500D01*
X159066243Y-74442246D01*
X159268412Y-74376557D01*
X159457816Y-74280051D01*
X159479789Y-74264086D01*
X159629786Y-74155109D01*
X159629788Y-74155106D01*
X159629792Y-74155104D01*
X159780104Y-74004792D01*
X159899991Y-73839779D01*
X159955320Y-73797115D01*
X160024933Y-73791136D01*
X160086729Y-73823741D01*
X160100627Y-73839781D01*
X160220272Y-74004459D01*
X160220276Y-74004464D01*
X160370535Y-74154723D01*
X160370540Y-74154727D01*
X160542442Y-74279620D01*
X160731782Y-74376095D01*
X160933871Y-74441757D01*
X161000000Y-74452231D01*
X161000000Y-73404145D01*
X161066657Y-73442630D01*
X161187465Y-73475000D01*
X161312535Y-73475000D01*
X161433343Y-73442630D01*
X161500000Y-73404145D01*
X161500000Y-74452230D01*
X161566126Y-74441757D01*
X161566129Y-74441757D01*
X161768217Y-74376095D01*
X161957557Y-74279620D01*
X162129459Y-74154727D01*
X162129464Y-74154723D01*
X162279723Y-74004464D01*
X162279727Y-74004459D01*
X162404620Y-73832557D01*
X162501095Y-73643217D01*
X162566757Y-73441130D01*
X162566757Y-73441127D01*
X162594232Y-73267666D01*
X162594232Y-73267665D01*
X162597030Y-73250000D01*
X161654146Y-73250000D01*
X161692630Y-73183343D01*
X161725000Y-73062535D01*
X161725000Y-72937465D01*
X161692630Y-72816657D01*
X161654146Y-72750000D01*
X162597030Y-72750000D01*
X162566757Y-72558872D01*
X162566757Y-72558869D01*
X162501095Y-72356782D01*
X162404620Y-72167442D01*
X162279727Y-71995540D01*
X162279723Y-71995535D01*
X162129464Y-71845276D01*
X162129459Y-71845272D01*
X161957557Y-71720379D01*
X161768215Y-71623903D01*
X161566124Y-71558241D01*
X161500000Y-71547768D01*
X161500000Y-72595854D01*
X161433343Y-72557370D01*
X161312535Y-72525000D01*
X161187465Y-72525000D01*
X161066657Y-72557370D01*
X161000000Y-72595854D01*
X161000000Y-71547768D01*
X160999999Y-71547768D01*
X160933875Y-71558241D01*
X160731784Y-71623903D01*
X160542442Y-71720379D01*
X160370540Y-71845272D01*
X160370535Y-71845276D01*
X160220276Y-71995535D01*
X160220272Y-71995540D01*
X160100627Y-72160218D01*
X160045297Y-72202884D01*
X159975684Y-72208863D01*
X159913889Y-72176257D01*
X159899991Y-72160218D01*
X159780109Y-71995214D01*
X159780105Y-71995209D01*
X159629786Y-71844890D01*
X159457820Y-71719951D01*
X159268414Y-71623444D01*
X159268413Y-71623443D01*
X159268412Y-71623443D01*
X159066243Y-71557754D01*
X159066241Y-71557753D01*
X159066240Y-71557753D01*
X158904957Y-71532208D01*
X158856287Y-71524500D01*
X158643713Y-71524500D01*
X158595042Y-71532208D01*
X158433760Y-71557753D01*
X158231585Y-71623444D01*
X158042179Y-71719951D01*
X157870213Y-71844890D01*
X157719894Y-71995209D01*
X157719890Y-71995214D01*
X157600318Y-72159793D01*
X157544989Y-72202459D01*
X157475375Y-72208438D01*
X157413580Y-72175833D01*
X157399682Y-72159793D01*
X157280109Y-71995214D01*
X157280105Y-71995209D01*
X157129786Y-71844890D01*
X156957820Y-71719951D01*
X156768414Y-71623444D01*
X156768413Y-71623443D01*
X156768412Y-71623443D01*
X156566243Y-71557754D01*
X156566241Y-71557753D01*
X156566240Y-71557753D01*
X156404957Y-71532208D01*
X156356287Y-71524500D01*
X156143713Y-71524500D01*
X156095042Y-71532208D01*
X155933760Y-71557753D01*
X155731585Y-71623444D01*
X155542179Y-71719951D01*
X155370213Y-71844890D01*
X155219894Y-71995209D01*
X155219890Y-71995214D01*
X155100318Y-72159793D01*
X155044989Y-72202459D01*
X154975375Y-72208438D01*
X154913580Y-72175833D01*
X154899682Y-72159793D01*
X154780109Y-71995214D01*
X154780105Y-71995209D01*
X154629786Y-71844890D01*
X154457820Y-71719951D01*
X154268414Y-71623444D01*
X154268413Y-71623443D01*
X154268412Y-71623443D01*
X154066243Y-71557754D01*
X154066241Y-71557753D01*
X154066240Y-71557753D01*
X153904957Y-71532208D01*
X153856287Y-71524500D01*
X153643713Y-71524500D01*
X153595042Y-71532208D01*
X153433760Y-71557753D01*
X153231585Y-71623444D01*
X153042179Y-71719951D01*
X152870213Y-71844890D01*
X152719894Y-71995209D01*
X152719890Y-71995214D01*
X152600318Y-72159793D01*
X152544989Y-72202459D01*
X152475375Y-72208438D01*
X152413580Y-72175833D01*
X152399682Y-72159793D01*
X152280109Y-71995214D01*
X152280105Y-71995209D01*
X152129786Y-71844890D01*
X151957820Y-71719951D01*
X151768414Y-71623444D01*
X151768413Y-71623443D01*
X151768412Y-71623443D01*
X151566243Y-71557754D01*
X151566241Y-71557753D01*
X151566240Y-71557753D01*
X151404957Y-71532208D01*
X151356287Y-71524500D01*
X151143713Y-71524500D01*
X151095042Y-71532208D01*
X150933760Y-71557753D01*
X150731585Y-71623444D01*
X150542179Y-71719951D01*
X150370215Y-71844889D01*
X150231398Y-71983706D01*
X150170075Y-72017190D01*
X150100383Y-72012206D01*
X150044450Y-71970334D01*
X150038178Y-71961120D01*
X149942712Y-71806344D01*
X149818657Y-71682289D01*
X149818656Y-71682288D01*
X149669334Y-71590186D01*
X149502797Y-71535001D01*
X149502795Y-71535000D01*
X149400010Y-71524500D01*
X148099998Y-71524500D01*
X148099981Y-71524501D01*
X147997203Y-71535000D01*
X147997200Y-71535001D01*
X147830668Y-71590185D01*
X147830663Y-71590187D01*
X147681342Y-71682289D01*
X147557289Y-71806342D01*
X147465187Y-71955663D01*
X147465185Y-71955668D01*
X147460325Y-71970334D01*
X147410001Y-72122203D01*
X147410001Y-72122204D01*
X147410000Y-72122204D01*
X147399500Y-72224983D01*
X104500500Y-72224983D01*
X104500500Y-70916228D01*
X165649500Y-70916228D01*
X165649500Y-71083771D01*
X165682182Y-71248074D01*
X165682184Y-71248082D01*
X165746295Y-71402860D01*
X165839373Y-71542162D01*
X165957837Y-71660626D01*
X166046621Y-71719949D01*
X166097137Y-71753703D01*
X166251918Y-71817816D01*
X166388060Y-71844896D01*
X166416228Y-71850499D01*
X166416232Y-71850500D01*
X166416233Y-71850500D01*
X166583768Y-71850500D01*
X166583769Y-71850499D01*
X166748082Y-71817816D01*
X166902863Y-71753703D01*
X167042162Y-71660626D01*
X167160626Y-71542162D01*
X167253703Y-71402863D01*
X167317816Y-71248082D01*
X167350500Y-71083767D01*
X167350500Y-70916233D01*
X167317816Y-70751918D01*
X167253703Y-70597137D01*
X167222537Y-70550494D01*
X167160626Y-70457837D01*
X167042162Y-70339373D01*
X166902860Y-70246295D01*
X166748082Y-70182184D01*
X166748074Y-70182182D01*
X166583771Y-70149500D01*
X166583767Y-70149500D01*
X166416233Y-70149500D01*
X166416228Y-70149500D01*
X166251925Y-70182182D01*
X166251917Y-70182184D01*
X166097139Y-70246295D01*
X165957837Y-70339373D01*
X165839373Y-70457837D01*
X165746295Y-70597139D01*
X165682184Y-70751917D01*
X165682182Y-70751925D01*
X165649500Y-70916228D01*
X104500500Y-70916228D01*
X104500500Y-67916228D01*
X116649500Y-67916228D01*
X116649500Y-68083771D01*
X116682182Y-68248074D01*
X116682184Y-68248082D01*
X116746295Y-68402860D01*
X116839373Y-68542162D01*
X116957837Y-68660626D01*
X117050494Y-68722537D01*
X117097137Y-68753703D01*
X117251918Y-68817816D01*
X117416228Y-68850499D01*
X117416232Y-68850500D01*
X117416233Y-68850500D01*
X117583768Y-68850500D01*
X117583769Y-68850499D01*
X117748082Y-68817816D01*
X117902863Y-68753703D01*
X118042162Y-68660626D01*
X118160626Y-68542162D01*
X118244773Y-68416228D01*
X165649500Y-68416228D01*
X165649500Y-68583771D01*
X165682182Y-68748074D01*
X165682184Y-68748082D01*
X165746295Y-68902860D01*
X165839373Y-69042162D01*
X165957837Y-69160626D01*
X166050494Y-69222537D01*
X166097137Y-69253703D01*
X166251918Y-69317816D01*
X166416228Y-69350499D01*
X166416232Y-69350500D01*
X166416233Y-69350500D01*
X166583768Y-69350500D01*
X166583769Y-69350499D01*
X166748082Y-69317816D01*
X166902863Y-69253703D01*
X167042162Y-69160626D01*
X167160626Y-69042162D01*
X167253703Y-68902863D01*
X167317816Y-68748082D01*
X167350500Y-68583767D01*
X167350500Y-68416233D01*
X167317816Y-68251918D01*
X167253703Y-68097137D01*
X167216970Y-68042162D01*
X167160626Y-67957837D01*
X167042162Y-67839373D01*
X166902860Y-67746295D01*
X166748082Y-67682184D01*
X166748074Y-67682182D01*
X166583771Y-67649500D01*
X166583767Y-67649500D01*
X166416233Y-67649500D01*
X166416228Y-67649500D01*
X166251925Y-67682182D01*
X166251917Y-67682184D01*
X166097139Y-67746295D01*
X165957837Y-67839373D01*
X165839373Y-67957837D01*
X165746295Y-68097139D01*
X165682184Y-68251917D01*
X165682182Y-68251925D01*
X165649500Y-68416228D01*
X118244773Y-68416228D01*
X118253703Y-68402863D01*
X118317816Y-68248082D01*
X118350500Y-68083767D01*
X118350500Y-67916233D01*
X118317816Y-67751918D01*
X118253703Y-67597137D01*
X118222537Y-67550494D01*
X118160626Y-67457837D01*
X118119017Y-67416228D01*
X176149500Y-67416228D01*
X176149500Y-67583771D01*
X176182182Y-67748074D01*
X176182184Y-67748082D01*
X176246295Y-67902860D01*
X176339373Y-68042162D01*
X176457837Y-68160626D01*
X176550494Y-68222537D01*
X176597137Y-68253703D01*
X176751918Y-68317816D01*
X176916228Y-68350499D01*
X176916232Y-68350500D01*
X176916233Y-68350500D01*
X177083768Y-68350500D01*
X177083769Y-68350499D01*
X177248082Y-68317816D01*
X177402863Y-68253703D01*
X177542162Y-68160626D01*
X177660626Y-68042162D01*
X177753703Y-67902863D01*
X177817816Y-67748082D01*
X177850500Y-67583767D01*
X177850500Y-67416233D01*
X177817816Y-67251918D01*
X177753703Y-67097137D01*
X177716970Y-67042162D01*
X177660626Y-66957837D01*
X177542162Y-66839373D01*
X177402860Y-66746295D01*
X177248082Y-66682184D01*
X177248074Y-66682182D01*
X177083771Y-66649500D01*
X177083767Y-66649500D01*
X176916233Y-66649500D01*
X176916228Y-66649500D01*
X176751925Y-66682182D01*
X176751917Y-66682184D01*
X176597139Y-66746295D01*
X176457837Y-66839373D01*
X176339373Y-66957837D01*
X176246295Y-67097139D01*
X176182184Y-67251917D01*
X176182182Y-67251925D01*
X176149500Y-67416228D01*
X118119017Y-67416228D01*
X118042162Y-67339373D01*
X117902860Y-67246295D01*
X117748082Y-67182184D01*
X117748074Y-67182182D01*
X117583771Y-67149500D01*
X117583767Y-67149500D01*
X117416233Y-67149500D01*
X117416228Y-67149500D01*
X117251925Y-67182182D01*
X117251917Y-67182184D01*
X117097139Y-67246295D01*
X116957837Y-67339373D01*
X116839373Y-67457837D01*
X116746295Y-67597139D01*
X116682184Y-67751917D01*
X116682182Y-67751925D01*
X116649500Y-67916228D01*
X104500500Y-67916228D01*
X104500500Y-65666228D01*
X116649500Y-65666228D01*
X116649500Y-65833771D01*
X116682182Y-65998074D01*
X116682184Y-65998082D01*
X116746295Y-66152860D01*
X116839373Y-66292162D01*
X116957837Y-66410626D01*
X116966229Y-66416233D01*
X117097137Y-66503703D01*
X117251918Y-66567816D01*
X117416228Y-66600499D01*
X117416232Y-66600500D01*
X117416233Y-66600500D01*
X117583768Y-66600500D01*
X117583769Y-66600499D01*
X117748082Y-66567816D01*
X117902863Y-66503703D01*
X118033778Y-66416228D01*
X142649500Y-66416228D01*
X142649500Y-66583771D01*
X142682182Y-66748074D01*
X142682184Y-66748082D01*
X142746295Y-66902860D01*
X142839373Y-67042162D01*
X142957837Y-67160626D01*
X143050494Y-67222537D01*
X143097137Y-67253703D01*
X143251918Y-67317816D01*
X143416228Y-67350499D01*
X143416232Y-67350500D01*
X143416233Y-67350500D01*
X143583768Y-67350500D01*
X143583769Y-67350499D01*
X143748082Y-67317816D01*
X143902863Y-67253703D01*
X144042162Y-67160626D01*
X144160626Y-67042162D01*
X144253703Y-66902863D01*
X144317816Y-66748082D01*
X144350500Y-66583767D01*
X144350500Y-66416233D01*
X144317816Y-66251918D01*
X144253703Y-66097137D01*
X144216970Y-66042162D01*
X144160626Y-65957837D01*
X144042162Y-65839373D01*
X143902860Y-65746295D01*
X143748082Y-65682184D01*
X143748074Y-65682182D01*
X143583771Y-65649500D01*
X143583767Y-65649500D01*
X143416233Y-65649500D01*
X143416228Y-65649500D01*
X143251925Y-65682182D01*
X143251917Y-65682184D01*
X143097139Y-65746295D01*
X142957837Y-65839373D01*
X142839373Y-65957837D01*
X142746295Y-66097139D01*
X142682184Y-66251917D01*
X142682182Y-66251925D01*
X142649500Y-66416228D01*
X118033778Y-66416228D01*
X118042162Y-66410626D01*
X118042165Y-66410623D01*
X118130329Y-66322460D01*
X118160623Y-66292165D01*
X118160626Y-66292162D01*
X118171919Y-66275261D01*
X118253703Y-66152863D01*
X118317816Y-65998082D01*
X118350500Y-65833767D01*
X118350500Y-65666233D01*
X118317816Y-65501918D01*
X118253703Y-65347137D01*
X118249595Y-65340989D01*
X130723736Y-65340989D01*
X130723736Y-65508532D01*
X130756418Y-65672835D01*
X130756420Y-65672843D01*
X130820531Y-65827621D01*
X130913609Y-65966923D01*
X131032073Y-66085387D01*
X131124730Y-66147298D01*
X131171373Y-66178464D01*
X131326154Y-66242577D01*
X131490464Y-66275260D01*
X131490468Y-66275261D01*
X131490469Y-66275261D01*
X131658004Y-66275261D01*
X131658005Y-66275260D01*
X131822318Y-66242577D01*
X131977099Y-66178464D01*
X132116398Y-66085387D01*
X132234862Y-65966923D01*
X132327939Y-65827624D01*
X132392052Y-65672843D01*
X132424736Y-65508528D01*
X132424736Y-65340994D01*
X132424735Y-65340989D01*
X135473738Y-65340989D01*
X135473738Y-65508532D01*
X135506420Y-65672835D01*
X135506422Y-65672843D01*
X135570533Y-65827621D01*
X135663611Y-65966923D01*
X135782075Y-66085387D01*
X135874732Y-66147298D01*
X135921375Y-66178464D01*
X136076156Y-66242577D01*
X136240466Y-66275260D01*
X136240470Y-66275261D01*
X136240471Y-66275261D01*
X136408006Y-66275261D01*
X136408007Y-66275260D01*
X136572320Y-66242577D01*
X136727101Y-66178464D01*
X136866400Y-66085387D01*
X136984864Y-65966923D01*
X137077941Y-65827624D01*
X137142054Y-65672843D01*
X137174738Y-65508528D01*
X137174738Y-65340994D01*
X137169812Y-65316228D01*
X156949500Y-65316228D01*
X156949500Y-65483771D01*
X156982182Y-65648074D01*
X156982184Y-65648082D01*
X157046295Y-65802860D01*
X157139373Y-65942162D01*
X157257837Y-66060626D01*
X157294895Y-66085387D01*
X157397137Y-66153703D01*
X157551918Y-66217816D01*
X157716228Y-66250499D01*
X157716232Y-66250500D01*
X157716233Y-66250500D01*
X157883768Y-66250500D01*
X157883769Y-66250499D01*
X158048082Y-66217816D01*
X158202863Y-66153703D01*
X158342162Y-66060626D01*
X158460626Y-65942162D01*
X158553703Y-65802863D01*
X158617816Y-65648082D01*
X158650500Y-65483767D01*
X158650500Y-65416228D01*
X176149500Y-65416228D01*
X176149500Y-65583771D01*
X176182182Y-65748074D01*
X176182184Y-65748082D01*
X176246295Y-65902860D01*
X176339373Y-66042162D01*
X176457837Y-66160626D01*
X176543430Y-66217817D01*
X176597137Y-66253703D01*
X176751918Y-66317816D01*
X176916228Y-66350499D01*
X176916232Y-66350500D01*
X176916233Y-66350500D01*
X177083768Y-66350500D01*
X177083769Y-66350499D01*
X177248082Y-66317816D01*
X177402863Y-66253703D01*
X177542162Y-66160626D01*
X177660626Y-66042162D01*
X177753703Y-65902863D01*
X177817816Y-65748082D01*
X177850500Y-65583767D01*
X177850500Y-65416233D01*
X177817816Y-65251918D01*
X177753703Y-65097137D01*
X177703430Y-65021898D01*
X177660626Y-64957837D01*
X177542162Y-64839373D01*
X177402860Y-64746295D01*
X177248082Y-64682184D01*
X177248074Y-64682182D01*
X177083771Y-64649500D01*
X177083767Y-64649500D01*
X176916233Y-64649500D01*
X176916228Y-64649500D01*
X176751925Y-64682182D01*
X176751917Y-64682184D01*
X176597139Y-64746295D01*
X176457837Y-64839373D01*
X176339373Y-64957837D01*
X176246295Y-65097139D01*
X176182184Y-65251917D01*
X176182182Y-65251925D01*
X176149500Y-65416228D01*
X158650500Y-65416228D01*
X158650500Y-65316233D01*
X158617816Y-65151918D01*
X158553703Y-64997137D01*
X158477171Y-64882599D01*
X158460626Y-64857837D01*
X158342162Y-64739373D01*
X158202860Y-64646295D01*
X158048082Y-64582184D01*
X158048074Y-64582182D01*
X157883771Y-64549500D01*
X157883767Y-64549500D01*
X157716233Y-64549500D01*
X157716228Y-64549500D01*
X157551925Y-64582182D01*
X157551917Y-64582184D01*
X157397139Y-64646295D01*
X157257837Y-64739373D01*
X157139373Y-64857837D01*
X157046295Y-64997139D01*
X156982184Y-65151917D01*
X156982182Y-65151925D01*
X156949500Y-65316228D01*
X137169812Y-65316228D01*
X137142054Y-65176679D01*
X137077941Y-65021898D01*
X137017996Y-64932184D01*
X136984864Y-64882598D01*
X136866400Y-64764134D01*
X136727098Y-64671056D01*
X136572320Y-64606945D01*
X136572312Y-64606943D01*
X136408009Y-64574261D01*
X136408005Y-64574261D01*
X136240471Y-64574261D01*
X136240466Y-64574261D01*
X136076163Y-64606943D01*
X136076155Y-64606945D01*
X135921377Y-64671056D01*
X135782075Y-64764134D01*
X135663611Y-64882598D01*
X135570533Y-65021900D01*
X135506422Y-65176678D01*
X135506420Y-65176686D01*
X135473738Y-65340989D01*
X132424735Y-65340989D01*
X132392052Y-65176679D01*
X132327939Y-65021898D01*
X132267994Y-64932184D01*
X132234862Y-64882598D01*
X132116398Y-64764134D01*
X131977096Y-64671056D01*
X131822318Y-64606945D01*
X131822310Y-64606943D01*
X131658007Y-64574261D01*
X131658003Y-64574261D01*
X131490469Y-64574261D01*
X131490464Y-64574261D01*
X131326161Y-64606943D01*
X131326153Y-64606945D01*
X131171375Y-64671056D01*
X131032073Y-64764134D01*
X130913609Y-64882598D01*
X130820531Y-65021900D01*
X130756420Y-65176678D01*
X130756418Y-65176686D01*
X130723736Y-65340989D01*
X118249595Y-65340989D01*
X118190084Y-65251925D01*
X118160626Y-65207837D01*
X118042162Y-65089373D01*
X117902860Y-64996295D01*
X117748082Y-64932184D01*
X117748074Y-64932182D01*
X117583771Y-64899500D01*
X117583767Y-64899500D01*
X117416233Y-64899500D01*
X117416228Y-64899500D01*
X117251925Y-64932182D01*
X117251917Y-64932184D01*
X117097139Y-64996295D01*
X116957837Y-65089373D01*
X116839373Y-65207837D01*
X116746295Y-65347139D01*
X116682184Y-65501917D01*
X116682182Y-65501925D01*
X116649500Y-65666228D01*
X104500500Y-65666228D01*
X104500500Y-62526428D01*
X128725000Y-62526428D01*
X128725000Y-62920000D01*
X129375000Y-62920000D01*
X129375000Y-63420000D01*
X128725000Y-63420000D01*
X128725000Y-63813571D01*
X128761506Y-63997097D01*
X128761508Y-63997105D01*
X128833119Y-64169991D01*
X128833124Y-64170000D01*
X128937086Y-64325589D01*
X128937089Y-64325593D01*
X129069406Y-64457910D01*
X129069410Y-64457913D01*
X129224999Y-64561875D01*
X129225012Y-64561882D01*
X129397889Y-64633489D01*
X129397896Y-64633491D01*
X129425000Y-64638882D01*
X129425000Y-63886988D01*
X129434940Y-63904205D01*
X129490795Y-63960060D01*
X129559204Y-63999556D01*
X129635504Y-64020000D01*
X129714496Y-64020000D01*
X129790796Y-63999556D01*
X129859205Y-63960060D01*
X129915060Y-63904205D01*
X129925000Y-63886988D01*
X129925000Y-64638881D01*
X129952103Y-64633491D01*
X129952110Y-64633489D01*
X130124987Y-64561882D01*
X130125000Y-64561875D01*
X130280589Y-64457913D01*
X130280593Y-64457910D01*
X130412910Y-64325593D01*
X130412913Y-64325589D01*
X130516875Y-64170000D01*
X130516880Y-64169991D01*
X130588491Y-63997105D01*
X130588493Y-63997097D01*
X130624999Y-63813571D01*
X130625000Y-63813569D01*
X130625000Y-63420000D01*
X129975000Y-63420000D01*
X129975000Y-62920000D01*
X130541310Y-62920000D01*
X130608349Y-62939685D01*
X130648696Y-62981999D01*
X130669490Y-63018015D01*
X130771984Y-63120509D01*
X130771985Y-63120510D01*
X130771987Y-63120511D01*
X130897510Y-63192982D01*
X130897511Y-63192982D01*
X130897514Y-63192984D01*
X131037524Y-63230500D01*
X131037527Y-63230500D01*
X131182471Y-63230500D01*
X131182474Y-63230500D01*
X131322484Y-63192984D01*
X131448014Y-63120509D01*
X131550508Y-63018015D01*
X131622983Y-62892485D01*
X131660499Y-62752475D01*
X131660499Y-62607525D01*
X136339501Y-62607525D01*
X136339501Y-62752475D01*
X136377017Y-62892485D01*
X136377018Y-62892488D01*
X136449489Y-63018011D01*
X136449491Y-63018013D01*
X136449492Y-63018015D01*
X136551986Y-63120509D01*
X136551987Y-63120510D01*
X136551989Y-63120511D01*
X136677512Y-63192982D01*
X136677513Y-63192982D01*
X136677516Y-63192984D01*
X136817526Y-63230500D01*
X136817529Y-63230500D01*
X136962473Y-63230500D01*
X136962476Y-63230500D01*
X137102486Y-63192984D01*
X137228016Y-63120509D01*
X137330510Y-63018015D01*
X137351303Y-62981999D01*
X137401869Y-62933785D01*
X137458690Y-62920000D01*
X138025000Y-62920000D01*
X138025000Y-63420000D01*
X137375000Y-63420000D01*
X137375000Y-63813571D01*
X137411506Y-63997097D01*
X137411508Y-63997105D01*
X137483119Y-64169991D01*
X137483124Y-64170000D01*
X137587086Y-64325589D01*
X137587089Y-64325593D01*
X137719406Y-64457910D01*
X137719410Y-64457913D01*
X137874999Y-64561875D01*
X137875012Y-64561882D01*
X138047889Y-64633489D01*
X138047896Y-64633491D01*
X138075000Y-64638882D01*
X138075000Y-63886988D01*
X138084940Y-63904205D01*
X138140795Y-63960060D01*
X138209204Y-63999556D01*
X138285504Y-64020000D01*
X138364496Y-64020000D01*
X138440796Y-63999556D01*
X138509205Y-63960060D01*
X138565060Y-63904205D01*
X138575000Y-63886988D01*
X138575000Y-64638881D01*
X138602103Y-64633491D01*
X138602110Y-64633489D01*
X138774987Y-64561882D01*
X138775000Y-64561875D01*
X138930589Y-64457913D01*
X138930593Y-64457910D01*
X139022275Y-64366228D01*
X165599499Y-64366228D01*
X165599499Y-64533771D01*
X165632181Y-64698074D01*
X165632183Y-64698082D01*
X165696294Y-64852860D01*
X165789372Y-64992162D01*
X165907836Y-65110626D01*
X165969645Y-65151925D01*
X166047136Y-65203703D01*
X166047137Y-65203703D01*
X166047138Y-65203704D01*
X166082200Y-65218227D01*
X166201917Y-65267816D01*
X166366227Y-65300499D01*
X166366231Y-65300500D01*
X166366232Y-65300500D01*
X166533767Y-65300500D01*
X166533767Y-65300499D01*
X166563661Y-65294553D01*
X166593976Y-65288524D01*
X166636537Y-65280057D01*
X166698081Y-65267816D01*
X166852862Y-65203703D01*
X166992161Y-65110626D01*
X167110625Y-64992162D01*
X167203702Y-64852863D01*
X167267815Y-64698082D01*
X167300499Y-64533767D01*
X167300499Y-64366233D01*
X167267815Y-64201918D01*
X167203702Y-64047137D01*
X167145519Y-63960060D01*
X167110625Y-63907837D01*
X166992161Y-63789373D01*
X166852859Y-63696295D01*
X166698081Y-63632184D01*
X166698073Y-63632182D01*
X166533770Y-63599500D01*
X166533766Y-63599500D01*
X166366232Y-63599500D01*
X166366227Y-63599500D01*
X166201924Y-63632182D01*
X166201916Y-63632184D01*
X166047138Y-63696295D01*
X165907836Y-63789373D01*
X165789372Y-63907837D01*
X165696294Y-64047139D01*
X165632183Y-64201917D01*
X165632181Y-64201925D01*
X165599499Y-64366228D01*
X139022275Y-64366228D01*
X139062910Y-64325593D01*
X139062913Y-64325589D01*
X139085859Y-64291250D01*
X139166875Y-64170000D01*
X139166880Y-64169991D01*
X139238491Y-63997105D01*
X139238493Y-63997097D01*
X139274999Y-63813571D01*
X139275000Y-63813569D01*
X139275000Y-63420000D01*
X138625000Y-63420000D01*
X138625000Y-62920000D01*
X139275000Y-62920000D01*
X139275000Y-62666228D01*
X161899500Y-62666228D01*
X161899500Y-62833771D01*
X161932182Y-62998074D01*
X161932184Y-62998082D01*
X161996295Y-63152860D01*
X162089373Y-63292162D01*
X162207837Y-63410626D01*
X162300494Y-63472537D01*
X162347137Y-63503703D01*
X162501918Y-63567816D01*
X162661206Y-63599500D01*
X162666228Y-63600499D01*
X162666232Y-63600500D01*
X162666233Y-63600500D01*
X162833768Y-63600500D01*
X162833769Y-63600499D01*
X162998082Y-63567816D01*
X163152863Y-63503703D01*
X163292162Y-63410626D01*
X163410626Y-63292162D01*
X163503703Y-63152863D01*
X163567816Y-62998082D01*
X163600500Y-62833767D01*
X163600500Y-62666233D01*
X163567816Y-62501918D01*
X163503703Y-62347137D01*
X163463695Y-62287261D01*
X163410626Y-62207837D01*
X163292162Y-62089373D01*
X163152860Y-61996295D01*
X162998082Y-61932184D01*
X162998074Y-61932182D01*
X162833771Y-61899500D01*
X162833767Y-61899500D01*
X162666233Y-61899500D01*
X162666228Y-61899500D01*
X162501925Y-61932182D01*
X162501917Y-61932184D01*
X162347139Y-61996295D01*
X162207837Y-62089373D01*
X162089373Y-62207837D01*
X161996295Y-62347139D01*
X161932184Y-62501917D01*
X161932182Y-62501925D01*
X161899500Y-62666228D01*
X139275000Y-62666228D01*
X139275000Y-62526430D01*
X139274999Y-62526428D01*
X139238493Y-62342902D01*
X139238491Y-62342894D01*
X139166880Y-62170008D01*
X139166875Y-62169999D01*
X139062913Y-62014410D01*
X139062910Y-62014406D01*
X138930593Y-61882089D01*
X138930589Y-61882086D01*
X138775000Y-61778124D01*
X138774991Y-61778119D01*
X138602103Y-61706507D01*
X138602100Y-61706506D01*
X138575000Y-61701115D01*
X138575000Y-62453011D01*
X138565060Y-62435795D01*
X138509205Y-62379940D01*
X138440796Y-62340444D01*
X138364496Y-62320000D01*
X138285504Y-62320000D01*
X138209204Y-62340444D01*
X138140795Y-62379940D01*
X138084940Y-62435795D01*
X138075000Y-62453011D01*
X138075000Y-61701116D01*
X138074999Y-61701115D01*
X138047899Y-61706506D01*
X138047896Y-61706507D01*
X137875008Y-61778119D01*
X137874999Y-61778124D01*
X137719410Y-61882086D01*
X137719406Y-61882089D01*
X137587089Y-62014406D01*
X137587086Y-62014410D01*
X137483124Y-62169999D01*
X137483121Y-62170006D01*
X137459068Y-62228074D01*
X137415226Y-62282477D01*
X137348932Y-62304541D01*
X137281233Y-62287261D01*
X137256826Y-62268301D01*
X137228018Y-62239493D01*
X137228012Y-62239488D01*
X137102489Y-62167017D01*
X137102490Y-62167017D01*
X137091007Y-62163940D01*
X136962476Y-62129500D01*
X136817526Y-62129500D01*
X136688994Y-62163940D01*
X136677512Y-62167017D01*
X136551989Y-62239488D01*
X136551983Y-62239493D01*
X136449494Y-62341982D01*
X136449489Y-62341988D01*
X136377018Y-62467511D01*
X136377017Y-62467515D01*
X136339501Y-62607525D01*
X131660499Y-62607525D01*
X131622983Y-62467515D01*
X131621530Y-62464999D01*
X131550510Y-62341988D01*
X131550505Y-62341982D01*
X131448016Y-62239493D01*
X131448010Y-62239488D01*
X131322487Y-62167017D01*
X131322488Y-62167017D01*
X131311005Y-62163940D01*
X131182474Y-62129500D01*
X131037524Y-62129500D01*
X130908992Y-62163940D01*
X130897510Y-62167017D01*
X130771987Y-62239488D01*
X130743172Y-62268303D01*
X130681848Y-62301787D01*
X130612157Y-62296801D01*
X130556224Y-62254929D01*
X130540931Y-62228072D01*
X130516882Y-62170012D01*
X130516875Y-62169999D01*
X130412913Y-62014410D01*
X130412910Y-62014406D01*
X130280593Y-61882089D01*
X130280589Y-61882086D01*
X130125000Y-61778124D01*
X130124991Y-61778119D01*
X129952103Y-61706507D01*
X129952100Y-61706506D01*
X129925000Y-61701115D01*
X129925000Y-62453011D01*
X129915060Y-62435795D01*
X129859205Y-62379940D01*
X129790796Y-62340444D01*
X129714496Y-62320000D01*
X129635504Y-62320000D01*
X129559204Y-62340444D01*
X129490795Y-62379940D01*
X129434940Y-62435795D01*
X129425000Y-62453011D01*
X129425000Y-61701116D01*
X129424999Y-61701115D01*
X129397899Y-61706506D01*
X129397896Y-61706507D01*
X129225008Y-61778119D01*
X129224999Y-61778124D01*
X129069410Y-61882086D01*
X129069406Y-61882089D01*
X128937089Y-62014406D01*
X128937086Y-62014410D01*
X128833124Y-62169999D01*
X128833119Y-62170008D01*
X128761508Y-62342894D01*
X128761506Y-62342902D01*
X128725000Y-62526428D01*
X104500500Y-62526428D01*
X104500500Y-62002706D01*
X104500618Y-61997297D01*
X104505648Y-61882086D01*
X104517386Y-61613226D01*
X104518326Y-61602495D01*
X104568152Y-61224025D01*
X104570025Y-61213405D01*
X104652649Y-60840709D01*
X104655440Y-60830295D01*
X104680757Y-60750000D01*
X142902970Y-60750000D01*
X143845854Y-60750000D01*
X143807370Y-60816657D01*
X143775000Y-60937465D01*
X143775000Y-61062535D01*
X143807370Y-61183343D01*
X143845854Y-61250000D01*
X142902970Y-61250000D01*
X142933242Y-61441127D01*
X142933242Y-61441130D01*
X142998904Y-61643217D01*
X143095379Y-61832557D01*
X143220272Y-62004459D01*
X143220276Y-62004464D01*
X143370535Y-62154723D01*
X143370540Y-62154727D01*
X143542442Y-62279620D01*
X143731782Y-62376095D01*
X143933871Y-62441757D01*
X144000000Y-62452231D01*
X144000000Y-61404145D01*
X144066657Y-61442630D01*
X144187465Y-61475000D01*
X144312535Y-61475000D01*
X144433343Y-61442630D01*
X144500000Y-61404145D01*
X144500000Y-62452230D01*
X144566126Y-62441757D01*
X144566129Y-62441757D01*
X144768217Y-62376095D01*
X144957557Y-62279620D01*
X145129459Y-62154727D01*
X145129464Y-62154723D01*
X145279721Y-62004466D01*
X145399371Y-61839781D01*
X145454701Y-61797115D01*
X145524314Y-61791136D01*
X145586110Y-61823741D01*
X145600008Y-61839781D01*
X145719890Y-62004785D01*
X145719894Y-62004790D01*
X145870213Y-62155109D01*
X146042179Y-62280048D01*
X146042181Y-62280049D01*
X146042184Y-62280051D01*
X146231588Y-62376557D01*
X146433757Y-62442246D01*
X146643713Y-62475500D01*
X146643714Y-62475500D01*
X146856286Y-62475500D01*
X146856287Y-62475500D01*
X147066243Y-62442246D01*
X147268412Y-62376557D01*
X147457816Y-62280051D01*
X147513640Y-62239493D01*
X147629786Y-62155109D01*
X147629788Y-62155106D01*
X147629792Y-62155104D01*
X147780104Y-62004792D01*
X147899683Y-61840204D01*
X147955011Y-61797540D01*
X148024624Y-61791561D01*
X148086420Y-61824166D01*
X148100313Y-61840199D01*
X148203925Y-61982809D01*
X148219896Y-62004792D01*
X148370213Y-62155109D01*
X148542179Y-62280048D01*
X148542181Y-62280049D01*
X148542184Y-62280051D01*
X148731588Y-62376557D01*
X148933757Y-62442246D01*
X149143713Y-62475500D01*
X149143714Y-62475500D01*
X149356286Y-62475500D01*
X149356287Y-62475500D01*
X149566243Y-62442246D01*
X149768412Y-62376557D01*
X149957816Y-62280051D01*
X150113395Y-62167017D01*
X150129784Y-62155110D01*
X150129784Y-62155109D01*
X150129792Y-62155104D01*
X150268604Y-62016291D01*
X150329923Y-61982809D01*
X150399615Y-61987793D01*
X150455549Y-62029664D01*
X150461821Y-62038878D01*
X150465185Y-62044333D01*
X150465186Y-62044334D01*
X150557288Y-62193656D01*
X150681344Y-62317712D01*
X150830666Y-62409814D01*
X150997203Y-62464999D01*
X151099991Y-62475500D01*
X152400008Y-62475499D01*
X152502797Y-62464999D01*
X152669334Y-62409814D01*
X152818656Y-62317712D01*
X152942712Y-62193656D01*
X153034814Y-62044334D01*
X153089999Y-61877797D01*
X153100500Y-61775009D01*
X153100499Y-60916228D01*
X172149500Y-60916228D01*
X172149500Y-61083771D01*
X172182182Y-61248074D01*
X172182184Y-61248082D01*
X172246295Y-61402860D01*
X172339373Y-61542162D01*
X172457837Y-61660626D01*
X172518435Y-61701116D01*
X172597137Y-61753703D01*
X172751918Y-61817816D01*
X172916228Y-61850499D01*
X172916232Y-61850500D01*
X172916233Y-61850500D01*
X173083768Y-61850500D01*
X173083769Y-61850499D01*
X173248082Y-61817816D01*
X173402863Y-61753703D01*
X173542162Y-61660626D01*
X173660626Y-61542162D01*
X173753703Y-61402863D01*
X173817816Y-61248082D01*
X173850500Y-61083767D01*
X173850500Y-60916233D01*
X173850499Y-60916228D01*
X174149500Y-60916228D01*
X174149500Y-61083771D01*
X174182182Y-61248074D01*
X174182184Y-61248082D01*
X174246295Y-61402860D01*
X174339373Y-61542162D01*
X174457837Y-61660626D01*
X174518435Y-61701116D01*
X174597137Y-61753703D01*
X174751918Y-61817816D01*
X174916228Y-61850499D01*
X174916232Y-61850500D01*
X174916233Y-61850500D01*
X175083768Y-61850500D01*
X175083769Y-61850499D01*
X175248082Y-61817816D01*
X175402863Y-61753703D01*
X175542162Y-61660626D01*
X175660626Y-61542162D01*
X175753703Y-61402863D01*
X175817816Y-61248082D01*
X175850500Y-61083767D01*
X175850500Y-60916233D01*
X175817816Y-60751918D01*
X175753703Y-60597137D01*
X175722537Y-60550494D01*
X175660626Y-60457837D01*
X175542162Y-60339373D01*
X175402860Y-60246295D01*
X175248082Y-60182184D01*
X175248074Y-60182182D01*
X175083771Y-60149500D01*
X175083767Y-60149500D01*
X174916233Y-60149500D01*
X174916228Y-60149500D01*
X174751925Y-60182182D01*
X174751917Y-60182184D01*
X174597139Y-60246295D01*
X174457837Y-60339373D01*
X174339373Y-60457837D01*
X174246295Y-60597139D01*
X174182184Y-60751917D01*
X174182182Y-60751925D01*
X174149500Y-60916228D01*
X173850499Y-60916228D01*
X173817816Y-60751918D01*
X173753703Y-60597137D01*
X173722537Y-60550494D01*
X173660626Y-60457837D01*
X173542162Y-60339373D01*
X173402860Y-60246295D01*
X173248082Y-60182184D01*
X173248074Y-60182182D01*
X173083771Y-60149500D01*
X173083767Y-60149500D01*
X172916233Y-60149500D01*
X172916228Y-60149500D01*
X172751925Y-60182182D01*
X172751917Y-60182184D01*
X172597139Y-60246295D01*
X172457837Y-60339373D01*
X172339373Y-60457837D01*
X172246295Y-60597139D01*
X172182184Y-60751917D01*
X172182182Y-60751925D01*
X172149500Y-60916228D01*
X153100499Y-60916228D01*
X153100499Y-60224992D01*
X153098851Y-60208863D01*
X153089999Y-60122203D01*
X153089998Y-60122200D01*
X153082121Y-60098429D01*
X153034814Y-59955666D01*
X152942712Y-59806344D01*
X152818656Y-59682288D01*
X152669334Y-59590186D01*
X152502797Y-59535001D01*
X152502795Y-59535000D01*
X152400010Y-59524500D01*
X151099998Y-59524500D01*
X151099981Y-59524501D01*
X150997203Y-59535000D01*
X150997200Y-59535001D01*
X150830668Y-59590185D01*
X150830663Y-59590187D01*
X150681342Y-59682289D01*
X150557289Y-59806342D01*
X150461821Y-59961121D01*
X150409873Y-60007845D01*
X150340910Y-60019068D01*
X150276828Y-59991224D01*
X150268601Y-59983705D01*
X150129786Y-59844890D01*
X149957820Y-59719951D01*
X149768414Y-59623444D01*
X149768413Y-59623443D01*
X149768412Y-59623443D01*
X149566243Y-59557754D01*
X149566241Y-59557753D01*
X149566240Y-59557753D01*
X149404957Y-59532208D01*
X149356287Y-59524500D01*
X149143713Y-59524500D01*
X149095042Y-59532208D01*
X148933760Y-59557753D01*
X148731585Y-59623444D01*
X148542179Y-59719951D01*
X148370213Y-59844890D01*
X148219894Y-59995209D01*
X148219890Y-59995214D01*
X148100318Y-60159793D01*
X148044989Y-60202459D01*
X147975375Y-60208438D01*
X147913580Y-60175833D01*
X147899682Y-60159793D01*
X147780109Y-59995214D01*
X147780105Y-59995209D01*
X147629786Y-59844890D01*
X147457820Y-59719951D01*
X147268414Y-59623444D01*
X147268413Y-59623443D01*
X147268412Y-59623443D01*
X147066243Y-59557754D01*
X147066241Y-59557753D01*
X147066240Y-59557753D01*
X146904957Y-59532208D01*
X146856287Y-59524500D01*
X146643713Y-59524500D01*
X146595042Y-59532208D01*
X146433760Y-59557753D01*
X146231585Y-59623444D01*
X146042179Y-59719951D01*
X145870213Y-59844890D01*
X145719894Y-59995209D01*
X145719890Y-59995214D01*
X145600008Y-60160218D01*
X145544678Y-60202884D01*
X145475065Y-60208863D01*
X145413270Y-60176257D01*
X145399372Y-60160218D01*
X145279727Y-59995540D01*
X145279723Y-59995535D01*
X145129464Y-59845276D01*
X145129459Y-59845272D01*
X144957557Y-59720379D01*
X144768215Y-59623903D01*
X144566124Y-59558241D01*
X144500000Y-59547768D01*
X144500000Y-60595854D01*
X144433343Y-60557370D01*
X144312535Y-60525000D01*
X144187465Y-60525000D01*
X144066657Y-60557370D01*
X144000000Y-60595854D01*
X144000000Y-59547768D01*
X143999999Y-59547768D01*
X143933875Y-59558241D01*
X143731784Y-59623903D01*
X143542442Y-59720379D01*
X143370540Y-59845272D01*
X143370535Y-59845276D01*
X143220276Y-59995535D01*
X143220272Y-59995540D01*
X143095379Y-60167442D01*
X142998904Y-60356782D01*
X142933242Y-60558869D01*
X142933242Y-60558872D01*
X142902970Y-60750000D01*
X104680757Y-60750000D01*
X104770230Y-60466227D01*
X104773917Y-60456095D01*
X104920003Y-60103412D01*
X104924561Y-60093638D01*
X105100822Y-59755045D01*
X105106217Y-59745700D01*
X105311325Y-59423744D01*
X105317515Y-59414905D01*
X105549896Y-59112060D01*
X105556834Y-59103791D01*
X105814726Y-58822352D01*
X105822352Y-58814726D01*
X106103791Y-58556834D01*
X106112060Y-58549896D01*
X106414905Y-58317515D01*
X106423744Y-58311325D01*
X106745700Y-58106217D01*
X106755045Y-58100822D01*
X107093638Y-57924561D01*
X107103412Y-57920003D01*
X107456095Y-57773917D01*
X107466227Y-57770230D01*
X107830295Y-57655440D01*
X107840709Y-57652649D01*
X108213405Y-57570025D01*
X108224025Y-57568152D01*
X108602495Y-57518326D01*
X108613226Y-57517386D01*
X108997297Y-57500617D01*
X109002706Y-57500500D01*
X109065892Y-57500500D01*
X121247355Y-57500500D01*
X121314394Y-57520185D01*
G37*
%TD.AperFunction*%
%TD*%
M02*
