M48
; DRILL file {KiCad 9.0.5} date 2026-02-06T18:32:03+1300
; FORMAT={-:-/ absolute / metric / decimal}
; #@! TF.CreationDate,2026-02-06T18:32:03+13:00
; #@! TF.GenerationSoftware,Kicad,Pcbnew,9.0.5
; #@! TF.FileFunction,Plated,1,4,PTH
FMAT,2
METRIC
; #@! TA.AperFunction,Plated,PTH,ViaDrill
T1C0.400
; #@! TA.AperFunction,Plated,PTH,ComponentDrill
T2C0.600
; #@! TA.AperFunction,Plated,PTH,ComponentDrill
T3C0.800
; #@! TA.AperFunction,Plated,PTH,ComponentDrill
T4C0.900
; #@! TA.AperFunction,Plated,PTH,ComponentDrill
T5C0.950
; #@! TA.AperFunction,Plated,PTH,ComponentDrill
T6C1.000
; #@! TA.AperFunction,Plated,PTH,ComponentDrill
T7C3.200
%
G90
G05
T1
X115.0Y-125.25
X117.5Y-65.75
X117.5Y-68.0
X122.0Y-58.25
X123.0Y-103.5
X124.206Y-93.472
X124.46Y-97.536
X124.46Y-99.568
X124.968Y-88.392
X126.492Y-91.44
X127.0Y-121.25
X127.0Y-123.0
X127.75Y-96.0
X127.75Y-97.25
X128.524Y-90.424
X129.0Y-96.0
X129.074Y-67.425
X129.25Y-80.0
X129.54Y-89.408
X129.54Y-91.44
X129.75Y-87.75
X130.5Y-98.25
X130.75Y-77.25
X130.75Y-78.5
X130.75Y-82.5
X131.5Y-97.25
X131.574Y-65.425
X132.0Y-80.75
X132.0Y-82.0
X132.25Y-78.5
X132.5Y-96.25
X132.54Y-95.268
X132.842Y-90.932
X132.842Y-91.948
X133.186Y-99.247
X133.25Y-78.5
X133.35Y-93.472
X133.5Y-76.0
X133.5Y-102.0
X133.604Y-96.266
X133.858Y-91.948
X134.25Y-78.5
X134.25Y-111.5
X134.5Y-125.25
X135.25Y-103.75
X135.5Y-96.25
X136.324Y-65.425
X136.398Y-73.152
X136.45Y-101.5
X136.5Y-102.5
X137.25Y-96.0
X138.0Y-101.5
X138.25Y-96.0
X138.324Y-67.425
X138.75Y-85.25
X139.0Y-80.75
X139.5Y-95.5
X140.5Y-106.75
X140.5Y-95.75
X141.25Y-101.0
X142.25Y-96.0
X142.25Y-101.0
X142.5Y-106.75
X143.25Y-96.0
X143.5Y-66.5
X143.5Y-100.75
X143.75Y-105.25
X144.25Y-94.5
X144.5Y-99.75
X145.0Y-84.0
X145.0Y-85.0
X145.001Y-95.579
X145.034Y-93.98
X146.0Y-98.0
X146.5Y-82.75
X146.5Y-121.25
X146.5Y-123.0
X147.5Y-81.75
X147.5Y-97.0
X148.75Y-98.25
X150.5Y-82.75
X150.5Y-83.75
X150.5Y-98.25
X150.5Y-105.5
X151.5Y-85.0
X151.5Y-97.0
X151.75Y-95.0
X151.75Y-96.0
X152.908Y-94.996
X155.5Y-125.25
X157.8Y-65.4
X162.75Y-62.75
X164.25Y-97.5
X164.25Y-99.5
X165.75Y-101.0
X166.45Y-64.45
X166.5Y-68.5
X166.5Y-71.0
X167.75Y-121.25
X167.75Y-123.0
X168.5Y-102.5
X170.75Y-104.25
X171.25Y-95.75
X171.25Y-97.5
X171.25Y-99.5
X171.5Y-64.0
X171.5Y-65.0
X171.75Y-80.75
X171.75Y-125.25
X172.0Y-102.75
X172.0Y-101.0
X172.5Y-104.25
X173.0Y-61.0
X173.75Y-107.0
X173.75Y-108.25
X175.0Y-107.0
X175.0Y-108.25
X175.0Y-61.0
X176.0Y-80.75
X176.25Y-96.0
X176.25Y-97.75
X176.25Y-99.75
X176.25Y-101.75
X176.25Y-111.5
X176.45Y-72.7
X176.45Y-71.7
X177.0Y-65.5
X177.0Y-67.5
X178.25Y-96.0
X180.25Y-96.0
X184.0Y-121.25
X184.0Y-123.0
T3
X155.0Y-84.5
X157.0Y-84.5
X159.0Y-84.5
X161.0Y-84.5
T4
X148.23Y-125.5
X150.77Y-125.5
T5
X144.25Y-61.0
X146.75Y-61.0
X148.75Y-73.0
X149.25Y-61.0
X151.25Y-73.0
X151.75Y-61.0
X153.75Y-73.0
X156.25Y-73.0
X158.75Y-73.0
X161.25Y-73.0
X191.5Y-73.5
X191.5Y-76.0
X191.5Y-78.5
X191.5Y-81.0
T6
X107.696Y-76.2
X107.696Y-78.74
X107.696Y-81.28
X107.696Y-83.82
X107.696Y-86.36
X107.696Y-88.9
X107.696Y-91.44
X107.696Y-93.98
X107.696Y-96.52
X107.696Y-99.06
X107.696Y-101.6
X107.696Y-104.14
X107.696Y-106.68
X107.696Y-109.22
X188.468Y-88.9
X188.468Y-91.44
X188.468Y-93.98
X188.468Y-96.52
T7
X109.0Y-62.0
X109.0Y-124.0
X190.0Y-62.0
X190.0Y-124.0
T2
G00X129.675Y-59.4
M15
G01X129.675Y-58.6
M16
G05
G00X129.675Y-63.72
M15
G01X129.675Y-62.62
M16
G05
G00X138.325Y-59.4
M15
G01X138.325Y-58.6
M16
G05
G00X138.325Y-63.72
M15
G01X138.325Y-62.62
M16
G05
M30
