%TF.GenerationSoftware,KiCad,Pcbnew,9.0.5*%
%TF.CreationDate,2026-02-06T18:32:06+13:00*%
%TF.ProjectId,ShroomShed_MKII_PCB,5368726f-6f6d-4536-9865-645f4d4b4949,rev?*%
%TF.SameCoordinates,Original*%
%TF.FileFunction,Paste,Top*%
%TF.FilePolarity,Positive*%
%FSLAX46Y46*%
G04 Gerber Fmt 4.6, Leading zero omitted, Abs format (unit mm)*
G04 Created by KiCad (PCBNEW 9.0.5) date 2026-02-06 18:32:06*
%MOMM*%
%LPD*%
G01*
G04 APERTURE LIST*
G04 Aperture macros list*
%AMRoundRect*
0 Rectangle with rounded corners*
0 $1 Rounding radius*
0 $2 $3 $4 $5 $6 $7 $8 $9 X,Y pos of 4 corners*
0 Add a 4 corners polygon primitive as box body*
4,1,4,$2,$3,$4,$5,$6,$7,$8,$9,$2,$3,0*
0 Add four circle primitives for the rounded corners*
1,1,$1+$1,$2,$3*
1,1,$1+$1,$4,$5*
1,1,$1+$1,$6,$7*
1,1,$1+$1,$8,$9*
0 Add four rect primitives between the rounded corners*
20,1,$1+$1,$2,$3,$4,$5,0*
20,1,$1+$1,$4,$5,$6,$7,0*
20,1,$1+$1,$6,$7,$8,$9,0*
20,1,$1+$1,$8,$9,$2,$3,0*%
G04 Aperture macros list end*
%ADD10RoundRect,0.225000X0.225000X0.250000X-0.225000X0.250000X-0.225000X-0.250000X0.225000X-0.250000X0*%
%ADD11R,1.100000X2.000000*%
%ADD12RoundRect,0.225000X-0.225000X-0.250000X0.225000X-0.250000X0.225000X0.250000X-0.225000X0.250000X0*%
%ADD13RoundRect,0.200000X0.200000X0.275000X-0.200000X0.275000X-0.200000X-0.275000X0.200000X-0.275000X0*%
%ADD14RoundRect,0.200000X0.275000X-0.200000X0.275000X0.200000X-0.275000X0.200000X-0.275000X-0.200000X0*%
%ADD15R,3.200400X0.990600*%
%ADD16RoundRect,0.200000X-0.275000X0.200000X-0.275000X-0.200000X0.275000X-0.200000X0.275000X0.200000X0*%
%ADD17RoundRect,0.200000X-0.200000X-0.275000X0.200000X-0.275000X0.200000X0.275000X-0.200000X0.275000X0*%
%ADD18R,0.600000X1.140000*%
%ADD19R,0.300000X1.140000*%
%ADD20RoundRect,0.250000X0.250000X0.475000X-0.250000X0.475000X-0.250000X-0.475000X0.250000X-0.475000X0*%
%ADD21RoundRect,0.250000X-1.500000X-0.550000X1.500000X-0.550000X1.500000X0.550000X-1.500000X0.550000X0*%
%ADD22R,2.200000X1.500000*%
%ADD23RoundRect,0.250001X-0.462499X-1.074999X0.462499X-1.074999X0.462499X1.074999X-0.462499X1.074999X0*%
%ADD24RoundRect,0.150000X-0.825000X-0.150000X0.825000X-0.150000X0.825000X0.150000X-0.825000X0.150000X0*%
%ADD25RoundRect,0.225000X-0.250000X0.225000X-0.250000X-0.225000X0.250000X-0.225000X0.250000X0.225000X0*%
%ADD26RoundRect,0.250000X-0.450000X-0.350000X0.450000X-0.350000X0.450000X0.350000X-0.450000X0.350000X0*%
%ADD27RoundRect,0.375000X0.625000X0.375000X-0.625000X0.375000X-0.625000X-0.375000X0.625000X-0.375000X0*%
%ADD28RoundRect,0.500000X0.500000X1.400000X-0.500000X1.400000X-0.500000X-1.400000X0.500000X-1.400000X0*%
%ADD29R,0.740000X2.400000*%
%ADD30RoundRect,0.150000X0.587500X0.150000X-0.587500X0.150000X-0.587500X-0.150000X0.587500X-0.150000X0*%
%ADD31R,0.350000X0.800000*%
%ADD32R,0.500000X0.300000*%
%ADD33RoundRect,0.150000X-0.150000X0.512500X-0.150000X-0.512500X0.150000X-0.512500X0.150000X0.512500X0*%
%ADD34RoundRect,0.125000X-0.687500X-0.125000X0.687500X-0.125000X0.687500X0.125000X-0.687500X0.125000X0*%
%ADD35RoundRect,0.075000X0.075000X-0.725000X0.075000X0.725000X-0.075000X0.725000X-0.075000X-0.725000X0*%
%ADD36RoundRect,0.075000X0.725000X-0.075000X0.725000X0.075000X-0.725000X0.075000X-0.725000X-0.075000X0*%
%ADD37RoundRect,0.225000X0.250000X-0.225000X0.250000X0.225000X-0.250000X0.225000X-0.250000X-0.225000X0*%
%ADD38RoundRect,0.150000X0.150000X0.500000X-0.150000X0.500000X-0.150000X-0.500000X0.150000X-0.500000X0*%
%ADD39RoundRect,0.175000X0.350000X0.175000X-0.350000X0.175000X-0.350000X-0.175000X0.350000X-0.175000X0*%
%ADD40RoundRect,0.218750X0.218750X0.256250X-0.218750X0.256250X-0.218750X-0.256250X0.218750X-0.256250X0*%
%ADD41RoundRect,0.250000X-1.000000X-0.650000X1.000000X-0.650000X1.000000X0.650000X-1.000000X0.650000X0*%
%ADD42RoundRect,0.250000X-0.250000X-0.475000X0.250000X-0.475000X0.250000X0.475000X-0.250000X0.475000X0*%
G04 APERTURE END LIST*
D10*
%TO.C,C25*%
X133775001Y-77250000D03*
X132225001Y-77250000D03*
%TD*%
D11*
%TO.C,D4*%
X122050000Y-118650000D03*
X123750000Y-118650000D03*
X125450000Y-118650000D03*
X125450000Y-113850000D03*
X123750000Y-113850000D03*
X122050000Y-113850000D03*
%TD*%
D12*
%TO.C,C22*%
X132225000Y-79749999D03*
X133775000Y-79749999D03*
%TD*%
D13*
%TO.C,R2*%
X137149237Y-67424761D03*
X135499237Y-67424761D03*
%TD*%
D14*
%TO.C,R5*%
X169550001Y-99174999D03*
X169550001Y-97524999D03*
%TD*%
D12*
%TO.C,C21*%
X129000000Y-97250000D03*
X130550000Y-97250000D03*
%TD*%
%TO.C,C12*%
X172963000Y-80701999D03*
X174513000Y-80701999D03*
%TD*%
%TO.C,C3*%
X124224999Y-121250001D03*
X125774999Y-121250001D03*
%TD*%
D13*
%TO.C,R1*%
X182825002Y-125000002D03*
X181175002Y-125000002D03*
%TD*%
D15*
%TO.C,SW1*%
X115600002Y-105999999D03*
X115600002Y-110000001D03*
X122399998Y-110000001D03*
X122399998Y-105999999D03*
%TD*%
D16*
%TO.C,R7*%
X167549998Y-105450000D03*
X167549998Y-107100000D03*
%TD*%
D14*
%TO.C,R15*%
X152750000Y-108825000D03*
X152750000Y-107175000D03*
%TD*%
D13*
%TO.C,R14*%
X121575000Y-103500000D03*
X119925000Y-103500000D03*
%TD*%
D17*
%TO.C,R21*%
X180075000Y-72800000D03*
X181725000Y-72800000D03*
%TD*%
%TO.C,R8*%
X165725001Y-99599998D03*
X167375001Y-99599998D03*
%TD*%
D13*
%TO.C,R3*%
X182825001Y-123000001D03*
X181175001Y-123000001D03*
%TD*%
D18*
%TO.C,J1*%
X137200000Y-63750000D03*
X136400000Y-63750000D03*
D19*
X135250000Y-63750000D03*
X134250000Y-63750000D03*
X133750000Y-63750000D03*
X132750000Y-63750000D03*
D18*
X130800000Y-63750000D03*
X131600000Y-63750000D03*
D19*
X132250000Y-63750000D03*
X133250000Y-63750000D03*
X134750000Y-63750000D03*
X135750000Y-63750000D03*
%TD*%
D10*
%TO.C,C26*%
X149025000Y-82750000D03*
X147475000Y-82750000D03*
%TD*%
D13*
%TO.C,R4*%
X125824998Y-123000001D03*
X124174998Y-123000001D03*
%TD*%
D11*
%TO.C,D2*%
X182699998Y-113850000D03*
X180999998Y-113850000D03*
X179299998Y-113850000D03*
X179299998Y-118650000D03*
X180999998Y-118650000D03*
X182699998Y-118650000D03*
%TD*%
D13*
%TO.C,R17*%
X150825000Y-66250000D03*
X149175000Y-66250000D03*
%TD*%
D12*
%TO.C,C7*%
X164725001Y-121250001D03*
X166275001Y-121250001D03*
%TD*%
D11*
%TO.C,D6*%
X110550000Y-118650000D03*
X112250000Y-118650000D03*
X113950000Y-118650000D03*
X113950000Y-113850000D03*
X112250000Y-113850000D03*
X110550000Y-113850000D03*
%TD*%
D12*
%TO.C,C28*%
X136475000Y-100250000D03*
X138025000Y-100250000D03*
%TD*%
D20*
%TO.C,C16*%
X175199999Y-64500000D03*
X173300001Y-64500000D03*
%TD*%
D21*
%TO.C,C15*%
X178800000Y-63500000D03*
X184200000Y-63500000D03*
%TD*%
D22*
%TO.C,L1*%
X181000000Y-97550000D03*
X181000000Y-103950000D03*
%TD*%
D23*
%TO.C,F1*%
X167612498Y-61000000D03*
X170587498Y-61000000D03*
%TD*%
D24*
%TO.C,U6*%
X136524998Y-121345000D03*
X136524998Y-122615000D03*
X136524998Y-123885000D03*
X136524998Y-125155000D03*
X141474998Y-125155000D03*
X141474998Y-123885000D03*
X141474998Y-122615000D03*
X141474998Y-121345000D03*
%TD*%
D25*
%TO.C,C9*%
X170750001Y-105475000D03*
X170750001Y-107025000D03*
%TD*%
D26*
%TO.C,Y1*%
X138400000Y-105350000D03*
X140600000Y-105350000D03*
X140600000Y-103650000D03*
X138400000Y-103650000D03*
%TD*%
D27*
%TO.C,U8*%
X174599998Y-72000000D03*
X174599997Y-69700000D03*
D28*
X168299999Y-69700000D03*
D27*
X174599998Y-67400000D03*
%TD*%
D11*
%TO.C,D10*%
X152550002Y-118650001D03*
X154250002Y-118650001D03*
X155950002Y-118650001D03*
X155950002Y-113850001D03*
X154250002Y-113850001D03*
X152550002Y-113850001D03*
%TD*%
D13*
%TO.C,R11*%
X145324999Y-123000001D03*
X143674999Y-123000001D03*
%TD*%
D16*
%TO.C,R13*%
X176371000Y-77867000D03*
X176371000Y-79517000D03*
%TD*%
D29*
%TO.C,J5*%
X123310000Y-60050000D03*
X123310000Y-63950000D03*
X122040000Y-60050000D03*
X122040000Y-63950000D03*
X120770000Y-60050000D03*
X120770000Y-63950000D03*
X119500000Y-60050000D03*
X119500000Y-63950000D03*
X118230000Y-60050000D03*
X118230000Y-63950000D03*
X116960000Y-60050000D03*
X116960000Y-63950000D03*
X115690000Y-60050000D03*
X115690000Y-63950000D03*
%TD*%
D30*
%TO.C,Q1*%
X150437500Y-108950000D03*
X150437500Y-107050000D03*
X148562499Y-108000000D03*
%TD*%
D31*
%TO.C,U7*%
X173751000Y-78448000D03*
D32*
X174701000Y-78923000D03*
X174701000Y-77973000D03*
X172801000Y-77973000D03*
X172801000Y-78923000D03*
%TD*%
D24*
%TO.C,U1*%
X173775000Y-121345000D03*
X173775000Y-122615000D03*
X173775000Y-123885000D03*
X173775000Y-125155000D03*
X178725000Y-125155000D03*
X178725000Y-123885000D03*
X178725000Y-122615000D03*
X178725000Y-121345000D03*
%TD*%
D11*
%TO.C,D1*%
X185050000Y-118650000D03*
X186750000Y-118650000D03*
X188450000Y-118650000D03*
X188450000Y-113850000D03*
X186750000Y-113850000D03*
X185050000Y-113850000D03*
%TD*%
D12*
%TO.C,C23*%
X141850000Y-99600000D03*
X143400000Y-99600000D03*
%TD*%
D17*
%TO.C,R6*%
X130249237Y-67424762D03*
X131899237Y-67424762D03*
%TD*%
D11*
%TO.C,D8*%
X164050002Y-118650001D03*
X165750002Y-118650001D03*
X167450002Y-118650001D03*
X167450002Y-113850001D03*
X165750002Y-113850001D03*
X164050002Y-113850001D03*
%TD*%
D17*
%TO.C,R20*%
X144925000Y-66250000D03*
X146575000Y-66250000D03*
%TD*%
D24*
%TO.C,U2*%
X117025000Y-121345000D03*
X117025000Y-122615000D03*
X117025000Y-123885000D03*
X117025000Y-125155000D03*
X121975000Y-125155000D03*
X121975000Y-123885000D03*
X121975000Y-122615000D03*
X121975000Y-121345000D03*
%TD*%
D11*
%TO.C,D12*%
X140699998Y-113850001D03*
X138999998Y-113850001D03*
X137299998Y-113850001D03*
X137299998Y-118650001D03*
X138999998Y-118650001D03*
X140699998Y-118650001D03*
%TD*%
D24*
%TO.C,U5*%
X157525002Y-121345000D03*
X157525002Y-122615000D03*
X157525002Y-123885000D03*
X157525002Y-125155000D03*
X162475002Y-125155000D03*
X162475002Y-123885000D03*
X162475002Y-122615000D03*
X162475002Y-121345000D03*
%TD*%
D11*
%TO.C,D9*%
X161700002Y-113850001D03*
X160000002Y-113850001D03*
X158300002Y-113850001D03*
X158300002Y-118650001D03*
X160000002Y-118650001D03*
X161700002Y-118650001D03*
%TD*%
D12*
%TO.C,C2*%
X181225002Y-121250001D03*
X182775002Y-121250001D03*
%TD*%
D33*
%TO.C,U4*%
X136949999Y-72112500D03*
X136000000Y-72112500D03*
X135050001Y-72112500D03*
X135050001Y-74387500D03*
X136000000Y-74387500D03*
X136949999Y-74387500D03*
%TD*%
D12*
%TO.C,C8*%
X143724999Y-121250001D03*
X145274999Y-121250001D03*
%TD*%
D34*
%TO.C,U3*%
X169837499Y-101124999D03*
X169837499Y-101774999D03*
X169837499Y-102424999D03*
X169837499Y-103074999D03*
X174062499Y-103074999D03*
X174062499Y-102424999D03*
X174062499Y-101774999D03*
X174062499Y-101124999D03*
%TD*%
D12*
%TO.C,C5*%
X172574998Y-99400002D03*
X174124998Y-99400002D03*
%TD*%
D35*
%TO.C,U9*%
X133000000Y-97675000D03*
X133500000Y-97675000D03*
X134000001Y-97675000D03*
X134500000Y-97675000D03*
X134999999Y-97675000D03*
X135500000Y-97675000D03*
X136000000Y-97675000D03*
X136500001Y-97675000D03*
X137000000Y-97675000D03*
X137500000Y-97675000D03*
X138000000Y-97675000D03*
X138500000Y-97675000D03*
X139000000Y-97675001D03*
X139500000Y-97675000D03*
X140000000Y-97675000D03*
X140500000Y-97675000D03*
X141000000Y-97675000D03*
X141499999Y-97675000D03*
X142000000Y-97675000D03*
X142500000Y-97675000D03*
X143000001Y-97675000D03*
X143500000Y-97675000D03*
X143999999Y-97675000D03*
X144500000Y-97675000D03*
X145000000Y-97675000D03*
D36*
X146675000Y-96000000D03*
X146675000Y-95500000D03*
X146675000Y-94999999D03*
X146675000Y-94500000D03*
X146675000Y-94000001D03*
X146675000Y-93500000D03*
X146675000Y-93000000D03*
X146675000Y-92499999D03*
X146675000Y-92000000D03*
X146675000Y-91500000D03*
X146675000Y-91000000D03*
X146675000Y-90500000D03*
X146675001Y-90000000D03*
X146675000Y-89500000D03*
X146675000Y-89000000D03*
X146675000Y-88500000D03*
X146675000Y-88000000D03*
X146675000Y-87500001D03*
X146675000Y-87000000D03*
X146675000Y-86500000D03*
X146675000Y-85999999D03*
X146675000Y-85500000D03*
X146675000Y-85000001D03*
X146675000Y-84500000D03*
X146675000Y-84000000D03*
D35*
X145000000Y-82325000D03*
X144500000Y-82325000D03*
X143999999Y-82325000D03*
X143500000Y-82325000D03*
X143000001Y-82325000D03*
X142500000Y-82325000D03*
X142000000Y-82325000D03*
X141499999Y-82325000D03*
X141000000Y-82325000D03*
X140500000Y-82325000D03*
X140000000Y-82325000D03*
X139500000Y-82325000D03*
X139000000Y-82324999D03*
X138500000Y-82325000D03*
X138000000Y-82325000D03*
X137500000Y-82325000D03*
X137000000Y-82325000D03*
X136500001Y-82325000D03*
X136000000Y-82325000D03*
X135500000Y-82325000D03*
X134999999Y-82325000D03*
X134500000Y-82325000D03*
X134000001Y-82325000D03*
X133500000Y-82325000D03*
X133000000Y-82325000D03*
D36*
X131325000Y-84000000D03*
X131325000Y-84500000D03*
X131325000Y-85000001D03*
X131325000Y-85500000D03*
X131325000Y-85999999D03*
X131325000Y-86500000D03*
X131325000Y-87000000D03*
X131325000Y-87500001D03*
X131325000Y-88000000D03*
X131325000Y-88500000D03*
X131325000Y-89000000D03*
X131325000Y-89500000D03*
X131324999Y-90000000D03*
X131325000Y-90500000D03*
X131325000Y-91000000D03*
X131325000Y-91500000D03*
X131325000Y-92000000D03*
X131325000Y-92499999D03*
X131325000Y-93000000D03*
X131325000Y-93500000D03*
X131325000Y-94000001D03*
X131325000Y-94500000D03*
X131325000Y-94999999D03*
X131325000Y-95500000D03*
X131325000Y-96000000D03*
%TD*%
D11*
%TO.C,D13*%
X131549998Y-118650001D03*
X133249998Y-118650001D03*
X134949998Y-118650001D03*
X134949998Y-113850001D03*
X133249998Y-113850001D03*
X131549998Y-113850001D03*
%TD*%
D12*
%TO.C,C1*%
X172724999Y-95750000D03*
X174274999Y-95750000D03*
%TD*%
D37*
%TO.C,C14*%
X136500000Y-105275000D03*
X136500000Y-103725000D03*
%TD*%
D25*
%TO.C,C20*%
X150500000Y-95475000D03*
X150500000Y-97025000D03*
%TD*%
D10*
%TO.C,C18*%
X150275000Y-85000000D03*
X148725000Y-85000000D03*
%TD*%
D38*
%TO.C,SW2*%
X162750000Y-61200000D03*
X159750000Y-61200000D03*
X158250000Y-61200000D03*
D39*
X164175000Y-60350000D03*
X164175000Y-58150000D03*
X156825000Y-60350000D03*
X156825000Y-58150000D03*
%TD*%
D11*
%TO.C,D3*%
X173549998Y-118650000D03*
X175249998Y-118650000D03*
X176949998Y-118650000D03*
X176949998Y-113850000D03*
X175249998Y-113850000D03*
X173549998Y-113850000D03*
%TD*%
D12*
%TO.C,C4*%
X172724998Y-97499999D03*
X174274998Y-97499999D03*
%TD*%
D25*
%TO.C,C24*%
X130750000Y-79975000D03*
X130750000Y-81525000D03*
%TD*%
%TO.C,C13*%
X142500000Y-103725000D03*
X142500000Y-105275000D03*
%TD*%
D40*
%TO.C,D15*%
X181687501Y-70800000D03*
X180112499Y-70800000D03*
%TD*%
D13*
%TO.C,R10*%
X166325001Y-123000001D03*
X164675001Y-123000001D03*
%TD*%
D12*
%TO.C,C19*%
X127825000Y-94600000D03*
X129375000Y-94600000D03*
%TD*%
%TO.C,C6*%
X165775000Y-97350000D03*
X167325000Y-97350000D03*
%TD*%
D10*
%TO.C,C11*%
X117989466Y-103500000D03*
X116439466Y-103500000D03*
%TD*%
D14*
%TO.C,R18*%
X140000000Y-101325000D03*
X140000000Y-99675000D03*
%TD*%
D17*
%TO.C,R19*%
X158175000Y-63250000D03*
X159825000Y-63250000D03*
%TD*%
D11*
%TO.C,D11*%
X143049998Y-118650001D03*
X144749998Y-118650001D03*
X146449998Y-118650001D03*
X146449998Y-113850001D03*
X144749998Y-113850001D03*
X143049998Y-113850001D03*
%TD*%
D37*
%TO.C,C27*%
X148750000Y-97025000D03*
X148750000Y-95475000D03*
%TD*%
D41*
%TO.C,D7*%
X177299997Y-107100001D03*
X181299999Y-107100001D03*
%TD*%
D16*
%TO.C,R9*%
X167549999Y-101950000D03*
X167549999Y-103600000D03*
%TD*%
D11*
%TO.C,D5*%
X119700000Y-113850000D03*
X118000000Y-113850000D03*
X116300000Y-113850000D03*
X116300000Y-118650000D03*
X118000000Y-118650000D03*
X119700000Y-118650000D03*
%TD*%
D25*
%TO.C,C10*%
X172500001Y-105475001D03*
X172500001Y-107025001D03*
%TD*%
D13*
%TO.C,R16*%
X150575000Y-111000000D03*
X148925000Y-111000000D03*
%TD*%
D42*
%TO.C,C17*%
X167800001Y-64500000D03*
X169699999Y-64500000D03*
%TD*%
D13*
%TO.C,R12*%
X171354000Y-77930000D03*
X169704000Y-77930000D03*
%TD*%
M02*
