%TF.GenerationSoftware,KiCad,Pcbnew,9.0.5*%
%TF.CreationDate,2026-02-06T18:32:06+13:00*%
%TF.ProjectId,ShroomShed_MKII_PCB,5368726f-6f6d-4536-9865-645f4d4b4949,rev?*%
%TF.SameCoordinates,Original*%
%TF.FileFunction,Copper,L3,Inr*%
%TF.FilePolarity,Positive*%
%FSLAX46Y46*%
G04 Gerber Fmt 4.6, Leading zero omitted, Abs format (unit mm)*
G04 Created by KiCad (PCBNEW 9.0.5) date 2026-02-06 18:32:06*
%MOMM*%
%LPD*%
G01*
G04 APERTURE LIST*
G04 Aperture macros list*
%AMRoundRect*
0 Rectangle with rounded corners*
0 $1 Rounding radius*
0 $2 $3 $4 $5 $6 $7 $8 $9 X,Y pos of 4 corners*
0 Add a 4 corners polygon primitive as box body*
4,1,4,$2,$3,$4,$5,$6,$7,$8,$9,$2,$3,0*
0 Add four circle primitives for the rounded corners*
1,1,$1+$1,$2,$3*
1,1,$1+$1,$4,$5*
1,1,$1+$1,$6,$7*
1,1,$1+$1,$8,$9*
0 Add four rect primitives between the rounded corners*
20,1,$1+$1,$2,$3,$4,$5,0*
20,1,$1+$1,$4,$5,$6,$7,0*
20,1,$1+$1,$6,$7,$8,$9,0*
20,1,$1+$1,$8,$9,$2,$3,0*%
G04 Aperture macros list end*
%TA.AperFunction,ComponentPad*%
%ADD10C,6.400000*%
%TD*%
%TA.AperFunction,ComponentPad*%
%ADD11RoundRect,0.250000X-0.600000X-0.725000X0.600000X-0.725000X0.600000X0.725000X-0.600000X0.725000X0*%
%TD*%
%TA.AperFunction,ComponentPad*%
%ADD12O,1.700000X1.950000*%
%TD*%
%TA.AperFunction,ComponentPad*%
%ADD13RoundRect,0.250000X0.600000X0.725000X-0.600000X0.725000X-0.600000X-0.725000X0.600000X-0.725000X0*%
%TD*%
%TA.AperFunction,ComponentPad*%
%ADD14O,0.900000X2.000000*%
%TD*%
%TA.AperFunction,ComponentPad*%
%ADD15O,0.900000X1.700000*%
%TD*%
%TA.AperFunction,ComponentPad*%
%ADD16RoundRect,0.250000X0.725000X-0.600000X0.725000X0.600000X-0.725000X0.600000X-0.725000X-0.600000X0*%
%TD*%
%TA.AperFunction,ComponentPad*%
%ADD17O,1.950000X1.700000*%
%TD*%
%TA.AperFunction,ComponentPad*%
%ADD18R,1.350000X1.350000*%
%TD*%
%TA.AperFunction,ComponentPad*%
%ADD19C,1.350000*%
%TD*%
%TA.AperFunction,ComponentPad*%
%ADD20R,1.800000X1.800000*%
%TD*%
%TA.AperFunction,ComponentPad*%
%ADD21C,1.800000*%
%TD*%
%TA.AperFunction,ComponentPad*%
%ADD22R,1.700000X1.700000*%
%TD*%
%TA.AperFunction,ComponentPad*%
%ADD23C,1.700000*%
%TD*%
%TA.AperFunction,ViaPad*%
%ADD24C,0.700000*%
%TD*%
%TA.AperFunction,Conductor*%
%ADD25C,0.300000*%
%TD*%
G04 APERTURE END LIST*
D10*
%TO.N,GND*%
%TO.C,H4*%
X109000000Y-124000000D03*
%TD*%
D11*
%TO.N,ENCODER_CHANNEL_A*%
%TO.C,J3*%
X148750000Y-73000000D03*
D12*
%TO.N,ENCODER_CHANNEL_B*%
X151250000Y-73000000D03*
%TO.N,INPUT_1*%
X153750000Y-73000000D03*
%TO.N,INPUT_2*%
X156250000Y-73000000D03*
%TO.N,INPUT_3*%
X158750000Y-73000000D03*
%TO.N,GND*%
X161250000Y-73000000D03*
%TD*%
D13*
%TO.N,+3V3*%
%TO.C,J4*%
X151750000Y-61000000D03*
D12*
%TO.N,SHT31_SDA*%
X149250000Y-61000000D03*
%TO.N,SHT31_SCL*%
X146750000Y-61000000D03*
%TO.N,GND*%
X144250000Y-61000000D03*
%TD*%
D10*
%TO.N,GND*%
%TO.C,H2*%
X109000000Y-62000000D03*
%TD*%
D14*
%TO.N,GND*%
%TO.C,J1*%
X138325000Y-63170000D03*
X129675000Y-63170000D03*
D15*
X138325000Y-59000000D03*
X129675000Y-59000000D03*
%TD*%
D10*
%TO.N,GND*%
%TO.C,H1*%
X190000000Y-62000000D03*
%TD*%
D16*
%TO.N,+12V*%
%TO.C,J6*%
X191500000Y-81000000D03*
D17*
%TO.N,TRANSDUCER_PWM*%
X191500000Y-78500000D03*
%TO.N,FAN_PWM*%
X191500000Y-76000000D03*
%TO.N,GND*%
X191500000Y-73500000D03*
%TD*%
D18*
%TO.N,+3V3*%
%TO.C,J2*%
X155000000Y-84500000D03*
D19*
%TO.N,RF_TX*%
X157000001Y-84500000D03*
%TO.N,RF_RX*%
X159000000Y-84500000D03*
%TO.N,GND*%
X161000000Y-84500000D03*
%TD*%
D10*
%TO.N,GND*%
%TO.C,H3*%
X190000000Y-124000000D03*
%TD*%
D20*
%TO.N,Net-(D14-K)*%
%TO.C,D14*%
X148230000Y-125500000D03*
D21*
%TO.N,+12V*%
X150770000Y-125500000D03*
%TD*%
D22*
%TO.N,SD_SCK*%
%TO.C,J7*%
X188468000Y-88900000D03*
D23*
%TO.N,SD_MISO*%
X188468000Y-91440000D03*
%TO.N,SD_MOSI*%
X188468000Y-93979999D03*
%TO.N,SD_NSS*%
X188468000Y-96520000D03*
%TD*%
D22*
%TO.N,TOUCH_IRQ*%
%TO.C,J8*%
X107696000Y-76200000D03*
D23*
%TO.N,TOUCH_MISO*%
X107696000Y-78740000D03*
%TO.N,TOUCH_MOSI*%
X107696000Y-81279999D03*
%TO.N,TOUCH_NSS*%
X107696000Y-83820000D03*
%TO.N,TOUCH_SCK*%
X107696000Y-86360000D03*
%TO.N,DISPLAY_MISO*%
X107696000Y-88900000D03*
%TO.N,DISPLAY_LED*%
X107696000Y-91440000D03*
%TO.N,DISPLAY_SCK*%
X107696000Y-93980001D03*
%TO.N,DISPLAY_MOSI*%
X107696000Y-96520000D03*
%TO.N,DISPLAY_DC*%
X107696000Y-99060000D03*
%TO.N,DISPLAY_RST*%
X107696000Y-101600000D03*
%TO.N,DISPLAY_NSS*%
X107696000Y-104139999D03*
%TO.N,GND*%
X107696000Y-106680000D03*
%TO.N,+3V3*%
X107696000Y-109220000D03*
%TD*%
D24*
%TO.N,GND*%
X171750000Y-125250000D03*
X155500000Y-125250000D03*
X134500000Y-125250000D03*
X115000000Y-125250000D03*
X164250000Y-99500000D03*
X164250000Y-97500000D03*
X171250000Y-95750000D03*
X171250000Y-97500000D03*
X150500000Y-105500000D03*
X145000000Y-85000000D03*
X172000000Y-101000001D03*
X142250000Y-101000000D03*
X132250000Y-78500000D03*
X150500000Y-82750000D03*
X176450001Y-71700001D03*
X150500000Y-83750000D03*
X150500000Y-98250000D03*
X171500000Y-64000000D03*
X171250000Y-99500000D03*
X176449999Y-72700000D03*
X147500000Y-97000000D03*
X129000000Y-96000000D03*
X171750000Y-80750000D03*
X142500000Y-106750000D03*
X135250000Y-103750000D03*
X137250000Y-96000000D03*
X127000000Y-121250000D03*
X146500000Y-121250000D03*
X127750000Y-97250001D03*
X145000636Y-95578988D03*
X136500000Y-102500000D03*
X130750000Y-78500000D03*
X151500000Y-97000000D03*
X151500000Y-85000001D03*
X170749999Y-104250000D03*
X171500000Y-65000000D03*
X143750000Y-105250000D03*
X132000000Y-80750000D03*
X165749999Y-101000001D03*
X127750000Y-96000000D03*
X129250000Y-80000000D03*
X130750000Y-77250000D03*
X140499999Y-106750000D03*
X184000000Y-121250000D03*
X142250000Y-96000000D03*
X132539950Y-95267621D03*
X141250000Y-101000001D03*
X167750000Y-121250000D03*
X136398000Y-73152000D03*
X171999998Y-102750001D03*
X172500001Y-104249999D03*
X129074237Y-67424761D03*
X136450000Y-101500000D03*
X148750000Y-98250000D03*
X138324238Y-67424761D03*
%TO.N,+3V3*%
X138250000Y-96000000D03*
X133250000Y-78500000D03*
X144500000Y-99750000D03*
X123000000Y-103500000D03*
X176000000Y-80750000D03*
X135500000Y-96250000D03*
X132500000Y-96250000D03*
X143250000Y-96000000D03*
X133499999Y-76000000D03*
X130750000Y-82500000D03*
X147500000Y-81750000D03*
X143500000Y-100750000D03*
X166500000Y-71000000D03*
X130500000Y-98250000D03*
X162750000Y-62750000D03*
X143500000Y-66500000D03*
X166449999Y-64450000D03*
X166500000Y-68500000D03*
X138000000Y-101500000D03*
X132000000Y-82000000D03*
X146500000Y-82750000D03*
X122000000Y-58250000D03*
X144250000Y-94500000D03*
X131500000Y-97250000D03*
X134250000Y-78499999D03*
X151750000Y-95000000D03*
X151750000Y-96000000D03*
%TO.N,+5V*%
X176249999Y-97750000D03*
X178249999Y-96000000D03*
X175000000Y-61000000D03*
X176249999Y-96000000D03*
X176249999Y-101750000D03*
X180249999Y-96000000D03*
X177000000Y-67500000D03*
X173000000Y-61000000D03*
X176249999Y-99750000D03*
X168499998Y-102500000D03*
X177000000Y-65500000D03*
%TO.N,NRST*%
X117500000Y-68000000D03*
X117500000Y-65750000D03*
X139500000Y-95500000D03*
X129750000Y-87750000D03*
X133500000Y-102000000D03*
%TO.N,+12V*%
X134250000Y-111500000D03*
X173749999Y-108250000D03*
X174999999Y-106999999D03*
X184000000Y-123000000D03*
X146500000Y-123000000D03*
X176250000Y-111500000D03*
X173749999Y-107000000D03*
X167750000Y-123000000D03*
X127000000Y-123000000D03*
X174999999Y-108250000D03*
%TO.N,VBUS*%
X157800000Y-65400000D03*
X131574236Y-65424761D03*
X136324238Y-65424761D03*
%TO.N,TOUCH_MISO*%
X129540000Y-89408000D03*
X132842000Y-90932000D03*
%TO.N,TOUCH_MOSI*%
X128524000Y-90424000D03*
X129540000Y-91440000D03*
%TO.N,TOUCH_IRQ*%
X132842000Y-91948000D03*
X124968000Y-88392000D03*
%TO.N,TOUCH_NSS*%
X133858000Y-91948000D03*
X126492000Y-91440000D03*
%TO.N,BOOT0*%
X138750000Y-85250000D03*
X139000000Y-80750000D03*
%TO.N,DISPLAY_MISO*%
X133350000Y-93472000D03*
X124206000Y-93472000D03*
%TO.N,DISPLAY_DC*%
X133604000Y-96266000D03*
X124460000Y-97536000D03*
%TO.N,SD_NSS*%
X145034000Y-93980000D03*
X152908000Y-94996000D03*
%TO.N,DISPLAY_NSS*%
X124460000Y-99568000D03*
X133185792Y-99247000D03*
%TO.N,WATER_LED*%
X140500000Y-95750000D03*
X146000000Y-98000000D03*
%TO.N,+3V3*%
X145000000Y-84000000D03*
%TD*%
D25*
%TO.N,+3V3*%
X174750000Y-79500000D02*
X171500000Y-79500000D01*
X176000000Y-80750000D02*
X174750000Y-79500000D01*
%TD*%
%TA.AperFunction,Conductor*%
%TO.N,+3V3*%
G36*
X129289300Y-57520185D02*
G01*
X129335055Y-57572989D01*
X129344999Y-57642147D01*
X129315974Y-57705703D01*
X129269714Y-57739061D01*
X129224771Y-57757676D01*
X129224762Y-57757681D01*
X129069092Y-57861697D01*
X129069088Y-57861700D01*
X128936700Y-57994088D01*
X128936697Y-57994092D01*
X128832681Y-58149762D01*
X128832676Y-58149771D01*
X128761027Y-58322748D01*
X128761025Y-58322756D01*
X128724500Y-58506379D01*
X128724500Y-59493620D01*
X128761025Y-59677243D01*
X128761027Y-59677251D01*
X128832676Y-59850228D01*
X128832681Y-59850237D01*
X128936697Y-60005907D01*
X128936700Y-60005911D01*
X129069088Y-60138299D01*
X129069092Y-60138302D01*
X129224762Y-60242318D01*
X129224768Y-60242321D01*
X129224769Y-60242322D01*
X129397749Y-60313973D01*
X129581379Y-60350499D01*
X129581383Y-60350500D01*
X129581384Y-60350500D01*
X129768617Y-60350500D01*
X129768618Y-60350499D01*
X129952251Y-60313973D01*
X130125231Y-60242322D01*
X130280908Y-60138302D01*
X130413302Y-60005908D01*
X130517322Y-59850231D01*
X130588973Y-59677251D01*
X130625500Y-59493616D01*
X130625500Y-58506384D01*
X130588973Y-58322749D01*
X130525543Y-58169616D01*
X130517323Y-58149771D01*
X130517318Y-58149762D01*
X130413302Y-57994092D01*
X130413299Y-57994088D01*
X130280911Y-57861700D01*
X130280907Y-57861697D01*
X130125237Y-57757681D01*
X130125228Y-57757676D01*
X130080286Y-57739061D01*
X130025883Y-57695220D01*
X130003818Y-57628926D01*
X130021097Y-57561227D01*
X130072234Y-57513616D01*
X130127739Y-57500500D01*
X137872261Y-57500500D01*
X137939300Y-57520185D01*
X137985055Y-57572989D01*
X137994999Y-57642147D01*
X137965974Y-57705703D01*
X137919714Y-57739061D01*
X137874771Y-57757676D01*
X137874762Y-57757681D01*
X137719092Y-57861697D01*
X137719088Y-57861700D01*
X137586700Y-57994088D01*
X137586697Y-57994092D01*
X137482681Y-58149762D01*
X137482676Y-58149771D01*
X137411027Y-58322748D01*
X137411025Y-58322756D01*
X137374500Y-58506379D01*
X137374500Y-59493620D01*
X137411025Y-59677243D01*
X137411027Y-59677251D01*
X137482676Y-59850228D01*
X137482681Y-59850237D01*
X137586697Y-60005907D01*
X137586700Y-60005911D01*
X137719088Y-60138299D01*
X137719092Y-60138302D01*
X137874762Y-60242318D01*
X137874768Y-60242321D01*
X137874769Y-60242322D01*
X138047749Y-60313973D01*
X138231379Y-60350499D01*
X138231383Y-60350500D01*
X138231384Y-60350500D01*
X138418617Y-60350500D01*
X138418618Y-60350499D01*
X138602251Y-60313973D01*
X138775231Y-60242322D01*
X138930908Y-60138302D01*
X139063302Y-60005908D01*
X139167322Y-59850231D01*
X139238973Y-59677251D01*
X139275500Y-59493616D01*
X139275500Y-59316533D01*
X158324499Y-59316533D01*
X158350458Y-59447030D01*
X158350461Y-59447040D01*
X158401376Y-59569961D01*
X158401386Y-59569979D01*
X158475301Y-59680601D01*
X158475307Y-59680609D01*
X158569390Y-59774692D01*
X158569398Y-59774698D01*
X158680020Y-59848613D01*
X158680023Y-59848614D01*
X158680031Y-59848620D01*
X158680037Y-59848622D01*
X158680038Y-59848623D01*
X158708007Y-59860208D01*
X158802964Y-59899540D01*
X158802968Y-59899540D01*
X158802969Y-59899541D01*
X158933466Y-59925500D01*
X158933469Y-59925500D01*
X159066533Y-59925500D01*
X159154325Y-59908035D01*
X159197036Y-59899540D01*
X159319969Y-59848620D01*
X159430606Y-59774695D01*
X159524695Y-59680606D01*
X159598620Y-59569969D01*
X159649540Y-59447036D01*
X159675500Y-59316533D01*
X161324499Y-59316533D01*
X161350458Y-59447030D01*
X161350461Y-59447040D01*
X161401376Y-59569961D01*
X161401386Y-59569979D01*
X161475301Y-59680601D01*
X161475307Y-59680609D01*
X161569390Y-59774692D01*
X161569398Y-59774698D01*
X161680020Y-59848613D01*
X161680023Y-59848614D01*
X161680031Y-59848620D01*
X161680037Y-59848622D01*
X161680038Y-59848623D01*
X161708007Y-59860208D01*
X161802964Y-59899540D01*
X161802968Y-59899540D01*
X161802969Y-59899541D01*
X161933466Y-59925500D01*
X161933469Y-59925500D01*
X162066533Y-59925500D01*
X162154325Y-59908035D01*
X162197036Y-59899540D01*
X162319969Y-59848620D01*
X162430606Y-59774695D01*
X162524695Y-59680606D01*
X162598620Y-59569969D01*
X162649540Y-59447036D01*
X162675500Y-59316531D01*
X162675500Y-59183469D01*
X162675500Y-59183466D01*
X162649541Y-59052969D01*
X162649540Y-59052968D01*
X162649540Y-59052964D01*
X162598620Y-58930031D01*
X162576553Y-58897006D01*
X162524698Y-58819398D01*
X162524692Y-58819390D01*
X162430609Y-58725307D01*
X162430601Y-58725301D01*
X162319979Y-58651386D01*
X162319972Y-58651382D01*
X162319969Y-58651380D01*
X162319965Y-58651378D01*
X162319961Y-58651376D01*
X162197040Y-58600461D01*
X162197030Y-58600458D01*
X162066533Y-58574500D01*
X162066531Y-58574500D01*
X161933469Y-58574500D01*
X161933467Y-58574500D01*
X161802969Y-58600458D01*
X161802959Y-58600461D01*
X161680038Y-58651376D01*
X161680020Y-58651386D01*
X161569398Y-58725301D01*
X161569390Y-58725307D01*
X161475307Y-58819390D01*
X161475301Y-58819398D01*
X161401386Y-58930020D01*
X161401376Y-58930038D01*
X161350461Y-59052959D01*
X161350458Y-59052969D01*
X161324500Y-59183466D01*
X161324500Y-59183469D01*
X161324500Y-59316531D01*
X161324500Y-59316533D01*
X161324499Y-59316533D01*
X159675500Y-59316533D01*
X159675500Y-59316531D01*
X159675500Y-59183469D01*
X159675500Y-59183466D01*
X159649541Y-59052969D01*
X159649540Y-59052968D01*
X159649540Y-59052964D01*
X159598620Y-58930031D01*
X159576553Y-58897006D01*
X159524698Y-58819398D01*
X159524692Y-58819390D01*
X159430609Y-58725307D01*
X159430601Y-58725301D01*
X159319979Y-58651386D01*
X159319972Y-58651382D01*
X159319969Y-58651380D01*
X159319965Y-58651378D01*
X159319961Y-58651376D01*
X159197040Y-58600461D01*
X159197030Y-58600458D01*
X159066533Y-58574500D01*
X159066531Y-58574500D01*
X158933469Y-58574500D01*
X158933467Y-58574500D01*
X158802969Y-58600458D01*
X158802959Y-58600461D01*
X158680038Y-58651376D01*
X158680020Y-58651386D01*
X158569398Y-58725301D01*
X158569390Y-58725307D01*
X158475307Y-58819390D01*
X158475301Y-58819398D01*
X158401386Y-58930020D01*
X158401376Y-58930038D01*
X158350461Y-59052959D01*
X158350458Y-59052969D01*
X158324500Y-59183466D01*
X158324500Y-59183469D01*
X158324500Y-59316531D01*
X158324500Y-59316533D01*
X158324499Y-59316533D01*
X139275500Y-59316533D01*
X139275500Y-58506384D01*
X139238973Y-58322749D01*
X139175543Y-58169616D01*
X139167323Y-58149771D01*
X139167318Y-58149762D01*
X139063302Y-57994092D01*
X139063299Y-57994088D01*
X138930911Y-57861700D01*
X138930907Y-57861697D01*
X138775237Y-57757681D01*
X138775228Y-57757676D01*
X138730286Y-57739061D01*
X138675883Y-57695220D01*
X138653818Y-57628926D01*
X138671097Y-57561227D01*
X138722234Y-57513616D01*
X138777739Y-57500500D01*
X171876000Y-57500500D01*
X171943039Y-57520185D01*
X171988794Y-57572989D01*
X172000000Y-57624500D01*
X172000000Y-63100953D01*
X171980315Y-63167992D01*
X171927511Y-63213747D01*
X171858353Y-63223691D01*
X171828547Y-63215514D01*
X171748082Y-63182184D01*
X171748074Y-63182182D01*
X171583771Y-63149500D01*
X171583767Y-63149500D01*
X171416233Y-63149500D01*
X171416228Y-63149500D01*
X171251925Y-63182182D01*
X171251917Y-63182184D01*
X171097139Y-63246295D01*
X170957837Y-63339373D01*
X170839373Y-63457837D01*
X170746295Y-63597139D01*
X170682184Y-63751917D01*
X170682182Y-63751925D01*
X170649500Y-63916228D01*
X170649500Y-64083771D01*
X170682182Y-64248074D01*
X170682184Y-64248082D01*
X170746295Y-64402859D01*
X170746302Y-64402872D01*
X170765170Y-64431111D01*
X170786047Y-64497789D01*
X170767561Y-64565168D01*
X170765170Y-64568889D01*
X170746302Y-64597127D01*
X170746295Y-64597140D01*
X170682184Y-64751917D01*
X170682182Y-64751925D01*
X170649500Y-64916228D01*
X170649500Y-65083771D01*
X170682182Y-65248074D01*
X170682184Y-65248082D01*
X170746295Y-65402860D01*
X170839373Y-65542162D01*
X170957837Y-65660626D01*
X171017513Y-65700500D01*
X171097137Y-65753703D01*
X171251918Y-65817816D01*
X171416228Y-65850499D01*
X171416232Y-65850500D01*
X171416233Y-65850500D01*
X171583768Y-65850500D01*
X171583769Y-65850499D01*
X171748082Y-65817816D01*
X171828550Y-65784484D01*
X171898015Y-65777016D01*
X171960495Y-65808290D01*
X171996148Y-65868379D01*
X172000000Y-65899046D01*
X172000000Y-79781471D01*
X171980315Y-79848510D01*
X171927511Y-79894265D01*
X171858353Y-79904209D01*
X171851810Y-79903089D01*
X171833767Y-79899500D01*
X171666233Y-79899500D01*
X171666228Y-79899500D01*
X171501925Y-79932182D01*
X171501917Y-79932184D01*
X171347139Y-79996295D01*
X171207837Y-80089373D01*
X171089373Y-80207837D01*
X170996295Y-80347139D01*
X170932184Y-80501917D01*
X170932182Y-80501925D01*
X170899500Y-80666228D01*
X170899500Y-80833771D01*
X170932182Y-80998074D01*
X170932184Y-80998082D01*
X170996295Y-81152860D01*
X171089373Y-81292162D01*
X171207837Y-81410626D01*
X171300494Y-81472537D01*
X171347137Y-81503703D01*
X171501918Y-81567816D01*
X171648190Y-81596911D01*
X171666228Y-81600499D01*
X171666232Y-81600500D01*
X171666233Y-81600500D01*
X171833765Y-81600500D01*
X171833767Y-81600500D01*
X171851808Y-81596911D01*
X171921397Y-81603137D01*
X171976576Y-81645998D01*
X171999822Y-81711887D01*
X172000000Y-81718528D01*
X172000000Y-94997849D01*
X171980315Y-95064888D01*
X171927511Y-95110643D01*
X171858353Y-95120587D01*
X171797307Y-95092708D01*
X171796872Y-95093239D01*
X171794868Y-95091594D01*
X171794797Y-95091562D01*
X171794562Y-95091343D01*
X171792162Y-95089373D01*
X171652860Y-94996295D01*
X171498082Y-94932184D01*
X171498074Y-94932182D01*
X171333771Y-94899500D01*
X171333767Y-94899500D01*
X171166233Y-94899500D01*
X171166228Y-94899500D01*
X171001925Y-94932182D01*
X171001917Y-94932184D01*
X170847139Y-94996295D01*
X170707837Y-95089373D01*
X170589373Y-95207837D01*
X170496295Y-95347139D01*
X170432184Y-95501917D01*
X170432182Y-95501925D01*
X170399500Y-95666228D01*
X170399500Y-95833771D01*
X170432182Y-95998074D01*
X170432184Y-95998082D01*
X170496295Y-96152860D01*
X170589373Y-96292162D01*
X170707837Y-96410626D01*
X170847137Y-96503703D01*
X170863399Y-96510439D01*
X170917802Y-96554281D01*
X170939866Y-96620576D01*
X170922586Y-96688275D01*
X170871448Y-96735885D01*
X170863399Y-96739561D01*
X170847137Y-96746296D01*
X170707837Y-96839373D01*
X170589373Y-96957837D01*
X170496295Y-97097139D01*
X170432184Y-97251917D01*
X170432182Y-97251925D01*
X170399500Y-97416228D01*
X170399500Y-97583771D01*
X170432182Y-97748074D01*
X170432184Y-97748082D01*
X170496295Y-97902860D01*
X170589373Y-98042162D01*
X170707837Y-98160626D01*
X170800494Y-98222537D01*
X170847137Y-98253703D01*
X171001918Y-98317816D01*
X171166228Y-98350499D01*
X171166232Y-98350500D01*
X171166233Y-98350500D01*
X171333768Y-98350500D01*
X171333769Y-98350499D01*
X171498082Y-98317816D01*
X171652863Y-98253703D01*
X171792162Y-98160626D01*
X171796872Y-98156761D01*
X171798594Y-98158859D01*
X171849642Y-98130985D01*
X171919334Y-98135969D01*
X171975267Y-98177841D01*
X171999684Y-98243305D01*
X172000000Y-98252151D01*
X172000000Y-98747849D01*
X171980315Y-98814888D01*
X171927511Y-98860643D01*
X171858353Y-98870587D01*
X171797307Y-98842708D01*
X171796872Y-98843239D01*
X171794868Y-98841594D01*
X171794797Y-98841562D01*
X171794562Y-98841343D01*
X171792162Y-98839373D01*
X171652860Y-98746295D01*
X171498082Y-98682184D01*
X171498074Y-98682182D01*
X171333771Y-98649500D01*
X171333767Y-98649500D01*
X171166233Y-98649500D01*
X171166228Y-98649500D01*
X171001925Y-98682182D01*
X171001917Y-98682184D01*
X170847139Y-98746295D01*
X170707837Y-98839373D01*
X170589373Y-98957837D01*
X170496295Y-99097139D01*
X170432184Y-99251917D01*
X170432182Y-99251925D01*
X170399500Y-99416228D01*
X170399500Y-99583771D01*
X170432182Y-99748074D01*
X170432184Y-99748082D01*
X170496295Y-99902860D01*
X170589373Y-100042162D01*
X170707837Y-100160626D01*
X170740103Y-100182185D01*
X170847137Y-100253703D01*
X170847138Y-100253703D01*
X170847139Y-100253704D01*
X170874825Y-100265172D01*
X171001918Y-100317816D01*
X171155892Y-100348443D01*
X171166228Y-100350499D01*
X171166232Y-100350500D01*
X171179108Y-100350500D01*
X171246147Y-100370185D01*
X171291902Y-100422989D01*
X171301846Y-100492147D01*
X171282210Y-100543391D01*
X171246295Y-100597140D01*
X171182184Y-100751918D01*
X171182182Y-100751926D01*
X171149500Y-100916229D01*
X171149500Y-101083772D01*
X171182182Y-101248075D01*
X171182184Y-101248083D01*
X171246295Y-101402861D01*
X171339373Y-101542163D01*
X171457837Y-101660627D01*
X171526171Y-101706286D01*
X171597137Y-101753704D01*
X171613395Y-101760438D01*
X171667799Y-101804279D01*
X171689865Y-101870573D01*
X171672587Y-101938272D01*
X171621450Y-101985883D01*
X171613401Y-101989559D01*
X171597140Y-101996294D01*
X171597137Y-101996296D01*
X171457835Y-102089374D01*
X171339371Y-102207838D01*
X171246293Y-102347140D01*
X171216962Y-102417953D01*
X171173121Y-102472356D01*
X171106826Y-102494421D01*
X171102401Y-102494500D01*
X171100122Y-102494500D01*
X170006093Y-102494500D01*
X169989229Y-102494914D01*
X169981285Y-102495109D01*
X169969126Y-102495706D01*
X169944399Y-102497530D01*
X169767523Y-102514950D01*
X169767503Y-102514952D01*
X169718449Y-102522228D01*
X169702347Y-102525431D01*
X169694612Y-102526970D01*
X169678490Y-102531008D01*
X169646502Y-102539021D01*
X169510492Y-102580278D01*
X169440625Y-102580901D01*
X169381513Y-102543652D01*
X169351922Y-102480357D01*
X169350498Y-102461617D01*
X169350498Y-102416232D01*
X169350497Y-102416228D01*
X169347838Y-102402860D01*
X169317814Y-102251918D01*
X169262514Y-102118414D01*
X169253702Y-102097139D01*
X169248514Y-102089375D01*
X169209523Y-102031020D01*
X169160624Y-101957837D01*
X169042160Y-101839373D01*
X168902858Y-101746295D01*
X168748080Y-101682184D01*
X168748072Y-101682182D01*
X168583769Y-101649500D01*
X168583765Y-101649500D01*
X168416231Y-101649500D01*
X168416226Y-101649500D01*
X168251923Y-101682182D01*
X168251915Y-101682184D01*
X168097137Y-101746295D01*
X167957835Y-101839373D01*
X167839371Y-101957837D01*
X167746293Y-102097139D01*
X167682182Y-102251917D01*
X167682180Y-102251925D01*
X167649498Y-102416228D01*
X167649498Y-102583771D01*
X167682180Y-102748074D01*
X167682182Y-102748082D01*
X167746293Y-102902860D01*
X167839371Y-103042162D01*
X167957835Y-103160626D01*
X168028492Y-103207837D01*
X168097135Y-103253703D01*
X168251916Y-103317816D01*
X168399324Y-103347137D01*
X168416226Y-103350499D01*
X168416230Y-103350500D01*
X168461617Y-103350500D01*
X168528656Y-103370185D01*
X168574411Y-103422989D01*
X168584355Y-103492147D01*
X168580278Y-103510494D01*
X168539021Y-103646502D01*
X168526970Y-103694613D01*
X168522228Y-103718447D01*
X168514954Y-103767490D01*
X168514949Y-103767534D01*
X168497530Y-103944398D01*
X168495706Y-103969125D01*
X168495109Y-103981284D01*
X168494500Y-104006108D01*
X168494500Y-110370499D01*
X168474815Y-110437538D01*
X168422011Y-110483293D01*
X168370500Y-110494499D01*
X108579328Y-110494499D01*
X108512289Y-110474814D01*
X108466534Y-110422010D01*
X108455710Y-110360770D01*
X108457716Y-110335269D01*
X107825408Y-109702962D01*
X107888993Y-109685925D01*
X108003007Y-109620099D01*
X108096099Y-109527007D01*
X108161925Y-109412993D01*
X108178962Y-109349408D01*
X108811270Y-109981717D01*
X108811270Y-109981716D01*
X108850622Y-109927554D01*
X108947095Y-109738217D01*
X109012757Y-109536130D01*
X109012757Y-109536127D01*
X109046000Y-109326246D01*
X109046000Y-109113753D01*
X109012757Y-108903872D01*
X109012757Y-108903869D01*
X108947095Y-108701782D01*
X108850624Y-108512449D01*
X108811270Y-108458282D01*
X108811269Y-108458282D01*
X108178962Y-109090590D01*
X108161925Y-109027007D01*
X108096099Y-108912993D01*
X108003007Y-108819901D01*
X107888993Y-108754075D01*
X107825409Y-108737037D01*
X108457716Y-108104728D01*
X108403547Y-108065373D01*
X108403547Y-108065372D01*
X108394500Y-108060763D01*
X108343706Y-108012788D01*
X108326912Y-107944966D01*
X108349451Y-107878832D01*
X108394508Y-107839793D01*
X108403816Y-107835051D01*
X108483007Y-107777515D01*
X108575786Y-107710109D01*
X108575788Y-107710106D01*
X108575792Y-107710104D01*
X108726104Y-107559792D01*
X108726106Y-107559788D01*
X108726109Y-107559786D01*
X108851048Y-107387820D01*
X108851047Y-107387820D01*
X108851051Y-107387816D01*
X108947557Y-107198412D01*
X109013246Y-106996243D01*
X109046500Y-106786287D01*
X109046500Y-106666228D01*
X139649499Y-106666228D01*
X139649499Y-106833771D01*
X139682181Y-106998074D01*
X139682183Y-106998082D01*
X139746294Y-107152860D01*
X139839372Y-107292162D01*
X139957836Y-107410626D01*
X140050493Y-107472537D01*
X140097136Y-107503703D01*
X140251917Y-107567816D01*
X140416227Y-107600499D01*
X140416231Y-107600500D01*
X140416232Y-107600500D01*
X140583767Y-107600500D01*
X140583768Y-107600499D01*
X140748081Y-107567816D01*
X140902862Y-107503703D01*
X141042161Y-107410626D01*
X141160625Y-107292162D01*
X141253702Y-107152863D01*
X141317815Y-106998082D01*
X141350499Y-106833767D01*
X141350499Y-106666233D01*
X141350498Y-106666228D01*
X141649500Y-106666228D01*
X141649500Y-106833771D01*
X141682182Y-106998074D01*
X141682184Y-106998082D01*
X141746295Y-107152860D01*
X141839373Y-107292162D01*
X141957837Y-107410626D01*
X142050494Y-107472537D01*
X142097137Y-107503703D01*
X142251918Y-107567816D01*
X142416228Y-107600499D01*
X142416232Y-107600500D01*
X142416233Y-107600500D01*
X142583768Y-107600500D01*
X142583769Y-107600499D01*
X142748082Y-107567816D01*
X142902863Y-107503703D01*
X143042162Y-107410626D01*
X143160626Y-107292162D01*
X143253703Y-107152863D01*
X143317816Y-106998082D01*
X143350500Y-106833767D01*
X143350500Y-106666233D01*
X143317816Y-106501918D01*
X143253703Y-106347137D01*
X143191272Y-106253703D01*
X143160626Y-106207837D01*
X143063360Y-106110571D01*
X143063352Y-106110564D01*
X143042162Y-106089374D01*
X143027019Y-106079256D01*
X143027016Y-106079253D01*
X142902860Y-105996295D01*
X142748082Y-105932184D01*
X142748074Y-105932182D01*
X142583771Y-105899500D01*
X142583767Y-105899500D01*
X142416233Y-105899500D01*
X142416228Y-105899500D01*
X142251925Y-105932182D01*
X142251917Y-105932184D01*
X142097139Y-105996295D01*
X141957837Y-106089373D01*
X141839373Y-106207837D01*
X141746295Y-106347139D01*
X141682184Y-106501917D01*
X141682182Y-106501925D01*
X141649500Y-106666228D01*
X141350498Y-106666228D01*
X141317815Y-106501918D01*
X141253702Y-106347137D01*
X141191271Y-106253703D01*
X141160625Y-106207837D01*
X141042161Y-106089373D01*
X140902859Y-105996295D01*
X140748081Y-105932184D01*
X140748073Y-105932182D01*
X140583770Y-105899500D01*
X140583766Y-105899500D01*
X140416232Y-105899500D01*
X140416227Y-105899500D01*
X140251924Y-105932182D01*
X140251916Y-105932184D01*
X140097138Y-105996295D01*
X139957836Y-106089373D01*
X139839372Y-106207837D01*
X139746294Y-106347139D01*
X139682183Y-106501917D01*
X139682181Y-106501925D01*
X139649499Y-106666228D01*
X109046500Y-106666228D01*
X109046500Y-106573713D01*
X109013246Y-106363757D01*
X108947557Y-106161588D01*
X108851051Y-105972184D01*
X108851049Y-105972181D01*
X108851048Y-105972179D01*
X108726109Y-105800213D01*
X108575786Y-105649890D01*
X108403817Y-105524949D01*
X108395052Y-105520483D01*
X108344257Y-105472508D01*
X108327462Y-105404687D01*
X108350000Y-105338552D01*
X108395056Y-105299513D01*
X108403816Y-105295050D01*
X108403818Y-105295048D01*
X108403821Y-105295047D01*
X108575786Y-105170108D01*
X108575788Y-105170105D01*
X108575792Y-105170103D01*
X108579667Y-105166228D01*
X142899500Y-105166228D01*
X142899500Y-105333771D01*
X142932182Y-105498074D01*
X142932184Y-105498082D01*
X142996295Y-105652860D01*
X143089373Y-105792162D01*
X143186638Y-105889427D01*
X143186645Y-105889433D01*
X143207838Y-105910626D01*
X143347137Y-106003703D01*
X143501918Y-106067816D01*
X143666228Y-106100499D01*
X143666232Y-106100500D01*
X143666233Y-106100500D01*
X143833768Y-106100500D01*
X143833769Y-106100499D01*
X143998082Y-106067816D01*
X144152863Y-106003703D01*
X144292162Y-105910626D01*
X144410626Y-105792162D01*
X144503703Y-105652863D01*
X144567816Y-105498082D01*
X144584098Y-105416228D01*
X149649500Y-105416228D01*
X149649500Y-105583771D01*
X149682182Y-105748074D01*
X149682184Y-105748082D01*
X149746295Y-105902860D01*
X149839373Y-106042162D01*
X149957837Y-106160626D01*
X150028494Y-106207837D01*
X150097137Y-106253703D01*
X150251918Y-106317816D01*
X150399326Y-106347137D01*
X150416228Y-106350499D01*
X150416232Y-106350500D01*
X150416233Y-106350500D01*
X150583768Y-106350500D01*
X150583769Y-106350499D01*
X150748082Y-106317816D01*
X150902863Y-106253703D01*
X151042162Y-106160626D01*
X151160626Y-106042162D01*
X151253703Y-105902863D01*
X151317816Y-105748082D01*
X151350500Y-105583767D01*
X151350500Y-105416233D01*
X151317816Y-105251918D01*
X151253703Y-105097137D01*
X151190084Y-105001925D01*
X151160626Y-104957837D01*
X151042162Y-104839373D01*
X150902860Y-104746295D01*
X150748082Y-104682184D01*
X150748074Y-104682182D01*
X150583771Y-104649500D01*
X150583767Y-104649500D01*
X150416233Y-104649500D01*
X150416228Y-104649500D01*
X150251925Y-104682182D01*
X150251917Y-104682184D01*
X150097139Y-104746295D01*
X149957837Y-104839373D01*
X149839373Y-104957837D01*
X149746295Y-105097139D01*
X149682184Y-105251917D01*
X149682182Y-105251925D01*
X149649500Y-105416228D01*
X144584098Y-105416228D01*
X144600500Y-105333767D01*
X144600500Y-105166233D01*
X144567816Y-105001918D01*
X144518227Y-104882201D01*
X144503704Y-104847139D01*
X144410626Y-104707837D01*
X144292162Y-104589373D01*
X144152860Y-104496295D01*
X143998082Y-104432184D01*
X143998074Y-104432182D01*
X143833771Y-104399500D01*
X143833767Y-104399500D01*
X143666233Y-104399500D01*
X143666228Y-104399500D01*
X143501925Y-104432182D01*
X143501917Y-104432184D01*
X143347139Y-104496295D01*
X143207837Y-104589373D01*
X143089373Y-104707837D01*
X142996295Y-104847139D01*
X142932184Y-105001917D01*
X142932182Y-105001925D01*
X142899500Y-105166228D01*
X108579667Y-105166228D01*
X108726104Y-105019791D01*
X108726106Y-105019787D01*
X108726109Y-105019785D01*
X108851048Y-104847819D01*
X108851047Y-104847819D01*
X108851051Y-104847815D01*
X108947557Y-104658411D01*
X109013246Y-104456242D01*
X109046500Y-104246286D01*
X109046500Y-104033712D01*
X109013246Y-103823756D01*
X108962062Y-103666228D01*
X134399500Y-103666228D01*
X134399500Y-103833771D01*
X134432182Y-103998074D01*
X134432184Y-103998082D01*
X134496295Y-104152860D01*
X134589373Y-104292162D01*
X134707837Y-104410626D01*
X134776101Y-104456238D01*
X134847137Y-104503703D01*
X135001918Y-104567816D01*
X135166228Y-104600499D01*
X135166232Y-104600500D01*
X135166233Y-104600500D01*
X135333768Y-104600500D01*
X135333769Y-104600499D01*
X135498082Y-104567816D01*
X135652863Y-104503703D01*
X135792162Y-104410626D01*
X135910626Y-104292162D01*
X136003703Y-104152863D01*
X136067816Y-103998082D01*
X136100500Y-103833767D01*
X136100500Y-103666233D01*
X136067816Y-103501918D01*
X136059672Y-103482258D01*
X136052197Y-103464211D01*
X136044727Y-103394742D01*
X136076001Y-103332262D01*
X136136089Y-103296609D01*
X136205915Y-103299102D01*
X136214211Y-103302197D01*
X136251912Y-103317814D01*
X136251914Y-103317814D01*
X136251918Y-103317816D01*
X136399326Y-103347137D01*
X136416228Y-103350499D01*
X136416232Y-103350500D01*
X136416233Y-103350500D01*
X136583768Y-103350500D01*
X136583769Y-103350499D01*
X136748082Y-103317816D01*
X136902863Y-103253703D01*
X137042162Y-103160626D01*
X137160626Y-103042162D01*
X137253703Y-102902863D01*
X137317816Y-102748082D01*
X137350500Y-102583767D01*
X137350500Y-102416233D01*
X137317816Y-102251918D01*
X137262516Y-102118414D01*
X137253704Y-102097139D01*
X137249757Y-102091232D01*
X137209523Y-102031018D01*
X137188646Y-101964343D01*
X137202043Y-101908769D01*
X137201372Y-101908491D01*
X137203139Y-101904225D01*
X137203275Y-101903661D01*
X137203693Y-101902877D01*
X137203703Y-101902863D01*
X137267816Y-101748082D01*
X137300500Y-101583767D01*
X137300500Y-101416233D01*
X137267816Y-101251918D01*
X137203703Y-101097137D01*
X137110626Y-100957838D01*
X137110625Y-100957837D01*
X137110624Y-100957835D01*
X137069018Y-100916229D01*
X140399500Y-100916229D01*
X140399500Y-101083772D01*
X140432182Y-101248075D01*
X140432184Y-101248083D01*
X140496295Y-101402861D01*
X140589373Y-101542163D01*
X140707837Y-101660627D01*
X140787644Y-101713952D01*
X140847137Y-101753704D01*
X141001918Y-101817817D01*
X141166223Y-101850499D01*
X141166228Y-101850500D01*
X141166232Y-101850501D01*
X141166233Y-101850501D01*
X141333768Y-101850501D01*
X141333769Y-101850500D01*
X141498082Y-101817817D01*
X141652863Y-101753704D01*
X141681109Y-101734829D01*
X141747786Y-101713952D01*
X141815166Y-101732436D01*
X141818891Y-101734830D01*
X141844476Y-101751925D01*
X141847137Y-101753703D01*
X142001918Y-101817816D01*
X142166228Y-101850499D01*
X142166232Y-101850500D01*
X142166233Y-101850500D01*
X142333768Y-101850500D01*
X142333769Y-101850499D01*
X142498082Y-101817816D01*
X142652863Y-101753703D01*
X142792162Y-101660626D01*
X142910626Y-101542162D01*
X143003703Y-101402863D01*
X143067816Y-101248082D01*
X143100500Y-101083767D01*
X143100500Y-100916233D01*
X143100499Y-100916229D01*
X164899499Y-100916229D01*
X164899499Y-101083772D01*
X164932181Y-101248075D01*
X164932183Y-101248083D01*
X164996294Y-101402861D01*
X165089372Y-101542163D01*
X165207836Y-101660627D01*
X165287643Y-101713952D01*
X165347136Y-101753704D01*
X165501917Y-101817817D01*
X165666222Y-101850499D01*
X165666227Y-101850500D01*
X165666231Y-101850501D01*
X165666232Y-101850501D01*
X165833767Y-101850501D01*
X165833768Y-101850500D01*
X165998081Y-101817817D01*
X166152862Y-101753704D01*
X166292161Y-101660627D01*
X166410625Y-101542163D01*
X166503702Y-101402864D01*
X166567815Y-101248083D01*
X166600499Y-101083768D01*
X166600499Y-100916234D01*
X166567815Y-100751919D01*
X166503702Y-100597138D01*
X166433549Y-100492147D01*
X166410625Y-100457838D01*
X166292161Y-100339374D01*
X166152859Y-100246296D01*
X165998081Y-100182185D01*
X165998073Y-100182183D01*
X165833770Y-100149501D01*
X165833766Y-100149501D01*
X165666232Y-100149501D01*
X165666227Y-100149501D01*
X165501924Y-100182183D01*
X165501916Y-100182185D01*
X165347138Y-100246296D01*
X165207836Y-100339374D01*
X165089372Y-100457838D01*
X164996294Y-100597140D01*
X164932183Y-100751918D01*
X164932181Y-100751926D01*
X164899499Y-100916229D01*
X143100499Y-100916229D01*
X143067816Y-100751918D01*
X143003703Y-100597137D01*
X142910627Y-100457839D01*
X142910626Y-100457837D01*
X142792162Y-100339373D01*
X142652860Y-100246295D01*
X142498082Y-100182184D01*
X142498074Y-100182182D01*
X142333771Y-100149500D01*
X142333767Y-100149500D01*
X142166233Y-100149500D01*
X142166228Y-100149500D01*
X142001925Y-100182182D01*
X142001917Y-100182184D01*
X141847137Y-100246296D01*
X141818887Y-100265172D01*
X141752210Y-100286048D01*
X141684830Y-100267562D01*
X141681108Y-100265170D01*
X141652869Y-100246301D01*
X141652859Y-100246296D01*
X141498082Y-100182185D01*
X141498074Y-100182183D01*
X141333771Y-100149501D01*
X141333767Y-100149501D01*
X141166233Y-100149501D01*
X141166228Y-100149501D01*
X141001925Y-100182183D01*
X141001917Y-100182185D01*
X140847139Y-100246296D01*
X140707837Y-100339374D01*
X140589373Y-100457838D01*
X140496295Y-100597140D01*
X140432184Y-100751918D01*
X140432182Y-100751926D01*
X140399500Y-100916229D01*
X137069018Y-100916229D01*
X136992162Y-100839373D01*
X136852860Y-100746295D01*
X136698082Y-100682184D01*
X136698074Y-100682182D01*
X136533771Y-100649500D01*
X136533767Y-100649500D01*
X136366233Y-100649500D01*
X136366228Y-100649500D01*
X136201925Y-100682182D01*
X136201917Y-100682184D01*
X136047139Y-100746295D01*
X135907837Y-100839373D01*
X135789373Y-100957837D01*
X135696295Y-101097139D01*
X135632184Y-101251917D01*
X135632182Y-101251925D01*
X135599500Y-101416228D01*
X135599500Y-101583771D01*
X135632182Y-101748074D01*
X135632184Y-101748082D01*
X135696295Y-101902860D01*
X135696296Y-101902862D01*
X135696297Y-101902863D01*
X135736202Y-101962585D01*
X135740475Y-101968979D01*
X135761353Y-102035656D01*
X135747960Y-102091232D01*
X135748628Y-102091509D01*
X135746872Y-102095748D01*
X135746735Y-102096317D01*
X135746296Y-102097136D01*
X135682184Y-102251917D01*
X135682182Y-102251925D01*
X135649500Y-102416228D01*
X135649500Y-102583771D01*
X135682182Y-102748074D01*
X135682184Y-102748082D01*
X135697803Y-102785789D01*
X135705272Y-102855258D01*
X135673997Y-102917738D01*
X135613908Y-102953390D01*
X135544083Y-102950896D01*
X135535789Y-102947803D01*
X135498082Y-102932184D01*
X135498074Y-102932182D01*
X135333771Y-102899500D01*
X135333767Y-102899500D01*
X135166233Y-102899500D01*
X135166228Y-102899500D01*
X135001925Y-102932182D01*
X135001917Y-102932184D01*
X134847139Y-102996295D01*
X134707837Y-103089373D01*
X134589373Y-103207837D01*
X134496295Y-103347139D01*
X134432184Y-103501917D01*
X134432182Y-103501925D01*
X134399500Y-103666228D01*
X108962062Y-103666228D01*
X108947557Y-103621587D01*
X108851051Y-103432183D01*
X108851049Y-103432180D01*
X108851048Y-103432178D01*
X108726109Y-103260212D01*
X108575786Y-103109889D01*
X108403817Y-102984948D01*
X108395054Y-102980483D01*
X108344258Y-102932508D01*
X108327464Y-102864687D01*
X108350002Y-102798552D01*
X108395058Y-102759513D01*
X108403816Y-102755051D01*
X108533782Y-102660626D01*
X108575786Y-102630109D01*
X108575788Y-102630106D01*
X108575792Y-102630104D01*
X108726104Y-102479792D01*
X108726106Y-102479788D01*
X108726109Y-102479786D01*
X108851048Y-102307820D01*
X108851047Y-102307820D01*
X108851051Y-102307816D01*
X108947557Y-102118412D01*
X109013246Y-101916243D01*
X109013248Y-101916228D01*
X132649500Y-101916228D01*
X132649500Y-102083771D01*
X132682182Y-102248074D01*
X132682184Y-102248082D01*
X132746295Y-102402860D01*
X132839373Y-102542162D01*
X132957837Y-102660626D01*
X133050494Y-102722537D01*
X133097137Y-102753703D01*
X133097138Y-102753703D01*
X133097139Y-102753704D01*
X133111163Y-102759513D01*
X133251918Y-102817816D01*
X133416228Y-102850499D01*
X133416232Y-102850500D01*
X133416233Y-102850500D01*
X133583768Y-102850500D01*
X133583769Y-102850499D01*
X133748082Y-102817816D01*
X133902863Y-102753703D01*
X134042162Y-102660626D01*
X134160626Y-102542162D01*
X134253703Y-102402863D01*
X134317816Y-102248082D01*
X134350500Y-102083767D01*
X134350500Y-101916233D01*
X134317816Y-101751918D01*
X134253703Y-101597137D01*
X134184597Y-101493713D01*
X134160626Y-101457837D01*
X134042162Y-101339373D01*
X133902860Y-101246295D01*
X133748082Y-101182184D01*
X133748074Y-101182182D01*
X133583771Y-101149500D01*
X133583767Y-101149500D01*
X133416233Y-101149500D01*
X133416228Y-101149500D01*
X133251925Y-101182182D01*
X133251917Y-101182184D01*
X133097139Y-101246295D01*
X132957837Y-101339373D01*
X132839373Y-101457837D01*
X132746295Y-101597139D01*
X132682184Y-101751917D01*
X132682182Y-101751925D01*
X132649500Y-101916228D01*
X109013248Y-101916228D01*
X109020480Y-101870573D01*
X109039880Y-101748082D01*
X109046500Y-101706287D01*
X109046500Y-101493713D01*
X109013246Y-101283757D01*
X108947557Y-101081588D01*
X108851051Y-100892184D01*
X108851049Y-100892181D01*
X108851048Y-100892179D01*
X108726109Y-100720213D01*
X108575786Y-100569890D01*
X108403820Y-100444951D01*
X108403115Y-100444591D01*
X108395054Y-100440485D01*
X108344259Y-100392512D01*
X108327463Y-100324692D01*
X108349999Y-100258556D01*
X108395054Y-100219515D01*
X108403816Y-100215051D01*
X108425789Y-100199086D01*
X108575786Y-100090109D01*
X108575788Y-100090106D01*
X108575792Y-100090104D01*
X108726104Y-99939792D01*
X108726106Y-99939788D01*
X108726109Y-99939786D01*
X108851048Y-99767820D01*
X108851047Y-99767820D01*
X108851051Y-99767816D01*
X108947557Y-99578412D01*
X108978159Y-99484228D01*
X123609500Y-99484228D01*
X123609500Y-99651771D01*
X123642182Y-99816074D01*
X123642184Y-99816082D01*
X123706295Y-99970860D01*
X123799373Y-100110162D01*
X123917837Y-100228626D01*
X124003776Y-100286048D01*
X124057137Y-100321703D01*
X124057138Y-100321703D01*
X124057139Y-100321704D01*
X124089992Y-100335312D01*
X124211918Y-100385816D01*
X124376228Y-100418499D01*
X124376232Y-100418500D01*
X124376233Y-100418500D01*
X124543768Y-100418500D01*
X124543769Y-100418499D01*
X124708082Y-100385816D01*
X124862863Y-100321703D01*
X125002162Y-100228626D01*
X125120626Y-100110162D01*
X125213703Y-99970863D01*
X125277816Y-99816082D01*
X125310500Y-99651767D01*
X125310500Y-99484233D01*
X125277816Y-99319918D01*
X125214179Y-99166287D01*
X125213704Y-99165139D01*
X125212430Y-99163233D01*
X125212427Y-99163228D01*
X132335292Y-99163228D01*
X132335292Y-99330771D01*
X132367974Y-99495074D01*
X132367976Y-99495082D01*
X132432087Y-99649860D01*
X132525165Y-99789162D01*
X132643629Y-99907626D01*
X132736286Y-99969537D01*
X132782929Y-100000703D01*
X132937710Y-100064816D01*
X133064868Y-100090109D01*
X133102020Y-100097499D01*
X133102024Y-100097500D01*
X133102025Y-100097500D01*
X133269560Y-100097500D01*
X133269561Y-100097499D01*
X133433874Y-100064816D01*
X133588655Y-100000703D01*
X133727954Y-99907626D01*
X133846418Y-99789162D01*
X133939495Y-99649863D01*
X134003608Y-99495082D01*
X134019293Y-99416228D01*
X163399500Y-99416228D01*
X163399500Y-99583771D01*
X163432182Y-99748074D01*
X163432184Y-99748082D01*
X163496295Y-99902860D01*
X163589373Y-100042162D01*
X163707837Y-100160626D01*
X163740103Y-100182185D01*
X163847137Y-100253703D01*
X163847138Y-100253703D01*
X163847139Y-100253704D01*
X163874825Y-100265172D01*
X164001918Y-100317816D01*
X164155892Y-100348443D01*
X164166228Y-100350499D01*
X164166232Y-100350500D01*
X164166233Y-100350500D01*
X164333768Y-100350500D01*
X164333769Y-100350499D01*
X164498082Y-100317816D01*
X164652863Y-100253703D01*
X164792162Y-100160626D01*
X164910626Y-100042162D01*
X165003703Y-99902863D01*
X165067816Y-99748082D01*
X165100500Y-99583767D01*
X165100500Y-99416233D01*
X165067816Y-99251918D01*
X165003703Y-99097137D01*
X164972537Y-99050494D01*
X164910626Y-98957837D01*
X164792162Y-98839373D01*
X164652860Y-98746295D01*
X164498082Y-98682184D01*
X164498074Y-98682182D01*
X164333771Y-98649500D01*
X164333767Y-98649500D01*
X164166233Y-98649500D01*
X164166228Y-98649500D01*
X164001925Y-98682182D01*
X164001917Y-98682184D01*
X163847139Y-98746295D01*
X163707837Y-98839373D01*
X163589373Y-98957837D01*
X163496295Y-99097139D01*
X163432184Y-99251917D01*
X163432182Y-99251925D01*
X163399500Y-99416228D01*
X134019293Y-99416228D01*
X134027247Y-99376243D01*
X134036291Y-99330771D01*
X134036292Y-99330768D01*
X134036292Y-99163232D01*
X134036291Y-99163228D01*
X134023814Y-99100500D01*
X134003608Y-98998918D01*
X133939495Y-98844137D01*
X133904766Y-98792162D01*
X133846418Y-98704837D01*
X133727954Y-98586373D01*
X133588652Y-98493295D01*
X133433874Y-98429184D01*
X133433866Y-98429182D01*
X133269563Y-98396500D01*
X133269559Y-98396500D01*
X133102025Y-98396500D01*
X133102020Y-98396500D01*
X132937717Y-98429182D01*
X132937709Y-98429184D01*
X132782931Y-98493295D01*
X132643629Y-98586373D01*
X132525165Y-98704837D01*
X132432087Y-98844139D01*
X132367976Y-98998917D01*
X132367974Y-98998925D01*
X132335292Y-99163228D01*
X125212427Y-99163228D01*
X125148675Y-99067816D01*
X125120626Y-99025837D01*
X125002162Y-98907373D01*
X124862860Y-98814295D01*
X124708082Y-98750184D01*
X124708074Y-98750182D01*
X124543771Y-98717500D01*
X124543767Y-98717500D01*
X124376233Y-98717500D01*
X124376228Y-98717500D01*
X124211925Y-98750182D01*
X124211917Y-98750184D01*
X124057139Y-98814295D01*
X123917837Y-98907373D01*
X123799373Y-99025837D01*
X123706295Y-99165139D01*
X123642184Y-99319917D01*
X123642182Y-99319925D01*
X123609500Y-99484228D01*
X108978159Y-99484228D01*
X109013246Y-99376243D01*
X109046500Y-99166287D01*
X109046500Y-98953713D01*
X109013246Y-98743757D01*
X108947557Y-98541588D01*
X108851051Y-98352184D01*
X108851049Y-98352181D01*
X108851048Y-98352179D01*
X108726109Y-98180213D01*
X108575786Y-98029890D01*
X108403820Y-97904951D01*
X108399716Y-97902860D01*
X108395054Y-97900485D01*
X108344259Y-97852512D01*
X108327463Y-97784692D01*
X108349999Y-97718556D01*
X108395054Y-97679515D01*
X108403816Y-97675051D01*
X108479907Y-97619768D01*
X108575786Y-97550109D01*
X108575788Y-97550106D01*
X108575792Y-97550104D01*
X108673668Y-97452228D01*
X123609500Y-97452228D01*
X123609500Y-97619771D01*
X123642182Y-97784074D01*
X123642184Y-97784082D01*
X123706295Y-97938860D01*
X123799373Y-98078162D01*
X123917837Y-98196626D01*
X123987698Y-98243305D01*
X124057137Y-98289703D01*
X124211918Y-98353816D01*
X124376228Y-98386499D01*
X124376232Y-98386500D01*
X124376233Y-98386500D01*
X124543768Y-98386500D01*
X124543769Y-98386499D01*
X124708082Y-98353816D01*
X124862863Y-98289703D01*
X125002162Y-98196626D01*
X125120626Y-98078162D01*
X125213703Y-97938863D01*
X125277816Y-97784082D01*
X125310500Y-97619767D01*
X125310500Y-97452233D01*
X125277816Y-97287918D01*
X125213703Y-97133137D01*
X125150410Y-97038412D01*
X125120626Y-96993837D01*
X125002162Y-96875373D01*
X124862860Y-96782295D01*
X124708082Y-96718184D01*
X124708074Y-96718182D01*
X124543771Y-96685500D01*
X124543767Y-96685500D01*
X124376233Y-96685500D01*
X124376228Y-96685500D01*
X124211925Y-96718182D01*
X124211917Y-96718184D01*
X124057139Y-96782295D01*
X123917837Y-96875373D01*
X123799373Y-96993837D01*
X123706295Y-97133139D01*
X123642184Y-97287917D01*
X123642182Y-97287925D01*
X123609500Y-97452228D01*
X108673668Y-97452228D01*
X108726104Y-97399792D01*
X108726316Y-97399500D01*
X108745383Y-97373257D01*
X108745383Y-97373256D01*
X108851051Y-97227816D01*
X108947557Y-97038412D01*
X109013246Y-96836243D01*
X109046500Y-96626287D01*
X109046500Y-96413713D01*
X109013246Y-96203757D01*
X108947557Y-96001588D01*
X108947555Y-96001585D01*
X108947555Y-96001583D01*
X108929647Y-95966437D01*
X108929646Y-95966436D01*
X108910188Y-95928247D01*
X108904064Y-95916228D01*
X126899500Y-95916228D01*
X126899500Y-96083771D01*
X126932182Y-96248074D01*
X126932184Y-96248082D01*
X126996295Y-96402860D01*
X127089373Y-96542161D01*
X127092800Y-96546337D01*
X127120112Y-96610647D01*
X127108319Y-96679515D01*
X127092804Y-96703658D01*
X127089375Y-96707836D01*
X126996295Y-96847140D01*
X126932184Y-97001918D01*
X126932182Y-97001926D01*
X126899500Y-97166229D01*
X126899500Y-97333772D01*
X126932182Y-97498075D01*
X126932184Y-97498083D01*
X126996295Y-97652861D01*
X127089373Y-97792163D01*
X127207837Y-97910627D01*
X127288029Y-97964209D01*
X127347137Y-98003704D01*
X127501918Y-98067817D01*
X127666228Y-98100500D01*
X127666232Y-98100501D01*
X127666233Y-98100501D01*
X127833768Y-98100501D01*
X127833769Y-98100500D01*
X127998082Y-98067817D01*
X128152863Y-98003704D01*
X128283780Y-97916228D01*
X145149500Y-97916228D01*
X145149500Y-98083771D01*
X145182182Y-98248074D01*
X145182184Y-98248082D01*
X145246295Y-98402860D01*
X145339373Y-98542162D01*
X145457837Y-98660626D01*
X145542956Y-98717500D01*
X145597137Y-98753703D01*
X145751918Y-98817816D01*
X145884244Y-98844137D01*
X145916228Y-98850499D01*
X145916232Y-98850500D01*
X145916233Y-98850500D01*
X146083768Y-98850500D01*
X146083769Y-98850499D01*
X146248082Y-98817816D01*
X146402863Y-98753703D01*
X146542162Y-98660626D01*
X146660626Y-98542162D01*
X146753703Y-98402863D01*
X146817816Y-98248082D01*
X146850500Y-98083767D01*
X146850500Y-97916233D01*
X146833813Y-97832341D01*
X146840040Y-97762751D01*
X146882903Y-97707574D01*
X146948792Y-97684329D01*
X147016789Y-97700396D01*
X147024320Y-97705049D01*
X147094464Y-97751917D01*
X147097137Y-97753703D01*
X147251918Y-97817816D01*
X147399326Y-97847137D01*
X147416228Y-97850499D01*
X147416232Y-97850500D01*
X147416233Y-97850500D01*
X147583768Y-97850500D01*
X147583769Y-97850499D01*
X147748082Y-97817816D01*
X147785790Y-97802196D01*
X147855256Y-97794727D01*
X147917736Y-97826000D01*
X147953390Y-97886088D01*
X147950897Y-97955914D01*
X147947803Y-97964209D01*
X147932185Y-98001913D01*
X147932182Y-98001925D01*
X147899500Y-98166228D01*
X147899500Y-98333771D01*
X147932182Y-98498074D01*
X147932184Y-98498082D01*
X147996295Y-98652860D01*
X148089373Y-98792162D01*
X148207837Y-98910626D01*
X148272322Y-98953713D01*
X148347137Y-99003703D01*
X148501918Y-99067816D01*
X148649326Y-99097137D01*
X148666228Y-99100499D01*
X148666232Y-99100500D01*
X148666233Y-99100500D01*
X148833768Y-99100500D01*
X148833769Y-99100499D01*
X148998082Y-99067816D01*
X149152863Y-99003703D01*
X149292162Y-98910626D01*
X149410626Y-98792162D01*
X149503703Y-98652863D01*
X149510439Y-98636602D01*
X149554279Y-98582198D01*
X149620573Y-98560133D01*
X149688273Y-98577412D01*
X149735884Y-98628549D01*
X149739561Y-98636602D01*
X149746294Y-98652858D01*
X149746295Y-98652860D01*
X149839373Y-98792162D01*
X149957837Y-98910626D01*
X150022322Y-98953713D01*
X150097137Y-99003703D01*
X150251918Y-99067816D01*
X150399326Y-99097137D01*
X150416228Y-99100499D01*
X150416232Y-99100500D01*
X150416233Y-99100500D01*
X150583768Y-99100500D01*
X150583769Y-99100499D01*
X150748082Y-99067816D01*
X150902863Y-99003703D01*
X151042162Y-98910626D01*
X151160626Y-98792162D01*
X151253703Y-98652863D01*
X151317816Y-98498082D01*
X151350500Y-98333767D01*
X151350500Y-98166233D01*
X151343489Y-98130985D01*
X151317175Y-97998691D01*
X151323402Y-97929099D01*
X151366266Y-97873922D01*
X151432155Y-97850678D01*
X151438792Y-97850500D01*
X151583768Y-97850500D01*
X151583769Y-97850499D01*
X151748082Y-97817816D01*
X151902863Y-97753703D01*
X152042162Y-97660626D01*
X152160626Y-97542162D01*
X152244773Y-97416228D01*
X163399500Y-97416228D01*
X163399500Y-97583771D01*
X163432182Y-97748074D01*
X163432184Y-97748082D01*
X163496295Y-97902860D01*
X163589373Y-98042162D01*
X163707837Y-98160626D01*
X163800494Y-98222537D01*
X163847137Y-98253703D01*
X164001918Y-98317816D01*
X164166228Y-98350499D01*
X164166232Y-98350500D01*
X164166233Y-98350500D01*
X164333768Y-98350500D01*
X164333769Y-98350499D01*
X164498082Y-98317816D01*
X164652863Y-98253703D01*
X164792162Y-98160626D01*
X164910626Y-98042162D01*
X165003703Y-97902863D01*
X165067816Y-97748082D01*
X165100500Y-97583767D01*
X165100500Y-97416233D01*
X165067816Y-97251918D01*
X165018227Y-97132201D01*
X165003704Y-97097139D01*
X164985890Y-97070479D01*
X164940080Y-97001919D01*
X164910626Y-96957837D01*
X164792162Y-96839373D01*
X164652860Y-96746295D01*
X164498082Y-96682184D01*
X164498074Y-96682182D01*
X164333771Y-96649500D01*
X164333767Y-96649500D01*
X164166233Y-96649500D01*
X164166228Y-96649500D01*
X164001925Y-96682182D01*
X164001917Y-96682184D01*
X163847139Y-96746295D01*
X163707837Y-96839373D01*
X163589373Y-96957837D01*
X163496295Y-97097139D01*
X163432184Y-97251917D01*
X163432182Y-97251925D01*
X163399500Y-97416228D01*
X152244773Y-97416228D01*
X152253703Y-97402863D01*
X152317816Y-97248082D01*
X152350500Y-97083767D01*
X152350500Y-96916233D01*
X152317816Y-96751918D01*
X152253703Y-96597137D01*
X152191272Y-96503703D01*
X152160626Y-96457837D01*
X152042162Y-96339373D01*
X151902860Y-96246295D01*
X151748082Y-96182184D01*
X151748074Y-96182182D01*
X151583771Y-96149500D01*
X151583767Y-96149500D01*
X151416233Y-96149500D01*
X151416228Y-96149500D01*
X151251925Y-96182182D01*
X151251917Y-96182184D01*
X151097139Y-96246295D01*
X150957837Y-96339373D01*
X150839373Y-96457837D01*
X150746295Y-96597139D01*
X150682184Y-96751917D01*
X150682182Y-96751925D01*
X150649500Y-96916228D01*
X150649500Y-97083771D01*
X150682825Y-97251309D01*
X150676598Y-97320901D01*
X150633734Y-97376078D01*
X150567845Y-97399322D01*
X150561208Y-97399500D01*
X150416228Y-97399500D01*
X150251925Y-97432182D01*
X150251917Y-97432184D01*
X150097139Y-97496295D01*
X149957837Y-97589373D01*
X149839373Y-97707837D01*
X149746296Y-97847137D01*
X149739561Y-97863399D01*
X149695719Y-97917802D01*
X149629424Y-97939866D01*
X149561725Y-97922586D01*
X149514115Y-97871448D01*
X149510439Y-97863399D01*
X149503703Y-97847137D01*
X149410626Y-97707837D01*
X149292162Y-97589373D01*
X149152860Y-97496295D01*
X148998082Y-97432184D01*
X148998074Y-97432182D01*
X148833771Y-97399500D01*
X148833767Y-97399500D01*
X148666233Y-97399500D01*
X148666228Y-97399500D01*
X148501925Y-97432182D01*
X148501913Y-97432185D01*
X148464209Y-97447803D01*
X148394740Y-97455272D01*
X148332261Y-97423996D01*
X148296609Y-97363907D01*
X148299103Y-97294082D01*
X148302188Y-97285809D01*
X148317816Y-97248082D01*
X148350500Y-97083767D01*
X148350500Y-96916233D01*
X148317816Y-96751918D01*
X148253703Y-96597137D01*
X148191272Y-96503703D01*
X148160626Y-96457837D01*
X148042162Y-96339373D01*
X147902860Y-96246295D01*
X147748082Y-96182184D01*
X147748074Y-96182182D01*
X147583771Y-96149500D01*
X147583767Y-96149500D01*
X147416233Y-96149500D01*
X147416228Y-96149500D01*
X147251925Y-96182182D01*
X147251917Y-96182184D01*
X147097139Y-96246295D01*
X146957837Y-96339373D01*
X146839373Y-96457837D01*
X146746295Y-96597139D01*
X146682184Y-96751917D01*
X146682182Y-96751925D01*
X146649500Y-96916228D01*
X146649500Y-97083771D01*
X146666186Y-97167657D01*
X146659959Y-97237249D01*
X146617095Y-97292426D01*
X146551206Y-97315670D01*
X146483209Y-97299602D01*
X146475679Y-97294951D01*
X146453408Y-97280070D01*
X146402863Y-97246297D01*
X146402860Y-97246295D01*
X146402859Y-97246295D01*
X146248082Y-97182184D01*
X146248074Y-97182182D01*
X146083771Y-97149500D01*
X146083767Y-97149500D01*
X145916233Y-97149500D01*
X145916228Y-97149500D01*
X145751925Y-97182182D01*
X145751917Y-97182184D01*
X145597139Y-97246295D01*
X145457837Y-97339373D01*
X145339373Y-97457837D01*
X145246295Y-97597139D01*
X145182184Y-97751917D01*
X145182182Y-97751925D01*
X145149500Y-97916228D01*
X128283780Y-97916228D01*
X128292162Y-97910627D01*
X128331341Y-97871448D01*
X128380330Y-97822460D01*
X128410623Y-97792166D01*
X128410626Y-97792163D01*
X128416031Y-97784074D01*
X128503703Y-97652864D01*
X128567816Y-97498083D01*
X128600500Y-97333768D01*
X128600500Y-97166234D01*
X128567816Y-97001919D01*
X128552195Y-96964209D01*
X128544727Y-96894741D01*
X128576002Y-96832262D01*
X128636090Y-96796609D01*
X128705916Y-96799102D01*
X128714211Y-96802197D01*
X128751912Y-96817814D01*
X128751914Y-96817814D01*
X128751918Y-96817816D01*
X128899331Y-96847138D01*
X128916228Y-96850499D01*
X128916232Y-96850500D01*
X128916233Y-96850500D01*
X129083768Y-96850500D01*
X129083769Y-96850499D01*
X129248082Y-96817816D01*
X129402863Y-96753703D01*
X129542162Y-96660626D01*
X129660626Y-96542162D01*
X129753703Y-96402863D01*
X129817816Y-96248082D01*
X129850500Y-96083767D01*
X129850500Y-95916233D01*
X129817816Y-95751918D01*
X129768227Y-95632201D01*
X129753704Y-95597139D01*
X129740870Y-95577932D01*
X129710933Y-95533127D01*
X129660626Y-95457837D01*
X129542165Y-95339376D01*
X129542161Y-95339373D01*
X129454596Y-95280864D01*
X129454594Y-95280862D01*
X129402865Y-95246298D01*
X129402861Y-95246296D01*
X129252102Y-95183849D01*
X131689450Y-95183849D01*
X131689450Y-95351392D01*
X131722132Y-95515695D01*
X131722134Y-95515703D01*
X131786245Y-95670481D01*
X131879323Y-95809783D01*
X131997787Y-95928247D01*
X132078007Y-95981848D01*
X132137087Y-96021324D01*
X132291868Y-96085437D01*
X132456178Y-96118120D01*
X132456182Y-96118121D01*
X132629500Y-96118121D01*
X132696539Y-96137806D01*
X132742294Y-96190610D01*
X132753500Y-96242121D01*
X132753500Y-96349771D01*
X132786182Y-96514074D01*
X132786184Y-96514082D01*
X132850295Y-96668860D01*
X132943373Y-96808162D01*
X133061837Y-96926626D01*
X133116091Y-96962877D01*
X133201137Y-97019703D01*
X133355918Y-97083816D01*
X133520228Y-97116499D01*
X133520232Y-97116500D01*
X133520233Y-97116500D01*
X133687768Y-97116500D01*
X133687769Y-97116499D01*
X133852082Y-97083816D01*
X134006863Y-97019703D01*
X134146162Y-96926626D01*
X134264626Y-96808162D01*
X134357703Y-96668863D01*
X134421816Y-96514082D01*
X134454500Y-96349767D01*
X134454500Y-96182233D01*
X134421816Y-96017918D01*
X134413600Y-95998082D01*
X134396829Y-95957593D01*
X134379695Y-95916228D01*
X136399500Y-95916228D01*
X136399500Y-96083771D01*
X136432182Y-96248074D01*
X136432184Y-96248082D01*
X136496295Y-96402860D01*
X136589373Y-96542162D01*
X136707837Y-96660626D01*
X136778492Y-96707836D01*
X136847137Y-96753703D01*
X137001918Y-96817816D01*
X137149331Y-96847138D01*
X137166228Y-96850499D01*
X137166232Y-96850500D01*
X137166233Y-96850500D01*
X137333768Y-96850500D01*
X137333769Y-96850499D01*
X137498082Y-96817816D01*
X137652863Y-96753703D01*
X137792162Y-96660626D01*
X137910626Y-96542162D01*
X138003703Y-96402863D01*
X138067816Y-96248082D01*
X138100500Y-96083767D01*
X138100500Y-95916233D01*
X138067816Y-95751918D01*
X138003703Y-95597137D01*
X138003701Y-95597134D01*
X137924791Y-95479036D01*
X137924788Y-95479033D01*
X137910623Y-95457834D01*
X137869017Y-95416228D01*
X138649500Y-95416228D01*
X138649500Y-95583771D01*
X138682182Y-95748074D01*
X138682184Y-95748082D01*
X138746295Y-95902860D01*
X138839373Y-96042162D01*
X138957837Y-96160626D01*
X139010223Y-96195629D01*
X139097137Y-96253703D01*
X139251918Y-96317816D01*
X139412548Y-96349767D01*
X139416228Y-96350499D01*
X139416232Y-96350500D01*
X139416233Y-96350500D01*
X139583768Y-96350500D01*
X139583769Y-96350499D01*
X139748082Y-96317816D01*
X139754221Y-96315272D01*
X139823689Y-96307800D01*
X139886170Y-96339071D01*
X139889361Y-96342150D01*
X139957837Y-96410626D01*
X140028494Y-96457837D01*
X140097137Y-96503703D01*
X140097138Y-96503703D01*
X140097139Y-96503704D01*
X140122194Y-96514082D01*
X140251918Y-96567816D01*
X140399326Y-96597137D01*
X140416228Y-96600499D01*
X140416232Y-96600500D01*
X140416233Y-96600500D01*
X140583768Y-96600500D01*
X140583769Y-96600499D01*
X140748082Y-96567816D01*
X140902863Y-96503703D01*
X141042162Y-96410626D01*
X141160626Y-96292162D01*
X141210933Y-96216872D01*
X141264543Y-96172068D01*
X141333867Y-96163359D01*
X141396895Y-96193513D01*
X141428424Y-96243045D01*
X141429853Y-96242454D01*
X141496295Y-96402860D01*
X141589373Y-96542162D01*
X141707837Y-96660626D01*
X141778492Y-96707836D01*
X141847137Y-96753703D01*
X142001918Y-96817816D01*
X142149331Y-96847138D01*
X142166228Y-96850499D01*
X142166232Y-96850500D01*
X142166233Y-96850500D01*
X142333768Y-96850500D01*
X142333769Y-96850499D01*
X142498082Y-96817816D01*
X142652863Y-96753703D01*
X142792162Y-96660626D01*
X142910626Y-96542162D01*
X143003703Y-96402863D01*
X143067816Y-96248082D01*
X143100500Y-96083767D01*
X143100500Y-95916233D01*
X143067816Y-95751918D01*
X143003703Y-95597137D01*
X142935601Y-95495216D01*
X144150136Y-95495216D01*
X144150136Y-95662759D01*
X144182818Y-95827062D01*
X144182820Y-95827070D01*
X144246931Y-95981848D01*
X144340009Y-96121150D01*
X144458473Y-96239614D01*
X144522862Y-96282637D01*
X144597773Y-96332691D01*
X144597774Y-96332691D01*
X144597775Y-96332692D01*
X144613907Y-96339374D01*
X144752554Y-96396804D01*
X144916864Y-96429487D01*
X144916868Y-96429488D01*
X144916869Y-96429488D01*
X145084404Y-96429488D01*
X145084405Y-96429487D01*
X145248718Y-96396804D01*
X145403499Y-96332691D01*
X145542798Y-96239614D01*
X145661262Y-96121150D01*
X145754339Y-95981851D01*
X145818452Y-95827070D01*
X145851136Y-95662755D01*
X145851136Y-95495221D01*
X145818452Y-95330906D01*
X145759046Y-95187488D01*
X145754340Y-95176127D01*
X145661262Y-95036825D01*
X145621025Y-94996588D01*
X145621016Y-94996580D01*
X145542798Y-94918362D01*
X145533618Y-94912228D01*
X152057500Y-94912228D01*
X152057500Y-95079771D01*
X152090182Y-95244074D01*
X152090184Y-95244082D01*
X152154295Y-95398860D01*
X152247373Y-95538162D01*
X152365837Y-95656626D01*
X152458494Y-95718537D01*
X152505137Y-95749703D01*
X152659918Y-95813816D01*
X152824228Y-95846499D01*
X152824232Y-95846500D01*
X152824233Y-95846500D01*
X152991768Y-95846500D01*
X152991769Y-95846499D01*
X153156082Y-95813816D01*
X153310863Y-95749703D01*
X153450162Y-95656626D01*
X153568626Y-95538162D01*
X153661703Y-95398863D01*
X153725816Y-95244082D01*
X153758500Y-95079767D01*
X153758500Y-94912233D01*
X153725816Y-94747918D01*
X153661703Y-94593137D01*
X153619838Y-94530482D01*
X153568626Y-94453837D01*
X153450162Y-94335373D01*
X153310860Y-94242295D01*
X153156082Y-94178184D01*
X153156074Y-94178182D01*
X152991771Y-94145500D01*
X152991767Y-94145500D01*
X152824233Y-94145500D01*
X152824228Y-94145500D01*
X152659925Y-94178182D01*
X152659917Y-94178184D01*
X152505139Y-94242295D01*
X152365837Y-94335373D01*
X152247373Y-94453837D01*
X152154295Y-94593139D01*
X152090184Y-94747917D01*
X152090182Y-94747925D01*
X152057500Y-94912228D01*
X145533618Y-94912228D01*
X145499084Y-94889153D01*
X145492872Y-94883680D01*
X145478464Y-94860849D01*
X145461148Y-94840129D01*
X145460094Y-94831741D01*
X145455583Y-94824593D01*
X145455805Y-94797592D01*
X145452441Y-94770804D01*
X145456089Y-94763178D01*
X145456159Y-94754726D01*
X145470942Y-94732134D01*
X145482596Y-94707777D01*
X145492493Y-94699201D01*
X145494417Y-94696261D01*
X145497449Y-94694906D01*
X145505950Y-94687539D01*
X145576162Y-94640626D01*
X145694626Y-94522162D01*
X145787703Y-94382863D01*
X145851816Y-94228082D01*
X145884500Y-94063767D01*
X145884500Y-93896233D01*
X145851816Y-93731918D01*
X145787703Y-93577137D01*
X145695026Y-93438436D01*
X145694626Y-93437837D01*
X145576162Y-93319373D01*
X145436860Y-93226295D01*
X145282082Y-93162184D01*
X145282074Y-93162182D01*
X145117771Y-93129500D01*
X145117767Y-93129500D01*
X144950233Y-93129500D01*
X144950228Y-93129500D01*
X144785925Y-93162182D01*
X144785917Y-93162184D01*
X144631139Y-93226295D01*
X144491837Y-93319373D01*
X144373373Y-93437837D01*
X144280295Y-93577139D01*
X144216184Y-93731917D01*
X144216182Y-93731925D01*
X144183500Y-93896228D01*
X144183500Y-94063771D01*
X144216182Y-94228074D01*
X144216184Y-94228082D01*
X144280295Y-94382860D01*
X144373373Y-94522162D01*
X144491835Y-94640624D01*
X144491838Y-94640626D01*
X144528682Y-94665245D01*
X144573488Y-94718856D01*
X144582195Y-94788181D01*
X144552041Y-94851209D01*
X144528683Y-94871449D01*
X144458474Y-94918361D01*
X144458470Y-94918364D01*
X144340009Y-95036825D01*
X144246931Y-95176127D01*
X144182820Y-95330905D01*
X144182818Y-95330913D01*
X144150136Y-95495216D01*
X142935601Y-95495216D01*
X142910626Y-95457838D01*
X142910625Y-95457837D01*
X142910623Y-95457834D01*
X142792162Y-95339373D01*
X142652860Y-95246295D01*
X142498082Y-95182184D01*
X142498074Y-95182182D01*
X142333771Y-95149500D01*
X142333767Y-95149500D01*
X142166233Y-95149500D01*
X142166228Y-95149500D01*
X142001925Y-95182182D01*
X142001917Y-95182184D01*
X141847139Y-95246295D01*
X141707837Y-95339373D01*
X141589376Y-95457834D01*
X141589373Y-95457838D01*
X141539067Y-95533127D01*
X141485455Y-95577932D01*
X141416130Y-95586639D01*
X141353102Y-95556485D01*
X141321579Y-95506952D01*
X141320147Y-95507546D01*
X141317815Y-95501917D01*
X141258335Y-95358319D01*
X141253704Y-95347139D01*
X141160626Y-95207837D01*
X141042162Y-95089373D01*
X140902860Y-94996295D01*
X140748082Y-94932184D01*
X140748074Y-94932182D01*
X140583771Y-94899500D01*
X140583767Y-94899500D01*
X140416233Y-94899500D01*
X140416228Y-94899500D01*
X140251925Y-94932181D01*
X140251916Y-94932184D01*
X140245769Y-94934731D01*
X140176299Y-94942198D01*
X140113821Y-94910922D01*
X140110665Y-94907877D01*
X140042162Y-94839374D01*
X140042161Y-94839373D01*
X140042160Y-94839372D01*
X139902860Y-94746295D01*
X139748082Y-94682184D01*
X139748074Y-94682182D01*
X139583771Y-94649500D01*
X139583767Y-94649500D01*
X139416233Y-94649500D01*
X139416228Y-94649500D01*
X139251925Y-94682182D01*
X139251917Y-94682184D01*
X139097139Y-94746295D01*
X138957837Y-94839373D01*
X138839373Y-94957837D01*
X138746295Y-95097139D01*
X138682184Y-95251917D01*
X138682182Y-95251925D01*
X138649500Y-95416228D01*
X137869017Y-95416228D01*
X137792162Y-95339373D01*
X137652860Y-95246295D01*
X137498082Y-95182184D01*
X137498074Y-95182182D01*
X137333771Y-95149500D01*
X137333767Y-95149500D01*
X137166233Y-95149500D01*
X137166228Y-95149500D01*
X137001925Y-95182182D01*
X137001917Y-95182184D01*
X136847139Y-95246295D01*
X136707837Y-95339373D01*
X136589373Y-95457837D01*
X136496295Y-95597139D01*
X136432184Y-95751917D01*
X136432182Y-95751925D01*
X136399500Y-95916228D01*
X134379695Y-95916228D01*
X134357704Y-95863139D01*
X134338078Y-95833767D01*
X134296889Y-95772123D01*
X134264626Y-95723837D01*
X134146162Y-95605373D01*
X134006860Y-95512295D01*
X133852082Y-95448184D01*
X133852074Y-95448182D01*
X133687771Y-95415500D01*
X133687767Y-95415500D01*
X133520233Y-95415500D01*
X133514450Y-95415500D01*
X133447411Y-95395815D01*
X133401656Y-95343011D01*
X133390450Y-95291500D01*
X133390450Y-95183853D01*
X133390449Y-95183849D01*
X133380491Y-95133788D01*
X133357766Y-95019539D01*
X133293653Y-94864758D01*
X133232064Y-94772584D01*
X133200576Y-94725458D01*
X133082112Y-94606994D01*
X132942810Y-94513916D01*
X132788032Y-94449805D01*
X132788024Y-94449803D01*
X132623721Y-94417121D01*
X132623717Y-94417121D01*
X132456183Y-94417121D01*
X132456178Y-94417121D01*
X132291875Y-94449803D01*
X132291867Y-94449805D01*
X132137089Y-94513916D01*
X131997787Y-94606994D01*
X131879323Y-94725458D01*
X131786245Y-94864760D01*
X131722134Y-95019538D01*
X131722132Y-95019546D01*
X131689450Y-95183849D01*
X129252102Y-95183849D01*
X129248082Y-95182184D01*
X129248074Y-95182182D01*
X129083771Y-95149500D01*
X129083767Y-95149500D01*
X128916233Y-95149500D01*
X128916228Y-95149500D01*
X128751925Y-95182182D01*
X128751917Y-95182184D01*
X128597139Y-95246295D01*
X128457838Y-95339373D01*
X128453663Y-95342800D01*
X128389353Y-95370112D01*
X128320485Y-95358319D01*
X128296337Y-95342800D01*
X128292161Y-95339373D01*
X128152860Y-95246295D01*
X127998082Y-95182184D01*
X127998074Y-95182182D01*
X127833771Y-95149500D01*
X127833767Y-95149500D01*
X127666233Y-95149500D01*
X127666228Y-95149500D01*
X127501925Y-95182182D01*
X127501917Y-95182184D01*
X127347139Y-95246295D01*
X127207837Y-95339373D01*
X127089373Y-95457837D01*
X126996295Y-95597139D01*
X126932184Y-95751917D01*
X126932182Y-95751925D01*
X126899500Y-95916228D01*
X108904064Y-95916228D01*
X108851051Y-95812184D01*
X108851049Y-95812181D01*
X108851048Y-95812179D01*
X108726109Y-95640213D01*
X108575786Y-95489890D01*
X108403817Y-95364949D01*
X108395054Y-95360484D01*
X108344258Y-95312509D01*
X108327464Y-95244688D01*
X108350002Y-95178553D01*
X108395058Y-95139514D01*
X108403816Y-95135052D01*
X108477350Y-95081627D01*
X108575786Y-95010110D01*
X108575788Y-95010107D01*
X108575792Y-95010105D01*
X108726104Y-94859793D01*
X108726106Y-94859789D01*
X108726109Y-94859787D01*
X108851048Y-94687821D01*
X108851047Y-94687821D01*
X108851051Y-94687817D01*
X108947557Y-94498413D01*
X109013246Y-94296244D01*
X109046500Y-94086288D01*
X109046500Y-93873714D01*
X109013246Y-93663758D01*
X108947557Y-93461589D01*
X108910178Y-93388228D01*
X123355500Y-93388228D01*
X123355500Y-93555771D01*
X123388182Y-93720074D01*
X123388184Y-93720082D01*
X123452295Y-93874860D01*
X123545373Y-94014162D01*
X123663837Y-94132626D01*
X123731544Y-94177866D01*
X123803137Y-94225703D01*
X123957918Y-94289816D01*
X124122228Y-94322499D01*
X124122232Y-94322500D01*
X124122233Y-94322500D01*
X124289768Y-94322500D01*
X124289769Y-94322499D01*
X124454082Y-94289816D01*
X124608863Y-94225703D01*
X124748162Y-94132626D01*
X124866626Y-94014162D01*
X124959703Y-93874863D01*
X125023816Y-93720082D01*
X125056500Y-93555767D01*
X125056500Y-93388233D01*
X125023816Y-93223918D01*
X124959703Y-93069137D01*
X124928537Y-93022494D01*
X124866626Y-92929837D01*
X124748162Y-92811373D01*
X124608860Y-92718295D01*
X124454082Y-92654184D01*
X124454074Y-92654182D01*
X124289771Y-92621500D01*
X124289767Y-92621500D01*
X124122233Y-92621500D01*
X124122228Y-92621500D01*
X123957925Y-92654182D01*
X123957917Y-92654184D01*
X123803139Y-92718295D01*
X123663837Y-92811373D01*
X123545373Y-92929837D01*
X123452295Y-93069139D01*
X123388184Y-93223917D01*
X123388182Y-93223925D01*
X123355500Y-93388228D01*
X108910178Y-93388228D01*
X108851051Y-93272185D01*
X108851049Y-93272182D01*
X108851048Y-93272180D01*
X108726109Y-93100214D01*
X108575786Y-92949891D01*
X108403817Y-92824950D01*
X108395052Y-92820484D01*
X108344257Y-92772509D01*
X108327462Y-92704688D01*
X108350000Y-92638553D01*
X108395056Y-92599514D01*
X108403816Y-92595051D01*
X108403818Y-92595049D01*
X108403821Y-92595048D01*
X108575786Y-92470109D01*
X108575788Y-92470106D01*
X108575792Y-92470104D01*
X108726104Y-92319792D01*
X108726106Y-92319788D01*
X108726109Y-92319786D01*
X108851048Y-92147820D01*
X108851047Y-92147820D01*
X108851051Y-92147816D01*
X108947557Y-91958412D01*
X109013246Y-91756243D01*
X109046500Y-91546287D01*
X109046500Y-91356228D01*
X125641500Y-91356228D01*
X125641500Y-91523771D01*
X125674182Y-91688074D01*
X125674184Y-91688082D01*
X125738295Y-91842860D01*
X125831373Y-91982162D01*
X125949837Y-92100626D01*
X126042494Y-92162537D01*
X126089137Y-92193703D01*
X126243918Y-92257816D01*
X126408228Y-92290499D01*
X126408232Y-92290500D01*
X126408233Y-92290500D01*
X126575768Y-92290500D01*
X126575769Y-92290499D01*
X126740082Y-92257816D01*
X126894863Y-92193703D01*
X127034162Y-92100626D01*
X127152626Y-91982162D01*
X127245703Y-91842863D01*
X127309816Y-91688082D01*
X127342500Y-91523767D01*
X127342500Y-91356233D01*
X127309816Y-91191918D01*
X127245703Y-91037137D01*
X127198279Y-90966162D01*
X127152626Y-90897837D01*
X127034162Y-90779373D01*
X126894860Y-90686295D01*
X126740082Y-90622184D01*
X126740074Y-90622182D01*
X126575771Y-90589500D01*
X126575767Y-90589500D01*
X126408233Y-90589500D01*
X126408228Y-90589500D01*
X126243925Y-90622182D01*
X126243917Y-90622184D01*
X126089139Y-90686295D01*
X125949837Y-90779373D01*
X125831373Y-90897837D01*
X125738295Y-91037139D01*
X125674184Y-91191917D01*
X125674182Y-91191925D01*
X125641500Y-91356228D01*
X109046500Y-91356228D01*
X109046500Y-91333713D01*
X109013246Y-91123757D01*
X108947557Y-90921588D01*
X108851051Y-90732184D01*
X108851049Y-90732181D01*
X108851048Y-90732179D01*
X108726109Y-90560213D01*
X108575786Y-90409890D01*
X108479903Y-90340228D01*
X127673500Y-90340228D01*
X127673500Y-90507771D01*
X127706182Y-90672074D01*
X127706184Y-90672082D01*
X127770295Y-90826860D01*
X127863373Y-90966162D01*
X127981837Y-91084626D01*
X128028237Y-91115629D01*
X128121137Y-91177703D01*
X128275918Y-91241816D01*
X128440228Y-91274499D01*
X128440232Y-91274500D01*
X128565500Y-91274500D01*
X128632539Y-91294185D01*
X128678294Y-91346989D01*
X128689500Y-91398500D01*
X128689500Y-91523771D01*
X128722182Y-91688074D01*
X128722184Y-91688082D01*
X128786295Y-91842860D01*
X128879373Y-91982162D01*
X128997837Y-92100626D01*
X129090494Y-92162537D01*
X129137137Y-92193703D01*
X129291918Y-92257816D01*
X129456228Y-92290499D01*
X129456232Y-92290500D01*
X129456233Y-92290500D01*
X129623768Y-92290500D01*
X129623769Y-92290499D01*
X129788082Y-92257816D01*
X129942863Y-92193703D01*
X130082162Y-92100626D01*
X130200626Y-91982162D01*
X130293703Y-91842863D01*
X130357816Y-91688082D01*
X130390500Y-91523767D01*
X130390500Y-91356233D01*
X130357816Y-91191918D01*
X130293703Y-91037137D01*
X130200626Y-90897838D01*
X130200625Y-90897837D01*
X130200624Y-90897835D01*
X130151017Y-90848228D01*
X131991500Y-90848228D01*
X131991500Y-91015771D01*
X132024182Y-91180074D01*
X132024184Y-91180082D01*
X132088295Y-91334859D01*
X132088303Y-91334874D01*
X132112515Y-91371110D01*
X132133393Y-91437787D01*
X132114908Y-91505167D01*
X132112515Y-91508890D01*
X132088303Y-91545125D01*
X132088295Y-91545140D01*
X132024184Y-91699917D01*
X132024182Y-91699925D01*
X131991500Y-91864228D01*
X131991500Y-92031771D01*
X132024182Y-92196074D01*
X132024184Y-92196082D01*
X132088295Y-92350860D01*
X132181373Y-92490162D01*
X132299837Y-92608626D01*
X132368017Y-92654182D01*
X132439137Y-92701703D01*
X132439138Y-92701703D01*
X132439139Y-92701704D01*
X132471982Y-92715308D01*
X132593918Y-92765816D01*
X132593924Y-92765817D01*
X132599750Y-92767585D01*
X132599327Y-92768976D01*
X132654811Y-92797999D01*
X132689385Y-92858714D01*
X132685646Y-92928484D01*
X132671811Y-92956121D01*
X132596298Y-93069134D01*
X132596296Y-93069138D01*
X132532184Y-93223917D01*
X132532182Y-93223925D01*
X132499500Y-93388228D01*
X132499500Y-93555771D01*
X132532182Y-93720074D01*
X132532184Y-93720082D01*
X132596295Y-93874860D01*
X132689373Y-94014162D01*
X132807837Y-94132626D01*
X132875544Y-94177866D01*
X132947137Y-94225703D01*
X133101918Y-94289816D01*
X133266228Y-94322499D01*
X133266232Y-94322500D01*
X133266233Y-94322500D01*
X133433768Y-94322500D01*
X133433769Y-94322499D01*
X133598082Y-94289816D01*
X133752863Y-94225703D01*
X133892162Y-94132626D01*
X134010626Y-94014162D01*
X134103703Y-93874863D01*
X134167816Y-93720082D01*
X134200500Y-93555767D01*
X134200500Y-93388233D01*
X134167816Y-93223918D01*
X134103703Y-93069137D01*
X134028187Y-92956120D01*
X134007310Y-92889445D01*
X134025794Y-92822064D01*
X134077773Y-92775374D01*
X134100335Y-92767865D01*
X134100250Y-92767585D01*
X134106072Y-92765817D01*
X134106082Y-92765816D01*
X134260863Y-92701703D01*
X134400162Y-92608626D01*
X134518626Y-92490162D01*
X134611703Y-92350863D01*
X134675816Y-92196082D01*
X134708500Y-92031767D01*
X134708500Y-91864233D01*
X134675816Y-91699918D01*
X134626227Y-91580201D01*
X134611704Y-91545139D01*
X134597426Y-91523771D01*
X134580537Y-91498494D01*
X134518626Y-91405837D01*
X134400162Y-91287373D01*
X134260860Y-91194295D01*
X134106082Y-91130184D01*
X134106074Y-91130182D01*
X133941771Y-91097500D01*
X133941767Y-91097500D01*
X133816500Y-91097500D01*
X133749461Y-91077815D01*
X133703706Y-91025011D01*
X133692500Y-90973500D01*
X133692500Y-90848232D01*
X133692499Y-90848228D01*
X133678803Y-90779373D01*
X133659816Y-90683918D01*
X133595703Y-90529137D01*
X133547897Y-90457591D01*
X133502626Y-90389837D01*
X133384162Y-90271373D01*
X133244860Y-90178295D01*
X133090082Y-90114184D01*
X133090074Y-90114182D01*
X132925771Y-90081500D01*
X132925767Y-90081500D01*
X132758233Y-90081500D01*
X132758228Y-90081500D01*
X132593925Y-90114182D01*
X132593917Y-90114184D01*
X132439139Y-90178295D01*
X132299837Y-90271373D01*
X132181373Y-90389837D01*
X132088295Y-90529139D01*
X132024184Y-90683917D01*
X132024182Y-90683925D01*
X131991500Y-90848228D01*
X130151017Y-90848228D01*
X130082162Y-90779373D01*
X129942860Y-90686295D01*
X129788082Y-90622184D01*
X129788074Y-90622182D01*
X129623771Y-90589500D01*
X129623767Y-90589500D01*
X129498500Y-90589500D01*
X129489814Y-90586949D01*
X129480853Y-90588238D01*
X129456812Y-90577259D01*
X129431461Y-90569815D01*
X129425533Y-90562974D01*
X129417297Y-90559213D01*
X129403007Y-90536978D01*
X129385706Y-90517011D01*
X129383418Y-90506496D01*
X129379523Y-90500435D01*
X129374500Y-90465500D01*
X129374500Y-90382500D01*
X129394185Y-90315461D01*
X129446989Y-90269706D01*
X129498500Y-90258500D01*
X129623768Y-90258500D01*
X129623769Y-90258499D01*
X129788082Y-90225816D01*
X129942863Y-90161703D01*
X130082162Y-90068626D01*
X130200626Y-89950162D01*
X130293703Y-89810863D01*
X130357816Y-89656082D01*
X130390500Y-89491767D01*
X130390500Y-89324233D01*
X130357816Y-89159918D01*
X130308227Y-89040201D01*
X130293704Y-89005139D01*
X130200626Y-88865837D01*
X130082165Y-88747376D01*
X130082159Y-88747371D01*
X130076985Y-88743914D01*
X130032181Y-88690302D01*
X130023474Y-88620977D01*
X130053629Y-88557949D01*
X130098425Y-88526252D01*
X130152858Y-88503705D01*
X130152857Y-88503705D01*
X130152863Y-88503703D01*
X130292162Y-88410626D01*
X130410626Y-88292162D01*
X130503703Y-88152863D01*
X130567816Y-87998082D01*
X130600500Y-87833767D01*
X130600500Y-87666233D01*
X130567816Y-87501918D01*
X130503703Y-87347137D01*
X130472537Y-87300494D01*
X130410626Y-87207837D01*
X130292162Y-87089373D01*
X130152860Y-86996295D01*
X129998082Y-86932184D01*
X129998074Y-86932182D01*
X129833771Y-86899500D01*
X129833767Y-86899500D01*
X129666233Y-86899500D01*
X129666228Y-86899500D01*
X129501925Y-86932182D01*
X129501917Y-86932184D01*
X129347139Y-86996295D01*
X129207837Y-87089373D01*
X129089373Y-87207837D01*
X128996295Y-87347139D01*
X128932184Y-87501917D01*
X128932182Y-87501925D01*
X128899500Y-87666228D01*
X128899500Y-87833771D01*
X128932182Y-87998074D01*
X128932184Y-87998082D01*
X128996295Y-88152860D01*
X129089373Y-88292162D01*
X129207835Y-88410624D01*
X129213012Y-88414083D01*
X129257817Y-88467695D01*
X129266526Y-88537020D01*
X129236371Y-88600048D01*
X129191576Y-88631746D01*
X129137143Y-88654293D01*
X129137139Y-88654295D01*
X128997837Y-88747373D01*
X128879373Y-88865837D01*
X128786295Y-89005139D01*
X128722184Y-89159917D01*
X128722182Y-89159925D01*
X128689500Y-89324228D01*
X128689500Y-89449500D01*
X128669815Y-89516539D01*
X128617011Y-89562294D01*
X128565500Y-89573500D01*
X128440228Y-89573500D01*
X128275925Y-89606182D01*
X128275917Y-89606184D01*
X128121139Y-89670295D01*
X127981837Y-89763373D01*
X127863373Y-89881837D01*
X127770295Y-90021139D01*
X127706184Y-90175917D01*
X127706182Y-90175925D01*
X127673500Y-90340228D01*
X108479903Y-90340228D01*
X108403820Y-90284951D01*
X108403115Y-90284591D01*
X108395054Y-90280485D01*
X108344259Y-90232512D01*
X108327463Y-90164692D01*
X108349999Y-90098556D01*
X108395054Y-90059515D01*
X108403816Y-90055051D01*
X108504717Y-89981743D01*
X108575786Y-89930109D01*
X108575788Y-89930106D01*
X108575792Y-89930104D01*
X108726104Y-89779792D01*
X108726106Y-89779788D01*
X108726109Y-89779786D01*
X108851048Y-89607820D01*
X108851047Y-89607820D01*
X108851051Y-89607816D01*
X108947557Y-89418412D01*
X109013246Y-89216243D01*
X109046500Y-89006287D01*
X109046500Y-88793713D01*
X109013246Y-88583757D01*
X108947557Y-88381588D01*
X108947554Y-88381582D01*
X108935762Y-88358437D01*
X108935761Y-88358436D01*
X108910178Y-88308228D01*
X124117500Y-88308228D01*
X124117500Y-88475771D01*
X124150182Y-88640074D01*
X124150184Y-88640082D01*
X124214295Y-88794860D01*
X124307373Y-88934162D01*
X124425837Y-89052626D01*
X124518494Y-89114537D01*
X124565137Y-89145703D01*
X124719918Y-89209816D01*
X124884228Y-89242499D01*
X124884232Y-89242500D01*
X124884233Y-89242500D01*
X125051768Y-89242500D01*
X125051769Y-89242499D01*
X125216082Y-89209816D01*
X125370863Y-89145703D01*
X125510162Y-89052626D01*
X125628626Y-88934162D01*
X125721703Y-88794863D01*
X125785816Y-88640082D01*
X125818500Y-88475767D01*
X125818500Y-88308233D01*
X125785816Y-88143918D01*
X125721703Y-87989137D01*
X125690537Y-87942494D01*
X125628626Y-87849837D01*
X125510162Y-87731373D01*
X125370860Y-87638295D01*
X125216082Y-87574184D01*
X125216074Y-87574182D01*
X125051771Y-87541500D01*
X125051767Y-87541500D01*
X124884233Y-87541500D01*
X124884228Y-87541500D01*
X124719925Y-87574182D01*
X124719917Y-87574184D01*
X124565139Y-87638295D01*
X124425837Y-87731373D01*
X124307373Y-87849837D01*
X124214295Y-87989139D01*
X124150184Y-88143917D01*
X124150182Y-88143925D01*
X124117500Y-88308228D01*
X108910178Y-88308228D01*
X108901992Y-88292162D01*
X108851051Y-88192184D01*
X108815984Y-88143918D01*
X108726109Y-88020213D01*
X108575786Y-87869890D01*
X108403820Y-87744951D01*
X108403115Y-87744591D01*
X108395054Y-87740485D01*
X108344259Y-87692512D01*
X108327463Y-87624692D01*
X108349999Y-87558556D01*
X108395054Y-87519515D01*
X108403816Y-87515051D01*
X108425789Y-87499086D01*
X108575786Y-87390109D01*
X108575788Y-87390106D01*
X108575792Y-87390104D01*
X108726104Y-87239792D01*
X108726106Y-87239788D01*
X108726109Y-87239786D01*
X108851048Y-87067820D01*
X108851047Y-87067820D01*
X108851051Y-87067816D01*
X108947557Y-86878412D01*
X109013246Y-86676243D01*
X109046500Y-86466287D01*
X109046500Y-86253713D01*
X109013246Y-86043757D01*
X108947557Y-85841588D01*
X108851051Y-85652184D01*
X108851049Y-85652181D01*
X108851048Y-85652179D01*
X108726109Y-85480213D01*
X108575790Y-85329894D01*
X108575785Y-85329890D01*
X108481460Y-85261359D01*
X108481425Y-85261335D01*
X108403816Y-85204949D01*
X108387738Y-85196757D01*
X108380975Y-85192095D01*
X108363928Y-85171088D01*
X108358782Y-85166228D01*
X137899500Y-85166228D01*
X137899500Y-85333771D01*
X137932182Y-85498074D01*
X137932184Y-85498082D01*
X137996295Y-85652860D01*
X138089373Y-85792162D01*
X138207837Y-85910626D01*
X138300494Y-85972537D01*
X138347137Y-86003703D01*
X138501918Y-86067816D01*
X138666228Y-86100499D01*
X138666232Y-86100500D01*
X138666233Y-86100500D01*
X138833768Y-86100500D01*
X138833769Y-86100499D01*
X138998082Y-86067816D01*
X139152863Y-86003703D01*
X139292162Y-85910626D01*
X139410626Y-85792162D01*
X139503703Y-85652863D01*
X139567816Y-85498082D01*
X139600500Y-85333767D01*
X139600500Y-85166233D01*
X139567816Y-85001918D01*
X139532322Y-84916228D01*
X144149500Y-84916228D01*
X144149500Y-85083771D01*
X144182182Y-85248074D01*
X144182184Y-85248082D01*
X144246295Y-85402860D01*
X144339373Y-85542162D01*
X144457837Y-85660626D01*
X144480098Y-85675500D01*
X144597137Y-85753703D01*
X144597138Y-85753703D01*
X144597139Y-85753704D01*
X144632201Y-85768227D01*
X144751918Y-85817816D01*
X144916228Y-85850499D01*
X144916232Y-85850500D01*
X144916233Y-85850500D01*
X145083768Y-85850500D01*
X145083769Y-85850499D01*
X145248082Y-85817816D01*
X145402863Y-85753703D01*
X145542162Y-85660626D01*
X145660626Y-85542162D01*
X145753703Y-85402863D01*
X145817816Y-85248082D01*
X145850500Y-85083767D01*
X145850500Y-84916233D01*
X145850499Y-84916230D01*
X145850499Y-84916228D01*
X145822460Y-84775265D01*
X145817816Y-84751918D01*
X145753703Y-84597137D01*
X145686324Y-84496297D01*
X145660626Y-84457837D01*
X145542162Y-84339373D01*
X145402860Y-84246295D01*
X145248082Y-84182184D01*
X145248074Y-84182182D01*
X145083771Y-84149500D01*
X145083767Y-84149500D01*
X144916233Y-84149500D01*
X144916228Y-84149500D01*
X144751925Y-84182182D01*
X144751917Y-84182184D01*
X144597139Y-84246295D01*
X144457837Y-84339373D01*
X144339373Y-84457837D01*
X144246295Y-84597139D01*
X144182184Y-84751917D01*
X144182182Y-84751925D01*
X144149500Y-84916228D01*
X139532322Y-84916228D01*
X139503703Y-84847137D01*
X139472537Y-84800494D01*
X139410626Y-84707837D01*
X139292162Y-84589373D01*
X139152860Y-84496295D01*
X138998082Y-84432184D01*
X138998074Y-84432182D01*
X138833771Y-84399500D01*
X138833767Y-84399500D01*
X138666233Y-84399500D01*
X138666228Y-84399500D01*
X138501925Y-84432182D01*
X138501917Y-84432184D01*
X138347139Y-84496295D01*
X138207837Y-84589373D01*
X138089373Y-84707837D01*
X137996295Y-84847139D01*
X137932184Y-85001917D01*
X137932182Y-85001925D01*
X137899500Y-85166228D01*
X108358782Y-85166228D01*
X108344259Y-85152512D01*
X108342240Y-85144361D01*
X108336949Y-85137841D01*
X108333965Y-85110948D01*
X108327463Y-85084692D01*
X108330171Y-85076744D01*
X108329245Y-85068397D01*
X108341273Y-85044161D01*
X108349999Y-85018556D01*
X108356988Y-85012499D01*
X108360308Y-85005812D01*
X108374498Y-84997327D01*
X108395054Y-84979515D01*
X108403816Y-84975051D01*
X108436600Y-84951232D01*
X108575786Y-84850109D01*
X108575788Y-84850106D01*
X108575792Y-84850104D01*
X108726104Y-84699792D01*
X108726106Y-84699788D01*
X108726109Y-84699786D01*
X108851048Y-84527820D01*
X108851047Y-84527820D01*
X108851051Y-84527816D01*
X108947557Y-84338412D01*
X109013246Y-84136243D01*
X109046500Y-83926287D01*
X109046500Y-83713713D01*
X109013246Y-83503757D01*
X108947557Y-83301588D01*
X108851051Y-83112184D01*
X108851049Y-83112181D01*
X108851048Y-83112179D01*
X108726109Y-82940213D01*
X108575788Y-82789892D01*
X108536066Y-82761033D01*
X108536042Y-82761016D01*
X108405576Y-82666228D01*
X149649500Y-82666228D01*
X149649500Y-82833771D01*
X149682182Y-82998074D01*
X149682184Y-82998082D01*
X149746295Y-83152859D01*
X149746302Y-83152872D01*
X149765170Y-83181111D01*
X149786047Y-83247789D01*
X149767561Y-83315168D01*
X149765170Y-83318889D01*
X149746302Y-83347127D01*
X149746295Y-83347140D01*
X149682184Y-83501917D01*
X149682182Y-83501925D01*
X149649500Y-83666228D01*
X149649500Y-83833771D01*
X149682182Y-83998074D01*
X149682184Y-83998082D01*
X149746295Y-84152860D01*
X149839373Y-84292162D01*
X149957837Y-84410626D01*
X150028494Y-84457837D01*
X150097137Y-84503703D01*
X150251918Y-84567816D01*
X150399326Y-84597137D01*
X150416228Y-84600499D01*
X150416232Y-84600500D01*
X150561209Y-84600500D01*
X150628248Y-84620185D01*
X150674003Y-84672989D01*
X150683947Y-84742147D01*
X150682826Y-84748691D01*
X150649500Y-84916230D01*
X150649500Y-85083772D01*
X150682182Y-85248075D01*
X150682184Y-85248083D01*
X150746295Y-85402861D01*
X150839373Y-85542163D01*
X150957837Y-85660627D01*
X151050494Y-85722538D01*
X151097137Y-85753704D01*
X151251918Y-85817817D01*
X151371409Y-85841585D01*
X151416228Y-85850500D01*
X151416232Y-85850501D01*
X151416233Y-85850501D01*
X151583768Y-85850501D01*
X151583769Y-85850500D01*
X151748082Y-85817817D01*
X151902863Y-85753704D01*
X152042162Y-85660627D01*
X152160626Y-85542163D01*
X152253703Y-85402864D01*
X152317816Y-85248083D01*
X152350500Y-85083768D01*
X152350500Y-84916234D01*
X152317816Y-84751919D01*
X152265880Y-84626537D01*
X152253704Y-84597140D01*
X152250612Y-84592513D01*
X152191272Y-84503704D01*
X152160626Y-84457838D01*
X152042162Y-84339374D01*
X151902860Y-84246296D01*
X151748082Y-84182185D01*
X151748074Y-84182183D01*
X151583771Y-84149501D01*
X151583767Y-84149501D01*
X151438791Y-84149501D01*
X151371752Y-84129816D01*
X151325997Y-84077012D01*
X151316053Y-84007854D01*
X151317174Y-84001310D01*
X151340527Y-83883903D01*
X151350500Y-83833767D01*
X151350500Y-83777155D01*
X153825000Y-83777155D01*
X153825000Y-84250000D01*
X154684314Y-84250000D01*
X154679920Y-84254394D01*
X154627259Y-84345606D01*
X154600000Y-84447339D01*
X154600000Y-84552661D01*
X154627259Y-84654394D01*
X154679920Y-84745606D01*
X154684314Y-84750000D01*
X153825000Y-84750000D01*
X153825000Y-85222844D01*
X153831401Y-85282372D01*
X153831403Y-85282379D01*
X153881645Y-85417086D01*
X153881649Y-85417093D01*
X153967809Y-85532187D01*
X153967812Y-85532190D01*
X154082906Y-85618350D01*
X154082913Y-85618354D01*
X154217620Y-85668596D01*
X154217627Y-85668598D01*
X154277155Y-85674999D01*
X154277172Y-85675000D01*
X154750000Y-85675000D01*
X154750000Y-84815686D01*
X154754394Y-84820080D01*
X154845606Y-84872741D01*
X154947339Y-84900000D01*
X155052661Y-84900000D01*
X155154394Y-84872741D01*
X155245606Y-84820080D01*
X155250000Y-84815686D01*
X155250000Y-85675000D01*
X155722828Y-85675000D01*
X155722844Y-85674999D01*
X155782372Y-85668598D01*
X155782379Y-85668596D01*
X155917086Y-85618354D01*
X155917093Y-85618350D01*
X156032186Y-85532191D01*
X156095836Y-85447166D01*
X156151770Y-85405295D01*
X156221461Y-85400311D01*
X156267985Y-85421157D01*
X156383905Y-85505378D01*
X156456098Y-85542162D01*
X156548765Y-85589379D01*
X156548768Y-85589380D01*
X156636751Y-85617967D01*
X156724737Y-85646555D01*
X156907487Y-85675500D01*
X156907488Y-85675500D01*
X157092514Y-85675500D01*
X157092515Y-85675500D01*
X157275265Y-85646555D01*
X157451236Y-85589379D01*
X157616097Y-85505378D01*
X157765788Y-85396621D01*
X157896622Y-85265787D01*
X157899675Y-85261585D01*
X157955000Y-85218913D01*
X158024613Y-85212927D01*
X158086411Y-85245527D01*
X158100312Y-85261565D01*
X158103379Y-85265787D01*
X158234213Y-85396621D01*
X158383904Y-85505378D01*
X158456097Y-85542162D01*
X158548764Y-85589379D01*
X158548767Y-85589380D01*
X158636750Y-85617967D01*
X158724736Y-85646555D01*
X158907486Y-85675500D01*
X158907487Y-85675500D01*
X159092513Y-85675500D01*
X159092514Y-85675500D01*
X159275264Y-85646555D01*
X159451235Y-85589379D01*
X159616096Y-85505378D01*
X159765787Y-85396621D01*
X159896621Y-85265787D01*
X159899680Y-85261576D01*
X159955006Y-85218909D01*
X160024619Y-85212926D01*
X160086415Y-85245529D01*
X160100315Y-85261570D01*
X160103379Y-85265787D01*
X160234213Y-85396621D01*
X160383904Y-85505378D01*
X160456097Y-85542162D01*
X160548764Y-85589379D01*
X160548767Y-85589380D01*
X160636750Y-85617967D01*
X160724736Y-85646555D01*
X160907486Y-85675500D01*
X160907487Y-85675500D01*
X161092513Y-85675500D01*
X161092514Y-85675500D01*
X161275264Y-85646555D01*
X161451235Y-85589379D01*
X161616096Y-85505378D01*
X161765787Y-85396621D01*
X161896621Y-85265787D01*
X162005378Y-85116096D01*
X162089379Y-84951235D01*
X162146555Y-84775264D01*
X162175500Y-84592514D01*
X162175500Y-84407486D01*
X162146555Y-84224736D01*
X162089379Y-84048765D01*
X162089379Y-84048764D01*
X162005377Y-83883903D01*
X161968953Y-83833770D01*
X161896621Y-83734213D01*
X161765787Y-83603379D01*
X161616096Y-83494622D01*
X161451235Y-83410620D01*
X161451232Y-83410619D01*
X161275265Y-83353445D01*
X161136097Y-83331403D01*
X161092514Y-83324500D01*
X160907486Y-83324500D01*
X160863915Y-83331401D01*
X160724734Y-83353445D01*
X160548767Y-83410619D01*
X160548764Y-83410620D01*
X160383903Y-83494622D01*
X160298499Y-83556672D01*
X160234213Y-83603379D01*
X160234211Y-83603381D01*
X160234210Y-83603381D01*
X160103381Y-83734210D01*
X160103379Y-83734213D01*
X160100323Y-83738420D01*
X160100314Y-83738432D01*
X160044981Y-83781094D01*
X159975367Y-83787069D01*
X159913574Y-83754459D01*
X159899686Y-83738432D01*
X159896621Y-83734213D01*
X159765787Y-83603379D01*
X159616096Y-83494622D01*
X159451235Y-83410620D01*
X159451232Y-83410619D01*
X159275265Y-83353445D01*
X159136097Y-83331403D01*
X159092514Y-83324500D01*
X158907486Y-83324500D01*
X158863915Y-83331401D01*
X158724734Y-83353445D01*
X158548767Y-83410619D01*
X158548764Y-83410620D01*
X158383903Y-83494622D01*
X158298499Y-83556672D01*
X158234213Y-83603379D01*
X158234211Y-83603381D01*
X158234210Y-83603381D01*
X158103381Y-83734210D01*
X158103369Y-83734224D01*
X158100309Y-83738436D01*
X158044974Y-83781096D01*
X157975360Y-83787066D01*
X157913569Y-83754453D01*
X157899679Y-83738420D01*
X157896625Y-83734216D01*
X157765790Y-83603381D01*
X157765788Y-83603379D01*
X157616097Y-83494622D01*
X157451236Y-83410620D01*
X157451233Y-83410619D01*
X157275266Y-83353445D01*
X157136098Y-83331403D01*
X157092515Y-83324500D01*
X156907487Y-83324500D01*
X156863916Y-83331401D01*
X156724735Y-83353445D01*
X156548768Y-83410619D01*
X156548765Y-83410620D01*
X156383901Y-83494624D01*
X156267988Y-83578839D01*
X156202181Y-83602319D01*
X156134128Y-83586493D01*
X156095837Y-83552833D01*
X156032187Y-83467809D01*
X155917093Y-83381649D01*
X155917086Y-83381645D01*
X155782379Y-83331403D01*
X155782372Y-83331401D01*
X155722844Y-83325000D01*
X155250000Y-83325000D01*
X155250000Y-84184314D01*
X155245606Y-84179920D01*
X155154394Y-84127259D01*
X155052661Y-84100000D01*
X154947339Y-84100000D01*
X154845606Y-84127259D01*
X154754394Y-84179920D01*
X154750000Y-84184314D01*
X154750000Y-83325000D01*
X154277155Y-83325000D01*
X154217627Y-83331401D01*
X154217620Y-83331403D01*
X154082913Y-83381645D01*
X154082906Y-83381649D01*
X153967812Y-83467809D01*
X153967809Y-83467812D01*
X153881649Y-83582906D01*
X153881645Y-83582913D01*
X153831403Y-83717620D01*
X153831401Y-83717627D01*
X153825000Y-83777155D01*
X151350500Y-83777155D01*
X151350500Y-83666233D01*
X151317816Y-83501918D01*
X151253703Y-83347137D01*
X151234828Y-83318889D01*
X151213951Y-83252214D01*
X151232435Y-83184834D01*
X151234829Y-83181109D01*
X151253703Y-83152863D01*
X151317816Y-82998082D01*
X151350500Y-82833767D01*
X151350500Y-82666233D01*
X151317816Y-82501918D01*
X151253703Y-82347137D01*
X151222537Y-82300494D01*
X151160626Y-82207837D01*
X151042162Y-82089373D01*
X150902860Y-81996295D01*
X150748082Y-81932184D01*
X150748074Y-81932182D01*
X150583771Y-81899500D01*
X150583767Y-81899500D01*
X150416233Y-81899500D01*
X150416228Y-81899500D01*
X150251925Y-81932182D01*
X150251917Y-81932184D01*
X150097139Y-81996295D01*
X149957837Y-82089373D01*
X149839373Y-82207837D01*
X149746295Y-82347139D01*
X149682184Y-82501917D01*
X149682182Y-82501925D01*
X149649500Y-82666228D01*
X108405576Y-82666228D01*
X108403816Y-82664949D01*
X108387250Y-82656508D01*
X108380077Y-82651470D01*
X108363541Y-82630722D01*
X108344257Y-82612508D01*
X108342107Y-82603826D01*
X108336531Y-82596830D01*
X108333837Y-82570433D01*
X108327462Y-82544687D01*
X108330347Y-82536221D01*
X108329439Y-82527321D01*
X108341442Y-82503662D01*
X108350000Y-82478552D01*
X108357464Y-82472084D01*
X108361053Y-82465012D01*
X108375186Y-82456729D01*
X108395056Y-82439513D01*
X108403816Y-82435050D01*
X108403818Y-82435048D01*
X108403821Y-82435047D01*
X108575786Y-82310108D01*
X108575788Y-82310105D01*
X108575792Y-82310103D01*
X108726104Y-82159791D01*
X108726106Y-82159787D01*
X108726109Y-82159785D01*
X108835086Y-82009788D01*
X108851051Y-81987815D01*
X108947557Y-81798411D01*
X109013246Y-81596242D01*
X109046500Y-81386286D01*
X109046500Y-81173712D01*
X109013246Y-80963756D01*
X108947557Y-80761587D01*
X108851051Y-80572183D01*
X108851049Y-80572180D01*
X108851048Y-80572178D01*
X108726109Y-80400212D01*
X108575786Y-80249889D01*
X108403817Y-80124948D01*
X108395054Y-80120483D01*
X108392239Y-80117824D01*
X108388483Y-80116881D01*
X108367037Y-80094022D01*
X108344258Y-80072508D01*
X108343327Y-80068750D01*
X108340678Y-80065926D01*
X108334996Y-80035104D01*
X108327464Y-80004687D01*
X108328712Y-80001021D01*
X108328011Y-79997214D01*
X108339891Y-79968219D01*
X108350002Y-79938552D01*
X108353460Y-79935104D01*
X108354503Y-79932561D01*
X108362782Y-79925814D01*
X108372401Y-79916228D01*
X128399500Y-79916228D01*
X128399500Y-80083771D01*
X128432182Y-80248074D01*
X128432184Y-80248082D01*
X128496295Y-80402860D01*
X128589373Y-80542162D01*
X128707837Y-80660626D01*
X128716229Y-80666233D01*
X128847137Y-80753703D01*
X129001918Y-80817816D01*
X129166228Y-80850499D01*
X129166232Y-80850500D01*
X129166233Y-80850500D01*
X129333768Y-80850500D01*
X129333769Y-80850499D01*
X129498082Y-80817816D01*
X129652863Y-80753703D01*
X129783778Y-80666228D01*
X131149500Y-80666228D01*
X131149500Y-80833771D01*
X131182182Y-80998074D01*
X131182184Y-80998082D01*
X131246295Y-81152860D01*
X131339373Y-81292162D01*
X131457837Y-81410626D01*
X131550494Y-81472537D01*
X131597137Y-81503703D01*
X131751918Y-81567816D01*
X131898190Y-81596911D01*
X131916228Y-81600499D01*
X131916232Y-81600500D01*
X131916233Y-81600500D01*
X132083768Y-81600500D01*
X132083769Y-81600499D01*
X132248082Y-81567816D01*
X132402863Y-81503703D01*
X132542162Y-81410626D01*
X132660626Y-81292162D01*
X132753703Y-81152863D01*
X132817816Y-80998082D01*
X132850500Y-80833767D01*
X132850500Y-80666233D01*
X132850499Y-80666228D01*
X138149500Y-80666228D01*
X138149500Y-80833771D01*
X138182182Y-80998074D01*
X138182184Y-80998082D01*
X138246295Y-81152860D01*
X138339373Y-81292162D01*
X138457837Y-81410626D01*
X138550494Y-81472537D01*
X138597137Y-81503703D01*
X138751918Y-81567816D01*
X138898190Y-81596911D01*
X138916228Y-81600499D01*
X138916232Y-81600500D01*
X138916233Y-81600500D01*
X139083768Y-81600500D01*
X139083769Y-81600499D01*
X139248082Y-81567816D01*
X139402863Y-81503703D01*
X139542162Y-81410626D01*
X139660626Y-81292162D01*
X139753703Y-81152863D01*
X139817816Y-80998082D01*
X139850500Y-80833767D01*
X139850500Y-80666233D01*
X139817816Y-80501918D01*
X139753703Y-80347137D01*
X139688724Y-80249889D01*
X139660626Y-80207837D01*
X139542162Y-80089373D01*
X139402860Y-79996295D01*
X139248082Y-79932184D01*
X139248074Y-79932182D01*
X139083771Y-79899500D01*
X139083767Y-79899500D01*
X138916233Y-79899500D01*
X138916228Y-79899500D01*
X138751925Y-79932182D01*
X138751917Y-79932184D01*
X138597139Y-79996295D01*
X138457837Y-80089373D01*
X138339373Y-80207837D01*
X138246295Y-80347139D01*
X138182184Y-80501917D01*
X138182182Y-80501925D01*
X138149500Y-80666228D01*
X132850499Y-80666228D01*
X132817816Y-80501918D01*
X132753703Y-80347137D01*
X132688724Y-80249889D01*
X132660626Y-80207837D01*
X132542162Y-80089373D01*
X132402860Y-79996295D01*
X132248082Y-79932184D01*
X132248074Y-79932182D01*
X132083771Y-79899500D01*
X132083767Y-79899500D01*
X131916233Y-79899500D01*
X131916228Y-79899500D01*
X131751925Y-79932182D01*
X131751917Y-79932184D01*
X131597139Y-79996295D01*
X131457837Y-80089373D01*
X131339373Y-80207837D01*
X131246295Y-80347139D01*
X131182184Y-80501917D01*
X131182182Y-80501925D01*
X131149500Y-80666228D01*
X129783778Y-80666228D01*
X129792162Y-80660626D01*
X129792165Y-80660623D01*
X129880329Y-80572460D01*
X129910623Y-80542165D01*
X129910626Y-80542162D01*
X130003703Y-80402863D01*
X130067816Y-80248082D01*
X130100500Y-80083767D01*
X130100500Y-79916233D01*
X130067816Y-79751918D01*
X130003703Y-79597137D01*
X129920647Y-79472835D01*
X129910626Y-79457837D01*
X129792162Y-79339373D01*
X129652860Y-79246295D01*
X129498082Y-79182184D01*
X129498074Y-79182182D01*
X129333771Y-79149500D01*
X129333767Y-79149500D01*
X129166233Y-79149500D01*
X129166228Y-79149500D01*
X129001925Y-79182182D01*
X129001917Y-79182184D01*
X128847139Y-79246295D01*
X128707837Y-79339373D01*
X128589373Y-79457837D01*
X128496295Y-79597139D01*
X128432184Y-79751917D01*
X128432182Y-79751925D01*
X128399500Y-79916228D01*
X108372401Y-79916228D01*
X108380242Y-79908413D01*
X108387332Y-79903449D01*
X108403816Y-79895051D01*
X108575792Y-79770104D01*
X108726104Y-79619792D01*
X108726106Y-79619788D01*
X108726109Y-79619786D01*
X108851048Y-79447820D01*
X108851047Y-79447820D01*
X108851051Y-79447816D01*
X108947557Y-79258412D01*
X109013246Y-79056243D01*
X109046500Y-78846287D01*
X109046500Y-78633713D01*
X109013246Y-78423757D01*
X108947557Y-78221588D01*
X108851051Y-78032184D01*
X108851049Y-78032181D01*
X108851048Y-78032179D01*
X108726109Y-77860213D01*
X108612569Y-77746673D01*
X108579084Y-77685350D01*
X108584068Y-77615658D01*
X108625940Y-77559725D01*
X108656915Y-77542810D01*
X108788331Y-77493796D01*
X108903546Y-77407546D01*
X108989796Y-77292331D01*
X109036829Y-77166228D01*
X129899500Y-77166228D01*
X129899500Y-77333771D01*
X129932182Y-77498074D01*
X129932184Y-77498082D01*
X129996295Y-77652860D01*
X130089373Y-77792161D01*
X130092800Y-77796337D01*
X130120112Y-77860647D01*
X130108319Y-77929515D01*
X130092800Y-77953663D01*
X130089373Y-77957838D01*
X129996295Y-78097139D01*
X129932184Y-78251917D01*
X129932182Y-78251925D01*
X129899500Y-78416228D01*
X129899500Y-78583771D01*
X129932182Y-78748074D01*
X129932184Y-78748082D01*
X129996295Y-78902860D01*
X130089373Y-79042162D01*
X130207837Y-79160626D01*
X130271680Y-79203284D01*
X130347137Y-79253703D01*
X130501918Y-79317816D01*
X130666228Y-79350499D01*
X130666232Y-79350500D01*
X130666233Y-79350500D01*
X130833768Y-79350500D01*
X130833769Y-79350499D01*
X130998082Y-79317816D01*
X131152863Y-79253703D01*
X131292162Y-79160626D01*
X131303288Y-79149500D01*
X131412319Y-79040470D01*
X131473642Y-79006985D01*
X131543334Y-79011969D01*
X131587681Y-79040470D01*
X131707837Y-79160626D01*
X131771680Y-79203284D01*
X131847137Y-79253703D01*
X132001918Y-79317816D01*
X132166228Y-79350499D01*
X132166232Y-79350500D01*
X132166233Y-79350500D01*
X132333768Y-79350500D01*
X132333769Y-79350499D01*
X132498082Y-79317816D01*
X132652863Y-79253703D01*
X132792162Y-79160626D01*
X132910626Y-79042162D01*
X133003703Y-78902863D01*
X133067816Y-78748082D01*
X133100500Y-78583767D01*
X133100500Y-78416233D01*
X133067816Y-78251918D01*
X133003703Y-78097137D01*
X132960299Y-78032179D01*
X132910626Y-77957837D01*
X132792162Y-77839373D01*
X132652860Y-77746295D01*
X132498082Y-77682184D01*
X132498074Y-77682182D01*
X132333771Y-77649500D01*
X132333767Y-77649500D01*
X132166233Y-77649500D01*
X132166228Y-77649500D01*
X132001925Y-77682182D01*
X132001917Y-77682184D01*
X131847139Y-77746295D01*
X131707838Y-77839373D01*
X131607313Y-77939898D01*
X131545990Y-77973382D01*
X131476298Y-77968398D01*
X131420365Y-77926526D01*
X131395948Y-77861061D01*
X131410800Y-77792789D01*
X131416523Y-77783336D01*
X131503703Y-77652863D01*
X131567816Y-77498082D01*
X131600500Y-77333767D01*
X131600500Y-77166233D01*
X131567816Y-77001918D01*
X131503703Y-76847137D01*
X131450605Y-76767670D01*
X131410626Y-76707837D01*
X131292162Y-76589373D01*
X131152860Y-76496295D01*
X130998082Y-76432184D01*
X130998074Y-76432182D01*
X130833771Y-76399500D01*
X130833767Y-76399500D01*
X130666233Y-76399500D01*
X130666228Y-76399500D01*
X130501925Y-76432182D01*
X130501917Y-76432184D01*
X130347139Y-76496295D01*
X130207837Y-76589373D01*
X130089373Y-76707837D01*
X129996295Y-76847139D01*
X129932184Y-77001917D01*
X129932182Y-77001925D01*
X129899500Y-77166228D01*
X109036829Y-77166228D01*
X109040091Y-77157483D01*
X109046500Y-77097873D01*
X109046499Y-75302128D01*
X109040091Y-75242517D01*
X109031118Y-75218460D01*
X108989797Y-75107671D01*
X108989793Y-75107664D01*
X108903547Y-74992455D01*
X108903544Y-74992452D01*
X108788335Y-74906206D01*
X108788328Y-74906202D01*
X108653482Y-74855908D01*
X108653483Y-74855908D01*
X108593883Y-74849501D01*
X108593881Y-74849500D01*
X108593873Y-74849500D01*
X108593864Y-74849500D01*
X106798129Y-74849500D01*
X106798123Y-74849501D01*
X106738516Y-74855908D01*
X106603671Y-74906202D01*
X106603664Y-74906206D01*
X106488455Y-74992452D01*
X106488452Y-74992455D01*
X106402206Y-75107664D01*
X106402202Y-75107671D01*
X106351908Y-75242517D01*
X106345501Y-75302116D01*
X106345501Y-75302123D01*
X106345500Y-75302135D01*
X106345500Y-77097870D01*
X106345501Y-77097876D01*
X106351908Y-77157483D01*
X106402202Y-77292328D01*
X106402206Y-77292335D01*
X106488452Y-77407544D01*
X106488455Y-77407547D01*
X106603664Y-77493793D01*
X106603671Y-77493797D01*
X106735082Y-77542810D01*
X106791016Y-77584681D01*
X106815433Y-77650145D01*
X106800582Y-77718418D01*
X106779431Y-77746673D01*
X106665889Y-77860215D01*
X106540951Y-78032179D01*
X106444444Y-78221585D01*
X106378753Y-78423760D01*
X106345500Y-78633713D01*
X106345500Y-78846286D01*
X106376523Y-79042162D01*
X106378754Y-79056243D01*
X106442913Y-79253704D01*
X106444444Y-79258414D01*
X106540951Y-79447820D01*
X106665890Y-79619786D01*
X106816213Y-79770109D01*
X106988179Y-79895048D01*
X106988181Y-79895049D01*
X106988184Y-79895051D01*
X106996942Y-79899513D01*
X107047739Y-79947487D01*
X107064535Y-80015307D01*
X107041999Y-80081443D01*
X106996949Y-80120481D01*
X106988183Y-80124947D01*
X106816213Y-80249889D01*
X106665890Y-80400212D01*
X106540951Y-80572178D01*
X106444444Y-80761584D01*
X106378753Y-80963759D01*
X106345500Y-81173712D01*
X106345500Y-81386285D01*
X106374251Y-81567816D01*
X106378754Y-81596242D01*
X106430500Y-81755500D01*
X106444444Y-81798413D01*
X106540951Y-81987819D01*
X106665890Y-82159785D01*
X106816213Y-82310108D01*
X106988179Y-82435047D01*
X106988181Y-82435048D01*
X106988184Y-82435050D01*
X106996945Y-82439513D01*
X107047741Y-82487487D01*
X107064537Y-82555307D01*
X107042001Y-82621443D01*
X106996950Y-82660481D01*
X106988187Y-82664946D01*
X106988184Y-82664948D01*
X106816213Y-82789890D01*
X106665890Y-82940213D01*
X106540951Y-83112179D01*
X106444444Y-83301585D01*
X106378753Y-83503760D01*
X106345500Y-83713713D01*
X106345500Y-83926286D01*
X106373013Y-84100000D01*
X106378754Y-84136243D01*
X106429415Y-84292162D01*
X106444444Y-84338414D01*
X106540951Y-84527820D01*
X106665890Y-84699786D01*
X106816213Y-84850109D01*
X106988182Y-84975050D01*
X106996946Y-84979516D01*
X107047742Y-85027491D01*
X107064536Y-85095312D01*
X107041998Y-85161447D01*
X106996946Y-85200484D01*
X106988182Y-85204949D01*
X106816213Y-85329890D01*
X106665890Y-85480213D01*
X106540951Y-85652179D01*
X106444444Y-85841585D01*
X106378753Y-86043760D01*
X106345500Y-86253713D01*
X106345500Y-86466286D01*
X106378753Y-86676239D01*
X106444444Y-86878414D01*
X106540951Y-87067820D01*
X106665890Y-87239786D01*
X106816213Y-87390109D01*
X106988182Y-87515050D01*
X106996946Y-87519516D01*
X107047742Y-87567491D01*
X107064536Y-87635312D01*
X107041998Y-87701447D01*
X106996946Y-87740484D01*
X106988182Y-87744949D01*
X106816213Y-87869890D01*
X106665890Y-88020213D01*
X106540951Y-88192179D01*
X106444444Y-88381585D01*
X106378753Y-88583760D01*
X106345500Y-88793713D01*
X106345500Y-89006286D01*
X106367581Y-89145704D01*
X106378754Y-89216243D01*
X106413842Y-89324233D01*
X106444444Y-89418414D01*
X106540951Y-89607820D01*
X106665890Y-89779786D01*
X106816213Y-89930109D01*
X106988182Y-90055050D01*
X106996946Y-90059516D01*
X107047742Y-90107491D01*
X107064536Y-90175312D01*
X107041998Y-90241447D01*
X106996946Y-90280484D01*
X106988182Y-90284949D01*
X106816213Y-90409890D01*
X106665890Y-90560213D01*
X106540951Y-90732179D01*
X106444444Y-90921585D01*
X106378753Y-91123760D01*
X106352839Y-91287374D01*
X106345500Y-91333713D01*
X106345500Y-91546287D01*
X106378754Y-91756243D01*
X106419901Y-91882881D01*
X106444444Y-91958414D01*
X106540951Y-92147820D01*
X106665890Y-92319786D01*
X106816213Y-92470109D01*
X106988179Y-92595048D01*
X106988181Y-92595049D01*
X106988184Y-92595051D01*
X106996945Y-92599514D01*
X107047741Y-92647488D01*
X107064537Y-92715308D01*
X107042001Y-92781444D01*
X106996950Y-92820482D01*
X106988187Y-92824947D01*
X106988184Y-92824949D01*
X106816213Y-92949891D01*
X106665890Y-93100214D01*
X106540951Y-93272180D01*
X106444444Y-93461586D01*
X106378753Y-93663761D01*
X106345500Y-93873714D01*
X106345500Y-94086287D01*
X106377735Y-94289815D01*
X106378754Y-94296244D01*
X106429959Y-94453837D01*
X106444444Y-94498415D01*
X106540951Y-94687821D01*
X106665890Y-94859787D01*
X106816213Y-95010110D01*
X106988179Y-95135049D01*
X106988181Y-95135050D01*
X106988184Y-95135052D01*
X106996942Y-95139514D01*
X107047739Y-95187488D01*
X107064535Y-95255308D01*
X107041999Y-95321444D01*
X106996949Y-95360482D01*
X106988183Y-95364948D01*
X106816213Y-95489890D01*
X106665890Y-95640213D01*
X106540951Y-95812179D01*
X106444444Y-96001585D01*
X106378753Y-96203760D01*
X106345500Y-96413713D01*
X106345500Y-96626286D01*
X106375835Y-96817817D01*
X106378754Y-96836243D01*
X106438364Y-97019704D01*
X106444444Y-97038414D01*
X106540951Y-97227820D01*
X106665890Y-97399786D01*
X106816213Y-97550109D01*
X106988182Y-97675050D01*
X106996946Y-97679516D01*
X107047742Y-97727491D01*
X107064536Y-97795312D01*
X107041998Y-97861447D01*
X106996946Y-97900484D01*
X106988182Y-97904949D01*
X106816213Y-98029890D01*
X106665890Y-98180213D01*
X106540951Y-98352179D01*
X106444444Y-98541585D01*
X106444443Y-98541587D01*
X106444443Y-98541588D01*
X106438417Y-98560133D01*
X106378753Y-98743760D01*
X106352839Y-98907374D01*
X106345500Y-98953713D01*
X106345500Y-99166287D01*
X106378754Y-99376243D01*
X106417367Y-99495082D01*
X106444444Y-99578414D01*
X106540951Y-99767820D01*
X106665890Y-99939786D01*
X106816213Y-100090109D01*
X106988182Y-100215050D01*
X106996946Y-100219516D01*
X107047742Y-100267491D01*
X107064536Y-100335312D01*
X107041998Y-100401447D01*
X106996946Y-100440484D01*
X106988182Y-100444949D01*
X106816213Y-100569890D01*
X106665890Y-100720213D01*
X106540951Y-100892179D01*
X106444444Y-101081585D01*
X106378753Y-101283760D01*
X106357772Y-101416232D01*
X106345500Y-101493713D01*
X106345500Y-101706287D01*
X106352120Y-101748082D01*
X106378751Y-101916228D01*
X106378754Y-101916243D01*
X106437530Y-102097137D01*
X106444444Y-102118414D01*
X106540951Y-102307820D01*
X106665890Y-102479786D01*
X106816213Y-102630109D01*
X106988179Y-102755048D01*
X106988181Y-102755049D01*
X106988184Y-102755051D01*
X106996942Y-102759513D01*
X107047739Y-102807487D01*
X107064535Y-102875307D01*
X107041999Y-102941443D01*
X106996949Y-102980481D01*
X106988183Y-102984947D01*
X106816213Y-103109889D01*
X106665890Y-103260212D01*
X106540951Y-103432178D01*
X106444444Y-103621584D01*
X106378753Y-103823759D01*
X106345500Y-104033712D01*
X106345500Y-104246285D01*
X106374943Y-104432184D01*
X106378754Y-104456242D01*
X106425626Y-104600500D01*
X106444444Y-104658413D01*
X106540951Y-104847819D01*
X106665890Y-105019785D01*
X106816213Y-105170108D01*
X106988179Y-105295047D01*
X106988181Y-105295048D01*
X106988184Y-105295050D01*
X106996945Y-105299513D01*
X107047741Y-105347487D01*
X107064537Y-105415307D01*
X107042001Y-105481443D01*
X106996950Y-105520481D01*
X106988187Y-105524946D01*
X106988184Y-105524948D01*
X106816213Y-105649890D01*
X106665890Y-105800213D01*
X106540951Y-105972179D01*
X106444444Y-106161585D01*
X106378753Y-106363760D01*
X106356871Y-106501917D01*
X106345500Y-106573713D01*
X106345500Y-106786287D01*
X106378754Y-106996243D01*
X106429643Y-107152863D01*
X106444444Y-107198414D01*
X106540951Y-107387820D01*
X106665890Y-107559786D01*
X106816213Y-107710109D01*
X106988179Y-107835048D01*
X106988181Y-107835049D01*
X106988184Y-107835051D01*
X106997493Y-107839794D01*
X107048290Y-107887766D01*
X107065087Y-107955587D01*
X107042552Y-108021722D01*
X106997505Y-108060760D01*
X106988446Y-108065376D01*
X106988440Y-108065380D01*
X106934282Y-108104727D01*
X106934282Y-108104728D01*
X107566591Y-108737037D01*
X107503007Y-108754075D01*
X107388993Y-108819901D01*
X107295901Y-108912993D01*
X107230075Y-109027007D01*
X107213037Y-109090591D01*
X106580728Y-108458282D01*
X106580727Y-108458282D01*
X106541380Y-108512439D01*
X106444904Y-108701782D01*
X106379242Y-108903869D01*
X106379242Y-108903872D01*
X106346000Y-109113753D01*
X106346000Y-109326246D01*
X106379242Y-109536127D01*
X106379242Y-109536130D01*
X106444904Y-109738217D01*
X106541375Y-109927550D01*
X106580728Y-109981716D01*
X107213037Y-109349408D01*
X107230075Y-109412993D01*
X107295901Y-109527007D01*
X107388993Y-109620099D01*
X107503007Y-109685925D01*
X107566591Y-109702962D01*
X106934282Y-110335270D01*
X106936289Y-110360770D01*
X106921925Y-110429147D01*
X106872873Y-110478904D01*
X106812671Y-110494499D01*
X105006093Y-110494499D01*
X104989877Y-110494897D01*
X104981284Y-110495108D01*
X104969129Y-110495705D01*
X104944392Y-110497530D01*
X104848293Y-110506993D01*
X104848272Y-110506996D01*
X104844193Y-110507398D01*
X104844182Y-110507399D01*
X104767504Y-110514952D01*
X104718441Y-110522230D01*
X104694616Y-110526969D01*
X104649254Y-110538330D01*
X104643785Y-110539192D01*
X104614408Y-110535368D01*
X104584816Y-110534179D01*
X104580151Y-110530909D01*
X104574500Y-110530174D01*
X104551854Y-110511074D01*
X104527602Y-110494075D01*
X104525445Y-110488801D01*
X104521090Y-110485128D01*
X104512365Y-110456819D01*
X104501153Y-110429405D01*
X104500600Y-110418646D01*
X104500511Y-110418358D01*
X104500573Y-110418133D01*
X104500500Y-110416701D01*
X104500500Y-73068228D01*
X135547500Y-73068228D01*
X135547500Y-73235771D01*
X135580182Y-73400074D01*
X135580184Y-73400082D01*
X135644295Y-73554860D01*
X135737373Y-73694162D01*
X135855837Y-73812626D01*
X135885186Y-73832236D01*
X135995137Y-73905703D01*
X136149918Y-73969816D01*
X136262220Y-73992154D01*
X136314228Y-74002499D01*
X136314232Y-74002500D01*
X136314233Y-74002500D01*
X136481768Y-74002500D01*
X136481769Y-74002499D01*
X136646082Y-73969816D01*
X136800863Y-73905703D01*
X136940162Y-73812626D01*
X137058626Y-73694162D01*
X137151703Y-73554863D01*
X137215816Y-73400082D01*
X137248500Y-73235767D01*
X137248500Y-73068233D01*
X137215816Y-72903918D01*
X137151703Y-72749137D01*
X137102705Y-72675806D01*
X137058626Y-72609837D01*
X136940162Y-72491373D01*
X136800860Y-72398295D01*
X136692792Y-72353532D01*
X136646082Y-72334184D01*
X136646078Y-72334183D01*
X136646074Y-72334182D01*
X136481771Y-72301500D01*
X136481767Y-72301500D01*
X136314233Y-72301500D01*
X136314228Y-72301500D01*
X136149925Y-72334182D01*
X136149917Y-72334184D01*
X135995139Y-72398295D01*
X135855837Y-72491373D01*
X135737373Y-72609837D01*
X135644295Y-72749139D01*
X135580184Y-72903917D01*
X135580182Y-72903925D01*
X135547500Y-73068228D01*
X104500500Y-73068228D01*
X104500500Y-72224983D01*
X147399500Y-72224983D01*
X147399500Y-73775001D01*
X147399501Y-73775018D01*
X147410000Y-73877796D01*
X147410001Y-73877799D01*
X147455894Y-74016294D01*
X147465186Y-74044334D01*
X147557288Y-74193656D01*
X147681344Y-74317712D01*
X147830666Y-74409814D01*
X147997203Y-74464999D01*
X148099991Y-74475500D01*
X149400008Y-74475499D01*
X149502797Y-74464999D01*
X149669334Y-74409814D01*
X149818656Y-74317712D01*
X149942712Y-74193656D01*
X150034814Y-74044334D01*
X150034814Y-74044331D01*
X150038178Y-74038879D01*
X150090126Y-73992154D01*
X150159088Y-73980931D01*
X150223170Y-74008774D01*
X150231398Y-74016294D01*
X150370213Y-74155109D01*
X150542179Y-74280048D01*
X150542181Y-74280049D01*
X150542184Y-74280051D01*
X150731588Y-74376557D01*
X150933757Y-74442246D01*
X151143713Y-74475500D01*
X151143714Y-74475500D01*
X151356286Y-74475500D01*
X151356287Y-74475500D01*
X151566243Y-74442246D01*
X151768412Y-74376557D01*
X151957816Y-74280051D01*
X152011947Y-74240723D01*
X152129786Y-74155109D01*
X152129788Y-74155106D01*
X152129792Y-74155104D01*
X152280104Y-74004792D01*
X152399683Y-73840204D01*
X152455011Y-73797540D01*
X152524624Y-73791561D01*
X152586420Y-73824166D01*
X152600313Y-73840199D01*
X152702560Y-73980931D01*
X152719896Y-74004792D01*
X152870213Y-74155109D01*
X153042179Y-74280048D01*
X153042181Y-74280049D01*
X153042184Y-74280051D01*
X153231588Y-74376557D01*
X153433757Y-74442246D01*
X153643713Y-74475500D01*
X153643714Y-74475500D01*
X153856286Y-74475500D01*
X153856287Y-74475500D01*
X154066243Y-74442246D01*
X154268412Y-74376557D01*
X154457816Y-74280051D01*
X154511947Y-74240723D01*
X154629786Y-74155109D01*
X154629788Y-74155106D01*
X154629792Y-74155104D01*
X154780104Y-74004792D01*
X154899683Y-73840204D01*
X154955011Y-73797540D01*
X155024624Y-73791561D01*
X155086420Y-73824166D01*
X155100313Y-73840199D01*
X155202560Y-73980931D01*
X155219896Y-74004792D01*
X155370213Y-74155109D01*
X155542179Y-74280048D01*
X155542181Y-74280049D01*
X155542184Y-74280051D01*
X155731588Y-74376557D01*
X155933757Y-74442246D01*
X156143713Y-74475500D01*
X156143714Y-74475500D01*
X156356286Y-74475500D01*
X156356287Y-74475500D01*
X156566243Y-74442246D01*
X156768412Y-74376557D01*
X156957816Y-74280051D01*
X157011947Y-74240723D01*
X157129786Y-74155109D01*
X157129788Y-74155106D01*
X157129792Y-74155104D01*
X157280104Y-74004792D01*
X157399683Y-73840204D01*
X157455011Y-73797540D01*
X157524624Y-73791561D01*
X157586420Y-73824166D01*
X157600313Y-73840199D01*
X157702560Y-73980931D01*
X157719896Y-74004792D01*
X157870213Y-74155109D01*
X158042179Y-74280048D01*
X158042181Y-74280049D01*
X158042184Y-74280051D01*
X158231588Y-74376557D01*
X158433757Y-74442246D01*
X158643713Y-74475500D01*
X158643714Y-74475500D01*
X158856286Y-74475500D01*
X158856287Y-74475500D01*
X159066243Y-74442246D01*
X159268412Y-74376557D01*
X159457816Y-74280051D01*
X159511947Y-74240723D01*
X159629786Y-74155109D01*
X159629788Y-74155106D01*
X159629792Y-74155104D01*
X159780104Y-74004792D01*
X159899683Y-73840204D01*
X159955011Y-73797540D01*
X160024624Y-73791561D01*
X160086420Y-73824166D01*
X160100313Y-73840199D01*
X160202560Y-73980931D01*
X160219896Y-74004792D01*
X160370213Y-74155109D01*
X160542179Y-74280048D01*
X160542181Y-74280049D01*
X160542184Y-74280051D01*
X160731588Y-74376557D01*
X160933757Y-74442246D01*
X161143713Y-74475500D01*
X161143714Y-74475500D01*
X161356286Y-74475500D01*
X161356287Y-74475500D01*
X161566243Y-74442246D01*
X161768412Y-74376557D01*
X161957816Y-74280051D01*
X162011947Y-74240723D01*
X162129786Y-74155109D01*
X162129788Y-74155106D01*
X162129792Y-74155104D01*
X162280104Y-74004792D01*
X162280106Y-74004788D01*
X162280109Y-74004786D01*
X162405048Y-73832820D01*
X162405047Y-73832820D01*
X162405051Y-73832816D01*
X162501557Y-73643412D01*
X162567246Y-73441243D01*
X162600500Y-73231287D01*
X162600500Y-72768713D01*
X162567246Y-72558757D01*
X162501557Y-72356588D01*
X162405051Y-72167184D01*
X162405049Y-72167181D01*
X162405048Y-72167179D01*
X162280109Y-71995213D01*
X162129786Y-71844890D01*
X161957820Y-71719951D01*
X161768414Y-71623444D01*
X161768413Y-71623443D01*
X161768412Y-71623443D01*
X161566243Y-71557754D01*
X161566241Y-71557753D01*
X161566240Y-71557753D01*
X161404957Y-71532208D01*
X161356287Y-71524500D01*
X161143713Y-71524500D01*
X161095042Y-71532208D01*
X160933760Y-71557753D01*
X160731585Y-71623444D01*
X160542179Y-71719951D01*
X160370213Y-71844890D01*
X160219894Y-71995209D01*
X160219890Y-71995214D01*
X160100318Y-72159793D01*
X160044989Y-72202459D01*
X159975375Y-72208438D01*
X159913580Y-72175833D01*
X159899682Y-72159793D01*
X159780109Y-71995214D01*
X159780105Y-71995209D01*
X159629786Y-71844890D01*
X159457820Y-71719951D01*
X159268414Y-71623444D01*
X159268413Y-71623443D01*
X159268412Y-71623443D01*
X159066243Y-71557754D01*
X159066241Y-71557753D01*
X159066240Y-71557753D01*
X158904957Y-71532208D01*
X158856287Y-71524500D01*
X158643713Y-71524500D01*
X158595042Y-71532208D01*
X158433760Y-71557753D01*
X158231585Y-71623444D01*
X158042179Y-71719951D01*
X157870213Y-71844890D01*
X157719894Y-71995209D01*
X157719890Y-71995214D01*
X157600318Y-72159793D01*
X157544989Y-72202459D01*
X157475375Y-72208438D01*
X157413580Y-72175833D01*
X157399682Y-72159793D01*
X157280109Y-71995214D01*
X157280105Y-71995209D01*
X157129786Y-71844890D01*
X156957820Y-71719951D01*
X156768414Y-71623444D01*
X156768413Y-71623443D01*
X156768412Y-71623443D01*
X156566243Y-71557754D01*
X156566241Y-71557753D01*
X156566240Y-71557753D01*
X156404957Y-71532208D01*
X156356287Y-71524500D01*
X156143713Y-71524500D01*
X156095042Y-71532208D01*
X155933760Y-71557753D01*
X155731585Y-71623444D01*
X155542179Y-71719951D01*
X155370213Y-71844890D01*
X155219894Y-71995209D01*
X155219890Y-71995214D01*
X155100318Y-72159793D01*
X155044989Y-72202459D01*
X154975375Y-72208438D01*
X154913580Y-72175833D01*
X154899682Y-72159793D01*
X154780109Y-71995214D01*
X154780105Y-71995209D01*
X154629786Y-71844890D01*
X154457820Y-71719951D01*
X154268414Y-71623444D01*
X154268413Y-71623443D01*
X154268412Y-71623443D01*
X154066243Y-71557754D01*
X154066241Y-71557753D01*
X154066240Y-71557753D01*
X153904957Y-71532208D01*
X153856287Y-71524500D01*
X153643713Y-71524500D01*
X153595042Y-71532208D01*
X153433760Y-71557753D01*
X153231585Y-71623444D01*
X153042179Y-71719951D01*
X152870213Y-71844890D01*
X152719894Y-71995209D01*
X152719890Y-71995214D01*
X152600318Y-72159793D01*
X152544989Y-72202459D01*
X152475375Y-72208438D01*
X152413580Y-72175833D01*
X152399682Y-72159793D01*
X152280109Y-71995214D01*
X152280105Y-71995209D01*
X152129786Y-71844890D01*
X151957820Y-71719951D01*
X151768414Y-71623444D01*
X151768413Y-71623443D01*
X151768412Y-71623443D01*
X151566243Y-71557754D01*
X151566241Y-71557753D01*
X151566240Y-71557753D01*
X151404957Y-71532208D01*
X151356287Y-71524500D01*
X151143713Y-71524500D01*
X151095042Y-71532208D01*
X150933760Y-71557753D01*
X150731585Y-71623444D01*
X150542179Y-71719951D01*
X150370215Y-71844889D01*
X150231398Y-71983706D01*
X150170075Y-72017190D01*
X150100383Y-72012206D01*
X150044450Y-71970334D01*
X150038178Y-71961120D01*
X149942712Y-71806344D01*
X149818657Y-71682289D01*
X149818656Y-71682288D01*
X149669334Y-71590186D01*
X149502797Y-71535001D01*
X149502795Y-71535000D01*
X149400010Y-71524500D01*
X148099998Y-71524500D01*
X148099981Y-71524501D01*
X147997203Y-71535000D01*
X147997200Y-71535001D01*
X147830668Y-71590185D01*
X147830663Y-71590187D01*
X147681342Y-71682289D01*
X147557289Y-71806342D01*
X147465187Y-71955663D01*
X147465185Y-71955668D01*
X147460325Y-71970334D01*
X147410001Y-72122203D01*
X147410001Y-72122204D01*
X147410000Y-72122204D01*
X147399500Y-72224983D01*
X104500500Y-72224983D01*
X104500500Y-67916228D01*
X116649500Y-67916228D01*
X116649500Y-68083771D01*
X116682182Y-68248074D01*
X116682184Y-68248082D01*
X116746295Y-68402860D01*
X116839373Y-68542162D01*
X116957837Y-68660626D01*
X117050494Y-68722537D01*
X117097137Y-68753703D01*
X117251918Y-68817816D01*
X117416228Y-68850499D01*
X117416232Y-68850500D01*
X117416233Y-68850500D01*
X117583768Y-68850500D01*
X117583769Y-68850499D01*
X117748082Y-68817816D01*
X117902863Y-68753703D01*
X118042162Y-68660626D01*
X118160626Y-68542162D01*
X118253703Y-68402863D01*
X118317816Y-68248082D01*
X118350500Y-68083767D01*
X118350500Y-67916233D01*
X118317816Y-67751918D01*
X118253703Y-67597137D01*
X118194496Y-67508528D01*
X118160626Y-67457837D01*
X118043778Y-67340989D01*
X128223737Y-67340989D01*
X128223737Y-67508532D01*
X128256419Y-67672835D01*
X128256421Y-67672843D01*
X128320532Y-67827621D01*
X128413610Y-67966923D01*
X128532074Y-68085387D01*
X128624731Y-68147298D01*
X128671374Y-68178464D01*
X128826155Y-68242577D01*
X128990465Y-68275260D01*
X128990469Y-68275261D01*
X128990470Y-68275261D01*
X129158005Y-68275261D01*
X129158006Y-68275260D01*
X129322319Y-68242577D01*
X129477100Y-68178464D01*
X129616399Y-68085387D01*
X129734863Y-67966923D01*
X129827940Y-67827624D01*
X129892053Y-67672843D01*
X129924737Y-67508528D01*
X129924737Y-67340994D01*
X129924736Y-67340989D01*
X137473738Y-67340989D01*
X137473738Y-67508532D01*
X137506420Y-67672835D01*
X137506422Y-67672843D01*
X137570533Y-67827621D01*
X137663611Y-67966923D01*
X137782075Y-68085387D01*
X137874732Y-68147298D01*
X137921375Y-68178464D01*
X138076156Y-68242577D01*
X138240466Y-68275260D01*
X138240470Y-68275261D01*
X138240471Y-68275261D01*
X138408006Y-68275261D01*
X138408007Y-68275260D01*
X138572320Y-68242577D01*
X138727101Y-68178464D01*
X138866400Y-68085387D01*
X138984864Y-67966923D01*
X139077941Y-67827624D01*
X139142054Y-67672843D01*
X139174738Y-67508528D01*
X139174738Y-67340994D01*
X139142054Y-67176679D01*
X139077941Y-67021898D01*
X139046775Y-66975255D01*
X138984864Y-66882598D01*
X138866400Y-66764134D01*
X138727098Y-66671056D01*
X138572320Y-66606945D01*
X138572312Y-66606943D01*
X138408009Y-66574261D01*
X138408005Y-66574261D01*
X138240471Y-66574261D01*
X138240466Y-66574261D01*
X138076163Y-66606943D01*
X138076155Y-66606945D01*
X137921377Y-66671056D01*
X137782075Y-66764134D01*
X137663611Y-66882598D01*
X137570533Y-67021900D01*
X137506422Y-67176678D01*
X137506420Y-67176686D01*
X137473738Y-67340989D01*
X129924736Y-67340989D01*
X129892053Y-67176679D01*
X129827940Y-67021898D01*
X129796774Y-66975255D01*
X129734863Y-66882598D01*
X129616399Y-66764134D01*
X129477097Y-66671056D01*
X129322319Y-66606945D01*
X129322311Y-66606943D01*
X129158008Y-66574261D01*
X129158004Y-66574261D01*
X128990470Y-66574261D01*
X128990465Y-66574261D01*
X128826162Y-66606943D01*
X128826154Y-66606945D01*
X128671376Y-66671056D01*
X128532074Y-66764134D01*
X128413610Y-66882598D01*
X128320532Y-67021900D01*
X128256421Y-67176678D01*
X128256419Y-67176686D01*
X128223737Y-67340989D01*
X118043778Y-67340989D01*
X118042162Y-67339373D01*
X117902860Y-67246295D01*
X117748082Y-67182184D01*
X117748074Y-67182182D01*
X117583771Y-67149500D01*
X117583767Y-67149500D01*
X117416233Y-67149500D01*
X117416228Y-67149500D01*
X117251925Y-67182182D01*
X117251917Y-67182184D01*
X117097139Y-67246295D01*
X116957837Y-67339373D01*
X116839373Y-67457837D01*
X116746295Y-67597139D01*
X116682184Y-67751917D01*
X116682182Y-67751925D01*
X116649500Y-67916228D01*
X104500500Y-67916228D01*
X104500500Y-62002706D01*
X104500618Y-61997297D01*
X104507353Y-61843039D01*
X104508437Y-61818206D01*
X105299500Y-61818206D01*
X105299500Y-62181794D01*
X105307983Y-62267918D01*
X105335137Y-62543630D01*
X105406064Y-62900212D01*
X105406067Y-62900223D01*
X105511614Y-63248165D01*
X105650754Y-63584078D01*
X105650756Y-63584083D01*
X105822140Y-63904720D01*
X105822151Y-63904738D01*
X106024140Y-64207035D01*
X106024150Y-64207049D01*
X106254807Y-64488106D01*
X106511893Y-64745192D01*
X106511898Y-64745196D01*
X106511899Y-64745197D01*
X106792956Y-64975854D01*
X107095268Y-65177853D01*
X107095277Y-65177858D01*
X107095279Y-65177859D01*
X107415916Y-65349243D01*
X107415918Y-65349243D01*
X107415924Y-65349247D01*
X107751836Y-65488386D01*
X108099767Y-65593930D01*
X108099773Y-65593931D01*
X108099776Y-65593932D01*
X108099787Y-65593935D01*
X108435073Y-65660626D01*
X108456369Y-65664862D01*
X108818206Y-65700500D01*
X108818209Y-65700500D01*
X109181791Y-65700500D01*
X109181794Y-65700500D01*
X109529762Y-65666228D01*
X116649500Y-65666228D01*
X116649500Y-65833771D01*
X116682182Y-65998074D01*
X116682184Y-65998082D01*
X116746295Y-66152860D01*
X116839373Y-66292162D01*
X116957837Y-66410626D01*
X117050494Y-66472537D01*
X117097137Y-66503703D01*
X117251918Y-66567816D01*
X117416228Y-66600499D01*
X117416232Y-66600500D01*
X117416233Y-66600500D01*
X117583768Y-66600500D01*
X117583769Y-66600499D01*
X117748082Y-66567816D01*
X117902863Y-66503703D01*
X118042162Y-66410626D01*
X118160626Y-66292162D01*
X118253703Y-66152863D01*
X118317816Y-65998082D01*
X118350500Y-65833767D01*
X118350500Y-65666233D01*
X118317816Y-65501918D01*
X118254576Y-65349245D01*
X118253704Y-65347139D01*
X118249597Y-65340993D01*
X118249594Y-65340989D01*
X130723736Y-65340989D01*
X130723736Y-65508532D01*
X130756418Y-65672835D01*
X130756420Y-65672843D01*
X130820531Y-65827621D01*
X130913609Y-65966923D01*
X131032073Y-66085387D01*
X131124730Y-66147298D01*
X131171373Y-66178464D01*
X131326154Y-66242577D01*
X131490464Y-66275260D01*
X131490468Y-66275261D01*
X131490469Y-66275261D01*
X131658004Y-66275261D01*
X131658005Y-66275260D01*
X131822318Y-66242577D01*
X131977099Y-66178464D01*
X132116398Y-66085387D01*
X132234862Y-65966923D01*
X132327939Y-65827624D01*
X132392052Y-65672843D01*
X132424736Y-65508528D01*
X132424736Y-65340994D01*
X132424735Y-65340989D01*
X135473738Y-65340989D01*
X135473738Y-65508532D01*
X135506420Y-65672835D01*
X135506422Y-65672843D01*
X135570533Y-65827621D01*
X135663611Y-65966923D01*
X135782075Y-66085387D01*
X135874732Y-66147298D01*
X135921375Y-66178464D01*
X136076156Y-66242577D01*
X136240466Y-66275260D01*
X136240470Y-66275261D01*
X136240471Y-66275261D01*
X136408006Y-66275261D01*
X136408007Y-66275260D01*
X136572320Y-66242577D01*
X136727101Y-66178464D01*
X136866400Y-66085387D01*
X136984864Y-65966923D01*
X137077941Y-65827624D01*
X137142054Y-65672843D01*
X137174738Y-65508528D01*
X137174738Y-65340994D01*
X137169812Y-65316228D01*
X156949500Y-65316228D01*
X156949500Y-65483771D01*
X156982182Y-65648074D01*
X156982184Y-65648082D01*
X157046295Y-65802860D01*
X157139373Y-65942162D01*
X157257837Y-66060626D01*
X157294895Y-66085387D01*
X157397137Y-66153703D01*
X157551918Y-66217816D01*
X157716228Y-66250499D01*
X157716232Y-66250500D01*
X157716233Y-66250500D01*
X157883768Y-66250500D01*
X157883769Y-66250499D01*
X158048082Y-66217816D01*
X158202863Y-66153703D01*
X158342162Y-66060626D01*
X158460626Y-65942162D01*
X158553703Y-65802863D01*
X158617816Y-65648082D01*
X158650500Y-65483767D01*
X158650500Y-65316233D01*
X158617816Y-65151918D01*
X158553703Y-64997137D01*
X158510301Y-64932182D01*
X158460626Y-64857837D01*
X158342162Y-64739373D01*
X158202860Y-64646295D01*
X158048082Y-64582184D01*
X158048074Y-64582182D01*
X157883771Y-64549500D01*
X157883767Y-64549500D01*
X157716233Y-64549500D01*
X157716228Y-64549500D01*
X157551925Y-64582182D01*
X157551917Y-64582184D01*
X157397139Y-64646295D01*
X157257837Y-64739373D01*
X157139373Y-64857837D01*
X157046295Y-64997139D01*
X156982184Y-65151917D01*
X156982182Y-65151925D01*
X156949500Y-65316228D01*
X137169812Y-65316228D01*
X137142054Y-65176679D01*
X137077941Y-65021898D01*
X137017996Y-64932184D01*
X136984864Y-64882598D01*
X136866400Y-64764134D01*
X136727098Y-64671056D01*
X136572320Y-64606945D01*
X136572312Y-64606943D01*
X136408009Y-64574261D01*
X136408005Y-64574261D01*
X136240471Y-64574261D01*
X136240466Y-64574261D01*
X136076163Y-64606943D01*
X136076155Y-64606945D01*
X135921377Y-64671056D01*
X135782075Y-64764134D01*
X135663611Y-64882598D01*
X135570533Y-65021900D01*
X135506422Y-65176678D01*
X135506420Y-65176686D01*
X135473738Y-65340989D01*
X132424735Y-65340989D01*
X132392052Y-65176679D01*
X132327939Y-65021898D01*
X132267994Y-64932184D01*
X132234862Y-64882598D01*
X132116398Y-64764134D01*
X131977096Y-64671056D01*
X131822318Y-64606945D01*
X131822310Y-64606943D01*
X131658007Y-64574261D01*
X131658003Y-64574261D01*
X131490469Y-64574261D01*
X131490464Y-64574261D01*
X131326161Y-64606943D01*
X131326153Y-64606945D01*
X131171375Y-64671056D01*
X131032073Y-64764134D01*
X130913609Y-64882598D01*
X130820531Y-65021900D01*
X130756420Y-65176678D01*
X130756418Y-65176686D01*
X130723736Y-65340989D01*
X118249594Y-65340989D01*
X118222537Y-65300494D01*
X118160626Y-65207837D01*
X118042162Y-65089373D01*
X117902860Y-64996295D01*
X117748082Y-64932184D01*
X117748074Y-64932182D01*
X117583771Y-64899500D01*
X117583767Y-64899500D01*
X117416233Y-64899500D01*
X117416228Y-64899500D01*
X117251925Y-64932182D01*
X117251917Y-64932184D01*
X117097139Y-64996295D01*
X116957837Y-65089373D01*
X116839373Y-65207837D01*
X116746295Y-65347139D01*
X116682184Y-65501917D01*
X116682182Y-65501925D01*
X116649500Y-65666228D01*
X109529762Y-65666228D01*
X109543631Y-65664862D01*
X109613045Y-65651054D01*
X109900212Y-65593935D01*
X109900223Y-65593932D01*
X109900223Y-65593931D01*
X109900233Y-65593930D01*
X110248164Y-65488386D01*
X110584076Y-65349247D01*
X110904732Y-65177853D01*
X111207044Y-64975854D01*
X111488101Y-64745197D01*
X111745197Y-64488101D01*
X111975854Y-64207044D01*
X112177853Y-63904732D01*
X112349247Y-63584076D01*
X112488386Y-63248164D01*
X112593930Y-62900233D01*
X112593932Y-62900223D01*
X112593935Y-62900212D01*
X112664862Y-62543630D01*
X112666561Y-62526379D01*
X128724500Y-62526379D01*
X128724500Y-63813620D01*
X128761025Y-63997243D01*
X128761027Y-63997251D01*
X128832676Y-64170228D01*
X128832681Y-64170237D01*
X128936697Y-64325907D01*
X128936700Y-64325911D01*
X129069088Y-64458299D01*
X129069092Y-64458302D01*
X129224762Y-64562318D01*
X129224771Y-64562323D01*
X129240623Y-64568889D01*
X129397749Y-64633973D01*
X129581379Y-64670499D01*
X129581383Y-64670500D01*
X129581384Y-64670500D01*
X129768617Y-64670500D01*
X129768618Y-64670499D01*
X129952251Y-64633973D01*
X130125231Y-64562322D01*
X130280908Y-64458302D01*
X130413302Y-64325908D01*
X130517322Y-64170231D01*
X130588973Y-63997251D01*
X130625500Y-63813616D01*
X130625500Y-63250710D01*
X130645185Y-63183671D01*
X130697989Y-63137916D01*
X130767147Y-63127972D01*
X130811501Y-63143324D01*
X130897508Y-63192981D01*
X130897509Y-63192982D01*
X130897511Y-63192982D01*
X130897514Y-63192984D01*
X131037524Y-63230500D01*
X131037527Y-63230500D01*
X131182471Y-63230500D01*
X131182474Y-63230500D01*
X131322484Y-63192984D01*
X131448014Y-63120509D01*
X131550508Y-63018015D01*
X131622983Y-62892485D01*
X131660499Y-62752475D01*
X131660499Y-62607525D01*
X136339501Y-62607525D01*
X136339501Y-62752475D01*
X136346140Y-62777250D01*
X136377018Y-62892488D01*
X136449489Y-63018011D01*
X136449491Y-63018013D01*
X136449492Y-63018015D01*
X136551986Y-63120509D01*
X136551987Y-63120510D01*
X136551989Y-63120511D01*
X136677512Y-63192982D01*
X136677513Y-63192982D01*
X136677516Y-63192984D01*
X136817526Y-63230500D01*
X136817529Y-63230500D01*
X136962473Y-63230500D01*
X136962476Y-63230500D01*
X137102486Y-63192984D01*
X137102488Y-63192982D01*
X137102490Y-63192982D01*
X137102491Y-63192981D01*
X137188499Y-63143323D01*
X137256399Y-63126850D01*
X137322426Y-63149702D01*
X137365617Y-63204623D01*
X137374500Y-63250710D01*
X137374500Y-63813620D01*
X137411025Y-63997243D01*
X137411027Y-63997251D01*
X137482676Y-64170228D01*
X137482681Y-64170237D01*
X137586697Y-64325907D01*
X137586700Y-64325911D01*
X137719088Y-64458299D01*
X137719092Y-64458302D01*
X137874762Y-64562318D01*
X137874771Y-64562323D01*
X137890623Y-64568889D01*
X138047749Y-64633973D01*
X138231379Y-64670499D01*
X138231383Y-64670500D01*
X138231384Y-64670500D01*
X138418617Y-64670500D01*
X138418618Y-64670499D01*
X138602251Y-64633973D01*
X138775231Y-64562322D01*
X138930908Y-64458302D01*
X139063302Y-64325908D01*
X139167322Y-64170231D01*
X139238973Y-63997251D01*
X139275500Y-63813616D01*
X139275500Y-62526384D01*
X139238973Y-62342749D01*
X139167322Y-62169769D01*
X139167321Y-62169768D01*
X139167318Y-62169762D01*
X139063302Y-62014092D01*
X139063299Y-62014088D01*
X138930911Y-61881700D01*
X138930907Y-61881697D01*
X138775237Y-61777681D01*
X138775228Y-61777676D01*
X138602251Y-61706027D01*
X138602243Y-61706025D01*
X138418620Y-61669500D01*
X138418616Y-61669500D01*
X138231384Y-61669500D01*
X138231379Y-61669500D01*
X138047756Y-61706025D01*
X138047748Y-61706027D01*
X137874771Y-61777676D01*
X137874762Y-61777681D01*
X137719092Y-61881697D01*
X137719088Y-61881700D01*
X137586700Y-62014088D01*
X137586697Y-62014092D01*
X137482681Y-62169762D01*
X137482675Y-62169774D01*
X137458684Y-62227692D01*
X137414842Y-62282094D01*
X137348548Y-62304158D01*
X137280849Y-62286878D01*
X137256443Y-62267918D01*
X137228018Y-62239493D01*
X137228012Y-62239488D01*
X137102489Y-62167017D01*
X137102490Y-62167017D01*
X137091007Y-62163940D01*
X136962476Y-62129500D01*
X136817526Y-62129500D01*
X136688994Y-62163940D01*
X136677512Y-62167017D01*
X136551989Y-62239488D01*
X136551983Y-62239493D01*
X136449494Y-62341982D01*
X136449489Y-62341988D01*
X136377018Y-62467511D01*
X136377017Y-62467515D01*
X136339501Y-62607525D01*
X131660499Y-62607525D01*
X131622983Y-62467515D01*
X131550508Y-62341985D01*
X131448014Y-62239491D01*
X131448012Y-62239490D01*
X131448010Y-62239488D01*
X131322487Y-62167017D01*
X131322488Y-62167017D01*
X131311005Y-62163940D01*
X131182474Y-62129500D01*
X131037524Y-62129500D01*
X130908992Y-62163940D01*
X130897510Y-62167017D01*
X130771987Y-62239488D01*
X130743555Y-62267920D01*
X130682231Y-62301404D01*
X130612540Y-62296418D01*
X130556607Y-62254546D01*
X130541314Y-62227690D01*
X130529822Y-62199947D01*
X130517322Y-62169769D01*
X130517320Y-62169766D01*
X130517318Y-62169762D01*
X130413302Y-62014092D01*
X130413299Y-62014088D01*
X130280911Y-61881700D01*
X130280907Y-61881697D01*
X130125237Y-61777681D01*
X130125228Y-61777676D01*
X129952251Y-61706027D01*
X129952243Y-61706025D01*
X129768620Y-61669500D01*
X129768616Y-61669500D01*
X129581384Y-61669500D01*
X129581379Y-61669500D01*
X129397756Y-61706025D01*
X129397748Y-61706027D01*
X129224771Y-61777676D01*
X129224762Y-61777681D01*
X129069092Y-61881697D01*
X129069088Y-61881700D01*
X128936700Y-62014088D01*
X128936697Y-62014092D01*
X128832681Y-62169762D01*
X128832676Y-62169771D01*
X128761027Y-62342748D01*
X128761025Y-62342756D01*
X128724500Y-62526379D01*
X112666561Y-62526379D01*
X112668358Y-62508138D01*
X112681318Y-62376555D01*
X112700500Y-62181794D01*
X112700500Y-61818206D01*
X112664862Y-61456369D01*
X112661853Y-61441243D01*
X112593935Y-61099787D01*
X112593932Y-61099776D01*
X112593931Y-61099773D01*
X112593930Y-61099767D01*
X112493506Y-60768713D01*
X142899500Y-60768713D01*
X142899500Y-61231287D01*
X142932754Y-61441243D01*
X142970822Y-61558405D01*
X142998444Y-61643414D01*
X143094951Y-61832820D01*
X143219890Y-62004786D01*
X143370213Y-62155109D01*
X143542179Y-62280048D01*
X143542181Y-62280049D01*
X143542184Y-62280051D01*
X143731588Y-62376557D01*
X143933757Y-62442246D01*
X144143713Y-62475500D01*
X144143714Y-62475500D01*
X144356286Y-62475500D01*
X144356287Y-62475500D01*
X144566243Y-62442246D01*
X144768412Y-62376557D01*
X144957816Y-62280051D01*
X145013640Y-62239493D01*
X145129786Y-62155109D01*
X145129788Y-62155106D01*
X145129792Y-62155104D01*
X145280104Y-62004792D01*
X145399683Y-61840204D01*
X145455011Y-61797540D01*
X145524624Y-61791561D01*
X145586420Y-61824166D01*
X145600313Y-61840199D01*
X145703661Y-61982446D01*
X145719896Y-62004792D01*
X145870213Y-62155109D01*
X146042179Y-62280048D01*
X146042181Y-62280049D01*
X146042184Y-62280051D01*
X146231588Y-62376557D01*
X146433757Y-62442246D01*
X146643713Y-62475500D01*
X146643714Y-62475500D01*
X146856286Y-62475500D01*
X146856287Y-62475500D01*
X147066243Y-62442246D01*
X147268412Y-62376557D01*
X147457816Y-62280051D01*
X147513640Y-62239493D01*
X147629786Y-62155109D01*
X147629788Y-62155106D01*
X147629792Y-62155104D01*
X147780104Y-62004792D01*
X147899683Y-61840204D01*
X147955011Y-61797540D01*
X148024624Y-61791561D01*
X148086420Y-61824166D01*
X148100313Y-61840199D01*
X148203661Y-61982446D01*
X148219896Y-62004792D01*
X148370213Y-62155109D01*
X148542179Y-62280048D01*
X148542181Y-62280049D01*
X148542184Y-62280051D01*
X148731588Y-62376557D01*
X148933757Y-62442246D01*
X149143713Y-62475500D01*
X149143714Y-62475500D01*
X149356286Y-62475500D01*
X149356287Y-62475500D01*
X149566243Y-62442246D01*
X149768412Y-62376557D01*
X149957816Y-62280051D01*
X150015141Y-62238402D01*
X150129784Y-62155110D01*
X150129784Y-62155109D01*
X150129792Y-62155104D01*
X150268967Y-62015928D01*
X150330286Y-61982446D01*
X150399978Y-61987430D01*
X150455912Y-62029301D01*
X150462184Y-62038515D01*
X150557684Y-62193345D01*
X150681654Y-62317315D01*
X150830875Y-62409356D01*
X150830880Y-62409358D01*
X150997302Y-62464505D01*
X150997309Y-62464506D01*
X151100019Y-62474999D01*
X151499999Y-62474999D01*
X151500000Y-62474998D01*
X151500000Y-61404145D01*
X151566657Y-61442630D01*
X151687465Y-61475000D01*
X151812535Y-61475000D01*
X151933343Y-61442630D01*
X152000000Y-61404145D01*
X152000000Y-62474999D01*
X152399972Y-62474999D01*
X152399986Y-62474998D01*
X152502697Y-62464505D01*
X152669119Y-62409358D01*
X152669124Y-62409356D01*
X152818345Y-62317315D01*
X152942315Y-62193345D01*
X153034356Y-62044124D01*
X153034358Y-62044119D01*
X153089505Y-61877697D01*
X153089506Y-61877690D01*
X153099999Y-61774986D01*
X153100000Y-61774973D01*
X153100000Y-61250000D01*
X152154146Y-61250000D01*
X152192630Y-61183343D01*
X152225000Y-61062535D01*
X152225000Y-60937465D01*
X152192630Y-60816657D01*
X152154146Y-60750000D01*
X153099999Y-60750000D01*
X153099999Y-60225028D01*
X153099998Y-60225013D01*
X153089505Y-60122302D01*
X153034358Y-59955880D01*
X153034356Y-59955875D01*
X152942315Y-59806654D01*
X152818345Y-59682684D01*
X152669124Y-59590643D01*
X152669119Y-59590641D01*
X152502697Y-59535494D01*
X152502690Y-59535493D01*
X152399986Y-59525000D01*
X152000000Y-59525000D01*
X152000000Y-60595854D01*
X151933343Y-60557370D01*
X151812535Y-60525000D01*
X151687465Y-60525000D01*
X151566657Y-60557370D01*
X151500000Y-60595854D01*
X151500000Y-59525000D01*
X151100028Y-59525000D01*
X151100012Y-59525001D01*
X150997302Y-59535494D01*
X150830880Y-59590641D01*
X150830875Y-59590643D01*
X150681654Y-59682684D01*
X150557683Y-59806655D01*
X150557680Y-59806659D01*
X150462183Y-59961484D01*
X150410235Y-60008209D01*
X150341273Y-60019430D01*
X150277191Y-59991587D01*
X150268964Y-59984068D01*
X150129786Y-59844890D01*
X149957820Y-59719951D01*
X149768414Y-59623444D01*
X149768413Y-59623443D01*
X149768412Y-59623443D01*
X149566243Y-59557754D01*
X149566241Y-59557753D01*
X149566240Y-59557753D01*
X149404957Y-59532208D01*
X149356287Y-59524500D01*
X149143713Y-59524500D01*
X149095042Y-59532208D01*
X148933760Y-59557753D01*
X148731585Y-59623444D01*
X148542179Y-59719951D01*
X148370213Y-59844890D01*
X148219894Y-59995209D01*
X148219890Y-59995214D01*
X148100318Y-60159793D01*
X148044989Y-60202459D01*
X147975375Y-60208438D01*
X147913580Y-60175833D01*
X147899682Y-60159793D01*
X147780109Y-59995214D01*
X147780105Y-59995209D01*
X147629786Y-59844890D01*
X147457820Y-59719951D01*
X147268414Y-59623444D01*
X147268413Y-59623443D01*
X147268412Y-59623443D01*
X147066243Y-59557754D01*
X147066241Y-59557753D01*
X147066240Y-59557753D01*
X146904957Y-59532208D01*
X146856287Y-59524500D01*
X146643713Y-59524500D01*
X146595042Y-59532208D01*
X146433760Y-59557753D01*
X146231585Y-59623444D01*
X146042179Y-59719951D01*
X145870213Y-59844890D01*
X145719894Y-59995209D01*
X145719890Y-59995214D01*
X145600318Y-60159793D01*
X145544989Y-60202459D01*
X145475375Y-60208438D01*
X145413580Y-60175833D01*
X145399682Y-60159793D01*
X145280109Y-59995214D01*
X145280105Y-59995209D01*
X145129786Y-59844890D01*
X144957820Y-59719951D01*
X144768414Y-59623444D01*
X144768413Y-59623443D01*
X144768412Y-59623443D01*
X144566243Y-59557754D01*
X144566241Y-59557753D01*
X144566240Y-59557753D01*
X144404957Y-59532208D01*
X144356287Y-59524500D01*
X144143713Y-59524500D01*
X144095042Y-59532208D01*
X143933760Y-59557753D01*
X143731585Y-59623444D01*
X143542179Y-59719951D01*
X143370213Y-59844890D01*
X143219890Y-59995213D01*
X143094951Y-60167179D01*
X142998444Y-60356585D01*
X142932753Y-60558760D01*
X142905423Y-60731317D01*
X142899500Y-60768713D01*
X112493506Y-60768713D01*
X112488386Y-60751836D01*
X112349247Y-60415924D01*
X112317531Y-60356588D01*
X112177859Y-60095279D01*
X112177858Y-60095277D01*
X112177853Y-60095268D01*
X111975854Y-59792956D01*
X111745197Y-59511899D01*
X111745196Y-59511898D01*
X111745192Y-59511893D01*
X111488106Y-59254807D01*
X111207049Y-59024150D01*
X111207048Y-59024149D01*
X111207044Y-59024146D01*
X110904732Y-58822147D01*
X110904727Y-58822144D01*
X110904720Y-58822140D01*
X110584083Y-58650756D01*
X110584078Y-58650754D01*
X110248165Y-58511614D01*
X109900223Y-58406067D01*
X109900212Y-58406064D01*
X109543630Y-58335137D01*
X109271111Y-58308296D01*
X109181794Y-58299500D01*
X108818206Y-58299500D01*
X108735679Y-58307628D01*
X108456369Y-58335137D01*
X108099787Y-58406064D01*
X108099776Y-58406067D01*
X107751834Y-58511614D01*
X107415921Y-58650754D01*
X107415916Y-58650756D01*
X107095279Y-58822140D01*
X107095261Y-58822151D01*
X106792964Y-59024140D01*
X106792950Y-59024150D01*
X106511893Y-59254807D01*
X106254807Y-59511893D01*
X106024150Y-59792950D01*
X106024140Y-59792964D01*
X105822151Y-60095261D01*
X105822140Y-60095279D01*
X105650756Y-60415916D01*
X105650754Y-60415921D01*
X105511614Y-60751834D01*
X105406067Y-61099776D01*
X105406064Y-61099787D01*
X105335137Y-61456369D01*
X105316415Y-61646467D01*
X105299500Y-61818206D01*
X104508437Y-61818206D01*
X104517386Y-61613228D01*
X104518326Y-61602495D01*
X104568152Y-61224025D01*
X104570025Y-61213405D01*
X104652649Y-60840709D01*
X104655440Y-60830295D01*
X104770230Y-60466227D01*
X104773917Y-60456095D01*
X104920003Y-60103412D01*
X104924561Y-60093638D01*
X105100822Y-59755045D01*
X105106217Y-59745700D01*
X105311325Y-59423744D01*
X105317515Y-59414905D01*
X105549896Y-59112060D01*
X105556834Y-59103791D01*
X105814726Y-58822352D01*
X105822352Y-58814726D01*
X106103791Y-58556834D01*
X106112060Y-58549896D01*
X106414905Y-58317515D01*
X106423744Y-58311325D01*
X106745700Y-58106217D01*
X106755045Y-58100822D01*
X107093638Y-57924561D01*
X107103412Y-57920003D01*
X107456095Y-57773917D01*
X107466227Y-57770230D01*
X107830295Y-57655440D01*
X107840709Y-57652649D01*
X108213405Y-57570025D01*
X108224025Y-57568152D01*
X108602495Y-57518326D01*
X108613226Y-57517386D01*
X108997297Y-57500617D01*
X109002706Y-57500500D01*
X109065892Y-57500500D01*
X129222261Y-57500500D01*
X129289300Y-57520185D01*
G37*
%TD.AperFunction*%
%TD*%
%TA.AperFunction,Conductor*%
%TO.N,+5V*%
G36*
X181483741Y-57520185D02*
G01*
X181529496Y-57572989D01*
X181539440Y-57642147D01*
X181536985Y-57654631D01*
X181526972Y-57694599D01*
X181522228Y-57718447D01*
X181514954Y-57767490D01*
X181514949Y-57767534D01*
X181497530Y-57944398D01*
X181495706Y-57969125D01*
X181495109Y-57981284D01*
X181494500Y-58006108D01*
X181494500Y-102370500D01*
X181474815Y-102437539D01*
X181422011Y-102483294D01*
X181370500Y-102494500D01*
X172899829Y-102494500D01*
X172898685Y-102494510D01*
X172831476Y-102475412D01*
X172785261Y-102423010D01*
X172783040Y-102417968D01*
X172753702Y-102347140D01*
X172660624Y-102207838D01*
X172589648Y-102136862D01*
X172556163Y-102075539D01*
X172553329Y-102049258D01*
X172553305Y-102010651D01*
X172553113Y-101701109D01*
X172572755Y-101634064D01*
X172589422Y-101613366D01*
X172660626Y-101542163D01*
X172753703Y-101402864D01*
X172817816Y-101248083D01*
X172850500Y-101083768D01*
X172850500Y-100916234D01*
X172817816Y-100751919D01*
X172753703Y-100597138D01*
X172722537Y-100550495D01*
X172660626Y-100457838D01*
X172588564Y-100385776D01*
X172555079Y-100324453D01*
X172552246Y-100298182D01*
X172540368Y-81089085D01*
X172549806Y-81041561D01*
X172567816Y-80998082D01*
X172600500Y-80833767D01*
X172600500Y-80666233D01*
X172567816Y-80501918D01*
X172549386Y-80457425D01*
X172547766Y-80449293D01*
X172544991Y-80444981D01*
X172539948Y-80410059D01*
X172539864Y-80274573D01*
X172559508Y-80207524D01*
X172612283Y-80161737D01*
X172663864Y-80150500D01*
X174429192Y-80150500D01*
X174496231Y-80170185D01*
X174516873Y-80186819D01*
X175119345Y-80789291D01*
X175152830Y-80850614D01*
X175153281Y-80852781D01*
X175182182Y-80998074D01*
X175182184Y-80998082D01*
X175246295Y-81152860D01*
X175339373Y-81292162D01*
X175457837Y-81410626D01*
X175550494Y-81472537D01*
X175597137Y-81503703D01*
X175751918Y-81567816D01*
X175916228Y-81600499D01*
X175916232Y-81600500D01*
X175916233Y-81600500D01*
X176083768Y-81600500D01*
X176083769Y-81600499D01*
X176248082Y-81567816D01*
X176402863Y-81503703D01*
X176542162Y-81410626D01*
X176660626Y-81292162D01*
X176753703Y-81152863D01*
X176817816Y-80998082D01*
X176850500Y-80833767D01*
X176850500Y-80666233D01*
X176817816Y-80501918D01*
X176753703Y-80347137D01*
X176698805Y-80264976D01*
X176660626Y-80207837D01*
X176542162Y-80089373D01*
X176402860Y-79996295D01*
X176248082Y-79932184D01*
X176248074Y-79932182D01*
X176102781Y-79903281D01*
X176040870Y-79870896D01*
X176039291Y-79869345D01*
X175164674Y-78994727D01*
X175164673Y-78994726D01*
X175164669Y-78994723D01*
X175058127Y-78923535D01*
X174939744Y-78874499D01*
X174939738Y-78874497D01*
X174814071Y-78849500D01*
X174814069Y-78849500D01*
X172662907Y-78849500D01*
X172595868Y-78829815D01*
X172550113Y-78777011D01*
X172538907Y-78725577D01*
X172535707Y-73550499D01*
X172535129Y-72616228D01*
X175599499Y-72616228D01*
X175599499Y-72783771D01*
X175632181Y-72948074D01*
X175632183Y-72948082D01*
X175696294Y-73102860D01*
X175789372Y-73242162D01*
X175907836Y-73360626D01*
X176000493Y-73422537D01*
X176047136Y-73453703D01*
X176201917Y-73517816D01*
X176366227Y-73550499D01*
X176366231Y-73550500D01*
X176366232Y-73550500D01*
X176533767Y-73550500D01*
X176533768Y-73550499D01*
X176698081Y-73517816D01*
X176852862Y-73453703D01*
X176992161Y-73360626D01*
X177110625Y-73242162D01*
X177203702Y-73102863D01*
X177267815Y-72948082D01*
X177300499Y-72783767D01*
X177300499Y-72616233D01*
X177267815Y-72451918D01*
X177203702Y-72297137D01*
X177203700Y-72297134D01*
X177203698Y-72297130D01*
X177184830Y-72268892D01*
X177163952Y-72202214D01*
X177182437Y-72134834D01*
X177184830Y-72131110D01*
X177203704Y-72102864D01*
X177267817Y-71948083D01*
X177300501Y-71783768D01*
X177300501Y-71616234D01*
X177267817Y-71451919D01*
X177203704Y-71297138D01*
X177172538Y-71250495D01*
X177110627Y-71157838D01*
X176992163Y-71039374D01*
X176852861Y-70946296D01*
X176698083Y-70882185D01*
X176698075Y-70882183D01*
X176533772Y-70849501D01*
X176533768Y-70849501D01*
X176366234Y-70849501D01*
X176366229Y-70849501D01*
X176201926Y-70882183D01*
X176201918Y-70882185D01*
X176047140Y-70946296D01*
X175907838Y-71039374D01*
X175789374Y-71157838D01*
X175696296Y-71297140D01*
X175632185Y-71451918D01*
X175632183Y-71451926D01*
X175599501Y-71616229D01*
X175599501Y-71783772D01*
X175632183Y-71948075D01*
X175632185Y-71948083D01*
X175696297Y-72102863D01*
X175715170Y-72131108D01*
X175736048Y-72197786D01*
X175717563Y-72265166D01*
X175715170Y-72268890D01*
X175696295Y-72297137D01*
X175632183Y-72451917D01*
X175632181Y-72451925D01*
X175599499Y-72616228D01*
X172535129Y-72616228D01*
X172526095Y-58006697D01*
X172526684Y-57994565D01*
X172544010Y-57817595D01*
X172548739Y-57793753D01*
X172598497Y-57629428D01*
X172607789Y-57606967D01*
X172629616Y-57566092D01*
X172678558Y-57516227D01*
X172738998Y-57500500D01*
X181416702Y-57500500D01*
X181483741Y-57520185D01*
G37*
%TD.AperFunction*%
%TD*%
%TA.AperFunction,Conductor*%
%TO.N,+12V*%
G36*
X190002702Y-57500617D02*
G01*
X190386771Y-57517386D01*
X190397506Y-57518326D01*
X190775971Y-57568152D01*
X190786597Y-57570025D01*
X191159284Y-57652648D01*
X191169710Y-57655442D01*
X191533765Y-57770227D01*
X191543911Y-57773920D01*
X191896578Y-57920000D01*
X191906369Y-57924566D01*
X192244942Y-58100816D01*
X192254309Y-58106223D01*
X192348505Y-58166233D01*
X192576244Y-58311318D01*
X192585105Y-58317523D01*
X192887930Y-58549889D01*
X192896217Y-58556843D01*
X193177635Y-58814715D01*
X193185284Y-58822364D01*
X193443156Y-59103782D01*
X193450110Y-59112069D01*
X193682476Y-59414894D01*
X193688681Y-59423755D01*
X193893775Y-59745689D01*
X193899183Y-59755057D01*
X194075430Y-60093623D01*
X194080002Y-60103427D01*
X194226075Y-60456078D01*
X194229775Y-60466244D01*
X194344554Y-60830278D01*
X194347354Y-60840727D01*
X194429971Y-61213389D01*
X194431849Y-61224042D01*
X194481671Y-61602473D01*
X194482614Y-61613249D01*
X194499382Y-61997297D01*
X194499500Y-62002706D01*
X194499500Y-123997293D01*
X194499382Y-124002702D01*
X194482614Y-124386750D01*
X194481671Y-124397526D01*
X194431849Y-124775957D01*
X194429971Y-124786610D01*
X194347354Y-125159272D01*
X194344554Y-125169721D01*
X194229775Y-125533755D01*
X194226075Y-125543921D01*
X194080002Y-125896572D01*
X194075430Y-125906376D01*
X193899183Y-126244942D01*
X193893775Y-126254310D01*
X193688681Y-126576244D01*
X193682476Y-126585105D01*
X193450110Y-126887930D01*
X193443156Y-126896217D01*
X193185284Y-127177635D01*
X193177635Y-127185284D01*
X192896217Y-127443156D01*
X192887930Y-127450110D01*
X192585105Y-127682476D01*
X192576244Y-127688681D01*
X192254310Y-127893775D01*
X192244942Y-127899183D01*
X191906376Y-128075430D01*
X191896572Y-128080002D01*
X191543921Y-128226075D01*
X191533755Y-128229775D01*
X191169721Y-128344554D01*
X191159272Y-128347354D01*
X190786610Y-128429971D01*
X190775957Y-128431849D01*
X190397526Y-128481671D01*
X190386750Y-128482614D01*
X190002703Y-128499382D01*
X189997294Y-128499500D01*
X109002706Y-128499500D01*
X108997297Y-128499382D01*
X108613249Y-128482614D01*
X108602473Y-128481671D01*
X108224042Y-128431849D01*
X108213389Y-128429971D01*
X107840727Y-128347354D01*
X107830278Y-128344554D01*
X107466244Y-128229775D01*
X107456078Y-128226075D01*
X107103427Y-128080002D01*
X107093623Y-128075430D01*
X106755057Y-127899183D01*
X106745689Y-127893775D01*
X106423755Y-127688681D01*
X106414894Y-127682476D01*
X106112069Y-127450110D01*
X106103782Y-127443156D01*
X105822364Y-127185284D01*
X105814715Y-127177635D01*
X105556843Y-126896217D01*
X105549889Y-126887930D01*
X105317523Y-126585105D01*
X105311318Y-126576244D01*
X105106224Y-126254310D01*
X105100816Y-126244942D01*
X105081090Y-126207049D01*
X104924566Y-125906369D01*
X104919997Y-125896572D01*
X104902178Y-125853553D01*
X104773920Y-125543911D01*
X104770224Y-125533755D01*
X104655442Y-125169710D01*
X104652648Y-125159284D01*
X104570025Y-124786597D01*
X104568152Y-124775971D01*
X104518326Y-124397506D01*
X104517386Y-124386771D01*
X104500618Y-124002702D01*
X104500500Y-123997293D01*
X104500500Y-123818209D01*
X105299500Y-123818209D01*
X105299500Y-124181790D01*
X105335137Y-124543630D01*
X105406064Y-124900212D01*
X105406067Y-124900223D01*
X105511614Y-125248165D01*
X105650754Y-125584078D01*
X105650756Y-125584083D01*
X105822140Y-125904720D01*
X105822151Y-125904738D01*
X106024140Y-126207035D01*
X106024150Y-126207049D01*
X106254807Y-126488106D01*
X106511893Y-126745192D01*
X106511898Y-126745196D01*
X106511899Y-126745197D01*
X106792956Y-126975854D01*
X107095268Y-127177853D01*
X107095277Y-127177858D01*
X107095279Y-127177859D01*
X107415916Y-127349243D01*
X107415918Y-127349243D01*
X107415924Y-127349247D01*
X107751836Y-127488386D01*
X108099767Y-127593930D01*
X108099773Y-127593931D01*
X108099776Y-127593932D01*
X108099787Y-127593935D01*
X108456369Y-127664862D01*
X108818206Y-127700500D01*
X108818209Y-127700500D01*
X109181791Y-127700500D01*
X109181794Y-127700500D01*
X109543631Y-127664862D01*
X109613045Y-127651054D01*
X109900212Y-127593935D01*
X109900223Y-127593932D01*
X109900223Y-127593931D01*
X109900233Y-127593930D01*
X110248164Y-127488386D01*
X110584076Y-127349247D01*
X110904732Y-127177853D01*
X111207044Y-126975854D01*
X111488101Y-126745197D01*
X111745197Y-126488101D01*
X111975854Y-126207044D01*
X112177853Y-125904732D01*
X112349247Y-125584076D01*
X112488386Y-125248164D01*
X112513241Y-125166228D01*
X114149500Y-125166228D01*
X114149500Y-125333771D01*
X114182182Y-125498074D01*
X114182184Y-125498082D01*
X114246295Y-125652860D01*
X114339373Y-125792162D01*
X114457837Y-125910626D01*
X114516765Y-125950000D01*
X114597137Y-126003703D01*
X114751918Y-126067816D01*
X114916228Y-126100499D01*
X114916232Y-126100500D01*
X114916233Y-126100500D01*
X115083768Y-126100500D01*
X115083769Y-126100499D01*
X115248082Y-126067816D01*
X115402863Y-126003703D01*
X115542162Y-125910626D01*
X115660626Y-125792162D01*
X115753703Y-125652863D01*
X115817816Y-125498082D01*
X115850500Y-125333767D01*
X115850500Y-125166233D01*
X115850499Y-125166228D01*
X133649500Y-125166228D01*
X133649500Y-125333771D01*
X133682182Y-125498074D01*
X133682184Y-125498082D01*
X133746295Y-125652860D01*
X133839373Y-125792162D01*
X133957837Y-125910626D01*
X134016765Y-125950000D01*
X134097137Y-126003703D01*
X134251918Y-126067816D01*
X134416228Y-126100499D01*
X134416232Y-126100500D01*
X134416233Y-126100500D01*
X134583768Y-126100500D01*
X134583769Y-126100499D01*
X134748082Y-126067816D01*
X134902863Y-126003703D01*
X135042162Y-125910626D01*
X135160626Y-125792162D01*
X135253703Y-125652863D01*
X135317816Y-125498082D01*
X135350500Y-125333767D01*
X135350500Y-125166233D01*
X135317816Y-125001918D01*
X135253703Y-124847137D01*
X135189046Y-124750371D01*
X135160626Y-124707837D01*
X135042162Y-124589373D01*
X134986431Y-124552135D01*
X146829500Y-124552135D01*
X146829500Y-126447870D01*
X146829501Y-126447876D01*
X146835908Y-126507483D01*
X146886202Y-126642328D01*
X146886206Y-126642335D01*
X146972452Y-126757544D01*
X146972455Y-126757547D01*
X147087664Y-126843793D01*
X147087671Y-126843797D01*
X147222517Y-126894091D01*
X147222516Y-126894091D01*
X147229444Y-126894835D01*
X147282127Y-126900500D01*
X149177872Y-126900499D01*
X149237483Y-126894091D01*
X149372331Y-126843796D01*
X149487546Y-126757546D01*
X149573796Y-126642331D01*
X149624091Y-126507483D01*
X149630500Y-126447873D01*
X149630499Y-126337304D01*
X149650183Y-126270268D01*
X149666818Y-126249626D01*
X150327861Y-125588584D01*
X150350667Y-125673694D01*
X150409910Y-125776306D01*
X150493694Y-125860090D01*
X150596306Y-125919333D01*
X150681414Y-125942137D01*
X149972485Y-126651065D01*
X149972485Y-126651066D01*
X150036243Y-126697388D01*
X150232589Y-126797432D01*
X150442164Y-126865526D01*
X150659819Y-126900000D01*
X150880181Y-126900000D01*
X151097835Y-126865526D01*
X151307410Y-126797432D01*
X151503760Y-126697386D01*
X151567513Y-126651066D01*
X151567514Y-126651066D01*
X150858585Y-125942138D01*
X150943694Y-125919333D01*
X151046306Y-125860090D01*
X151130090Y-125776306D01*
X151189333Y-125673694D01*
X151212137Y-125588585D01*
X151921066Y-126297514D01*
X151921066Y-126297513D01*
X151967386Y-126233760D01*
X152067432Y-126037410D01*
X152135526Y-125827835D01*
X152170000Y-125610181D01*
X152170000Y-125389818D01*
X152136695Y-125179539D01*
X152135526Y-125172164D01*
X152133597Y-125166228D01*
X154649500Y-125166228D01*
X154649500Y-125333771D01*
X154682182Y-125498074D01*
X154682184Y-125498082D01*
X154746295Y-125652860D01*
X154839373Y-125792162D01*
X154957837Y-125910626D01*
X155016765Y-125950000D01*
X155097137Y-126003703D01*
X155251918Y-126067816D01*
X155416228Y-126100499D01*
X155416232Y-126100500D01*
X155416233Y-126100500D01*
X155583768Y-126100500D01*
X155583769Y-126100499D01*
X155748082Y-126067816D01*
X155902863Y-126003703D01*
X156042162Y-125910626D01*
X156160626Y-125792162D01*
X156253703Y-125652863D01*
X156317816Y-125498082D01*
X156350500Y-125333767D01*
X156350500Y-125166233D01*
X156350499Y-125166228D01*
X170899500Y-125166228D01*
X170899500Y-125333771D01*
X170932182Y-125498074D01*
X170932184Y-125498082D01*
X170996295Y-125652860D01*
X171089373Y-125792162D01*
X171207837Y-125910626D01*
X171266765Y-125950000D01*
X171347137Y-126003703D01*
X171501918Y-126067816D01*
X171666228Y-126100499D01*
X171666232Y-126100500D01*
X171666233Y-126100500D01*
X171833768Y-126100500D01*
X171833769Y-126100499D01*
X171998082Y-126067816D01*
X172152863Y-126003703D01*
X172292162Y-125910626D01*
X172410626Y-125792162D01*
X172503703Y-125652863D01*
X172567816Y-125498082D01*
X172600500Y-125333767D01*
X172600500Y-125166233D01*
X172567816Y-125001918D01*
X172503703Y-124847137D01*
X172439046Y-124750371D01*
X172410626Y-124707837D01*
X172292162Y-124589373D01*
X172152860Y-124496295D01*
X171998082Y-124432184D01*
X171998074Y-124432182D01*
X171833771Y-124399500D01*
X171833767Y-124399500D01*
X171666233Y-124399500D01*
X171666228Y-124399500D01*
X171501925Y-124432182D01*
X171501917Y-124432184D01*
X171347139Y-124496295D01*
X171207837Y-124589373D01*
X171089373Y-124707837D01*
X170996295Y-124847139D01*
X170932184Y-125001917D01*
X170932182Y-125001925D01*
X170899500Y-125166228D01*
X156350499Y-125166228D01*
X156317816Y-125001918D01*
X156253703Y-124847137D01*
X156189046Y-124750371D01*
X156160626Y-124707837D01*
X156042162Y-124589373D01*
X155902860Y-124496295D01*
X155748082Y-124432184D01*
X155748074Y-124432182D01*
X155583771Y-124399500D01*
X155583767Y-124399500D01*
X155416233Y-124399500D01*
X155416228Y-124399500D01*
X155251925Y-124432182D01*
X155251917Y-124432184D01*
X155097139Y-124496295D01*
X154957837Y-124589373D01*
X154839373Y-124707837D01*
X154746295Y-124847139D01*
X154682184Y-125001917D01*
X154682182Y-125001925D01*
X154649500Y-125166228D01*
X152133597Y-125166228D01*
X152067432Y-124962589D01*
X151967388Y-124766243D01*
X151921066Y-124702485D01*
X151921065Y-124702485D01*
X151212137Y-125411413D01*
X151189333Y-125326306D01*
X151130090Y-125223694D01*
X151046306Y-125139910D01*
X150943694Y-125080667D01*
X150858583Y-125057861D01*
X151567513Y-124348932D01*
X151503756Y-124302611D01*
X151307410Y-124202567D01*
X151097835Y-124134473D01*
X150880181Y-124100000D01*
X150659819Y-124100000D01*
X150442164Y-124134473D01*
X150232589Y-124202567D01*
X150036233Y-124302616D01*
X149972485Y-124348931D01*
X149972485Y-124348932D01*
X150681414Y-125057861D01*
X150596306Y-125080667D01*
X150493694Y-125139910D01*
X150409910Y-125223694D01*
X150350667Y-125326306D01*
X150327861Y-125411414D01*
X149666818Y-124750371D01*
X149633333Y-124689048D01*
X149630499Y-124662690D01*
X149630499Y-124552129D01*
X149630498Y-124552123D01*
X149630497Y-124552116D01*
X149624091Y-124492517D01*
X149573796Y-124357669D01*
X149573795Y-124357668D01*
X149573793Y-124357664D01*
X149487547Y-124242455D01*
X149487544Y-124242452D01*
X149372335Y-124156206D01*
X149372328Y-124156202D01*
X149237482Y-124105908D01*
X149237483Y-124105908D01*
X149177883Y-124099501D01*
X149177881Y-124099500D01*
X149177873Y-124099500D01*
X149177864Y-124099500D01*
X147282129Y-124099500D01*
X147282123Y-124099501D01*
X147222516Y-124105908D01*
X147087671Y-124156202D01*
X147087664Y-124156206D01*
X146972455Y-124242452D01*
X146972452Y-124242455D01*
X146886206Y-124357664D01*
X146886202Y-124357671D01*
X146835908Y-124492517D01*
X146830413Y-124543631D01*
X146829501Y-124552123D01*
X146829500Y-124552135D01*
X134986431Y-124552135D01*
X134902860Y-124496295D01*
X134748082Y-124432184D01*
X134748074Y-124432182D01*
X134583771Y-124399500D01*
X134583767Y-124399500D01*
X134416233Y-124399500D01*
X134416228Y-124399500D01*
X134251925Y-124432182D01*
X134251917Y-124432184D01*
X134097139Y-124496295D01*
X133957837Y-124589373D01*
X133839373Y-124707837D01*
X133746295Y-124847139D01*
X133682184Y-125001917D01*
X133682182Y-125001925D01*
X133649500Y-125166228D01*
X115850499Y-125166228D01*
X115817816Y-125001918D01*
X115753703Y-124847137D01*
X115689046Y-124750371D01*
X115660626Y-124707837D01*
X115542162Y-124589373D01*
X115402860Y-124496295D01*
X115248082Y-124432184D01*
X115248074Y-124432182D01*
X115083771Y-124399500D01*
X115083767Y-124399500D01*
X114916233Y-124399500D01*
X114916228Y-124399500D01*
X114751925Y-124432182D01*
X114751917Y-124432184D01*
X114597139Y-124496295D01*
X114457837Y-124589373D01*
X114339373Y-124707837D01*
X114246295Y-124847139D01*
X114182184Y-125001917D01*
X114182182Y-125001925D01*
X114149500Y-125166228D01*
X112513241Y-125166228D01*
X112593930Y-124900233D01*
X112593932Y-124900223D01*
X112593935Y-124900212D01*
X112663170Y-124552135D01*
X112664862Y-124543631D01*
X112700500Y-124181794D01*
X112700500Y-123818209D01*
X186299500Y-123818209D01*
X186299500Y-124181790D01*
X186335137Y-124543630D01*
X186406064Y-124900212D01*
X186406067Y-124900223D01*
X186511614Y-125248165D01*
X186650754Y-125584078D01*
X186650756Y-125584083D01*
X186822140Y-125904720D01*
X186822151Y-125904738D01*
X187024140Y-126207035D01*
X187024150Y-126207049D01*
X187254807Y-126488106D01*
X187511893Y-126745192D01*
X187511898Y-126745196D01*
X187511899Y-126745197D01*
X187792956Y-126975854D01*
X188095268Y-127177853D01*
X188095277Y-127177858D01*
X188095279Y-127177859D01*
X188415916Y-127349243D01*
X188415918Y-127349243D01*
X188415924Y-127349247D01*
X188751836Y-127488386D01*
X189099767Y-127593930D01*
X189099773Y-127593931D01*
X189099776Y-127593932D01*
X189099787Y-127593935D01*
X189456369Y-127664862D01*
X189818206Y-127700500D01*
X189818209Y-127700500D01*
X190181791Y-127700500D01*
X190181794Y-127700500D01*
X190543631Y-127664862D01*
X190613045Y-127651054D01*
X190900212Y-127593935D01*
X190900223Y-127593932D01*
X190900223Y-127593931D01*
X190900233Y-127593930D01*
X191248164Y-127488386D01*
X191584076Y-127349247D01*
X191904732Y-127177853D01*
X192207044Y-126975854D01*
X192488101Y-126745197D01*
X192745197Y-126488101D01*
X192975854Y-126207044D01*
X193177853Y-125904732D01*
X193349247Y-125584076D01*
X193488386Y-125248164D01*
X193593930Y-124900233D01*
X193593932Y-124900223D01*
X193593935Y-124900212D01*
X193663170Y-124552135D01*
X193664862Y-124543631D01*
X193700500Y-124181794D01*
X193700500Y-123818206D01*
X193664862Y-123456369D01*
X193593935Y-123099787D01*
X193593932Y-123099776D01*
X193593931Y-123099773D01*
X193593930Y-123099767D01*
X193488386Y-122751836D01*
X193349247Y-122415924D01*
X193177853Y-122095268D01*
X192975854Y-121792956D01*
X192745197Y-121511899D01*
X192745196Y-121511898D01*
X192745192Y-121511893D01*
X192488106Y-121254807D01*
X192207049Y-121024150D01*
X192207048Y-121024149D01*
X192207044Y-121024146D01*
X191904732Y-120822147D01*
X191904727Y-120822144D01*
X191904720Y-120822140D01*
X191584083Y-120650756D01*
X191584078Y-120650754D01*
X191248165Y-120511614D01*
X190900223Y-120406067D01*
X190900212Y-120406064D01*
X190543630Y-120335137D01*
X190271111Y-120308296D01*
X190181794Y-120299500D01*
X189818206Y-120299500D01*
X189735679Y-120307628D01*
X189456369Y-120335137D01*
X189099787Y-120406064D01*
X189099776Y-120406067D01*
X188751834Y-120511614D01*
X188415921Y-120650754D01*
X188415916Y-120650756D01*
X188095279Y-120822140D01*
X188095261Y-120822151D01*
X187792964Y-121024140D01*
X187792950Y-121024150D01*
X187511893Y-121254807D01*
X187254807Y-121511893D01*
X187024150Y-121792950D01*
X187024140Y-121792964D01*
X186822151Y-122095261D01*
X186822140Y-122095279D01*
X186650756Y-122415916D01*
X186650754Y-122415921D01*
X186511614Y-122751834D01*
X186406067Y-123099776D01*
X186406064Y-123099787D01*
X186335137Y-123456369D01*
X186299500Y-123818209D01*
X112700500Y-123818209D01*
X112700500Y-123818206D01*
X112664862Y-123456369D01*
X112593935Y-123099787D01*
X112593932Y-123099776D01*
X112593931Y-123099773D01*
X112593930Y-123099767D01*
X112488386Y-122751836D01*
X112349247Y-122415924D01*
X112177853Y-122095268D01*
X111975854Y-121792956D01*
X111745197Y-121511899D01*
X111745196Y-121511898D01*
X111745192Y-121511893D01*
X111488107Y-121254808D01*
X111380172Y-121166228D01*
X126149500Y-121166228D01*
X126149500Y-121333771D01*
X126182182Y-121498074D01*
X126182184Y-121498082D01*
X126246295Y-121652860D01*
X126339373Y-121792162D01*
X126457837Y-121910626D01*
X126550494Y-121972537D01*
X126597137Y-122003703D01*
X126751918Y-122067816D01*
X126889895Y-122095261D01*
X126916228Y-122100499D01*
X126916232Y-122100500D01*
X126916233Y-122100500D01*
X127083768Y-122100500D01*
X127083769Y-122100499D01*
X127248082Y-122067816D01*
X127402863Y-122003703D01*
X127542162Y-121910626D01*
X127660626Y-121792162D01*
X127753703Y-121652863D01*
X127817816Y-121498082D01*
X127850500Y-121333767D01*
X127850500Y-121166233D01*
X127850499Y-121166228D01*
X145649500Y-121166228D01*
X145649500Y-121333771D01*
X145682182Y-121498074D01*
X145682184Y-121498082D01*
X145746295Y-121652860D01*
X145839373Y-121792162D01*
X145957837Y-121910626D01*
X146050494Y-121972537D01*
X146097137Y-122003703D01*
X146251918Y-122067816D01*
X146389895Y-122095261D01*
X146416228Y-122100499D01*
X146416232Y-122100500D01*
X146416233Y-122100500D01*
X146583768Y-122100500D01*
X146583769Y-122100499D01*
X146748082Y-122067816D01*
X146902863Y-122003703D01*
X147042162Y-121910626D01*
X147160626Y-121792162D01*
X147253703Y-121652863D01*
X147317816Y-121498082D01*
X147350500Y-121333767D01*
X147350500Y-121166233D01*
X147350499Y-121166228D01*
X166899500Y-121166228D01*
X166899500Y-121333771D01*
X166932182Y-121498074D01*
X166932184Y-121498082D01*
X166996295Y-121652860D01*
X167089373Y-121792162D01*
X167207837Y-121910626D01*
X167300494Y-121972537D01*
X167347137Y-122003703D01*
X167501918Y-122067816D01*
X167639895Y-122095261D01*
X167666228Y-122100499D01*
X167666232Y-122100500D01*
X167666233Y-122100500D01*
X167833768Y-122100500D01*
X167833769Y-122100499D01*
X167998082Y-122067816D01*
X168152863Y-122003703D01*
X168292162Y-121910626D01*
X168410626Y-121792162D01*
X168503703Y-121652863D01*
X168567816Y-121498082D01*
X168600500Y-121333767D01*
X168600500Y-121166233D01*
X168600499Y-121166228D01*
X183149500Y-121166228D01*
X183149500Y-121333771D01*
X183182182Y-121498074D01*
X183182184Y-121498082D01*
X183246295Y-121652860D01*
X183339373Y-121792162D01*
X183457837Y-121910626D01*
X183550494Y-121972537D01*
X183597137Y-122003703D01*
X183751918Y-122067816D01*
X183889895Y-122095261D01*
X183916228Y-122100499D01*
X183916232Y-122100500D01*
X183916233Y-122100500D01*
X184083768Y-122100500D01*
X184083769Y-122100499D01*
X184248082Y-122067816D01*
X184402863Y-122003703D01*
X184542162Y-121910626D01*
X184660626Y-121792162D01*
X184753703Y-121652863D01*
X184817816Y-121498082D01*
X184850500Y-121333767D01*
X184850500Y-121166233D01*
X184817816Y-121001918D01*
X184753703Y-120847137D01*
X184722537Y-120800494D01*
X184660626Y-120707837D01*
X184542162Y-120589373D01*
X184402860Y-120496295D01*
X184248082Y-120432184D01*
X184248074Y-120432182D01*
X184083771Y-120399500D01*
X184083767Y-120399500D01*
X183916233Y-120399500D01*
X183916228Y-120399500D01*
X183751925Y-120432182D01*
X183751917Y-120432184D01*
X183597139Y-120496295D01*
X183457837Y-120589373D01*
X183339373Y-120707837D01*
X183246295Y-120847139D01*
X183182184Y-121001917D01*
X183182182Y-121001925D01*
X183149500Y-121166228D01*
X168600499Y-121166228D01*
X168567816Y-121001918D01*
X168503703Y-120847137D01*
X168472537Y-120800494D01*
X168410626Y-120707837D01*
X168292162Y-120589373D01*
X168152860Y-120496295D01*
X167998082Y-120432184D01*
X167998074Y-120432182D01*
X167833771Y-120399500D01*
X167833767Y-120399500D01*
X167666233Y-120399500D01*
X167666228Y-120399500D01*
X167501925Y-120432182D01*
X167501917Y-120432184D01*
X167347139Y-120496295D01*
X167207837Y-120589373D01*
X167089373Y-120707837D01*
X166996295Y-120847139D01*
X166932184Y-121001917D01*
X166932182Y-121001925D01*
X166899500Y-121166228D01*
X147350499Y-121166228D01*
X147317816Y-121001918D01*
X147253703Y-120847137D01*
X147222537Y-120800494D01*
X147160626Y-120707837D01*
X147042162Y-120589373D01*
X146902860Y-120496295D01*
X146748082Y-120432184D01*
X146748074Y-120432182D01*
X146583771Y-120399500D01*
X146583767Y-120399500D01*
X146416233Y-120399500D01*
X146416228Y-120399500D01*
X146251925Y-120432182D01*
X146251917Y-120432184D01*
X146097139Y-120496295D01*
X145957837Y-120589373D01*
X145839373Y-120707837D01*
X145746295Y-120847139D01*
X145682184Y-121001917D01*
X145682182Y-121001925D01*
X145649500Y-121166228D01*
X127850499Y-121166228D01*
X127817816Y-121001918D01*
X127753703Y-120847137D01*
X127722537Y-120800494D01*
X127660626Y-120707837D01*
X127542162Y-120589373D01*
X127402860Y-120496295D01*
X127248082Y-120432184D01*
X127248074Y-120432182D01*
X127083771Y-120399500D01*
X127083767Y-120399500D01*
X126916233Y-120399500D01*
X126916228Y-120399500D01*
X126751925Y-120432182D01*
X126751917Y-120432184D01*
X126597139Y-120496295D01*
X126457837Y-120589373D01*
X126339373Y-120707837D01*
X126246295Y-120847139D01*
X126182184Y-121001917D01*
X126182182Y-121001925D01*
X126149500Y-121166228D01*
X111380172Y-121166228D01*
X111207049Y-121024150D01*
X111207048Y-121024149D01*
X111207044Y-121024146D01*
X110904732Y-120822147D01*
X110904727Y-120822144D01*
X110904720Y-120822140D01*
X110584083Y-120650756D01*
X110584078Y-120650754D01*
X110248165Y-120511614D01*
X109900223Y-120406067D01*
X109900212Y-120406064D01*
X109543630Y-120335137D01*
X109271111Y-120308296D01*
X109181794Y-120299500D01*
X108818206Y-120299500D01*
X108735679Y-120307628D01*
X108456369Y-120335137D01*
X108099787Y-120406064D01*
X108099776Y-120406067D01*
X107751834Y-120511614D01*
X107415921Y-120650754D01*
X107415916Y-120650756D01*
X107095279Y-120822140D01*
X107095261Y-120822151D01*
X106792964Y-121024140D01*
X106792950Y-121024150D01*
X106511893Y-121254807D01*
X106254807Y-121511893D01*
X106024150Y-121792950D01*
X106024140Y-121792964D01*
X105822151Y-122095261D01*
X105822140Y-122095279D01*
X105650756Y-122415916D01*
X105650754Y-122415921D01*
X105511614Y-122751834D01*
X105406067Y-123099776D01*
X105406064Y-123099787D01*
X105335137Y-123456369D01*
X105299500Y-123818209D01*
X104500500Y-123818209D01*
X104500500Y-111212881D01*
X104520185Y-111145842D01*
X104566046Y-111103523D01*
X104606546Y-111081876D01*
X104628998Y-111072575D01*
X104793232Y-111022756D01*
X104817057Y-111018017D01*
X104893735Y-111010464D01*
X104993939Y-111000596D01*
X105006093Y-110999999D01*
X169000000Y-110999999D01*
X169000000Y-104006092D01*
X169000597Y-103993938D01*
X169018018Y-103817056D01*
X169022757Y-103793232D01*
X169072577Y-103628994D01*
X169081875Y-103606549D01*
X169162775Y-103455195D01*
X169176272Y-103434995D01*
X169285149Y-103302328D01*
X169302328Y-103285149D01*
X169434995Y-103176272D01*
X169455195Y-103162775D01*
X169606549Y-103081875D01*
X169628994Y-103072577D01*
X169793232Y-103022757D01*
X169817056Y-103018018D01*
X169993939Y-103000597D01*
X170006093Y-103000000D01*
X171100122Y-103000000D01*
X171167161Y-103019685D01*
X171212916Y-103072489D01*
X171214683Y-103076547D01*
X171246293Y-103152861D01*
X171339371Y-103292163D01*
X171436637Y-103389429D01*
X171436644Y-103389435D01*
X171457836Y-103410627D01*
X171472982Y-103420747D01*
X171472983Y-103420748D01*
X171597136Y-103503705D01*
X171671477Y-103534497D01*
X171751916Y-103567817D01*
X171751918Y-103567817D01*
X171754100Y-103568721D01*
X171768747Y-103580525D01*
X171786007Y-103588004D01*
X171795387Y-103601992D01*
X171808503Y-103612562D01*
X171814443Y-103630411D01*
X171824920Y-103646034D01*
X171825248Y-103662873D01*
X171830568Y-103678856D01*
X171825916Y-103697082D01*
X171826283Y-103715890D01*
X171814536Y-103741668D01*
X171813289Y-103746555D01*
X171812250Y-103748275D01*
X171811023Y-103750267D01*
X171746298Y-103847136D01*
X171735782Y-103872522D01*
X171730602Y-103880940D01*
X171711688Y-103897985D01*
X171695715Y-103917806D01*
X171686172Y-103920981D01*
X171678700Y-103927716D01*
X171653572Y-103931830D01*
X171629420Y-103939868D01*
X171619675Y-103937380D01*
X171609749Y-103939006D01*
X171586388Y-103928882D01*
X171561721Y-103922586D01*
X171554867Y-103915223D01*
X171545639Y-103911225D01*
X171531460Y-103890081D01*
X171514113Y-103871447D01*
X171510437Y-103863397D01*
X171503703Y-103847139D01*
X171410625Y-103707837D01*
X171313358Y-103610570D01*
X171313350Y-103610563D01*
X171292161Y-103589374D01*
X171277017Y-103579255D01*
X171277009Y-103579248D01*
X171152864Y-103496298D01*
X171152860Y-103496296D01*
X170998081Y-103432184D01*
X170998073Y-103432182D01*
X170833770Y-103399500D01*
X170833766Y-103399500D01*
X170666232Y-103399500D01*
X170666227Y-103399500D01*
X170501924Y-103432182D01*
X170501916Y-103432184D01*
X170347138Y-103496295D01*
X170207836Y-103589373D01*
X170089372Y-103707837D01*
X169996294Y-103847139D01*
X169932183Y-104001917D01*
X169932181Y-104001925D01*
X169899499Y-104166228D01*
X169899499Y-104333771D01*
X169932181Y-104498074D01*
X169932183Y-104498082D01*
X169996294Y-104652860D01*
X170089372Y-104792162D01*
X170207836Y-104910626D01*
X170278494Y-104957838D01*
X170347136Y-105003703D01*
X170501917Y-105067816D01*
X170649325Y-105097137D01*
X170666227Y-105100499D01*
X170666231Y-105100500D01*
X170666232Y-105100500D01*
X170833767Y-105100500D01*
X170833768Y-105100499D01*
X170998081Y-105067816D01*
X171152862Y-105003703D01*
X171292161Y-104910626D01*
X171410625Y-104792162D01*
X171503702Y-104652863D01*
X171510438Y-104636598D01*
X171554278Y-104582196D01*
X171620572Y-104560130D01*
X171688272Y-104577408D01*
X171735883Y-104628545D01*
X171739561Y-104636598D01*
X171746296Y-104652859D01*
X171839374Y-104792161D01*
X171957838Y-104910625D01*
X172028498Y-104957838D01*
X172097138Y-105003702D01*
X172097139Y-105003702D01*
X172097140Y-105003703D01*
X172132202Y-105018226D01*
X172251919Y-105067815D01*
X172399332Y-105097137D01*
X172416229Y-105100498D01*
X172416233Y-105100499D01*
X172416234Y-105100499D01*
X172583769Y-105100499D01*
X172583770Y-105100498D01*
X172748083Y-105067815D01*
X172902864Y-105003702D01*
X173042163Y-104910625D01*
X173160627Y-104792161D01*
X173253704Y-104652862D01*
X173317817Y-104498081D01*
X173350501Y-104333766D01*
X173350501Y-104166232D01*
X173317817Y-104001917D01*
X173253704Y-103847136D01*
X173186498Y-103746555D01*
X173160627Y-103707836D01*
X173042163Y-103589372D01*
X172902861Y-103496294D01*
X172745898Y-103431278D01*
X172733463Y-103421257D01*
X172718531Y-103415600D01*
X172706819Y-103399786D01*
X172691495Y-103387437D01*
X172686451Y-103372284D01*
X172676948Y-103359452D01*
X172675645Y-103339816D01*
X172669430Y-103321143D01*
X172673324Y-103304848D01*
X172672322Y-103289735D01*
X172682782Y-103265281D01*
X172684826Y-103256731D01*
X172687349Y-103252165D01*
X172753701Y-103152864D01*
X172787978Y-103070112D01*
X172791349Y-103064014D01*
X172811428Y-103044140D01*
X172829154Y-103022144D01*
X172835930Y-103019888D01*
X172841008Y-103014863D01*
X172868645Y-103008999D01*
X172895448Y-103000079D01*
X172899874Y-103000000D01*
X182000000Y-103000000D01*
X182000000Y-88002135D01*
X187117500Y-88002135D01*
X187117500Y-89797870D01*
X187117501Y-89797876D01*
X187123908Y-89857483D01*
X187174202Y-89992328D01*
X187174206Y-89992335D01*
X187260452Y-90107544D01*
X187260455Y-90107547D01*
X187375664Y-90193793D01*
X187375671Y-90193797D01*
X187507082Y-90242810D01*
X187563016Y-90284681D01*
X187587433Y-90350145D01*
X187572582Y-90418418D01*
X187551431Y-90446673D01*
X187437889Y-90560215D01*
X187312951Y-90732179D01*
X187216444Y-90921585D01*
X187150753Y-91123760D01*
X187141833Y-91180082D01*
X187117500Y-91333713D01*
X187117500Y-91546287D01*
X187150754Y-91756243D01*
X187185842Y-91864233D01*
X187216444Y-91958414D01*
X187312951Y-92147820D01*
X187437890Y-92319786D01*
X187588213Y-92470109D01*
X187760179Y-92595048D01*
X187760181Y-92595049D01*
X187760184Y-92595051D01*
X187768942Y-92599513D01*
X187819739Y-92647487D01*
X187836535Y-92715307D01*
X187813999Y-92781443D01*
X187768949Y-92820481D01*
X187760183Y-92824947D01*
X187588213Y-92949889D01*
X187437890Y-93100212D01*
X187312951Y-93272178D01*
X187216444Y-93461584D01*
X187150753Y-93663759D01*
X187117500Y-93873712D01*
X187117500Y-94086285D01*
X187143733Y-94251918D01*
X187150754Y-94296242D01*
X187201960Y-94453838D01*
X187216444Y-94498413D01*
X187312951Y-94687819D01*
X187437890Y-94859785D01*
X187588213Y-95010108D01*
X187760179Y-95135047D01*
X187760181Y-95135048D01*
X187760184Y-95135050D01*
X187768945Y-95139513D01*
X187819741Y-95187487D01*
X187836537Y-95255307D01*
X187814001Y-95321443D01*
X187768950Y-95360481D01*
X187760187Y-95364946D01*
X187760184Y-95364948D01*
X187588213Y-95489890D01*
X187437890Y-95640213D01*
X187312951Y-95812179D01*
X187216444Y-96001585D01*
X187150753Y-96203760D01*
X187117500Y-96413713D01*
X187117500Y-96626286D01*
X187130416Y-96707838D01*
X187150754Y-96836243D01*
X187205165Y-97003703D01*
X187216444Y-97038414D01*
X187312951Y-97227820D01*
X187437890Y-97399786D01*
X187588213Y-97550109D01*
X187760179Y-97675048D01*
X187760181Y-97675049D01*
X187760184Y-97675051D01*
X187949588Y-97771557D01*
X188151757Y-97837246D01*
X188361713Y-97870500D01*
X188361714Y-97870500D01*
X188574286Y-97870500D01*
X188574287Y-97870500D01*
X188784243Y-97837246D01*
X188986412Y-97771557D01*
X189175816Y-97675051D01*
X189206355Y-97652863D01*
X189347786Y-97550109D01*
X189347788Y-97550106D01*
X189347792Y-97550104D01*
X189498104Y-97399792D01*
X189498106Y-97399788D01*
X189498109Y-97399786D01*
X189623048Y-97227820D01*
X189623047Y-97227820D01*
X189623051Y-97227816D01*
X189719557Y-97038412D01*
X189785246Y-96836243D01*
X189818500Y-96626287D01*
X189818500Y-96413713D01*
X189785246Y-96203757D01*
X189719557Y-96001588D01*
X189623051Y-95812184D01*
X189623049Y-95812181D01*
X189623048Y-95812179D01*
X189498109Y-95640213D01*
X189347786Y-95489890D01*
X189175817Y-95364949D01*
X189167052Y-95360483D01*
X189116257Y-95312508D01*
X189099462Y-95244687D01*
X189122000Y-95178552D01*
X189167056Y-95139513D01*
X189175816Y-95135050D01*
X189175818Y-95135048D01*
X189175821Y-95135047D01*
X189347786Y-95010108D01*
X189347788Y-95010105D01*
X189347792Y-95010103D01*
X189498104Y-94859791D01*
X189498106Y-94859787D01*
X189498109Y-94859785D01*
X189623048Y-94687819D01*
X189623047Y-94687819D01*
X189623051Y-94687815D01*
X189719557Y-94498411D01*
X189785246Y-94296242D01*
X189818500Y-94086286D01*
X189818500Y-93873712D01*
X189785246Y-93663756D01*
X189719557Y-93461587D01*
X189623051Y-93272183D01*
X189623049Y-93272180D01*
X189623048Y-93272178D01*
X189498109Y-93100212D01*
X189347786Y-92949889D01*
X189175817Y-92824948D01*
X189167054Y-92820483D01*
X189116258Y-92772508D01*
X189099464Y-92704687D01*
X189122002Y-92638552D01*
X189167058Y-92599513D01*
X189175816Y-92595051D01*
X189197789Y-92579086D01*
X189347786Y-92470109D01*
X189347788Y-92470106D01*
X189347792Y-92470104D01*
X189498104Y-92319792D01*
X189498106Y-92319788D01*
X189498109Y-92319786D01*
X189623048Y-92147820D01*
X189623047Y-92147820D01*
X189623051Y-92147816D01*
X189719557Y-91958412D01*
X189785246Y-91756243D01*
X189818500Y-91546287D01*
X189818500Y-91333713D01*
X189785246Y-91123757D01*
X189719557Y-90921588D01*
X189623051Y-90732184D01*
X189623049Y-90732181D01*
X189623048Y-90732179D01*
X189498109Y-90560213D01*
X189384569Y-90446673D01*
X189351084Y-90385350D01*
X189356068Y-90315658D01*
X189397940Y-90259725D01*
X189428915Y-90242810D01*
X189560331Y-90193796D01*
X189675546Y-90107546D01*
X189761796Y-89992331D01*
X189812091Y-89857483D01*
X189818500Y-89797873D01*
X189818499Y-88002128D01*
X189812091Y-87942517D01*
X189761796Y-87807669D01*
X189761795Y-87807668D01*
X189761793Y-87807664D01*
X189675547Y-87692455D01*
X189675544Y-87692452D01*
X189560335Y-87606206D01*
X189560328Y-87606202D01*
X189425482Y-87555908D01*
X189425483Y-87555908D01*
X189365883Y-87549501D01*
X189365881Y-87549500D01*
X189365873Y-87549500D01*
X189365864Y-87549500D01*
X187570129Y-87549500D01*
X187570123Y-87549501D01*
X187510516Y-87555908D01*
X187375671Y-87606202D01*
X187375664Y-87606206D01*
X187260455Y-87692452D01*
X187260452Y-87692455D01*
X187174206Y-87807664D01*
X187174202Y-87807671D01*
X187123908Y-87942517D01*
X187117935Y-87998082D01*
X187117501Y-88002123D01*
X187117500Y-88002135D01*
X182000000Y-88002135D01*
X182000000Y-73393713D01*
X190024500Y-73393713D01*
X190024500Y-73606287D01*
X190057754Y-73816243D01*
X190086821Y-73905703D01*
X190123444Y-74018414D01*
X190219951Y-74207820D01*
X190344890Y-74379786D01*
X190495209Y-74530105D01*
X190495214Y-74530109D01*
X190659793Y-74649682D01*
X190702459Y-74705011D01*
X190708438Y-74774625D01*
X190675833Y-74836420D01*
X190659793Y-74850318D01*
X190495214Y-74969890D01*
X190495209Y-74969894D01*
X190344890Y-75120213D01*
X190219951Y-75292179D01*
X190123444Y-75481585D01*
X190057753Y-75683760D01*
X190046958Y-75751918D01*
X190024500Y-75893713D01*
X190024500Y-76106287D01*
X190057754Y-76316243D01*
X190116257Y-76496297D01*
X190123444Y-76518414D01*
X190219951Y-76707820D01*
X190344890Y-76879786D01*
X190495209Y-77030105D01*
X190495214Y-77030109D01*
X190659793Y-77149682D01*
X190702459Y-77205011D01*
X190708438Y-77274625D01*
X190675833Y-77336420D01*
X190659793Y-77350318D01*
X190495214Y-77469890D01*
X190495209Y-77469894D01*
X190344890Y-77620213D01*
X190219951Y-77792179D01*
X190123444Y-77981585D01*
X190057753Y-78183760D01*
X190051762Y-78221588D01*
X190024500Y-78393713D01*
X190024500Y-78606287D01*
X190057754Y-78816243D01*
X190115746Y-78994724D01*
X190123444Y-79018414D01*
X190219951Y-79207820D01*
X190344890Y-79379786D01*
X190484068Y-79518964D01*
X190517553Y-79580287D01*
X190512569Y-79649979D01*
X190470697Y-79705912D01*
X190461484Y-79712183D01*
X190306659Y-79807680D01*
X190306655Y-79807683D01*
X190182684Y-79931654D01*
X190090643Y-80080875D01*
X190090641Y-80080880D01*
X190035494Y-80247302D01*
X190035493Y-80247309D01*
X190025000Y-80350013D01*
X190025000Y-80750000D01*
X191095854Y-80750000D01*
X191057370Y-80816657D01*
X191025000Y-80937465D01*
X191025000Y-81062535D01*
X191057370Y-81183343D01*
X191095854Y-81250000D01*
X190025001Y-81250000D01*
X190025001Y-81649986D01*
X190035494Y-81752697D01*
X190090641Y-81919119D01*
X190090643Y-81919124D01*
X190182684Y-82068345D01*
X190306654Y-82192315D01*
X190455875Y-82284356D01*
X190455880Y-82284358D01*
X190622302Y-82339505D01*
X190622309Y-82339506D01*
X190725019Y-82349999D01*
X191249999Y-82349999D01*
X191250000Y-82349998D01*
X191250000Y-81404145D01*
X191316657Y-81442630D01*
X191437465Y-81475000D01*
X191562535Y-81475000D01*
X191683343Y-81442630D01*
X191750000Y-81404145D01*
X191750000Y-82349999D01*
X192274972Y-82349999D01*
X192274986Y-82349998D01*
X192377697Y-82339505D01*
X192544119Y-82284358D01*
X192544124Y-82284356D01*
X192693345Y-82192315D01*
X192817315Y-82068345D01*
X192909356Y-81919124D01*
X192909358Y-81919119D01*
X192964505Y-81752697D01*
X192964506Y-81752690D01*
X192974999Y-81649986D01*
X192975000Y-81649973D01*
X192975000Y-81250000D01*
X191904146Y-81250000D01*
X191942630Y-81183343D01*
X191975000Y-81062535D01*
X191975000Y-80937465D01*
X191942630Y-80816657D01*
X191904146Y-80750000D01*
X192974999Y-80750000D01*
X192974999Y-80350028D01*
X192974998Y-80350013D01*
X192964505Y-80247302D01*
X192909358Y-80080880D01*
X192909356Y-80080875D01*
X192817315Y-79931654D01*
X192693345Y-79807684D01*
X192538515Y-79712184D01*
X192491791Y-79660236D01*
X192480568Y-79591273D01*
X192508412Y-79527191D01*
X192515909Y-79518986D01*
X192655104Y-79379792D01*
X192676387Y-79350499D01*
X192780048Y-79207820D01*
X192780047Y-79207820D01*
X192780051Y-79207816D01*
X192876557Y-79018412D01*
X192942246Y-78816243D01*
X192975500Y-78606287D01*
X192975500Y-78393713D01*
X192942246Y-78183757D01*
X192876557Y-77981588D01*
X192780051Y-77792184D01*
X192780049Y-77792181D01*
X192780048Y-77792179D01*
X192655109Y-77620213D01*
X192504792Y-77469896D01*
X192504784Y-77469890D01*
X192340204Y-77350316D01*
X192297540Y-77294989D01*
X192291561Y-77225376D01*
X192324166Y-77163580D01*
X192340199Y-77149686D01*
X192504792Y-77030104D01*
X192655104Y-76879792D01*
X192655106Y-76879788D01*
X192655109Y-76879786D01*
X192780048Y-76707820D01*
X192780047Y-76707820D01*
X192780051Y-76707816D01*
X192876557Y-76518412D01*
X192942246Y-76316243D01*
X192975500Y-76106287D01*
X192975500Y-75893713D01*
X192942246Y-75683757D01*
X192876557Y-75481588D01*
X192780051Y-75292184D01*
X192780049Y-75292181D01*
X192780048Y-75292179D01*
X192655109Y-75120213D01*
X192504792Y-74969896D01*
X192504784Y-74969890D01*
X192340204Y-74850316D01*
X192297540Y-74794989D01*
X192291561Y-74725376D01*
X192324166Y-74663580D01*
X192340199Y-74649686D01*
X192504792Y-74530104D01*
X192655104Y-74379792D01*
X192655106Y-74379788D01*
X192655109Y-74379786D01*
X192780048Y-74207820D01*
X192780047Y-74207820D01*
X192780051Y-74207816D01*
X192876557Y-74018412D01*
X192942246Y-73816243D01*
X192975500Y-73606287D01*
X192975500Y-73393713D01*
X192942246Y-73183757D01*
X192876557Y-72981588D01*
X192780051Y-72792184D01*
X192780049Y-72792181D01*
X192780048Y-72792179D01*
X192655109Y-72620213D01*
X192504786Y-72469890D01*
X192332820Y-72344951D01*
X192143414Y-72248444D01*
X192143413Y-72248443D01*
X192143412Y-72248443D01*
X191941243Y-72182754D01*
X191941241Y-72182753D01*
X191941240Y-72182753D01*
X191779957Y-72157208D01*
X191731287Y-72149500D01*
X191268713Y-72149500D01*
X191220042Y-72157208D01*
X191058760Y-72182753D01*
X191058757Y-72182754D01*
X190928766Y-72224991D01*
X190856585Y-72248444D01*
X190667179Y-72344951D01*
X190495213Y-72469890D01*
X190344890Y-72620213D01*
X190219951Y-72792179D01*
X190123444Y-72981585D01*
X190057753Y-73183760D01*
X190024500Y-73393713D01*
X182000000Y-73393713D01*
X182000000Y-61818206D01*
X186299500Y-61818206D01*
X186299500Y-62181794D01*
X186302065Y-62207838D01*
X186335137Y-62543630D01*
X186406064Y-62900212D01*
X186406067Y-62900223D01*
X186511614Y-63248165D01*
X186549394Y-63339374D01*
X186617461Y-63503703D01*
X186650754Y-63584078D01*
X186650756Y-63584083D01*
X186822140Y-63904720D01*
X186822151Y-63904738D01*
X187024140Y-64207035D01*
X187024150Y-64207049D01*
X187254807Y-64488106D01*
X187511893Y-64745192D01*
X187511898Y-64745196D01*
X187511899Y-64745197D01*
X187792956Y-64975854D01*
X188095268Y-65177853D01*
X188095277Y-65177858D01*
X188095279Y-65177859D01*
X188415916Y-65349243D01*
X188415918Y-65349243D01*
X188415924Y-65349247D01*
X188751836Y-65488386D01*
X189099767Y-65593930D01*
X189099773Y-65593931D01*
X189099776Y-65593932D01*
X189099787Y-65593935D01*
X189435073Y-65660626D01*
X189456369Y-65664862D01*
X189818206Y-65700500D01*
X189818209Y-65700500D01*
X190181791Y-65700500D01*
X190181794Y-65700500D01*
X190543631Y-65664862D01*
X190620862Y-65649500D01*
X190900212Y-65593935D01*
X190900223Y-65593932D01*
X190900223Y-65593931D01*
X190900233Y-65593930D01*
X191248164Y-65488386D01*
X191584076Y-65349247D01*
X191904732Y-65177853D01*
X192207044Y-64975854D01*
X192488101Y-64745197D01*
X192745197Y-64488101D01*
X192975854Y-64207044D01*
X193177853Y-63904732D01*
X193349247Y-63584076D01*
X193488386Y-63248164D01*
X193593930Y-62900233D01*
X193593932Y-62900223D01*
X193593935Y-62900212D01*
X193664862Y-62543630D01*
X193672359Y-62467515D01*
X193700500Y-62181794D01*
X193700500Y-61818206D01*
X193664862Y-61456369D01*
X193654219Y-61402863D01*
X193593935Y-61099787D01*
X193593932Y-61099776D01*
X193593931Y-61099773D01*
X193593930Y-61099767D01*
X193488386Y-60751836D01*
X193349247Y-60415924D01*
X193317531Y-60356588D01*
X193177859Y-60095279D01*
X193177858Y-60095277D01*
X193177853Y-60095268D01*
X192975854Y-59792956D01*
X192745197Y-59511899D01*
X192745196Y-59511898D01*
X192745192Y-59511893D01*
X192488106Y-59254807D01*
X192207049Y-59024150D01*
X192207048Y-59024149D01*
X192207044Y-59024146D01*
X191904732Y-58822147D01*
X191904727Y-58822144D01*
X191904720Y-58822140D01*
X191584083Y-58650756D01*
X191584078Y-58650754D01*
X191248165Y-58511614D01*
X190900223Y-58406067D01*
X190900212Y-58406064D01*
X190543630Y-58335137D01*
X190271111Y-58308296D01*
X190181794Y-58299500D01*
X189818206Y-58299500D01*
X189735679Y-58307628D01*
X189456369Y-58335137D01*
X189099787Y-58406064D01*
X189099776Y-58406067D01*
X188751834Y-58511614D01*
X188415921Y-58650754D01*
X188415916Y-58650756D01*
X188095279Y-58822140D01*
X188095261Y-58822151D01*
X187792964Y-59024140D01*
X187792950Y-59024150D01*
X187511893Y-59254807D01*
X187254807Y-59511893D01*
X187024150Y-59792950D01*
X187024140Y-59792964D01*
X186822151Y-60095261D01*
X186822140Y-60095279D01*
X186650756Y-60415916D01*
X186650754Y-60415921D01*
X186511614Y-60751834D01*
X186406067Y-61099776D01*
X186406064Y-61099787D01*
X186335137Y-61456369D01*
X186316415Y-61646467D01*
X186299500Y-61818206D01*
X182000000Y-61818206D01*
X182000000Y-58006092D01*
X182000597Y-57993938D01*
X182007429Y-57924569D01*
X182018018Y-57817056D01*
X182022757Y-57793232D01*
X182072577Y-57628994D01*
X182081873Y-57606553D01*
X182103526Y-57566043D01*
X182152487Y-57516202D01*
X182212882Y-57500500D01*
X189934108Y-57500500D01*
X189997294Y-57500500D01*
X190002702Y-57500617D01*
G37*
%TD.AperFunction*%
%TD*%
M02*
