%TF.GenerationSoftware,KiCad,Pcbnew,9.0.5*%
%TF.CreationDate,2026-02-06T18:32:07+13:00*%
%TF.ProjectId,ShroomShed_MKII_PCB,5368726f-6f6d-4536-9865-645f4d4b4949,rev?*%
%TF.SameCoordinates,Original*%
%TF.FileFunction,Legend,Bot*%
%TF.FilePolarity,Positive*%
%FSLAX46Y46*%
G04 Gerber Fmt 4.6, Leading zero omitted, Abs format (unit mm)*
G04 Created by KiCad (PCBNEW 9.0.5) date 2026-02-06 18:32:07*
%MOMM*%
%LPD*%
G01*
G04 APERTURE LIST*
%ADD10C,0.150000*%
%ADD11C,0.120000*%
G04 APERTURE END LIST*
D10*
X150714285Y-129414819D02*
X150714285Y-128414819D01*
X150714285Y-128414819D02*
X150476190Y-128414819D01*
X150476190Y-128414819D02*
X150333333Y-128462438D01*
X150333333Y-128462438D02*
X150238095Y-128557676D01*
X150238095Y-128557676D02*
X150190476Y-128652914D01*
X150190476Y-128652914D02*
X150142857Y-128843390D01*
X150142857Y-128843390D02*
X150142857Y-128986247D01*
X150142857Y-128986247D02*
X150190476Y-129176723D01*
X150190476Y-129176723D02*
X150238095Y-129271961D01*
X150238095Y-129271961D02*
X150333333Y-129367200D01*
X150333333Y-129367200D02*
X150476190Y-129414819D01*
X150476190Y-129414819D02*
X150714285Y-129414819D01*
X149190476Y-129414819D02*
X149761904Y-129414819D01*
X149476190Y-129414819D02*
X149476190Y-128414819D01*
X149476190Y-128414819D02*
X149571428Y-128557676D01*
X149571428Y-128557676D02*
X149666666Y-128652914D01*
X149666666Y-128652914D02*
X149761904Y-128700533D01*
X148333333Y-128748152D02*
X148333333Y-129414819D01*
X148571428Y-128367200D02*
X148809523Y-129081485D01*
X148809523Y-129081485D02*
X148190476Y-129081485D01*
X188801333Y-85584819D02*
X188801333Y-86299104D01*
X188801333Y-86299104D02*
X188848952Y-86441961D01*
X188848952Y-86441961D02*
X188944190Y-86537200D01*
X188944190Y-86537200D02*
X189087047Y-86584819D01*
X189087047Y-86584819D02*
X189182285Y-86584819D01*
X188420380Y-85584819D02*
X187753714Y-85584819D01*
X187753714Y-85584819D02*
X188182285Y-86584819D01*
X108029333Y-72884819D02*
X108029333Y-73599104D01*
X108029333Y-73599104D02*
X108076952Y-73741961D01*
X108076952Y-73741961D02*
X108172190Y-73837200D01*
X108172190Y-73837200D02*
X108315047Y-73884819D01*
X108315047Y-73884819D02*
X108410285Y-73884819D01*
X107410285Y-73313390D02*
X107505523Y-73265771D01*
X107505523Y-73265771D02*
X107553142Y-73218152D01*
X107553142Y-73218152D02*
X107600761Y-73122914D01*
X107600761Y-73122914D02*
X107600761Y-73075295D01*
X107600761Y-73075295D02*
X107553142Y-72980057D01*
X107553142Y-72980057D02*
X107505523Y-72932438D01*
X107505523Y-72932438D02*
X107410285Y-72884819D01*
X107410285Y-72884819D02*
X107219809Y-72884819D01*
X107219809Y-72884819D02*
X107124571Y-72932438D01*
X107124571Y-72932438D02*
X107076952Y-72980057D01*
X107076952Y-72980057D02*
X107029333Y-73075295D01*
X107029333Y-73075295D02*
X107029333Y-73122914D01*
X107029333Y-73122914D02*
X107076952Y-73218152D01*
X107076952Y-73218152D02*
X107124571Y-73265771D01*
X107124571Y-73265771D02*
X107219809Y-73313390D01*
X107219809Y-73313390D02*
X107410285Y-73313390D01*
X107410285Y-73313390D02*
X107505523Y-73361009D01*
X107505523Y-73361009D02*
X107553142Y-73408628D01*
X107553142Y-73408628D02*
X107600761Y-73503866D01*
X107600761Y-73503866D02*
X107600761Y-73694342D01*
X107600761Y-73694342D02*
X107553142Y-73789580D01*
X107553142Y-73789580D02*
X107505523Y-73837200D01*
X107505523Y-73837200D02*
X107410285Y-73884819D01*
X107410285Y-73884819D02*
X107219809Y-73884819D01*
X107219809Y-73884819D02*
X107124571Y-73837200D01*
X107124571Y-73837200D02*
X107076952Y-73789580D01*
X107076952Y-73789580D02*
X107029333Y-73694342D01*
X107029333Y-73694342D02*
X107029333Y-73503866D01*
X107029333Y-73503866D02*
X107076952Y-73408628D01*
X107076952Y-73408628D02*
X107124571Y-73361009D01*
X107124571Y-73361009D02*
X107219809Y-73313390D01*
D11*
%TO.C,D14*%
X147440000Y-124420000D02*
X147440000Y-124101000D01*
X147440000Y-126899000D02*
X147440000Y-126580000D01*
X147440001Y-124101251D02*
G75*
G02*
X151743591Y-124420000I2060000J-1398746D01*
G01*
X147816670Y-124420000D02*
G75*
G02*
X151183330Y-124420000I1683330J-1079998D01*
G01*
X151183330Y-126580000D02*
G75*
G02*
X147816670Y-126580000I-1683330J1080004D01*
G01*
X151743591Y-126580000D02*
G75*
G02*
X147440000Y-126898750I-2243591J1080000D01*
G01*
%TO.C,J7*%
X187138000Y-87570000D02*
X187138000Y-88900000D01*
X187138000Y-90170001D02*
X187138000Y-97850000D01*
X188468000Y-87570000D02*
X187138000Y-87570000D01*
X189798000Y-90170001D02*
X187138000Y-90170001D01*
X189798000Y-90170001D02*
X189798000Y-97850000D01*
X189798000Y-97850000D02*
X187138000Y-97850000D01*
%TO.C,J8*%
X106366000Y-74870000D02*
X106366000Y-76200000D01*
X106366000Y-77470001D02*
X106366000Y-110550000D01*
X107696000Y-74870000D02*
X106366000Y-74870000D01*
X109026000Y-77470001D02*
X106366000Y-77470001D01*
X109026000Y-77470001D02*
X109026000Y-110550000D01*
X109026000Y-110550000D02*
X106366000Y-110550000D01*
%TD*%
M02*
