%TF.GenerationSoftware,KiCad,Pcbnew,9.0.5*%
%TF.CreationDate,2026-02-06T18:32:07+13:00*%
%TF.ProjectId,ShroomShed_MKII_PCB,5368726f-6f6d-4536-9865-645f4d4b4949,rev?*%
%TF.SameCoordinates,Original*%
%TF.FileFunction,Soldermask,Top*%
%TF.FilePolarity,Negative*%
%FSLAX46Y46*%
G04 Gerber Fmt 4.6, Leading zero omitted, Abs format (unit mm)*
G04 Created by KiCad (PCBNEW 9.0.5) date 2026-02-06 18:32:07*
%MOMM*%
%LPD*%
G01*
G04 APERTURE LIST*
G04 Aperture macros list*
%AMRoundRect*
0 Rectangle with rounded corners*
0 $1 Rounding radius*
0 $2 $3 $4 $5 $6 $7 $8 $9 X,Y pos of 4 corners*
0 Add a 4 corners polygon primitive as box body*
4,1,4,$2,$3,$4,$5,$6,$7,$8,$9,$2,$3,0*
0 Add four circle primitives for the rounded corners*
1,1,$1+$1,$2,$3*
1,1,$1+$1,$4,$5*
1,1,$1+$1,$6,$7*
1,1,$1+$1,$8,$9*
0 Add four rect primitives between the rounded corners*
20,1,$1+$1,$2,$3,$4,$5,0*
20,1,$1+$1,$4,$5,$6,$7,0*
20,1,$1+$1,$6,$7,$8,$9,0*
20,1,$1+$1,$8,$9,$2,$3,0*%
G04 Aperture macros list end*
%ADD10C,0.010000*%
%ADD11C,6.476000*%
%ADD12RoundRect,0.244000X0.244000X0.269000X-0.244000X0.269000X-0.244000X-0.269000X0.244000X-0.269000X0*%
%ADD13RoundRect,0.038000X0.550000X1.000000X-0.550000X1.000000X-0.550000X-1.000000X0.550000X-1.000000X0*%
%ADD14RoundRect,0.244000X-0.244000X-0.269000X0.244000X-0.269000X0.244000X0.269000X-0.244000X0.269000X0*%
%ADD15RoundRect,0.219000X0.219000X0.294000X-0.219000X0.294000X-0.219000X-0.294000X0.219000X-0.294000X0*%
%ADD16RoundRect,0.219000X0.294000X-0.219000X0.294000X0.219000X-0.294000X0.219000X-0.294000X-0.219000X0*%
%ADD17RoundRect,0.038000X-1.600200X-0.495300X1.600200X-0.495300X1.600200X0.495300X-1.600200X0.495300X0*%
%ADD18RoundRect,0.261177X-0.626823X-0.751823X0.626823X-0.751823X0.626823X0.751823X-0.626823X0.751823X0*%
%ADD19O,1.776000X2.026000*%
%ADD20RoundRect,0.219000X-0.294000X0.219000X-0.294000X-0.219000X0.294000X-0.219000X0.294000X0.219000X0*%
%ADD21RoundRect,0.261177X0.626823X0.751823X-0.626823X0.751823X-0.626823X-0.751823X0.626823X-0.751823X0*%
%ADD22RoundRect,0.219000X-0.219000X-0.294000X0.219000X-0.294000X0.219000X0.294000X-0.219000X0.294000X0*%
%ADD23C,0.676000*%
%ADD24O,1.104000X2.204000*%
%ADD25O,1.104000X1.904000*%
%ADD26RoundRect,0.038000X-0.550000X-1.000000X0.550000X-1.000000X0.550000X1.000000X-0.550000X1.000000X0*%
%ADD27RoundRect,0.269000X0.269000X0.494000X-0.269000X0.494000X-0.269000X-0.494000X0.269000X-0.494000X0*%
%ADD28RoundRect,0.261875X-1.526125X-0.576125X1.526125X-0.576125X1.526125X0.576125X-1.526125X0.576125X0*%
%ADD29RoundRect,0.038000X-1.100000X0.750000X-1.100000X-0.750000X1.100000X-0.750000X1.100000X0.750000X0*%
%ADD30RoundRect,0.263334X-0.487166X-1.099666X0.487166X-1.099666X0.487166X1.099666X-0.487166X1.099666X0*%
%ADD31RoundRect,0.169000X-0.844000X-0.169000X0.844000X-0.169000X0.844000X0.169000X-0.844000X0.169000X0*%
%ADD32RoundRect,0.244000X-0.269000X0.244000X-0.269000X-0.244000X0.269000X-0.244000X0.269000X0.244000X0*%
%ADD33RoundRect,0.265833X-0.472167X-0.372167X0.472167X-0.372167X0.472167X0.372167X-0.472167X0.372167X0*%
%ADD34RoundRect,0.394000X0.644000X0.394000X-0.644000X0.394000X-0.644000X-0.394000X0.644000X-0.394000X0*%
%ADD35RoundRect,0.519000X0.519000X1.419000X-0.519000X1.419000X-0.519000X-1.419000X0.519000X-1.419000X0*%
%ADD36RoundRect,0.261177X0.751823X-0.626823X0.751823X0.626823X-0.751823X0.626823X-0.751823X-0.626823X0*%
%ADD37O,2.026000X1.776000*%
%ADD38RoundRect,0.038000X-0.370000X1.200000X-0.370000X-1.200000X0.370000X-1.200000X0.370000X1.200000X0*%
%ADD39RoundRect,0.169000X0.606500X0.169000X-0.606500X0.169000X-0.606500X-0.169000X0.606500X-0.169000X0*%
%ADD40RoundRect,0.038000X0.300000X0.200000X-0.300000X0.200000X-0.300000X-0.200000X0.300000X-0.200000X0*%
%ADD41RoundRect,0.038000X0.350000X0.800000X-0.350000X0.800000X-0.350000X-0.800000X0.350000X-0.800000X0*%
%ADD42RoundRect,0.169000X-0.169000X0.531500X-0.169000X-0.531500X0.169000X-0.531500X0.169000X0.531500X0*%
%ADD43RoundRect,0.144000X-0.706500X-0.144000X0.706500X-0.144000X0.706500X0.144000X-0.706500X0.144000X0*%
%ADD44RoundRect,0.038000X0.675000X-0.675000X0.675000X0.675000X-0.675000X0.675000X-0.675000X-0.675000X0*%
%ADD45C,1.426000*%
%ADD46RoundRect,0.094000X0.094000X-0.744000X0.094000X0.744000X-0.094000X0.744000X-0.094000X-0.744000X0*%
%ADD47RoundRect,0.094000X0.744000X-0.094000X0.744000X0.094000X-0.744000X0.094000X-0.744000X-0.094000X0*%
%ADD48RoundRect,0.244000X0.269000X-0.244000X0.269000X0.244000X-0.269000X0.244000X-0.269000X-0.244000X0*%
%ADD49C,0.850000*%
%ADD50RoundRect,0.169000X0.169000X0.519000X-0.169000X0.519000X-0.169000X-0.519000X0.169000X-0.519000X0*%
%ADD51RoundRect,0.194000X0.369000X0.194000X-0.369000X0.194000X-0.369000X-0.194000X0.369000X-0.194000X0*%
%ADD52RoundRect,0.237750X0.237750X0.275250X-0.237750X0.275250X-0.237750X-0.275250X0.237750X-0.275250X0*%
%ADD53RoundRect,0.260556X-1.027444X-0.677444X1.027444X-0.677444X1.027444X0.677444X-1.027444X0.677444X0*%
%ADD54RoundRect,0.269000X-0.269000X-0.494000X0.269000X-0.494000X0.269000X0.494000X-0.269000X0.494000X0*%
%ADD55RoundRect,0.038000X-0.900000X-0.900000X0.900000X-0.900000X0.900000X0.900000X-0.900000X0.900000X0*%
%ADD56C,1.876000*%
%ADD57RoundRect,0.038000X0.850000X0.850000X-0.850000X0.850000X-0.850000X-0.850000X0.850000X-0.850000X0*%
%ADD58C,1.776000*%
G04 APERTURE END LIST*
D10*
%TO.C,J1*%
X131150000Y-64370000D02*
X130450000Y-64369999D01*
X130450000Y-63130000D01*
X131150000Y-63130000D01*
X131150000Y-64370000D01*
G36*
X131150000Y-64370000D02*
G01*
X130450000Y-64369999D01*
X130450000Y-63130000D01*
X131150000Y-63130000D01*
X131150000Y-64370000D01*
G37*
X131950001Y-64370000D02*
X131250000Y-64370000D01*
X131250000Y-63130000D01*
X131950000Y-63130000D01*
X131950001Y-64370000D01*
G36*
X131950001Y-64370000D02*
G01*
X131250000Y-64370000D01*
X131250000Y-63130000D01*
X131950000Y-63130000D01*
X131950001Y-64370000D01*
G37*
X132450000Y-64370000D02*
X132050000Y-64370000D01*
X132050000Y-63130000D01*
X132449999Y-63130000D01*
X132450000Y-64370000D01*
G36*
X132450000Y-64370000D02*
G01*
X132050000Y-64370000D01*
X132050000Y-63130000D01*
X132449999Y-63130000D01*
X132450000Y-64370000D01*
G37*
X132949999Y-64370000D02*
X132550000Y-64370000D01*
X132550000Y-63130000D01*
X132950000Y-63130000D01*
X132949999Y-64370000D01*
G36*
X132949999Y-64370000D02*
G01*
X132550000Y-64370000D01*
X132550000Y-63130000D01*
X132950000Y-63130000D01*
X132949999Y-64370000D01*
G37*
X133450000Y-64370000D02*
X133050000Y-64370000D01*
X133050001Y-63130000D01*
X133450000Y-63130000D01*
X133450000Y-64370000D01*
G36*
X133450000Y-64370000D02*
G01*
X133050000Y-64370000D01*
X133050001Y-63130000D01*
X133450000Y-63130000D01*
X133450000Y-64370000D01*
G37*
X133950000Y-64370000D02*
X133550000Y-64369999D01*
X133550000Y-63130000D01*
X133950000Y-63130000D01*
X133950000Y-64370000D01*
G36*
X133950000Y-64370000D02*
G01*
X133550000Y-64369999D01*
X133550000Y-63130000D01*
X133950000Y-63130000D01*
X133950000Y-64370000D01*
G37*
X134450000Y-64369999D02*
X134050000Y-64370000D01*
X134050000Y-63130000D01*
X134450000Y-63130000D01*
X134450000Y-64369999D01*
G36*
X134450000Y-64369999D02*
G01*
X134050000Y-64370000D01*
X134050000Y-63130000D01*
X134450000Y-63130000D01*
X134450000Y-64369999D01*
G37*
X134950000Y-64370000D02*
X134550000Y-64370000D01*
X134550000Y-63130000D01*
X134949999Y-63130000D01*
X134950000Y-64370000D01*
G36*
X134950000Y-64370000D02*
G01*
X134550000Y-64370000D01*
X134550000Y-63130000D01*
X134949999Y-63130000D01*
X134950000Y-64370000D01*
G37*
X135450000Y-64370000D02*
X135050001Y-64370000D01*
X135050000Y-63130000D01*
X135450000Y-63130000D01*
X135450000Y-64370000D01*
G36*
X135450000Y-64370000D02*
G01*
X135050001Y-64370000D01*
X135050000Y-63130000D01*
X135450000Y-63130000D01*
X135450000Y-64370000D01*
G37*
X135950000Y-64370000D02*
X135550000Y-64370000D01*
X135550001Y-63130000D01*
X135950000Y-63130000D01*
X135950000Y-64370000D01*
G36*
X135950000Y-64370000D02*
G01*
X135550000Y-64370000D01*
X135550001Y-63130000D01*
X135950000Y-63130000D01*
X135950000Y-64370000D01*
G37*
X136750000Y-64370000D02*
X136049999Y-64370000D01*
X136050000Y-63130000D01*
X136750000Y-63130000D01*
X136750000Y-64370000D01*
G36*
X136750000Y-64370000D02*
G01*
X136049999Y-64370000D01*
X136050000Y-63130000D01*
X136750000Y-63130000D01*
X136750000Y-64370000D01*
G37*
X137550000Y-64369999D02*
X136850000Y-64370000D01*
X136850000Y-63130000D01*
X137550000Y-63130000D01*
X137550000Y-64369999D01*
G36*
X137550000Y-64369999D02*
G01*
X136850000Y-64370000D01*
X136850000Y-63130000D01*
X137550000Y-63130000D01*
X137550000Y-64369999D01*
G37*
%TD*%
D11*
%TO.C,H4*%
X109000000Y-124000000D03*
%TD*%
D12*
%TO.C,C25*%
X133775001Y-77250000D03*
X132225001Y-77250000D03*
%TD*%
D13*
%TO.C,D4*%
X122050000Y-118650000D03*
X123750000Y-118650000D03*
X125450000Y-118650000D03*
X125450000Y-113850000D03*
X123750000Y-113850000D03*
X122050000Y-113850000D03*
%TD*%
D14*
%TO.C,C22*%
X132225000Y-79749999D03*
X133775000Y-79749999D03*
%TD*%
D15*
%TO.C,R2*%
X137149237Y-67424761D03*
X135499237Y-67424761D03*
%TD*%
D16*
%TO.C,R5*%
X169550001Y-99174999D03*
X169550001Y-97524999D03*
%TD*%
D14*
%TO.C,C21*%
X129000000Y-97250000D03*
X130550000Y-97250000D03*
%TD*%
%TO.C,C12*%
X172963000Y-80701999D03*
X174513000Y-80701999D03*
%TD*%
%TO.C,C3*%
X124224999Y-121250001D03*
X125774999Y-121250001D03*
%TD*%
D15*
%TO.C,R1*%
X182825002Y-125000002D03*
X181175002Y-125000002D03*
%TD*%
D17*
%TO.C,SW1*%
X115600002Y-105999999D03*
X115600002Y-110000001D03*
X122399998Y-110000001D03*
X122399998Y-105999999D03*
%TD*%
D18*
%TO.C,J3*%
X148750000Y-73000000D03*
D19*
X151250000Y-73000000D03*
X153750000Y-73000000D03*
X156250000Y-73000000D03*
X158750000Y-73000000D03*
X161250000Y-73000000D03*
%TD*%
D20*
%TO.C,R7*%
X167549998Y-105450000D03*
X167549998Y-107100000D03*
%TD*%
D21*
%TO.C,J4*%
X151750000Y-61000000D03*
D19*
X149250000Y-61000000D03*
X146750000Y-61000000D03*
X144250000Y-61000000D03*
%TD*%
D16*
%TO.C,R15*%
X152750000Y-108825000D03*
X152750000Y-107175000D03*
%TD*%
D11*
%TO.C,H2*%
X109000000Y-62000000D03*
%TD*%
D15*
%TO.C,R14*%
X121575000Y-103500000D03*
X119925000Y-103500000D03*
%TD*%
D22*
%TO.C,R21*%
X180075000Y-72800000D03*
X181725000Y-72800000D03*
%TD*%
%TO.C,R8*%
X165725001Y-99599998D03*
X167375001Y-99599998D03*
%TD*%
D15*
%TO.C,R3*%
X182825001Y-123000001D03*
X181175001Y-123000001D03*
%TD*%
D23*
%TO.C,J1*%
X136890001Y-62680000D03*
X131109999Y-62680000D03*
D24*
X138325000Y-63170000D03*
X129675000Y-63170000D03*
D25*
X138325000Y-59000000D03*
X129675000Y-59000000D03*
%TD*%
D12*
%TO.C,C26*%
X149025000Y-82750000D03*
X147475000Y-82750000D03*
%TD*%
D15*
%TO.C,R4*%
X125824998Y-123000001D03*
X124174998Y-123000001D03*
%TD*%
D26*
%TO.C,D2*%
X182699998Y-113850000D03*
X180999998Y-113850000D03*
X179299998Y-113850000D03*
X179299998Y-118650000D03*
X180999998Y-118650000D03*
X182699998Y-118650000D03*
%TD*%
D15*
%TO.C,R17*%
X150825000Y-66250000D03*
X149175000Y-66250000D03*
%TD*%
D14*
%TO.C,C7*%
X164725001Y-121250001D03*
X166275001Y-121250001D03*
%TD*%
D11*
%TO.C,H1*%
X190000000Y-62000000D03*
%TD*%
D13*
%TO.C,D6*%
X110550000Y-118650000D03*
X112250000Y-118650000D03*
X113950000Y-118650000D03*
X113950000Y-113850000D03*
X112250000Y-113850000D03*
X110550000Y-113850000D03*
%TD*%
D14*
%TO.C,C28*%
X136475000Y-100250000D03*
X138025000Y-100250000D03*
%TD*%
D27*
%TO.C,C16*%
X175199999Y-64500000D03*
X173300001Y-64500000D03*
%TD*%
D28*
%TO.C,C15*%
X178800000Y-63500000D03*
X184200000Y-63500000D03*
%TD*%
D29*
%TO.C,L1*%
X181000000Y-97550000D03*
X181000000Y-103950000D03*
%TD*%
D30*
%TO.C,F1*%
X167612498Y-61000000D03*
X170587498Y-61000000D03*
%TD*%
D31*
%TO.C,U6*%
X136524998Y-121345000D03*
X136524998Y-122615000D03*
X136524998Y-123885000D03*
X136524998Y-125155000D03*
X141474998Y-125155000D03*
X141474998Y-123885000D03*
X141474998Y-122615000D03*
X141474998Y-121345000D03*
%TD*%
D32*
%TO.C,C9*%
X170750001Y-105475000D03*
X170750001Y-107025000D03*
%TD*%
D33*
%TO.C,Y1*%
X138400000Y-105350000D03*
X140600000Y-105350000D03*
X140600000Y-103650000D03*
X138400000Y-103650000D03*
%TD*%
D34*
%TO.C,U8*%
X174599998Y-72000000D03*
X174599997Y-69700000D03*
D35*
X168299999Y-69700000D03*
D34*
X174599998Y-67400000D03*
%TD*%
D13*
%TO.C,D10*%
X152550002Y-118650001D03*
X154250002Y-118650001D03*
X155950002Y-118650001D03*
X155950002Y-113850001D03*
X154250002Y-113850001D03*
X152550002Y-113850001D03*
%TD*%
D15*
%TO.C,R11*%
X145324999Y-123000001D03*
X143674999Y-123000001D03*
%TD*%
D36*
%TO.C,J6*%
X191500000Y-81000000D03*
D37*
X191500000Y-78500000D03*
X191500000Y-76000000D03*
X191500000Y-73500000D03*
%TD*%
D20*
%TO.C,R13*%
X176371000Y-77867000D03*
X176371000Y-79517000D03*
%TD*%
D38*
%TO.C,J5*%
X123310000Y-60050000D03*
X123310000Y-63950000D03*
X122040000Y-60050000D03*
X122040000Y-63950000D03*
X120770000Y-60050000D03*
X120770000Y-63950000D03*
X119500000Y-60050000D03*
X119500000Y-63950000D03*
X118230000Y-60050000D03*
X118230000Y-63950000D03*
X116960000Y-60050000D03*
X116960000Y-63950000D03*
X115690000Y-60050000D03*
X115690000Y-63950000D03*
%TD*%
D39*
%TO.C,Q1*%
X150437500Y-108950000D03*
X150437500Y-107050000D03*
X148562499Y-108000000D03*
%TD*%
D40*
%TO.C,U7*%
X174701000Y-78923000D03*
X174701000Y-77973000D03*
X172801000Y-77973000D03*
X172801000Y-78923000D03*
D41*
X173751000Y-78448000D03*
%TD*%
D31*
%TO.C,U1*%
X173775000Y-121345000D03*
X173775000Y-122615000D03*
X173775000Y-123885000D03*
X173775000Y-125155000D03*
X178725000Y-125155000D03*
X178725000Y-123885000D03*
X178725000Y-122615000D03*
X178725000Y-121345000D03*
%TD*%
D13*
%TO.C,D1*%
X185050000Y-118650000D03*
X186750000Y-118650000D03*
X188450000Y-118650000D03*
X188450000Y-113850000D03*
X186750000Y-113850000D03*
X185050000Y-113850000D03*
%TD*%
D14*
%TO.C,C23*%
X141850000Y-99600000D03*
X143400000Y-99600000D03*
%TD*%
D22*
%TO.C,R6*%
X130249237Y-67424762D03*
X131899237Y-67424762D03*
%TD*%
D13*
%TO.C,D8*%
X164050002Y-118650001D03*
X165750002Y-118650001D03*
X167450002Y-118650001D03*
X167450002Y-113850001D03*
X165750002Y-113850001D03*
X164050002Y-113850001D03*
%TD*%
D22*
%TO.C,R20*%
X144925000Y-66250000D03*
X146575000Y-66250000D03*
%TD*%
D31*
%TO.C,U2*%
X117025000Y-121345000D03*
X117025000Y-122615000D03*
X117025000Y-123885000D03*
X117025000Y-125155000D03*
X121975000Y-125155000D03*
X121975000Y-123885000D03*
X121975000Y-122615000D03*
X121975000Y-121345000D03*
%TD*%
D26*
%TO.C,D12*%
X140699998Y-113850001D03*
X138999998Y-113850001D03*
X137299998Y-113850001D03*
X137299998Y-118650001D03*
X138999998Y-118650001D03*
X140699998Y-118650001D03*
%TD*%
D31*
%TO.C,U5*%
X157525002Y-121345000D03*
X157525002Y-122615000D03*
X157525002Y-123885000D03*
X157525002Y-125155000D03*
X162475002Y-125155000D03*
X162475002Y-123885000D03*
X162475002Y-122615000D03*
X162475002Y-121345000D03*
%TD*%
D26*
%TO.C,D9*%
X161700002Y-113850001D03*
X160000002Y-113850001D03*
X158300002Y-113850001D03*
X158300002Y-118650001D03*
X160000002Y-118650001D03*
X161700002Y-118650001D03*
%TD*%
D14*
%TO.C,C2*%
X181225002Y-121250001D03*
X182775002Y-121250001D03*
%TD*%
D42*
%TO.C,U4*%
X136949999Y-72112500D03*
X136000000Y-72112500D03*
X135050001Y-72112500D03*
X135050001Y-74387500D03*
X136000000Y-74387500D03*
X136949999Y-74387500D03*
%TD*%
D14*
%TO.C,C8*%
X143724999Y-121250001D03*
X145274999Y-121250001D03*
%TD*%
D43*
%TO.C,U3*%
X169837499Y-101124999D03*
X169837499Y-101774999D03*
X169837499Y-102424999D03*
X169837499Y-103074999D03*
X174062499Y-103074999D03*
X174062499Y-102424999D03*
X174062499Y-101774999D03*
X174062499Y-101124999D03*
%TD*%
D14*
%TO.C,C5*%
X172574998Y-99400002D03*
X174124998Y-99400002D03*
%TD*%
D44*
%TO.C,J2*%
X155000000Y-84500000D03*
D45*
X157000001Y-84500000D03*
X159000000Y-84500000D03*
X161000000Y-84500000D03*
%TD*%
D46*
%TO.C,U9*%
X133000000Y-97675000D03*
X133500000Y-97675000D03*
X134000001Y-97675000D03*
X134500000Y-97675000D03*
X134999999Y-97675000D03*
X135500000Y-97675000D03*
X136000000Y-97675000D03*
X136500001Y-97675000D03*
X137000000Y-97675000D03*
X137500000Y-97675000D03*
X138000000Y-97675000D03*
X138500000Y-97675000D03*
X139000000Y-97675001D03*
X139500000Y-97675000D03*
X140000000Y-97675000D03*
X140500000Y-97675000D03*
X141000000Y-97675000D03*
X141499999Y-97675000D03*
X142000000Y-97675000D03*
X142500000Y-97675000D03*
X143000001Y-97675000D03*
X143500000Y-97675000D03*
X143999999Y-97675000D03*
X144500000Y-97675000D03*
X145000000Y-97675000D03*
D47*
X146675000Y-96000000D03*
X146675000Y-95500000D03*
X146675000Y-94999999D03*
X146675000Y-94500000D03*
X146675000Y-94000001D03*
X146675000Y-93500000D03*
X146675000Y-93000000D03*
X146675000Y-92499999D03*
X146675000Y-92000000D03*
X146675000Y-91500000D03*
X146675000Y-91000000D03*
X146675000Y-90500000D03*
X146675001Y-90000000D03*
X146675000Y-89500000D03*
X146675000Y-89000000D03*
X146675000Y-88500000D03*
X146675000Y-88000000D03*
X146675000Y-87500001D03*
X146675000Y-87000000D03*
X146675000Y-86500000D03*
X146675000Y-85999999D03*
X146675000Y-85500000D03*
X146675000Y-85000001D03*
X146675000Y-84500000D03*
X146675000Y-84000000D03*
D46*
X145000000Y-82325000D03*
X144500000Y-82325000D03*
X143999999Y-82325000D03*
X143500000Y-82325000D03*
X143000001Y-82325000D03*
X142500000Y-82325000D03*
X142000000Y-82325000D03*
X141499999Y-82325000D03*
X141000000Y-82325000D03*
X140500000Y-82325000D03*
X140000000Y-82325000D03*
X139500000Y-82325000D03*
X139000000Y-82324999D03*
X138500000Y-82325000D03*
X138000000Y-82325000D03*
X137500000Y-82325000D03*
X137000000Y-82325000D03*
X136500001Y-82325000D03*
X136000000Y-82325000D03*
X135500000Y-82325000D03*
X134999999Y-82325000D03*
X134500000Y-82325000D03*
X134000001Y-82325000D03*
X133500000Y-82325000D03*
X133000000Y-82325000D03*
D47*
X131325000Y-84000000D03*
X131325000Y-84500000D03*
X131325000Y-85000001D03*
X131325000Y-85500000D03*
X131325000Y-85999999D03*
X131325000Y-86500000D03*
X131325000Y-87000000D03*
X131325000Y-87500001D03*
X131325000Y-88000000D03*
X131325000Y-88500000D03*
X131325000Y-89000000D03*
X131325000Y-89500000D03*
X131324999Y-90000000D03*
X131325000Y-90500000D03*
X131325000Y-91000000D03*
X131325000Y-91500000D03*
X131325000Y-92000000D03*
X131325000Y-92499999D03*
X131325000Y-93000000D03*
X131325000Y-93500000D03*
X131325000Y-94000001D03*
X131325000Y-94500000D03*
X131325000Y-94999999D03*
X131325000Y-95500000D03*
X131325000Y-96000000D03*
%TD*%
D13*
%TO.C,D13*%
X131549998Y-118650001D03*
X133249998Y-118650001D03*
X134949998Y-118650001D03*
X134949998Y-113850001D03*
X133249998Y-113850001D03*
X131549998Y-113850001D03*
%TD*%
D14*
%TO.C,C1*%
X172724999Y-95750000D03*
X174274999Y-95750000D03*
%TD*%
D48*
%TO.C,C14*%
X136500000Y-105275000D03*
X136500000Y-103725000D03*
%TD*%
D32*
%TO.C,C20*%
X150500000Y-95475000D03*
X150500000Y-97025000D03*
%TD*%
D12*
%TO.C,C18*%
X150275000Y-85000000D03*
X148725000Y-85000000D03*
%TD*%
D49*
%TO.C,SW2*%
X162000000Y-59250000D03*
X159000000Y-59250000D03*
D50*
X162750000Y-61200000D03*
X159750000Y-61200000D03*
X158250000Y-61200000D03*
D51*
X164175000Y-60350000D03*
X164175000Y-58150000D03*
X156825000Y-60350000D03*
X156825000Y-58150000D03*
%TD*%
D13*
%TO.C,D3*%
X173549998Y-118650000D03*
X175249998Y-118650000D03*
X176949998Y-118650000D03*
X176949998Y-113850000D03*
X175249998Y-113850000D03*
X173549998Y-113850000D03*
%TD*%
D14*
%TO.C,C4*%
X172724998Y-97499999D03*
X174274998Y-97499999D03*
%TD*%
D32*
%TO.C,C24*%
X130750000Y-79975000D03*
X130750000Y-81525000D03*
%TD*%
%TO.C,C13*%
X142500000Y-103725000D03*
X142500000Y-105275000D03*
%TD*%
D52*
%TO.C,D15*%
X181687501Y-70800000D03*
X180112499Y-70800000D03*
%TD*%
D15*
%TO.C,R10*%
X166325001Y-123000001D03*
X164675001Y-123000001D03*
%TD*%
D14*
%TO.C,C19*%
X127825000Y-94600000D03*
X129375000Y-94600000D03*
%TD*%
%TO.C,C6*%
X165775000Y-97350000D03*
X167325000Y-97350000D03*
%TD*%
D12*
%TO.C,C11*%
X117989466Y-103500000D03*
X116439466Y-103500000D03*
%TD*%
D16*
%TO.C,R18*%
X140000000Y-101325000D03*
X140000000Y-99675000D03*
%TD*%
D22*
%TO.C,R19*%
X158175000Y-63250000D03*
X159825000Y-63250000D03*
%TD*%
D13*
%TO.C,D11*%
X143049998Y-118650001D03*
X144749998Y-118650001D03*
X146449998Y-118650001D03*
X146449998Y-113850001D03*
X144749998Y-113850001D03*
X143049998Y-113850001D03*
%TD*%
D11*
%TO.C,H3*%
X190000000Y-124000000D03*
%TD*%
D48*
%TO.C,C27*%
X148750000Y-97025000D03*
X148750000Y-95475000D03*
%TD*%
D53*
%TO.C,D7*%
X177299997Y-107100001D03*
X181299999Y-107100001D03*
%TD*%
D20*
%TO.C,R9*%
X167549999Y-101950000D03*
X167549999Y-103600000D03*
%TD*%
D26*
%TO.C,D5*%
X119700000Y-113850000D03*
X118000000Y-113850000D03*
X116300000Y-113850000D03*
X116300000Y-118650000D03*
X118000000Y-118650000D03*
X119700000Y-118650000D03*
%TD*%
D32*
%TO.C,C10*%
X172500001Y-105475001D03*
X172500001Y-107025001D03*
%TD*%
D15*
%TO.C,R16*%
X150575000Y-111000000D03*
X148925000Y-111000000D03*
%TD*%
D54*
%TO.C,C17*%
X167800001Y-64500000D03*
X169699999Y-64500000D03*
%TD*%
D15*
%TO.C,R12*%
X171354000Y-77930000D03*
X169704000Y-77930000D03*
%TD*%
D55*
%TO.C,D14*%
X148230000Y-125500000D03*
D56*
X150770000Y-125500000D03*
%TD*%
D57*
%TO.C,J7*%
X188468000Y-88900000D03*
D58*
X188468000Y-91440000D03*
X188468000Y-93979999D03*
X188468000Y-96520000D03*
%TD*%
D57*
%TO.C,J8*%
X107696000Y-76200000D03*
D58*
X107696000Y-78740000D03*
X107696000Y-81279999D03*
X107696000Y-83820000D03*
X107696000Y-86360000D03*
X107696000Y-88900000D03*
X107696000Y-91440000D03*
X107696000Y-93980001D03*
X107696000Y-96520000D03*
X107696000Y-99060000D03*
X107696000Y-101600000D03*
X107696000Y-104139999D03*
X107696000Y-106680000D03*
X107696000Y-109220000D03*
%TD*%
M02*
