%TF.GenerationSoftware,KiCad,Pcbnew,9.0.5*%
%TF.CreationDate,2026-01-19T15:21:25+13:00*%
%TF.ProjectId,Display_Adapter,44697370-6c61-4795-9f41-646170746572,rev?*%
%TF.SameCoordinates,Original*%
%TF.FileFunction,Copper,L2,Bot*%
%TF.FilePolarity,Positive*%
%FSLAX46Y46*%
G04 Gerber Fmt 4.6, Leading zero omitted, Abs format (unit mm)*
G04 Created by KiCad (PCBNEW 9.0.5) date 2026-01-19 15:21:25*
%MOMM*%
%LPD*%
G01*
G04 APERTURE LIST*
%TA.AperFunction,ComponentPad*%
%ADD10R,0.850000X0.850000*%
%TD*%
%TA.AperFunction,ComponentPad*%
%ADD11C,0.850000*%
%TD*%
%TA.AperFunction,ComponentPad*%
%ADD12R,1.700000X1.700000*%
%TD*%
%TA.AperFunction,ComponentPad*%
%ADD13C,1.700000*%
%TD*%
%TA.AperFunction,ViaPad*%
%ADD14C,0.700000*%
%TD*%
%TA.AperFunction,Conductor*%
%ADD15C,0.300000*%
%TD*%
G04 APERTURE END LIST*
D10*
%TO.P,J7,1,Pin_1*%
%TO.N,+3V3*%
X151050000Y-93125000D03*
D11*
%TO.P,J7,2,Pin_2*%
%TO.N,DISPLAY_SCK*%
X151050000Y-91875001D03*
%TO.P,J7,3,Pin_3*%
%TO.N,DISPLAY_DC*%
X151050000Y-90625000D03*
%TO.P,J7,4,Pin_4*%
%TO.N,DISPLAY_NSS*%
X151050000Y-89375001D03*
%TO.P,J7,5,Pin_5*%
%TO.N,DISPLAY_MISO*%
X151050000Y-88125000D03*
%TO.P,J7,6,Pin_6*%
%TO.N,DISPLAY_MOSI*%
X151050000Y-86875001D03*
%TO.P,J7,7,Pin_7*%
%TO.N,DISPLAY_RST*%
X151050000Y-85625000D03*
%TO.P,J7,8,Pin_8*%
%TO.N,DISPLAY_LED*%
X151050000Y-84375000D03*
%TO.P,J7,9,Pin_9*%
%TO.N,TOUCH_NSS*%
X151050000Y-83125000D03*
%TO.P,J7,10,Pin_10*%
%TO.N,TOUCH_SCK*%
X151050000Y-81875000D03*
%TO.P,J7,11,Pin_11*%
%TO.N,TOUCH_MISO*%
X151050000Y-80625000D03*
%TO.P,J7,12,Pin_12*%
%TO.N,TOUCH_MOSI*%
X151050000Y-79375000D03*
%TO.P,J7,13,Pin_13*%
%TO.N,TOUCH_IRQ*%
X151050000Y-78125000D03*
%TO.P,J7,14,Pin_14*%
%TO.N,GND*%
X151050000Y-76875000D03*
%TD*%
D12*
%TO.P,J1,1,Pin_1*%
%TO.N,TOUCH_IRQ*%
X144000000Y-68920000D03*
D13*
%TO.P,J1,2,Pin_2*%
%TO.N,TOUCH_MISO*%
X144000000Y-71460000D03*
%TO.P,J1,3,Pin_3*%
%TO.N,TOUCH_MOSI*%
X144000000Y-74000000D03*
%TO.P,J1,4,Pin_4*%
%TO.N,TOUCH_NSS*%
X144000000Y-76540000D03*
%TO.P,J1,5,Pin_5*%
%TO.N,TOUCH_SCK*%
X144000000Y-79080000D03*
%TO.P,J1,6,Pin_6*%
%TO.N,DISPLAY_MISO*%
X144000000Y-81620000D03*
%TO.P,J1,7,Pin_7*%
%TO.N,DISPLAY_LED*%
X144000000Y-84160000D03*
%TO.P,J1,8,Pin_8*%
%TO.N,DISPLAY_SCK*%
X144000000Y-86700000D03*
%TO.P,J1,9,Pin_9*%
%TO.N,DISPLAY_MOSI*%
X144000000Y-89240000D03*
%TO.P,J1,10,Pin_10*%
%TO.N,DISPLAY_DC*%
X144000000Y-91780000D03*
%TO.P,J1,11,Pin_11*%
%TO.N,DISPLAY_RST*%
X144000000Y-94320000D03*
%TO.P,J1,12,Pin_12*%
%TO.N,DISPLAY_NSS*%
X144000000Y-96860000D03*
%TO.P,J1,13,Pin_13*%
%TO.N,GND*%
X144000000Y-99400000D03*
%TO.P,J1,14,Pin_14*%
%TO.N,+3V3*%
X144000000Y-101940000D03*
%TD*%
D14*
%TO.N,DISPLAY_RST*%
X152250000Y-93750000D03*
X149500000Y-94250000D03*
%TO.N,DISPLAY_DC*%
X149250000Y-90750000D03*
%TO.N,DISPLAY_LED*%
X147900000Y-84400000D03*
%TO.N,DISPLAY_NSS*%
X148250000Y-89500000D03*
X146750000Y-90500000D03*
%TD*%
D15*
%TO.N,TOUCH_NSS*%
X145040000Y-76540000D02*
X144000000Y-76540000D01*
X146750000Y-78250000D02*
X145040000Y-76540000D01*
X151050000Y-83125000D02*
X148875000Y-83125000D01*
X148875000Y-83125000D02*
X146750000Y-81000000D01*
X146750000Y-81000000D02*
X146750000Y-78250000D01*
%TO.N,DISPLAY_MOSI*%
X146364999Y-86875001D02*
X144000000Y-89240000D01*
X151050000Y-86875001D02*
X146364999Y-86875001D01*
%TO.N,DISPLAY_RST*%
X151750000Y-94250000D02*
X152250000Y-93750000D01*
X149500000Y-94250000D02*
X151750000Y-94250000D01*
%TO.N,DISPLAY_DC*%
X148220000Y-91780000D02*
X144000000Y-91780000D01*
X149250000Y-90750000D02*
X148220000Y-91780000D01*
%TO.N,DISPLAY_LED*%
X145260000Y-84160000D02*
X144000000Y-84160000D01*
X147900000Y-84400000D02*
X145500000Y-84400000D01*
X145500000Y-84400000D02*
X145260000Y-84160000D01*
%TO.N,DISPLAY_NSS*%
X147750000Y-89500000D02*
X146750000Y-90500000D01*
X148250000Y-89500000D02*
X147750000Y-89500000D01*
%TD*%
%TA.AperFunction,Conductor*%
%TO.N,GND*%
G36*
X155004418Y-66500816D02*
G01*
X155204561Y-66515130D01*
X155222063Y-66517647D01*
X155413797Y-66559355D01*
X155430755Y-66564334D01*
X155614609Y-66632909D01*
X155630701Y-66640259D01*
X155802904Y-66734288D01*
X155817784Y-66743849D01*
X155974867Y-66861441D01*
X155988237Y-66873027D01*
X156126972Y-67011762D01*
X156138558Y-67025132D01*
X156256146Y-67182210D01*
X156265711Y-67197095D01*
X156359740Y-67369298D01*
X156367090Y-67385390D01*
X156435662Y-67569236D01*
X156440646Y-67586212D01*
X156482351Y-67777931D01*
X156484869Y-67795442D01*
X156499184Y-67995580D01*
X156499500Y-68004427D01*
X156499500Y-102995572D01*
X156499184Y-103004419D01*
X156484869Y-103204557D01*
X156482351Y-103222068D01*
X156440646Y-103413787D01*
X156435662Y-103430763D01*
X156367090Y-103614609D01*
X156359740Y-103630701D01*
X156265711Y-103802904D01*
X156256146Y-103817789D01*
X156138558Y-103974867D01*
X156126972Y-103988237D01*
X155988237Y-104126972D01*
X155974867Y-104138558D01*
X155817789Y-104256146D01*
X155802904Y-104265711D01*
X155630701Y-104359740D01*
X155614609Y-104367090D01*
X155430763Y-104435662D01*
X155413787Y-104440646D01*
X155222068Y-104482351D01*
X155204557Y-104484869D01*
X155023779Y-104497799D01*
X155004417Y-104499184D01*
X154995572Y-104499500D01*
X143004428Y-104499500D01*
X142995582Y-104499184D01*
X142973622Y-104497613D01*
X142795442Y-104484869D01*
X142777931Y-104482351D01*
X142586212Y-104440646D01*
X142569236Y-104435662D01*
X142385390Y-104367090D01*
X142369298Y-104359740D01*
X142197095Y-104265711D01*
X142182210Y-104256146D01*
X142025132Y-104138558D01*
X142011762Y-104126972D01*
X141873027Y-103988237D01*
X141861441Y-103974867D01*
X141743849Y-103817784D01*
X141734288Y-103802904D01*
X141640259Y-103630701D01*
X141632909Y-103614609D01*
X141572091Y-103451551D01*
X141564334Y-103430755D01*
X141559355Y-103413797D01*
X141517647Y-103222063D01*
X141515130Y-103204556D01*
X141514200Y-103191557D01*
X141500816Y-103004418D01*
X141500500Y-102995572D01*
X141500500Y-101833713D01*
X142649500Y-101833713D01*
X142649500Y-102046286D01*
X142682753Y-102256239D01*
X142748444Y-102458414D01*
X142844951Y-102647820D01*
X142969890Y-102819786D01*
X143120213Y-102970109D01*
X143292179Y-103095048D01*
X143292181Y-103095049D01*
X143292184Y-103095051D01*
X143481588Y-103191557D01*
X143683757Y-103257246D01*
X143893713Y-103290500D01*
X143893714Y-103290500D01*
X144106286Y-103290500D01*
X144106287Y-103290500D01*
X144316243Y-103257246D01*
X144518412Y-103191557D01*
X144707816Y-103095051D01*
X144729789Y-103079086D01*
X144879786Y-102970109D01*
X144879788Y-102970106D01*
X144879792Y-102970104D01*
X145030104Y-102819792D01*
X145030106Y-102819788D01*
X145030109Y-102819786D01*
X145155048Y-102647820D01*
X145155047Y-102647820D01*
X145155051Y-102647816D01*
X145251557Y-102458412D01*
X145317246Y-102256243D01*
X145350500Y-102046287D01*
X145350500Y-101833713D01*
X145317246Y-101623757D01*
X145251557Y-101421588D01*
X145155051Y-101232184D01*
X145155049Y-101232181D01*
X145155048Y-101232179D01*
X145030109Y-101060213D01*
X144879786Y-100909890D01*
X144707820Y-100784951D01*
X144518414Y-100688444D01*
X144518413Y-100688443D01*
X144518412Y-100688443D01*
X144316243Y-100622754D01*
X144316241Y-100622753D01*
X144316240Y-100622753D01*
X144154957Y-100597208D01*
X144106287Y-100589500D01*
X143893713Y-100589500D01*
X143845042Y-100597208D01*
X143683760Y-100622753D01*
X143481585Y-100688444D01*
X143292179Y-100784951D01*
X143120213Y-100909890D01*
X142969890Y-101060213D01*
X142844951Y-101232179D01*
X142748444Y-101421585D01*
X142682753Y-101623760D01*
X142649500Y-101833713D01*
X141500500Y-101833713D01*
X141500500Y-68022135D01*
X142649500Y-68022135D01*
X142649500Y-69817870D01*
X142649501Y-69817876D01*
X142655908Y-69877483D01*
X142706202Y-70012328D01*
X142706206Y-70012335D01*
X142792452Y-70127544D01*
X142792455Y-70127547D01*
X142907664Y-70213793D01*
X142907671Y-70213797D01*
X143039082Y-70262810D01*
X143095016Y-70304681D01*
X143119433Y-70370145D01*
X143104582Y-70438418D01*
X143083431Y-70466673D01*
X142969889Y-70580215D01*
X142844951Y-70752179D01*
X142748444Y-70941585D01*
X142682753Y-71143760D01*
X142649500Y-71353713D01*
X142649500Y-71566286D01*
X142682753Y-71776239D01*
X142748444Y-71978414D01*
X142844951Y-72167820D01*
X142969890Y-72339786D01*
X143120213Y-72490109D01*
X143292182Y-72615050D01*
X143300946Y-72619516D01*
X143351742Y-72667491D01*
X143368536Y-72735312D01*
X143345998Y-72801447D01*
X143300946Y-72840484D01*
X143292182Y-72844949D01*
X143120213Y-72969890D01*
X142969890Y-73120213D01*
X142844951Y-73292179D01*
X142748444Y-73481585D01*
X142682753Y-73683760D01*
X142649500Y-73893713D01*
X142649500Y-74106286D01*
X142682753Y-74316239D01*
X142748444Y-74518414D01*
X142844951Y-74707820D01*
X142969890Y-74879786D01*
X143120213Y-75030109D01*
X143292182Y-75155050D01*
X143300946Y-75159516D01*
X143351742Y-75207491D01*
X143368536Y-75275312D01*
X143345998Y-75341447D01*
X143300946Y-75380484D01*
X143292182Y-75384949D01*
X143120213Y-75509890D01*
X142969890Y-75660213D01*
X142844951Y-75832179D01*
X142748444Y-76021585D01*
X142682753Y-76223760D01*
X142649500Y-76433713D01*
X142649500Y-76646286D01*
X142682753Y-76856239D01*
X142748444Y-77058414D01*
X142844951Y-77247820D01*
X142969890Y-77419786D01*
X143120213Y-77570109D01*
X143292182Y-77695050D01*
X143300946Y-77699516D01*
X143351742Y-77747491D01*
X143368536Y-77815312D01*
X143345998Y-77881447D01*
X143300946Y-77920484D01*
X143292182Y-77924949D01*
X143120213Y-78049890D01*
X142969890Y-78200213D01*
X142844951Y-78372179D01*
X142748444Y-78561585D01*
X142682753Y-78763760D01*
X142655376Y-78936611D01*
X142649500Y-78973713D01*
X142649500Y-79186287D01*
X142682754Y-79396243D01*
X142705470Y-79466156D01*
X142748444Y-79598414D01*
X142844951Y-79787820D01*
X142969890Y-79959786D01*
X143120213Y-80110109D01*
X143292182Y-80235050D01*
X143300946Y-80239516D01*
X143351742Y-80287491D01*
X143368536Y-80355312D01*
X143345998Y-80421447D01*
X143300946Y-80460484D01*
X143292182Y-80464949D01*
X143120213Y-80589890D01*
X142969890Y-80740213D01*
X142844951Y-80912179D01*
X142748444Y-81101585D01*
X142682753Y-81303760D01*
X142661711Y-81436614D01*
X142649500Y-81513713D01*
X142649500Y-81726287D01*
X142682754Y-81936243D01*
X142692473Y-81966156D01*
X142748444Y-82138414D01*
X142844951Y-82327820D01*
X142969890Y-82499786D01*
X143120213Y-82650109D01*
X143292182Y-82775050D01*
X143300946Y-82779516D01*
X143351742Y-82827491D01*
X143368536Y-82895312D01*
X143345998Y-82961447D01*
X143300946Y-83000484D01*
X143292182Y-83004949D01*
X143120213Y-83129890D01*
X142969890Y-83280213D01*
X142844951Y-83452179D01*
X142748444Y-83641585D01*
X142682753Y-83843760D01*
X142649500Y-84053713D01*
X142649500Y-84266287D01*
X142682754Y-84476243D01*
X142737574Y-84644962D01*
X142748444Y-84678414D01*
X142844951Y-84867820D01*
X142969890Y-85039786D01*
X143120213Y-85190109D01*
X143292182Y-85315050D01*
X143300946Y-85319516D01*
X143351742Y-85367491D01*
X143368536Y-85435312D01*
X143345998Y-85501447D01*
X143300946Y-85540484D01*
X143292182Y-85544949D01*
X143120213Y-85669890D01*
X142969890Y-85820213D01*
X142844951Y-85992179D01*
X142748444Y-86181585D01*
X142682753Y-86383760D01*
X142649500Y-86593713D01*
X142649500Y-86806286D01*
X142682753Y-87016239D01*
X142748444Y-87218414D01*
X142844951Y-87407820D01*
X142969890Y-87579786D01*
X143120213Y-87730109D01*
X143292182Y-87855050D01*
X143300946Y-87859516D01*
X143351742Y-87907491D01*
X143368536Y-87975312D01*
X143345998Y-88041447D01*
X143300946Y-88080484D01*
X143292182Y-88084949D01*
X143120213Y-88209890D01*
X142969890Y-88360213D01*
X142844951Y-88532179D01*
X142748444Y-88721585D01*
X142682753Y-88923760D01*
X142680717Y-88936615D01*
X142649500Y-89133713D01*
X142649500Y-89346287D01*
X142682754Y-89556243D01*
X142748261Y-89757853D01*
X142748444Y-89758414D01*
X142844951Y-89947820D01*
X142969890Y-90119786D01*
X143120213Y-90270109D01*
X143292182Y-90395050D01*
X143300946Y-90399516D01*
X143351742Y-90447491D01*
X143368536Y-90515312D01*
X143345998Y-90581447D01*
X143300946Y-90620484D01*
X143292182Y-90624949D01*
X143120213Y-90749890D01*
X142969890Y-90900213D01*
X142844951Y-91072179D01*
X142748444Y-91261585D01*
X142682753Y-91463760D01*
X142656320Y-91630654D01*
X142649500Y-91673713D01*
X142649500Y-91886287D01*
X142682754Y-92096243D01*
X142744175Y-92285278D01*
X142748444Y-92298414D01*
X142844951Y-92487820D01*
X142969890Y-92659786D01*
X143120213Y-92810109D01*
X143292182Y-92935050D01*
X143300946Y-92939516D01*
X143351742Y-92987491D01*
X143368536Y-93055312D01*
X143345998Y-93121447D01*
X143300946Y-93160484D01*
X143292182Y-93164949D01*
X143120213Y-93289890D01*
X142969890Y-93440213D01*
X142844951Y-93612179D01*
X142748444Y-93801585D01*
X142682753Y-94003760D01*
X142649500Y-94213713D01*
X142649500Y-94426286D01*
X142681868Y-94630654D01*
X142682754Y-94636243D01*
X142744561Y-94826465D01*
X142748444Y-94838414D01*
X142844951Y-95027820D01*
X142969890Y-95199786D01*
X143120213Y-95350109D01*
X143292182Y-95475050D01*
X143300946Y-95479516D01*
X143351742Y-95527491D01*
X143368536Y-95595312D01*
X143345998Y-95661447D01*
X143300946Y-95700484D01*
X143292182Y-95704949D01*
X143120213Y-95829890D01*
X142969890Y-95980213D01*
X142844951Y-96152179D01*
X142748444Y-96341585D01*
X142682753Y-96543760D01*
X142649500Y-96753713D01*
X142649500Y-96966286D01*
X142682753Y-97176239D01*
X142748444Y-97378414D01*
X142844951Y-97567820D01*
X142969890Y-97739786D01*
X143120213Y-97890109D01*
X143292179Y-98015048D01*
X143292181Y-98015049D01*
X143292184Y-98015051D01*
X143481588Y-98111557D01*
X143683757Y-98177246D01*
X143893713Y-98210500D01*
X143893714Y-98210500D01*
X144106286Y-98210500D01*
X144106287Y-98210500D01*
X144316243Y-98177246D01*
X144518412Y-98111557D01*
X144707816Y-98015051D01*
X144729789Y-97999086D01*
X144879786Y-97890109D01*
X144879788Y-97890106D01*
X144879792Y-97890104D01*
X145030104Y-97739792D01*
X145030106Y-97739788D01*
X145030109Y-97739786D01*
X145155048Y-97567820D01*
X145155047Y-97567820D01*
X145155051Y-97567816D01*
X145251557Y-97378412D01*
X145317246Y-97176243D01*
X145350500Y-96966287D01*
X145350500Y-96753713D01*
X145317246Y-96543757D01*
X145251557Y-96341588D01*
X145155051Y-96152184D01*
X145155049Y-96152181D01*
X145155048Y-96152179D01*
X145030109Y-95980213D01*
X144879786Y-95829890D01*
X144707820Y-95704951D01*
X144707115Y-95704591D01*
X144699054Y-95700485D01*
X144648259Y-95652512D01*
X144631463Y-95584692D01*
X144653999Y-95518556D01*
X144699054Y-95479515D01*
X144707816Y-95475051D01*
X144729789Y-95459086D01*
X144879786Y-95350109D01*
X144879788Y-95350106D01*
X144879792Y-95350104D01*
X145030104Y-95199792D01*
X145030106Y-95199788D01*
X145030109Y-95199786D01*
X145155048Y-95027820D01*
X145155047Y-95027820D01*
X145155051Y-95027816D01*
X145251557Y-94838412D01*
X145317246Y-94636243D01*
X145350500Y-94426287D01*
X145350500Y-94213713D01*
X145317246Y-94003757D01*
X145251557Y-93801588D01*
X145155051Y-93612184D01*
X145155049Y-93612181D01*
X145155048Y-93612179D01*
X145030109Y-93440213D01*
X144879786Y-93289890D01*
X144707820Y-93164951D01*
X144707115Y-93164591D01*
X144699054Y-93160485D01*
X144648259Y-93112512D01*
X144631463Y-93044692D01*
X144653999Y-92978556D01*
X144699054Y-92939515D01*
X144707816Y-92935051D01*
X144756748Y-92899500D01*
X144879786Y-92810109D01*
X144879788Y-92810106D01*
X144879792Y-92810104D01*
X145030104Y-92659792D01*
X145030106Y-92659788D01*
X145030109Y-92659786D01*
X145157915Y-92483875D01*
X145159259Y-92484851D01*
X145205705Y-92442834D01*
X145259618Y-92430500D01*
X148284071Y-92430500D01*
X148368615Y-92413682D01*
X148409744Y-92405501D01*
X148528127Y-92356465D01*
X148549095Y-92342455D01*
X148549096Y-92342455D01*
X148615011Y-92298412D01*
X148634669Y-92285277D01*
X149289293Y-91630652D01*
X149350614Y-91597169D01*
X149352781Y-91596718D01*
X149371360Y-91593022D01*
X149498082Y-91567816D01*
X149652863Y-91503703D01*
X149792162Y-91410626D01*
X149910626Y-91292162D01*
X150003703Y-91152863D01*
X150024340Y-91103042D01*
X150030717Y-91095128D01*
X150033406Y-91085327D01*
X150052270Y-91068382D01*
X150068181Y-91048638D01*
X150077824Y-91045428D01*
X150085385Y-91038637D01*
X150110414Y-91034581D01*
X150134475Y-91026573D01*
X150144323Y-91029086D01*
X150154355Y-91027461D01*
X150177604Y-91037580D01*
X150202174Y-91043852D01*
X150210805Y-91052032D01*
X150218419Y-91055347D01*
X150242003Y-91081603D01*
X150249739Y-91093181D01*
X150308491Y-91181110D01*
X150329368Y-91247787D01*
X150310883Y-91315167D01*
X150308491Y-91318890D01*
X150229831Y-91436615D01*
X150160068Y-91605038D01*
X150160065Y-91605048D01*
X150124500Y-91783844D01*
X150124500Y-91783847D01*
X150124500Y-91966155D01*
X150124500Y-91966157D01*
X150124499Y-91966157D01*
X150160065Y-92144953D01*
X150160068Y-92144963D01*
X150223962Y-92299218D01*
X150231431Y-92368687D01*
X150208669Y-92420979D01*
X150181203Y-92457669D01*
X150181202Y-92457671D01*
X150130908Y-92592517D01*
X150124501Y-92652116D01*
X150124501Y-92652123D01*
X150124500Y-92652135D01*
X150124500Y-93412403D01*
X150104815Y-93479442D01*
X150052011Y-93525197D01*
X149982853Y-93535141D01*
X149931610Y-93515505D01*
X149902863Y-93496297D01*
X149902862Y-93496296D01*
X149902860Y-93496295D01*
X149748082Y-93432184D01*
X149748074Y-93432182D01*
X149583771Y-93399500D01*
X149583767Y-93399500D01*
X149416233Y-93399500D01*
X149416228Y-93399500D01*
X149251925Y-93432182D01*
X149251917Y-93432184D01*
X149097139Y-93496295D01*
X148957837Y-93589373D01*
X148839373Y-93707837D01*
X148746295Y-93847139D01*
X148682184Y-94001917D01*
X148682182Y-94001925D01*
X148649500Y-94166228D01*
X148649500Y-94333771D01*
X148682182Y-94498074D01*
X148682184Y-94498082D01*
X148746295Y-94652860D01*
X148839373Y-94792162D01*
X148957837Y-94910626D01*
X148973959Y-94921398D01*
X149097137Y-95003703D01*
X149251918Y-95067816D01*
X149416228Y-95100499D01*
X149416232Y-95100500D01*
X149416233Y-95100500D01*
X149583768Y-95100500D01*
X149583769Y-95100499D01*
X149748082Y-95067816D01*
X149902863Y-95003703D01*
X150026041Y-94921398D01*
X150092719Y-94900520D01*
X150094932Y-94900500D01*
X151814071Y-94900500D01*
X151898615Y-94883682D01*
X151939744Y-94875501D01*
X152058127Y-94826465D01*
X152106544Y-94794114D01*
X152106544Y-94794113D01*
X152106546Y-94794113D01*
X152135606Y-94774695D01*
X152164669Y-94755277D01*
X152289294Y-94630651D01*
X152350613Y-94597169D01*
X152352781Y-94596718D01*
X152371360Y-94593022D01*
X152498082Y-94567816D01*
X152652863Y-94503703D01*
X152792162Y-94410626D01*
X152910626Y-94292162D01*
X153003703Y-94152863D01*
X153067816Y-93998082D01*
X153100500Y-93833767D01*
X153100500Y-93666233D01*
X153067816Y-93501918D01*
X153003703Y-93347137D01*
X152965452Y-93289890D01*
X152910626Y-93207837D01*
X152792162Y-93089373D01*
X152652860Y-92996295D01*
X152498082Y-92932184D01*
X152498074Y-92932182D01*
X152333771Y-92899500D01*
X152333767Y-92899500D01*
X152166233Y-92899500D01*
X152123688Y-92907962D01*
X152054097Y-92901733D01*
X151998920Y-92858869D01*
X151975677Y-92792979D01*
X151975499Y-92786344D01*
X151975499Y-92652129D01*
X151975498Y-92652123D01*
X151975497Y-92652116D01*
X151969091Y-92592517D01*
X151918796Y-92457669D01*
X151918795Y-92457668D01*
X151918793Y-92457664D01*
X151891332Y-92420981D01*
X151866914Y-92355517D01*
X151876037Y-92299218D01*
X151939933Y-92144959D01*
X151975500Y-91966155D01*
X151975500Y-91783847D01*
X151975500Y-91783844D01*
X151939934Y-91605048D01*
X151939933Y-91605047D01*
X151939933Y-91605043D01*
X151924513Y-91567815D01*
X151870168Y-91436613D01*
X151870166Y-91436609D01*
X151791509Y-91318890D01*
X151770631Y-91252213D01*
X151789116Y-91184833D01*
X151791498Y-91181125D01*
X151870167Y-91063389D01*
X151939933Y-90894958D01*
X151968788Y-90749896D01*
X151975500Y-90716156D01*
X151975500Y-90533843D01*
X151939934Y-90355047D01*
X151939933Y-90355046D01*
X151939933Y-90355042D01*
X151918803Y-90304029D01*
X151870168Y-90186613D01*
X151810384Y-90097139D01*
X151791508Y-90068889D01*
X151770631Y-90002213D01*
X151789116Y-89934833D01*
X151791481Y-89931151D01*
X151870167Y-89813390D01*
X151939933Y-89644959D01*
X151975500Y-89466155D01*
X151975500Y-89283847D01*
X151975500Y-89283844D01*
X151939934Y-89105048D01*
X151939933Y-89105047D01*
X151939933Y-89105043D01*
X151894239Y-88994727D01*
X151870168Y-88936613D01*
X151870166Y-88936609D01*
X151791509Y-88818890D01*
X151770631Y-88752213D01*
X151789116Y-88684833D01*
X151791498Y-88681125D01*
X151870167Y-88563389D01*
X151939933Y-88394958D01*
X151975500Y-88216154D01*
X151975500Y-88033846D01*
X151975500Y-88033843D01*
X151939934Y-87855047D01*
X151939933Y-87855046D01*
X151939933Y-87855042D01*
X151939931Y-87855037D01*
X151870168Y-87686613D01*
X151857162Y-87667148D01*
X151791508Y-87568889D01*
X151770631Y-87502213D01*
X151789116Y-87434833D01*
X151791481Y-87431151D01*
X151870167Y-87313390D01*
X151939933Y-87144959D01*
X151965537Y-87016243D01*
X151975500Y-86966157D01*
X151975500Y-86783844D01*
X151939934Y-86605048D01*
X151939933Y-86605047D01*
X151939933Y-86605043D01*
X151935240Y-86593713D01*
X151870168Y-86436613D01*
X151870166Y-86436609D01*
X151791509Y-86318890D01*
X151770631Y-86252213D01*
X151789116Y-86184833D01*
X151791509Y-86181109D01*
X151830658Y-86122518D01*
X151870167Y-86063389D01*
X151939933Y-85894958D01*
X151975500Y-85716154D01*
X151975500Y-85533846D01*
X151975500Y-85533843D01*
X151939934Y-85355047D01*
X151939933Y-85355046D01*
X151939933Y-85355042D01*
X151883093Y-85217817D01*
X151870168Y-85186613D01*
X151848179Y-85153704D01*
X151791508Y-85068889D01*
X151770631Y-85002213D01*
X151789116Y-84934833D01*
X151791498Y-84931125D01*
X151870167Y-84813389D01*
X151939933Y-84644958D01*
X151971996Y-84483771D01*
X151975500Y-84466156D01*
X151975500Y-84283843D01*
X151939934Y-84105047D01*
X151939933Y-84105046D01*
X151939933Y-84105042D01*
X151918672Y-84053713D01*
X151870168Y-83936613D01*
X151870167Y-83936611D01*
X151791508Y-83818889D01*
X151770631Y-83752213D01*
X151789116Y-83684833D01*
X151791509Y-83681109D01*
X151809139Y-83654724D01*
X151870167Y-83563389D01*
X151939933Y-83394958D01*
X151975500Y-83216154D01*
X151975500Y-83033846D01*
X151975500Y-83033843D01*
X151939934Y-82855047D01*
X151939933Y-82855046D01*
X151939933Y-82855042D01*
X151908649Y-82779516D01*
X151870168Y-82686613D01*
X151791509Y-82568891D01*
X151770631Y-82502213D01*
X151789116Y-82434833D01*
X151791509Y-82431109D01*
X151870167Y-82313389D01*
X151939933Y-82144958D01*
X151975500Y-81966154D01*
X151975500Y-81783846D01*
X151975500Y-81783843D01*
X151939934Y-81605047D01*
X151939933Y-81605046D01*
X151939933Y-81605042D01*
X151870167Y-81436611D01*
X151791508Y-81318889D01*
X151770631Y-81252213D01*
X151789116Y-81184833D01*
X151791498Y-81181125D01*
X151870167Y-81063389D01*
X151939933Y-80894958D01*
X151965411Y-80766873D01*
X151975500Y-80716156D01*
X151975500Y-80533843D01*
X151939934Y-80355047D01*
X151939933Y-80355046D01*
X151939933Y-80355042D01*
X151892080Y-80239514D01*
X151870168Y-80186613D01*
X151791509Y-80068891D01*
X151770631Y-80002213D01*
X151789116Y-79934833D01*
X151791498Y-79931125D01*
X151870167Y-79813389D01*
X151939933Y-79644958D01*
X151975500Y-79466154D01*
X151975500Y-79283846D01*
X151975500Y-79283843D01*
X151939934Y-79105047D01*
X151939933Y-79105046D01*
X151939933Y-79105042D01*
X151870167Y-78936611D01*
X151791508Y-78818889D01*
X151770631Y-78752213D01*
X151789116Y-78684833D01*
X151791498Y-78681125D01*
X151870167Y-78563389D01*
X151939933Y-78394958D01*
X151975500Y-78216154D01*
X151975500Y-78033846D01*
X151975500Y-78033843D01*
X151939934Y-77855047D01*
X151939933Y-77855046D01*
X151939933Y-77855042D01*
X151931769Y-77835332D01*
X151870168Y-77686612D01*
X151870166Y-77686608D01*
X151768886Y-77535032D01*
X151768880Y-77535024D01*
X151639975Y-77406119D01*
X151639967Y-77406113D01*
X151488391Y-77304833D01*
X151488387Y-77304831D01*
X151319962Y-77235068D01*
X151319952Y-77235065D01*
X151141156Y-77199500D01*
X151141154Y-77199500D01*
X150958846Y-77199500D01*
X150958844Y-77199500D01*
X150780047Y-77235065D01*
X150780037Y-77235068D01*
X150611612Y-77304831D01*
X150611608Y-77304833D01*
X150460032Y-77406113D01*
X150460024Y-77406119D01*
X150331119Y-77535024D01*
X150331113Y-77535032D01*
X150229833Y-77686608D01*
X150229831Y-77686612D01*
X150160068Y-77855037D01*
X150160065Y-77855047D01*
X150124500Y-78033843D01*
X150124500Y-78033846D01*
X150124500Y-78216154D01*
X150124500Y-78216156D01*
X150124499Y-78216156D01*
X150160065Y-78394952D01*
X150160068Y-78394962D01*
X150229087Y-78561588D01*
X150229833Y-78563389D01*
X150234790Y-78570807D01*
X150308491Y-78681110D01*
X150329368Y-78747787D01*
X150310883Y-78815167D01*
X150308491Y-78818890D01*
X150229831Y-78936614D01*
X150160068Y-79105037D01*
X150160065Y-79105047D01*
X150124500Y-79283843D01*
X150124500Y-79283846D01*
X150124500Y-79466154D01*
X150124500Y-79466156D01*
X150124499Y-79466156D01*
X150160065Y-79644952D01*
X150160068Y-79644962D01*
X150219240Y-79787816D01*
X150229833Y-79813389D01*
X150287074Y-79899057D01*
X150308491Y-79931110D01*
X150329368Y-79997787D01*
X150310883Y-80065167D01*
X150308491Y-80068890D01*
X150229831Y-80186614D01*
X150160068Y-80355037D01*
X150160065Y-80355047D01*
X150124500Y-80533843D01*
X150124500Y-80533846D01*
X150124500Y-80716154D01*
X150124500Y-80716156D01*
X150124499Y-80716156D01*
X150160065Y-80894952D01*
X150160068Y-80894962D01*
X150167200Y-80912179D01*
X150229833Y-81063389D01*
X150255355Y-81101585D01*
X150308491Y-81181110D01*
X150329368Y-81247787D01*
X150310883Y-81315167D01*
X150308491Y-81318890D01*
X150229831Y-81436614D01*
X150160068Y-81605037D01*
X150160065Y-81605047D01*
X150124500Y-81783843D01*
X150124500Y-81783846D01*
X150124500Y-81966154D01*
X150124500Y-81966156D01*
X150124499Y-81966156D01*
X150160065Y-82144952D01*
X150160068Y-82144962D01*
X150225549Y-82303048D01*
X150233018Y-82372517D01*
X150201743Y-82434996D01*
X150141654Y-82470648D01*
X150110988Y-82474500D01*
X149195808Y-82474500D01*
X149128769Y-82454815D01*
X149108127Y-82438181D01*
X147436819Y-80766873D01*
X147403334Y-80705550D01*
X147400500Y-80679192D01*
X147400500Y-78185928D01*
X147375502Y-78060261D01*
X147375501Y-78060260D01*
X147375501Y-78060256D01*
X147326465Y-77941873D01*
X147326464Y-77941872D01*
X147326461Y-77941866D01*
X147255277Y-77835332D01*
X147211502Y-77791557D01*
X147164669Y-77744724D01*
X146826058Y-77406113D01*
X145454674Y-76034727D01*
X145454673Y-76034726D01*
X145435010Y-76021588D01*
X145348127Y-75963535D01*
X145348126Y-75963534D01*
X145348124Y-75963533D01*
X145230494Y-75914809D01*
X145176091Y-75870968D01*
X145167462Y-75856543D01*
X145155051Y-75832184D01*
X145030104Y-75660208D01*
X144879792Y-75509896D01*
X144879786Y-75509890D01*
X144707820Y-75384951D01*
X144707115Y-75384591D01*
X144699054Y-75380485D01*
X144648259Y-75332512D01*
X144631463Y-75264692D01*
X144653999Y-75198556D01*
X144699054Y-75159515D01*
X144707816Y-75155051D01*
X144729789Y-75139086D01*
X144879786Y-75030109D01*
X144879788Y-75030106D01*
X144879792Y-75030104D01*
X145030104Y-74879792D01*
X145030106Y-74879788D01*
X145030109Y-74879786D01*
X145155048Y-74707820D01*
X145155047Y-74707820D01*
X145155051Y-74707816D01*
X145251557Y-74518412D01*
X145317246Y-74316243D01*
X145350500Y-74106287D01*
X145350500Y-73893713D01*
X145317246Y-73683757D01*
X145251557Y-73481588D01*
X145155051Y-73292184D01*
X145155049Y-73292181D01*
X145155048Y-73292179D01*
X145030109Y-73120213D01*
X144879786Y-72969890D01*
X144707820Y-72844951D01*
X144707115Y-72844591D01*
X144699054Y-72840485D01*
X144648259Y-72792512D01*
X144631463Y-72724692D01*
X144653999Y-72658556D01*
X144699054Y-72619515D01*
X144707816Y-72615051D01*
X144729789Y-72599086D01*
X144879786Y-72490109D01*
X144879788Y-72490106D01*
X144879792Y-72490104D01*
X145030104Y-72339792D01*
X145030106Y-72339788D01*
X145030109Y-72339786D01*
X145155048Y-72167820D01*
X145155047Y-72167820D01*
X145155051Y-72167816D01*
X145251557Y-71978412D01*
X145317246Y-71776243D01*
X145350500Y-71566287D01*
X145350500Y-71353713D01*
X145317246Y-71143757D01*
X145251557Y-70941588D01*
X145155051Y-70752184D01*
X145155049Y-70752181D01*
X145155048Y-70752179D01*
X145030109Y-70580213D01*
X144916569Y-70466673D01*
X144883084Y-70405350D01*
X144888068Y-70335658D01*
X144929940Y-70279725D01*
X144960915Y-70262810D01*
X145092331Y-70213796D01*
X145207546Y-70127546D01*
X145293796Y-70012331D01*
X145344091Y-69877483D01*
X145350500Y-69817873D01*
X145350499Y-68022128D01*
X145344091Y-67962517D01*
X145293796Y-67827669D01*
X145293795Y-67827668D01*
X145293793Y-67827664D01*
X145207547Y-67712455D01*
X145207544Y-67712452D01*
X145092335Y-67626206D01*
X145092328Y-67626202D01*
X144957482Y-67575908D01*
X144957483Y-67575908D01*
X144897883Y-67569501D01*
X144897881Y-67569500D01*
X144897873Y-67569500D01*
X144897864Y-67569500D01*
X143102129Y-67569500D01*
X143102123Y-67569501D01*
X143042516Y-67575908D01*
X142907671Y-67626202D01*
X142907664Y-67626206D01*
X142792455Y-67712452D01*
X142792452Y-67712455D01*
X142706206Y-67827664D01*
X142706202Y-67827671D01*
X142655908Y-67962517D01*
X142652354Y-67995580D01*
X142649501Y-68022123D01*
X142649500Y-68022135D01*
X141500500Y-68022135D01*
X141500500Y-68004427D01*
X141500816Y-67995581D01*
X141512825Y-67827671D01*
X141515130Y-67795436D01*
X141517646Y-67777938D01*
X141559356Y-67586199D01*
X141564333Y-67569248D01*
X141632911Y-67385385D01*
X141640259Y-67369298D01*
X141702815Y-67254734D01*
X141734291Y-67197089D01*
X141743845Y-67182221D01*
X141861448Y-67025123D01*
X141873020Y-67011769D01*
X142011769Y-66873020D01*
X142025123Y-66861448D01*
X142182221Y-66743845D01*
X142197089Y-66734291D01*
X142369298Y-66640258D01*
X142385385Y-66632911D01*
X142569248Y-66564333D01*
X142586199Y-66559356D01*
X142777938Y-66517646D01*
X142795436Y-66515130D01*
X142995582Y-66500816D01*
X143004428Y-66500500D01*
X143065892Y-66500500D01*
X154934108Y-66500500D01*
X154995572Y-66500500D01*
X155004418Y-66500816D01*
G37*
%TD.AperFunction*%
%TD*%
M02*
