M48
; DRILL file {KiCad 9.0.5} date 2026-01-19T15:21:22+1300
; FORMAT={-:-/ absolute / metric / decimal}
; #@! TF.CreationDate,2026-01-19T15:21:22+13:00
; #@! TF.GenerationSoftware,Kicad,Pcbnew,9.0.5
; #@! TF.FileFunction,Plated,1,2,PTH
FMAT,2
METRIC
; #@! TA.AperFunction,Plated,PTH,ViaDrill
T1C0.400
; #@! TA.AperFunction,Plated,PTH,ComponentDrill
T2C0.500
; #@! TA.AperFunction,Plated,PTH,ComponentDrill
T3C1.000
%
G90
G05
T1
X146.75Y-90.5
X147.9Y-84.4
X148.25Y-89.5
X149.25Y-90.75
X149.5Y-94.25
X152.25Y-93.75
T2
X151.05Y-76.875
X151.05Y-78.125
X151.05Y-79.375
X151.05Y-80.625
X151.05Y-81.875
X151.05Y-83.125
X151.05Y-84.375
X151.05Y-85.625
X151.05Y-86.875
X151.05Y-88.125
X151.05Y-89.375
X151.05Y-90.625
X151.05Y-91.875
X151.05Y-93.125
T3
X144.0Y-68.92
X144.0Y-71.46
X144.0Y-74.0
X144.0Y-76.54
X144.0Y-79.08
X144.0Y-81.62
X144.0Y-84.16
X144.0Y-86.7
X144.0Y-89.24
X144.0Y-91.78
X144.0Y-94.32
X144.0Y-96.86
X144.0Y-99.4
X144.0Y-101.94
M30
