%TF.GenerationSoftware,KiCad,Pcbnew,9.0.5*%
%TF.CreationDate,2026-02-08T18:27:30+13:00*%
%TF.ProjectId,ERM_PCB,45524d5f-5043-4422-9e6b-696361645f70,rev?*%
%TF.SameCoordinates,Original*%
%TF.FileFunction,Legend,Top*%
%TF.FilePolarity,Positive*%
%FSLAX46Y46*%
G04 Gerber Fmt 4.6, Leading zero omitted, Abs format (unit mm)*
G04 Created by KiCad (PCBNEW 9.0.5) date 2026-02-08 18:27:30*
%MOMM*%
%LPD*%
G01*
G04 APERTURE LIST*
%ADD10C,0.150000*%
%ADD11C,0.120000*%
%ADD12C,0.100000*%
G04 APERTURE END LIST*
D10*
X192586779Y-94736065D02*
X192920112Y-94736065D01*
X193062969Y-95259875D02*
X192586779Y-95259875D01*
X192586779Y-95259875D02*
X192586779Y-94259875D01*
X192586779Y-94259875D02*
X193062969Y-94259875D01*
X194062969Y-95259875D02*
X193729636Y-94783684D01*
X193491541Y-95259875D02*
X193491541Y-94259875D01*
X193491541Y-94259875D02*
X193872493Y-94259875D01*
X193872493Y-94259875D02*
X193967731Y-94307494D01*
X193967731Y-94307494D02*
X194015350Y-94355113D01*
X194015350Y-94355113D02*
X194062969Y-94450351D01*
X194062969Y-94450351D02*
X194062969Y-94593208D01*
X194062969Y-94593208D02*
X194015350Y-94688446D01*
X194015350Y-94688446D02*
X193967731Y-94736065D01*
X193967731Y-94736065D02*
X193872493Y-94783684D01*
X193872493Y-94783684D02*
X193491541Y-94783684D01*
X194491541Y-95259875D02*
X194491541Y-94259875D01*
X194491541Y-94259875D02*
X194824874Y-94974160D01*
X194824874Y-94974160D02*
X195158207Y-94259875D01*
X195158207Y-94259875D02*
X195158207Y-95259875D01*
X192443922Y-95869819D02*
X192777255Y-96869819D01*
X192777255Y-96869819D02*
X193110588Y-95869819D01*
X193396303Y-95965057D02*
X193443922Y-95917438D01*
X193443922Y-95917438D02*
X193539160Y-95869819D01*
X193539160Y-95869819D02*
X193777255Y-95869819D01*
X193777255Y-95869819D02*
X193872493Y-95917438D01*
X193872493Y-95917438D02*
X193920112Y-95965057D01*
X193920112Y-95965057D02*
X193967731Y-96060295D01*
X193967731Y-96060295D02*
X193967731Y-96155533D01*
X193967731Y-96155533D02*
X193920112Y-96298390D01*
X193920112Y-96298390D02*
X193348684Y-96869819D01*
X193348684Y-96869819D02*
X193967731Y-96869819D01*
X194396303Y-96774580D02*
X194443922Y-96822200D01*
X194443922Y-96822200D02*
X194396303Y-96869819D01*
X194396303Y-96869819D02*
X194348684Y-96822200D01*
X194348684Y-96822200D02*
X194396303Y-96774580D01*
X194396303Y-96774580D02*
X194396303Y-96869819D01*
X195396302Y-96869819D02*
X194824874Y-96869819D01*
X195110588Y-96869819D02*
X195110588Y-95869819D01*
X195110588Y-95869819D02*
X195015350Y-96012676D01*
X195015350Y-96012676D02*
X194920112Y-96107914D01*
X194920112Y-96107914D02*
X194824874Y-96155533D01*
D11*
%TO.C,J1*%
X184690000Y-109440000D02*
X196410000Y-109440000D01*
X184690000Y-113250000D02*
X184690000Y-109440000D01*
X184690000Y-113250000D02*
X184690000Y-117060000D01*
X184690000Y-117060000D02*
X196410000Y-117060000D01*
X185300000Y-111750000D02*
X185300000Y-112250000D01*
X185300000Y-112250000D02*
X190800000Y-112250000D01*
X185300000Y-114250000D02*
X185300000Y-114750000D01*
X185300000Y-114750000D02*
X190800000Y-114750000D01*
X190800000Y-111750000D02*
X185300000Y-111750000D01*
X190800000Y-112250000D02*
X190800000Y-111750000D01*
X190800000Y-114250000D02*
X185300000Y-114250000D01*
X190800000Y-114750000D02*
X190800000Y-114250000D01*
X193900000Y-112000000D02*
X194500000Y-111700000D01*
X194500000Y-111700000D02*
X194500000Y-112300000D01*
X194500000Y-112300000D02*
X193900000Y-112000000D01*
X196410000Y-109440000D02*
X196410000Y-110860000D01*
X196410000Y-110860000D02*
X191910000Y-110860000D01*
X196410000Y-115640000D02*
X191910000Y-115640000D01*
X196410000Y-117060000D02*
X196410000Y-115640000D01*
%TO.C,R1*%
X192727500Y-91987258D02*
X192727500Y-91512742D01*
X193772500Y-91987258D02*
X193772500Y-91512742D01*
%TO.C,C2*%
X195240000Y-86384419D02*
X195240000Y-86665581D01*
X196260000Y-86384419D02*
X196260000Y-86665581D01*
%TO.C,R2*%
X189977500Y-91987258D02*
X189977500Y-91512742D01*
X191022500Y-91987258D02*
X191022500Y-91512742D01*
D12*
%TO.C,L1*%
X187450001Y-98000000D02*
X187450001Y-100500000D01*
X187450001Y-98000000D02*
X189950001Y-98000000D01*
X187450001Y-108000000D02*
X187450001Y-105500000D01*
X187450001Y-108000000D02*
X189950001Y-108000000D01*
X196550001Y-98000000D02*
X194050001Y-98000000D01*
X196550001Y-98000000D02*
X196550001Y-100500000D01*
X196550001Y-108000000D02*
X194050001Y-108000000D01*
X196550001Y-108000000D02*
X196550001Y-105500000D01*
D11*
%TO.C,R3*%
X187477500Y-75237258D02*
X187477500Y-74762742D01*
X188522500Y-75237258D02*
X188522500Y-74762742D01*
%TO.C,J2*%
X189440000Y-118790000D02*
X189440000Y-126610000D01*
X189440000Y-120390000D02*
X190360000Y-120390000D01*
X189440000Y-126610000D02*
X195560000Y-126610000D01*
X190200000Y-122750000D02*
X190200000Y-124350000D01*
X190200000Y-124350000D02*
X191200000Y-124350000D01*
X190360000Y-118790000D02*
X189440000Y-118790000D01*
X190360000Y-120390000D02*
X190360000Y-118790000D01*
X190640000Y-120390000D02*
X190360000Y-120390000D01*
X190640000Y-120390000D02*
X190640000Y-119175000D01*
X190700000Y-124350000D02*
X190700000Y-126610000D01*
X191200000Y-122750000D02*
X190200000Y-122750000D01*
X191200000Y-124350000D02*
X191200000Y-122750000D01*
X191200000Y-124350000D02*
X191200000Y-126610000D01*
X192000000Y-122250000D02*
X193000000Y-122250000D01*
X192000000Y-126610000D02*
X192000000Y-122250000D01*
X193000000Y-122250000D02*
X193000000Y-126610000D01*
X193800000Y-122750000D02*
X194800000Y-122750000D01*
X193800000Y-124350000D02*
X193800000Y-122750000D01*
X194640000Y-118790000D02*
X194640000Y-120390000D01*
X194640000Y-120390000D02*
X194360000Y-120390000D01*
X194800000Y-122750000D02*
X194800000Y-124350000D01*
X194800000Y-124350000D02*
X193800000Y-124350000D01*
X195560000Y-118790000D02*
X194640000Y-118790000D01*
X195560000Y-120390000D02*
X194640000Y-120390000D01*
X195560000Y-126610000D02*
X195560000Y-118790000D01*
%TO.C,Q2*%
X189427500Y-84490000D02*
X190947500Y-84490000D01*
X189427500Y-84540000D02*
X189427500Y-84490000D01*
X189427500Y-86440000D02*
X189427500Y-85660000D01*
X189427500Y-87610000D02*
X189427500Y-87560000D01*
X190947500Y-84490000D02*
X190947500Y-85490000D01*
X190947500Y-86610000D02*
X190947500Y-87610000D01*
X190947500Y-87610000D02*
X189427500Y-87610000D01*
X189127500Y-86000000D02*
X188647500Y-86000000D01*
X188887500Y-85670000D01*
X189127500Y-86000000D01*
G36*
X189127500Y-86000000D02*
G01*
X188647500Y-86000000D01*
X188887500Y-85670000D01*
X189127500Y-86000000D01*
G37*
%TO.C,J3*%
X186990000Y-70440000D02*
X186990000Y-71860000D01*
X186990000Y-71860000D02*
X191490000Y-71860000D01*
X186990000Y-81640000D02*
X191490000Y-81640000D01*
X186990000Y-83060000D02*
X186990000Y-81640000D01*
X188900000Y-80200000D02*
X189500000Y-80500000D01*
X188900000Y-80800000D02*
X188900000Y-80200000D01*
X189500000Y-80500000D02*
X188900000Y-80800000D01*
X192600000Y-72750000D02*
X192600000Y-73250000D01*
X192600000Y-73250000D02*
X198100000Y-73250000D01*
X192600000Y-75250000D02*
X192600000Y-75750000D01*
X192600000Y-75750000D02*
X198100000Y-75750000D01*
X192600000Y-77750000D02*
X192600000Y-78250000D01*
X192600000Y-78250000D02*
X198100000Y-78250000D01*
X192600000Y-80250000D02*
X192600000Y-80750000D01*
X192600000Y-80750000D02*
X198100000Y-80750000D01*
X198100000Y-73250000D02*
X198100001Y-72750000D01*
X198100000Y-75750000D02*
X198100001Y-75250000D01*
X198100000Y-77750000D02*
X192600000Y-77750000D01*
X198100000Y-78250000D02*
X198100000Y-77750000D01*
X198100000Y-80250000D02*
X192600000Y-80250000D01*
X198100000Y-80750000D02*
X198100000Y-80250000D01*
X198100001Y-72750000D02*
X192600000Y-72750000D01*
X198100001Y-75250000D02*
X192600000Y-75250000D01*
X198710000Y-70440000D02*
X186990000Y-70440000D01*
X198710000Y-76750000D02*
X198710000Y-70440000D01*
X198710000Y-76750000D02*
X198710000Y-83060000D01*
X198710000Y-83060000D02*
X186990000Y-83060000D01*
%TO.C,C1*%
X187290000Y-119459419D02*
X187290000Y-119740581D01*
X188310000Y-119459419D02*
X188310000Y-119740581D01*
%TO.C,R5*%
X188437742Y-67977500D02*
X188912258Y-67977500D01*
X188437742Y-69022500D02*
X188912258Y-69022500D01*
%TO.C,R4*%
X187477500Y-78762742D02*
X187477500Y-79237258D01*
X188522500Y-78762742D02*
X188522500Y-79237258D01*
%TO.C,D1*%
X190371250Y-67765000D02*
X190371250Y-69235000D01*
X190371250Y-69235000D02*
X192656250Y-69235000D01*
X192656250Y-67765000D02*
X190371250Y-67765000D01*
%TO.C,Q1*%
X188140000Y-95152500D02*
X188190000Y-95152500D01*
X188140000Y-96672500D02*
X188140000Y-95152500D01*
X189140000Y-96672500D02*
X188140000Y-96672500D01*
X189310000Y-95152500D02*
X190090000Y-95152500D01*
X191210000Y-95152500D02*
X191260000Y-95152500D01*
X191260000Y-95152500D02*
X191260000Y-96672500D01*
X191260000Y-96672500D02*
X190260000Y-96672500D01*
X190080000Y-94612500D02*
X189750000Y-94852500D01*
X189750000Y-94372500D01*
X190080000Y-94612500D01*
G36*
X190080000Y-94612500D02*
G01*
X189750000Y-94852500D01*
X189750000Y-94372500D01*
X190080000Y-94612500D01*
G37*
%TD*%
M02*
